0
SECTION
2
HEADER
999
*** POWERPCB  HEADER ***
9
$EXTMIN
10
-0.1635
20
-0.1525
9
$EXTMAX
10
8.8675
20
6.4625
9
$FILLMODE
70
0
9
$GRIDMODE
70
1
9
$GRIDUNIT
10
0.05
20
0.05
9
$INSBASE
10
-18
20
-18
9
$LIMCHECK
70
0
9
$PLINEWID
40
0.005
9
$SNAPMODE
70
1
9
$SNAPUNIT
10
0.005
20
0.005
9
$TEXTSIZE
40
0.075
9
$TEXTSTYLE
7
W0$01
9
$USERI1
70
102
9
$USERI2
70
0
9
$USERI5
70
150
9
$VIEWCTR
10
2.7276588189
20
1.7806035433
0
ENDSEC
0
SECTION
2
TABLES
999
*** POWERPCB  LTYPE ***
0
TABLE
2
LTYPE
70
2
0
LTYPE
2
CONTINUOUS
70
64
3
---
72
65
73
0
40
0
0
LTYPE
2
KEEPOUT_00011100$0
70
64
3
---
72
65
73
2
40
2
49
1
49
1
0
LTYPE
2
KEEPOUT_00011110$0
70
64
3
---
72
65
73
2
40
2
49
1
49
1
0
ENDTAB
999
*** POWERPCB  LAYER ***
0
TABLE
2
LAYER
70
37
0
LAYER
2
DBLAYERS
70
1
62
-4
6
CONTINUOUS
0
LAYER
2
BOARD_OUTLINE_00
70
0
62
4
6
CONTINUOUS
0
LAYER
2
2D_LINE_00
70
0
62
130
6
CONTINUOUS
0
LAYER
2
TEXT_01
70
0
62
130
6
CONTINUOUS
0
LAYER
2
TEXT_26
70
0
62
43
6
CONTINUOUS
0
LAYER
2
LABEL_INFO
70
1
62
-4
6
CONTINUOUS
0
LAYER
2
LABEL_ATTRIBUTE
70
1
62
-4
6
CONTINUOUS
0
LAYER
2
PART_TYPE_26
70
1
62
-43
6
CONTINUOUS
0
LAYER
2
PART_NAME_26
70
0
62
23
6
CONTINUOUS
0
LAYER
2
PART_INFO
70
1
62
-4
6
CONTINUOUS
0
LAYER
2
PART_PTS
70
1
62
-4
6
CONTINUOUS
0
LAYER
2
PART_TYPE_TOP
70
1
62
-250
6
CONTINUOUS
0
LAYER
2
SYM_NAME
70
1
62
-4
6
CONTINUOUS
0
LAYER
2
SYM_PART_NAME_26
70
1
62
-4
6
CONTINUOUS
0
LAYER
2
SYM_PART_TYPE_26
70
1
62
-4
6
CONTINUOUS
0
LAYER
2
SYM_TERMINAL
70
1
62
-4
6
CONTINUOUS
0
LAYER
2
PKG_INFO
70
1
62
-4
6
CONTINUOUS
0
LAYER
2
PART_TOP_2DLINE_26
70
0
62
43
6
CONTINUOUS
0
LAYER
2
TAG_01
70
0
62
4
6
CONTINUOUS
0
LAYER
2
TAG_00
70
0
62
4
6
CONTINUOUS
0
LAYER
2
DRIL_PLTE_THRU_01
70
0
62
146
6
CONTINUOUS
0
LAYER
2
DRIL_PLTE_THRU_02
70
0
62
3
6
CONTINUOUS
0
LAYER
2
DRIL_PLTE_THRU_03
70
0
62
2
6
CONTINUOUS
0
LAYER
2
DRIL_PLTE_THRU_04
70
0
62
23
6
CONTINUOUS
0
LAYER
2
PADS_INNER
70
0
62
130
6
CONTINUOUS
0
LAYER
2
PADS_BOT
70
0
62
231
6
CONTINUOUS
0
LAYER
2
PADS_TOP
70
0
62
130
6
CONTINUOUS
0
LAYER
2
DRIL_NPLTE_THRU_01
70
0
62
146
6
CONTINUOUS
0
LAYER
2
DRIL_NPLTE_THRU_02
70
0
62
3
6
CONTINUOUS
0
LAYER
2
DRIL_NPLTE_THRU_03
70
0
62
2
6
CONTINUOUS
0
LAYER
2
DRIL_NPLTE_THRU_04
70
0
62
23
6
CONTINUOUS
0
LAYER
2
KEEPOUT_01
70
0
62
2
6
CONTINUOUS
0
LAYER
2
KEEPOUT_-1
70
0
62
4
6
CONTINUOUS
0
LAYER
2
KEEPOUT_00
70
0
62
2
6
CONTINUOUS
0
LAYER
2
PART_TOP_2DLINE_27
70
0
62
136
6
CONTINUOUS
0
LAYER
2
PCB_PARAMS
70
1
62
-4
6
CONTINUOUS
0
LAYER
2
DRIL_SYMBOL
70
0
62
4
6
CONTINUOUS
0
ENDTAB
999
*** POWERPCB  TEXT STYLE ***
0
TABLE
2
STYLE
70
2
0
STYLE
2
W0$01
70
64
40
0
41
0.75
42
0
50
0
71
0
3
simplex
0
STYLE
2
W0$01R0
70
64
40
0
41
0.75
42
0
50
0
71
0
3
simplex
0
ENDTAB
0
ENDSEC
0
SECTION
2
BLOCKS
999
*** POWERPCB  DBLAYER ***
0
BLOCK
2
DBLAYERS
8
0
10
0
20
0
3
DBLAYERS
70
64
0
TEXT
8
DBLAYERS
10
0
20
-0.12
40
0.07
1
__It__Is__Job__Name__:=D3005H100_A.PCB
999
 *  1.Number             2.Type                  3.RouteColor
999
 *  4.ViaColor           5.PadColor              6.CopperColor
999
 *  7.2DLineColor        8.TextColor             9.ErrorColor
999
 * 10.TopComponentColor 11.BottomComponentColor 12.RoutingDirection
999
 * 13.LayerThickness    14.CopperThickness      15.Dielectric
999
 * 16.IsRouteable       17.IsVisible            18.IsSelectable
999
 * 19.IsPrepreg         20.AssSilkScreen        21.AssPasteMask
999
 * 22.AssSolderMask     23.AssAssembly
0
TEXT
8
DBLAYERS
10
0
20
-0.24
40
0.07
1
TOP:=1 1 11 27 27 11 27 27 12 8 0 0 567690 68580 4.3000001907 1 1 1 0 26 23 21 27 0 0 1 8 0 0 14 
0
TEXT
8
DBLAYERS
10
0
20
-0.36
40
0.07
1
Silkscreen Top:=26 3 30 30 30 30 30 30 30 30 30 2 0 0 0 0 1 1 0 -1 -1 -1 -1 0 0 0 20 30 30 30 
0
ENDBLK
999
*** POWERPCB  BOARD ***
0
BLOCK
2
BOARD_3
8
0
10
0
20
0
3
BOARD_3
70
64
0
POLYLINE
8
BOARD_OUTLINE_00
66
1
40
0.01
41
0.01
70
1
0
VERTEX
8
BOARD_OUTLINE_00
10
0
20
0
0
VERTEX
8
BOARD_OUTLINE_00
10
8.7
20
0
0
VERTEX
8
BOARD_OUTLINE_00
10
8.7
20
4
0
VERTEX
8
BOARD_OUTLINE_00
10
5.459
20
4
0
VERTEX
8
BOARD_OUTLINE_00
10
5.459
20
6.316
0
VERTEX
8
BOARD_OUTLINE_00
10
2.9
20
6.316
0
VERTEX
8
BOARD_OUTLINE_00
10
2.9
20
4
0
VERTEX
8
BOARD_OUTLINE_00
10
0
20
4
0
SEQEND
0
INSERT
2
SMOOTH_0$01
8
BOARD_OUTLINE_00
10
0
20
0
0
INSERT
2
SMOOTH_0$01
8
BOARD_OUTLINE_00
10
8.7
20
0
0
INSERT
2
SMOOTH_0$01
8
BOARD_OUTLINE_00
10
8.7
20
4
0
INSERT
2
SMOOTH_0$01
8
BOARD_OUTLINE_00
10
5.459
20
4
0
INSERT
2
SMOOTH_0$01
8
BOARD_OUTLINE_00
10
5.459
20
6.316
0
INSERT
2
SMOOTH_0$01
8
BOARD_OUTLINE_00
10
2.9
20
6.316
0
INSERT
2
SMOOTH_0$01
8
BOARD_OUTLINE_00
10
2.9
20
4
0
INSERT
2
SMOOTH_0$01
8
BOARD_OUTLINE_00
10
0
20
4
0
ENDBLK
999
*** POWERPCB  2DLINE ***
0
BLOCK
2
DRAWING_1
8
0
10
0
20
0
3
DRAWING_1
70
64
0
POLYLINE
8
2D_LINE_00
66
1
40
0.007
41
0.007
0
VERTEX
8
2D_LINE_00
10
0
20
0
0
VERTEX
8
2D_LINE_00
10
0
20
0.005
0
SEQEND
0
INSERT
2
SMOOTH_0$007
8
2D_LINE_00
10
0
20
0
0
INSERT
2
SMOOTH_0$007
8
2D_LINE_00
10
0
20
0.005
0
POLYLINE
8
2D_LINE_00
66
1
40
0.007
41
0.007
0
VERTEX
8
2D_LINE_00
10
0
20
0
0
VERTEX
8
2D_LINE_00
10
0.005
20
0
0
SEQEND
0
INSERT
2
SMOOTH_0$007
8
2D_LINE_00
10
0
20
0
0
INSERT
2
SMOOTH_0$007
8
2D_LINE_00
10
0.005
20
0
0
POLYLINE
8
2D_LINE_00
66
1
40
0.007
41
0.007
0
VERTEX
8
2D_LINE_00
10
0
20
0
0
VERTEX
8
2D_LINE_00
10
0
20
-0.005
0
SEQEND
0
INSERT
2
SMOOTH_0$007
8
2D_LINE_00
10
0
20
0
0
INSERT
2
SMOOTH_0$007
8
2D_LINE_00
10
0
20
-0.005
0
POLYLINE
8
2D_LINE_00
66
1
40
0.007
41
0.007
0
VERTEX
8
2D_LINE_00
10
0
20
0
0
VERTEX
8
2D_LINE_00
10
-0.005
20
0
0
SEQEND
0
INSERT
2
SMOOTH_0$007
8
2D_LINE_00
10
0
20
0
0
INSERT
2
SMOOTH_0$007
8
2D_LINE_00
10
-0.005
20
0
0
POLYLINE
8
2D_LINE_00
66
1
40
0.007
41
0.007
0
VERTEX
8
2D_LINE_00
10
0.015
20
0
0
VERTEX
8
2D_LINE_00
10
0.065
20
0
0
SEQEND
0
INSERT
2
SMOOTH_0$007
8
2D_LINE_00
10
0.015
20
0
0
INSERT
2
SMOOTH_0$007
8
2D_LINE_00
10
0.065
20
0
0
POLYLINE
8
2D_LINE_00
66
1
40
0.007
41
0.007
0
VERTEX
8
2D_LINE_00
10
0
20
-0.015
0
VERTEX
8
2D_LINE_00
10
0
20
-0.049
0
SEQEND
0
INSERT
2
SMOOTH_0$007
8
2D_LINE_00
10
0
20
-0.015
0
INSERT
2
SMOOTH_0$007
8
2D_LINE_00
10
0
20
-0.049
0
POLYLINE
8
2D_LINE_00
66
1
40
0.007
41
0.007
0
VERTEX
8
2D_LINE_00
10
0
20
0.015
0
VERTEX
8
2D_LINE_00
10
0
20
0.06
0
SEQEND
0
INSERT
2
SMOOTH_0$007
8
2D_LINE_00
10
0
20
0.015
0
INSERT
2
SMOOTH_0$007
8
2D_LINE_00
10
0
20
0.06
0
POLYLINE
8
2D_LINE_00
66
1
40
0.007
41
0.007
0
VERTEX
8
2D_LINE_00
10
-0.06
20
0
0
VERTEX
8
2D_LINE_00
10
-0.015
20
0
0
SEQEND
0
INSERT
2
SMOOTH_0$007
8
2D_LINE_00
10
-0.06
20
0
0
INSERT
2
SMOOTH_0$007
8
2D_LINE_00
10
-0.015
20
0
0
POLYLINE
8
2D_LINE_00
66
1
40
0.007
41
0.007
70
1
0
VERTEX
8
2D_LINE_00
10
0
20
-0.03
42
1
0
VERTEX
8
2D_LINE_00
10
0
20
0.03
42
1
0
SEQEND
0
POLYLINE
8
2D_LINE_00
66
1
40
0.007
41
0.007
70
1
0
VERTEX
8
2D_LINE_00
10
0
20
-0.02
42
1
0
VERTEX
8
2D_LINE_00
10
0
20
0.02
42
1
0
SEQEND
0
ENDBLK
0
BLOCK
2
DRAWING_2
8
0
10
0
20
0
3
DRAWING_2
70
64
0
POLYLINE
8
2D_LINE_00
66
1
40
0.007
41
0.007
0
VERTEX
8
2D_LINE_00
10
0
20
0
0
VERTEX
8
2D_LINE_00
10
0
20
0.005
0
SEQEND
0
INSERT
2
SMOOTH_0$007
8
2D_LINE_00
10
0
20
0
0
INSERT
2
SMOOTH_0$007
8
2D_LINE_00
10
0
20
0.005
0
POLYLINE
8
2D_LINE_00
66
1
40
0.007
41
0.007
0
VERTEX
8
2D_LINE_00
10
0
20
0
0
VERTEX
8
2D_LINE_00
10
0.005
20
0
0
SEQEND
0
INSERT
2
SMOOTH_0$007
8
2D_LINE_00
10
0
20
0
0
INSERT
2
SMOOTH_0$007
8
2D_LINE_00
10
0.005
20
0
0
POLYLINE
8
2D_LINE_00
66
1
40
0.007
41
0.007
0
VERTEX
8
2D_LINE_00
10
0
20
0
0
VERTEX
8
2D_LINE_00
10
0
20
-0.005
0
SEQEND
0
INSERT
2
SMOOTH_0$007
8
2D_LINE_00
10
0
20
0
0
INSERT
2
SMOOTH_0$007
8
2D_LINE_00
10
0
20
-0.005
0
POLYLINE
8
2D_LINE_00
66
1
40
0.007
41
0.007
0
VERTEX
8
2D_LINE_00
10
0
20
0
0
VERTEX
8
2D_LINE_00
10
-0.005
20
0
0
SEQEND
0
INSERT
2
SMOOTH_0$007
8
2D_LINE_00
10
0
20
0
0
INSERT
2
SMOOTH_0$007
8
2D_LINE_00
10
-0.005
20
0
0
POLYLINE
8
2D_LINE_00
66
1
40
0.007
41
0.007
0
VERTEX
8
2D_LINE_00
10
0.015
20
0
0
VERTEX
8
2D_LINE_00
10
0.065
20
0
0
SEQEND
0
INSERT
2
SMOOTH_0$007
8
2D_LINE_00
10
0.015
20
0
0
INSERT
2
SMOOTH_0$007
8
2D_LINE_00
10
0.065
20
0
0
POLYLINE
8
2D_LINE_00
66
1
40
0.007
41
0.007
0
VERTEX
8
2D_LINE_00
10
0
20
-0.015
0
VERTEX
8
2D_LINE_00
10
0
20
-0.049
0
SEQEND
0
INSERT
2
SMOOTH_0$007
8
2D_LINE_00
10
0
20
-0.015
0
INSERT
2
SMOOTH_0$007
8
2D_LINE_00
10
0
20
-0.049
0
POLYLINE
8
2D_LINE_00
66
1
40
0.007
41
0.007
0
VERTEX
8
2D_LINE_00
10
0
20
0.015
0
VERTEX
8
2D_LINE_00
10
0
20
0.06
0
SEQEND
0
INSERT
2
SMOOTH_0$007
8
2D_LINE_00
10
0
20
0.015
0
INSERT
2
SMOOTH_0$007
8
2D_LINE_00
10
0
20
0.06
0
POLYLINE
8
2D_LINE_00
66
1
40
0.007
41
0.007
0
VERTEX
8
2D_LINE_00
10
-0.06
20
0
0
VERTEX
8
2D_LINE_00
10
-0.015
20
0
0
SEQEND
0
INSERT
2
SMOOTH_0$007
8
2D_LINE_00
10
-0.06
20
0
0
INSERT
2
SMOOTH_0$007
8
2D_LINE_00
10
-0.015
20
0
0
POLYLINE
8
2D_LINE_00
66
1
40
0.007
41
0.007
70
1
0
VERTEX
8
2D_LINE_00
10
0
20
-0.03
42
1
0
VERTEX
8
2D_LINE_00
10
0
20
0.03
42
1
0
SEQEND
0
POLYLINE
8
2D_LINE_00
66
1
40
0.007
41
0.007
70
1
0
VERTEX
8
2D_LINE_00
10
0
20
-0.02
42
1
0
VERTEX
8
2D_LINE_00
10
0
20
0.02
42
1
0
SEQEND
0
ENDBLK
0
BLOCK
2
DRAWING_43
8
0
10
0
20
0
3
DRAWING_43
70
64
0
POLYLINE
8
2D_LINE_00
66
1
40
0.005
41
0.005
0
VERTEX
8
2D_LINE_00
10
0
20
0
0
VERTEX
8
2D_LINE_00
10
0
20
0.005
0
SEQEND
0
INSERT
2
SMOOTH_0$005
8
2D_LINE_00
10
0
20
0
0
INSERT
2
SMOOTH_0$005
8
2D_LINE_00
10
0
20
0.005
0
POLYLINE
8
2D_LINE_00
66
1
40
0.005
41
0.005
0
VERTEX
8
2D_LINE_00
10
0
20
0
0
VERTEX
8
2D_LINE_00
10
0.005
20
0
0
SEQEND
0
INSERT
2
SMOOTH_0$005
8
2D_LINE_00
10
0
20
0
0
INSERT
2
SMOOTH_0$005
8
2D_LINE_00
10
0.005
20
0
0
POLYLINE
8
2D_LINE_00
66
1
40
0.005
41
0.005
0
VERTEX
8
2D_LINE_00
10
0
20
0
0
VERTEX
8
2D_LINE_00
10
0
20
-0.005
0
SEQEND
0
INSERT
2
SMOOTH_0$005
8
2D_LINE_00
10
0
20
0
0
INSERT
2
SMOOTH_0$005
8
2D_LINE_00
10
0
20
-0.005
0
POLYLINE
8
2D_LINE_00
66
1
40
0.005
41
0.005
0
VERTEX
8
2D_LINE_00
10
0
20
0
0
VERTEX
8
2D_LINE_00
10
-0.005
20
0
0
SEQEND
0
INSERT
2
SMOOTH_0$005
8
2D_LINE_00
10
0
20
0
0
INSERT
2
SMOOTH_0$005
8
2D_LINE_00
10
-0.005
20
0
0
POLYLINE
8
2D_LINE_00
66
1
40
0.005
41
0.005
0
VERTEX
8
2D_LINE_00
10
0.015
20
0
0
VERTEX
8
2D_LINE_00
10
0.065
20
0
0
SEQEND
0
INSERT
2
SMOOTH_0$005
8
2D_LINE_00
10
0.015
20
0
0
INSERT
2
SMOOTH_0$005
8
2D_LINE_00
10
0.065
20
0
0
POLYLINE
8
2D_LINE_00
66
1
40
0.005
41
0.005
0
VERTEX
8
2D_LINE_00
10
0
20
-0.015
0
VERTEX
8
2D_LINE_00
10
0
20
-0.049
0
SEQEND
0
INSERT
2
SMOOTH_0$005
8
2D_LINE_00
10
0
20
-0.015
0
INSERT
2
SMOOTH_0$005
8
2D_LINE_00
10
0
20
-0.049
0
POLYLINE
8
2D_LINE_00
66
1
40
0.005
41
0.005
0
VERTEX
8
2D_LINE_00
10
0
20
0.015
0
VERTEX
8
2D_LINE_00
10
0
20
0.06
0
SEQEND
0
INSERT
2
SMOOTH_0$005
8
2D_LINE_00
10
0
20
0.015
0
INSERT
2
SMOOTH_0$005
8
2D_LINE_00
10
0
20
0.06
0
POLYLINE
8
2D_LINE_00
66
1
40
0.005
41
0.005
0
VERTEX
8
2D_LINE_00
10
-0.06
20
0
0
VERTEX
8
2D_LINE_00
10
-0.015
20
0
0
SEQEND
0
INSERT
2
SMOOTH_0$005
8
2D_LINE_00
10
-0.06
20
0
0
INSERT
2
SMOOTH_0$005
8
2D_LINE_00
10
-0.015
20
0
0
POLYLINE
8
2D_LINE_00
66
1
40
0.005
41
0.005
70
1
0
VERTEX
8
2D_LINE_00
10
0
20
-0.03
42
1
0
VERTEX
8
2D_LINE_00
10
0
20
0.03
42
1
0
SEQEND
0
POLYLINE
8
2D_LINE_00
66
1
40
0.005
41
0.005
70
1
0
VERTEX
8
2D_LINE_00
10
0
20
-0.02
42
1
0
VERTEX
8
2D_LINE_00
10
0
20
0.02
42
1
0
SEQEND
0
ENDBLK
0
BLOCK
2
DRAWING_44
8
0
10
0
20
0
3
DRAWING_44
70
64
0
POLYLINE
8
2D_LINE_00
66
1
40
0.005
41
0.005
0
VERTEX
8
2D_LINE_00
10
0
20
0
0
VERTEX
8
2D_LINE_00
10
0
20
0.005
0
SEQEND
0
INSERT
2
SMOOTH_0$005
8
2D_LINE_00
10
0
20
0
0
INSERT
2
SMOOTH_0$005
8
2D_LINE_00
10
0
20
0.005
0
POLYLINE
8
2D_LINE_00
66
1
40
0.005
41
0.005
0
VERTEX
8
2D_LINE_00
10
0
20
0
0
VERTEX
8
2D_LINE_00
10
0.005
20
0
0
SEQEND
0
INSERT
2
SMOOTH_0$005
8
2D_LINE_00
10
0
20
0
0
INSERT
2
SMOOTH_0$005
8
2D_LINE_00
10
0.005
20
0
0
POLYLINE
8
2D_LINE_00
66
1
40
0.005
41
0.005
0
VERTEX
8
2D_LINE_00
10
0
20
0
0
VERTEX
8
2D_LINE_00
10
0
20
-0.005
0
SEQEND
0
INSERT
2
SMOOTH_0$005
8
2D_LINE_00
10
0
20
0
0
INSERT
2
SMOOTH_0$005
8
2D_LINE_00
10
0
20
-0.005
0
POLYLINE
8
2D_LINE_00
66
1
40
0.005
41
0.005
0
VERTEX
8
2D_LINE_00
10
0
20
0
0
VERTEX
8
2D_LINE_00
10
-0.005
20
0
0
SEQEND
0
INSERT
2
SMOOTH_0$005
8
2D_LINE_00
10
0
20
0
0
INSERT
2
SMOOTH_0$005
8
2D_LINE_00
10
-0.005
20
0
0
POLYLINE
8
2D_LINE_00
66
1
40
0.005
41
0.005
0
VERTEX
8
2D_LINE_00
10
0.015
20
0
0
VERTEX
8
2D_LINE_00
10
0.065
20
0
0
SEQEND
0
INSERT
2
SMOOTH_0$005
8
2D_LINE_00
10
0.015
20
0
0
INSERT
2
SMOOTH_0$005
8
2D_LINE_00
10
0.065
20
0
0
POLYLINE
8
2D_LINE_00
66
1
40
0.005
41
0.005
0
VERTEX
8
2D_LINE_00
10
0
20
-0.015
0
VERTEX
8
2D_LINE_00
10
0
20
-0.049
0
SEQEND
0
INSERT
2
SMOOTH_0$005
8
2D_LINE_00
10
0
20
-0.015
0
INSERT
2
SMOOTH_0$005
8
2D_LINE_00
10
0
20
-0.049
0
POLYLINE
8
2D_LINE_00
66
1
40
0.005
41
0.005
0
VERTEX
8
2D_LINE_00
10
0
20
0.015
0
VERTEX
8
2D_LINE_00
10
0
20
0.06
0
SEQEND
0
INSERT
2
SMOOTH_0$005
8
2D_LINE_00
10
0
20
0.015
0
INSERT
2
SMOOTH_0$005
8
2D_LINE_00
10
0
20
0.06
0
POLYLINE
8
2D_LINE_00
66
1
40
0.005
41
0.005
0
VERTEX
8
2D_LINE_00
10
-0.06
20
0
0
VERTEX
8
2D_LINE_00
10
-0.015
20
0
0
SEQEND
0
INSERT
2
SMOOTH_0$005
8
2D_LINE_00
10
-0.06
20
0
0
INSERT
2
SMOOTH_0$005
8
2D_LINE_00
10
-0.015
20
0
0
POLYLINE
8
2D_LINE_00
66
1
40
0.005
41
0.005
70
1
0
VERTEX
8
2D_LINE_00
10
0
20
-0.03
42
1
0
VERTEX
8
2D_LINE_00
10
0
20
0.03
42
1
0
SEQEND
0
POLYLINE
8
2D_LINE_00
66
1
40
0.005
41
0.005
70
1
0
VERTEX
8
2D_LINE_00
10
0
20
-0.02
42
1
0
VERTEX
8
2D_LINE_00
10
0
20
0.02
42
1
0
SEQEND
0
ENDBLK
0
BLOCK
2
DRAWING_45
8
0
10
0
20
0
3
DRAWING_45
70
64
0
POLYLINE
8
2D_LINE_00
66
1
40
0.005
41
0.005
0
VERTEX
8
2D_LINE_00
10
0
20
0
0
VERTEX
8
2D_LINE_00
10
0
20
0.005
0
SEQEND
0
INSERT
2
SMOOTH_0$005
8
2D_LINE_00
10
0
20
0
0
INSERT
2
SMOOTH_0$005
8
2D_LINE_00
10
0
20
0.005
0
POLYLINE
8
2D_LINE_00
66
1
40
0.005
41
0.005
0
VERTEX
8
2D_LINE_00
10
0
20
0
0
VERTEX
8
2D_LINE_00
10
0.005
20
0
0
SEQEND
0
INSERT
2
SMOOTH_0$005
8
2D_LINE_00
10
0
20
0
0
INSERT
2
SMOOTH_0$005
8
2D_LINE_00
10
0.005
20
0
0
POLYLINE
8
2D_LINE_00
66
1
40
0.005
41
0.005
0
VERTEX
8
2D_LINE_00
10
0
20
0
0
VERTEX
8
2D_LINE_00
10
0
20
-0.005
0
SEQEND
0
INSERT
2
SMOOTH_0$005
8
2D_LINE_00
10
0
20
0
0
INSERT
2
SMOOTH_0$005
8
2D_LINE_00
10
0
20
-0.005
0
POLYLINE
8
2D_LINE_00
66
1
40
0.005
41
0.005
0
VERTEX
8
2D_LINE_00
10
0
20
0
0
VERTEX
8
2D_LINE_00
10
-0.005
20
0
0
SEQEND
0
INSERT
2
SMOOTH_0$005
8
2D_LINE_00
10
0
20
0
0
INSERT
2
SMOOTH_0$005
8
2D_LINE_00
10
-0.005
20
0
0
POLYLINE
8
2D_LINE_00
66
1
40
0.005
41
0.005
0
VERTEX
8
2D_LINE_00
10
0.015
20
0
0
VERTEX
8
2D_LINE_00
10
0.065
20
0
0
SEQEND
0
INSERT
2
SMOOTH_0$005
8
2D_LINE_00
10
0.015
20
0
0
INSERT
2
SMOOTH_0$005
8
2D_LINE_00
10
0.065
20
0
0
POLYLINE
8
2D_LINE_00
66
1
40
0.005
41
0.005
0
VERTEX
8
2D_LINE_00
10
0
20
-0.015
0
VERTEX
8
2D_LINE_00
10
0
20
-0.049
0
SEQEND
0
INSERT
2
SMOOTH_0$005
8
2D_LINE_00
10
0
20
-0.015
0
INSERT
2
SMOOTH_0$005
8
2D_LINE_00
10
0
20
-0.049
0
POLYLINE
8
2D_LINE_00
66
1
40
0.005
41
0.005
0
VERTEX
8
2D_LINE_00
10
0
20
0.015
0
VERTEX
8
2D_LINE_00
10
0
20
0.06
0
SEQEND
0
INSERT
2
SMOOTH_0$005
8
2D_LINE_00
10
0
20
0.015
0
INSERT
2
SMOOTH_0$005
8
2D_LINE_00
10
0
20
0.06
0
POLYLINE
8
2D_LINE_00
66
1
40
0.005
41
0.005
0
VERTEX
8
2D_LINE_00
10
-0.06
20
0
0
VERTEX
8
2D_LINE_00
10
-0.015
20
0
0
SEQEND
0
INSERT
2
SMOOTH_0$005
8
2D_LINE_00
10
-0.06
20
0
0
INSERT
2
SMOOTH_0$005
8
2D_LINE_00
10
-0.015
20
0
0
POLYLINE
8
2D_LINE_00
66
1
40
0.005
41
0.005
70
1
0
VERTEX
8
2D_LINE_00
10
0
20
-0.03
42
1
0
VERTEX
8
2D_LINE_00
10
0
20
0.03
42
1
0
SEQEND
0
POLYLINE
8
2D_LINE_00
66
1
40
0.005
41
0.005
70
1
0
VERTEX
8
2D_LINE_00
10
0
20
-0.02
42
1
0
VERTEX
8
2D_LINE_00
10
0
20
0.02
42
1
0
SEQEND
0
ENDBLK
999
*** POWERPCB  COMPONENT ***
0
BLOCK
2
PART_TOP_131
8
0
10
0
20
0
3
PART_TOP_131
70
64
0
INSERT
2
SYM_TOP_13
8
0
10
0
20
0
0
INSERT
2
PKG_18
8
0
10
0
20
0
0
TEXT
8
LABEL_INFO
10
0
20
-0.16
40
0.07
1
0 0 1 0 0 1
72
1
11
0
21
-0.16
41
0.75
7
W0$01
0
TEXT
8
LABEL_ATTRIBUTE
10
0
20
-0.16
40
0.07
1
PartType
72
1
11
0
21
-0.16
41
0.75
7
W0$01
0
TEXT
8
PART_TYPE_26
10
0
20
-0.16
40
0.07
1
CON_344201
72
1
11
0
21
-0.16
41
0.75
7
W0$01
0
TEXT
8
LABEL_INFO
10
-0.365
20
0.34
40
0.14
1
0 0 0 0 0 1
41
0.75
7
W0$01
0
TEXT
8
LABEL_ATTRIBUTE
10
-0.365
20
0.34
40
0.14
1
Ref.Des.
41
0.75
7
W0$01
0
TEXT
8
PART_NAME_26
10
-0.365
20
0.34
40
0.14
1
JS1
41
0.75
7
W0$01
0
TEXT
8
PART_INFO
10
-0.365
20
0.14
40
0.14
1
000010
41
0.75
7
W0$01
0
TEXT
8
PART_PTS
10
-0.365
20
-0.06
40
0.14
1
1 2 
41
0.75
7
W0$01
0
ENDBLK
0
BLOCK
2
PART_TOP_132
8
0
10
0
20
0
3
PART_TOP_132
70
64
0
INSERT
2
SYM_TOP_13
8
0
10
0
20
0
0
INSERT
2
PKG_18
8
0
10
0
20
0
0
TEXT
8
LABEL_INFO
10
0
20
-0.16
40
0.07
1
0 0 1 0 0 1
72
1
11
0
21
-0.16
41
0.75
7
W0$01
0
TEXT
8
LABEL_ATTRIBUTE
10
0
20
-0.16
40
0.07
1
PartType
72
1
11
0
21
-0.16
41
0.75
7
W0$01
0
TEXT
8
PART_TYPE_26
10
0
20
-0.16
40
0.07
1
CON_344201
72
1
11
0
21
-0.16
41
0.75
7
W0$01
0
TEXT
8
LABEL_INFO
10
-0.115
20
0.34
40
0.14
1
0 0 0 0 0 1
41
0.75
7
W0$01
0
TEXT
8
LABEL_ATTRIBUTE
10
-0.115
20
0.34
40
0.14
1
Ref.Des.
41
0.75
7
W0$01
0
TEXT
8
PART_NAME_26
10
-0.115
20
0.34
40
0.14
1
JS2
41
0.75
7
W0$01
0
TEXT
8
PART_INFO
10
-0.115
20
0.14
40
0.14
1
000010
41
0.75
7
W0$01
0
TEXT
8
PART_PTS
10
-0.115
20
-0.06
40
0.14
1
1 2 
41
0.75
7
W0$01
0
ENDBLK
0
BLOCK
2
PART_TOP_141
8
0
10
0
20
0
3
PART_TOP_141
70
64
0
INSERT
2
SYM_TOP_17
8
0
10
0
20
0
0
INSERT
2
PKG_22
8
0
10
0
20
0
0
TEXT
8
LABEL_INFO
10
-0.0049999738
20
-0.18
40
0.14
1
0 324000000 1 0 0 1
72
1
11
-0.0049999738
21
-0.18
50
180
41
0.75
7
W0$01
0
TEXT
8
LABEL_ATTRIBUTE
10
-0.0049999738
20
-0.18
40
0.14
1
Ref.Des.
72
1
11
-0.0049999738
21
-0.18
50
180
41
0.75
7
W0$01
0
TEXT
8
PART_NAME_26
10
-0.0049999738
20
-0.18
40
0.14
1
LD1
72
1
11
-0.0049999738
21
-0.18
50
180
41
0.75
7
W0$01
0
TEXT
8
PART_TYPE_TOP
10
-0.0049999738
20
-0.38
40
0.14
1
LED_128327
72
1
11
-0.0049999738
21
-0.38
50
180
41
0.75
7
W0$01
0
TEXT
8
PART_INFO
10
-0.0049999738
20
-0.58
40
0.14
1
000000
72
1
11
-0.0049999738
21
-0.58
50
180
41
0.75
7
W0$01
0
TEXT
8
PART_PTS
10
-0.0049999738
20
-0.78
40
0.14
1
1 2 
72
1
11
-0.0049999738
21
-0.78
50
180
41
0.75
7
W0$01
0
ENDBLK
0
BLOCK
2
PART_TOP_259
8
0
10
0
20
0
3
PART_TOP_259
70
64
0
INSERT
2
SYM_TOP_27
8
0
10
0
20
0
0
INSERT
2
PKG_45
8
0
10
0
20
0
0
TEXT
8
LABEL_INFO
10
0
20
0.35
40
0.14
1
0 0 1 0 0 1
72
1
11
0
21
0.35
41
0.75
7
W0$01
0
TEXT
8
LABEL_ATTRIBUTE
10
0
20
0.35
40
0.14
1
Ref.Des.
72
1
11
0
21
0.35
41
0.75
7
W0$01
0
TEXT
8
PART_NAME_26
10
0
20
0.35
40
0.14
1
SW3
72
1
11
0
21
0.35
41
0.75
7
W0$01
0
TEXT
8
LABEL_INFO
10
0.01
20
-0.025
40
0.07
1
0 0 1 0 0 1
72
1
11
0.01
21
-0.025
41
0.75
7
W0$01
0
TEXT
8
LABEL_ATTRIBUTE
10
0.01
20
-0.025
40
0.07
1
PartType
72
1
11
0.01
21
-0.025
41
0.75
7
W0$01
0
TEXT
8
PART_TYPE_26
10
0.01
20
-0.025
40
0.07
1
SWI_200050
72
1
11
0.01
21
-0.025
41
0.75
7
W0$01
0
TEXT
8
PART_INFO
10
0.01
20
-0.125
40
0.07
1
000010
72
1
11
0.01
21
-0.125
41
0.75
7
W0$01
0
TEXT
8
PART_PTS
10
0.01
20
-0.225
40
0.07
1
1 2 3 6 7 
72
1
11
0.01
21
-0.225
41
0.75
7
W0$01
0
ENDBLK
0
BLOCK
2
PART_TOP_260
8
0
10
0
20
0
3
PART_TOP_260
70
64
0
INSERT
2
SYM_TOP_27
8
0
10
0
20
0
0
INSERT
2
PKG_45
8
0
10
0
20
0
0
TEXT
8
LABEL_INFO
10
0
20
0.35
40
0.14
1
0 0 1 0 0 1
72
1
11
0
21
0.35
41
0.75
7
W0$01
0
TEXT
8
LABEL_ATTRIBUTE
10
0
20
0.35
40
0.14
1
Ref.Des.
72
1
11
0
21
0.35
41
0.75
7
W0$01
0
TEXT
8
PART_NAME_26
10
0
20
0.35
40
0.14
1
SW4
72
1
11
0
21
0.35
41
0.75
7
W0$01
0
TEXT
8
LABEL_INFO
10
0.01
20
-0.025
40
0.07
1
0 0 1 0 0 1
72
1
11
0.01
21
-0.025
41
0.75
7
W0$01
0
TEXT
8
LABEL_ATTRIBUTE
10
0.01
20
-0.025
40
0.07
1
PartType
72
1
11
0.01
21
-0.025
41
0.75
7
W0$01
0
TEXT
8
PART_TYPE_26
10
0.01
20
-0.025
40
0.07
1
SWI_200050
72
1
11
0.01
21
-0.025
41
0.75
7
W0$01
0
TEXT
8
PART_INFO
10
0.01
20
-0.125
40
0.07
1
000010
72
1
11
0.01
21
-0.125
41
0.75
7
W0$01
0
TEXT
8
PART_PTS
10
0.01
20
-0.225
40
0.07
1
1 2 3 6 7 
72
1
11
0.01
21
-0.225
41
0.75
7
W0$01
0
ENDBLK
0
BLOCK
2
PART_TOP_261
8
0
10
0
20
0
3
PART_TOP_261
70
64
0
INSERT
2
SYM_TOP_27
8
0
10
0
20
0
0
INSERT
2
PKG_45
8
0
10
0
20
0
0
TEXT
8
LABEL_INFO
10
-0.02
20
0.345
40
0.14
1
0 0 1 0 0 1
72
1
11
-0.02
21
0.345
41
0.75
7
W0$01
0
TEXT
8
LABEL_ATTRIBUTE
10
-0.02
20
0.345
40
0.14
1
Ref.Des.
72
1
11
-0.02
21
0.345
41
0.75
7
W0$01
0
TEXT
8
PART_NAME_26
10
-0.02
20
0.345
40
0.14
1
SW5
72
1
11
-0.02
21
0.345
41
0.75
7
W0$01
0
TEXT
8
LABEL_INFO
10
0.01
20
-0.025
40
0.07
1
0 0 1 0 0 1
72
1
11
0.01
21
-0.025
41
0.75
7
W0$01
0
TEXT
8
LABEL_ATTRIBUTE
10
0.01
20
-0.025
40
0.07
1
PartType
72
1
11
0.01
21
-0.025
41
0.75
7
W0$01
0
TEXT
8
PART_TYPE_26
10
0.01
20
-0.025
40
0.07
1
SWI_200050
72
1
11
0.01
21
-0.025
41
0.75
7
W0$01
0
TEXT
8
PART_INFO
10
0.01
20
-0.125
40
0.07
1
000010
72
1
11
0.01
21
-0.125
41
0.75
7
W0$01
0
TEXT
8
PART_PTS
10
0.01
20
-0.225
40
0.07
1
1 2 3 6 7 
72
1
11
0.01
21
-0.225
41
0.75
7
W0$01
0
ENDBLK
0
BLOCK
2
PART_TOP_262
8
0
10
0
20
0
3
PART_TOP_262
70
64
0
INSERT
2
SYM_TOP_27
8
0
10
0
20
0
0
INSERT
2
PKG_45
8
0
10
0
20
0
0
TEXT
8
LABEL_INFO
10
0
20
0.35
40
0.14
1
0 0 1 0 0 1
72
1
11
0
21
0.35
41
0.75
7
W0$01
0
TEXT
8
LABEL_ATTRIBUTE
10
0
20
0.35
40
0.14
1
Ref.Des.
72
1
11
0
21
0.35
41
0.75
7
W0$01
0
TEXT
8
PART_NAME_26
10
0
20
0.35
40
0.14
1
SW6
72
1
11
0
21
0.35
41
0.75
7
W0$01
0
TEXT
8
LABEL_INFO
10
0.01
20
-0.025
40
0.07
1
0 0 1 0 0 1
72
1
11
0.01
21
-0.025
41
0.75
7
W0$01
0
TEXT
8
LABEL_ATTRIBUTE
10
0.01
20
-0.025
40
0.07
1
PartType
72
1
11
0.01
21
-0.025
41
0.75
7
W0$01
0
TEXT
8
PART_TYPE_26
10
0.01
20
-0.025
40
0.07
1
SWI_200050
72
1
11
0.01
21
-0.025
41
0.75
7
W0$01
0
TEXT
8
PART_INFO
10
0.01
20
-0.125
40
0.07
1
000010
72
1
11
0.01
21
-0.125
41
0.75
7
W0$01
0
TEXT
8
PART_PTS
10
0.01
20
-0.225
40
0.07
1
1 2 3 6 7 
72
1
11
0.01
21
-0.225
41
0.75
7
W0$01
0
ENDBLK
0
BLOCK
2
PART_TOP_263
8
0
10
0
20
0
3
PART_TOP_263
70
64
0
INSERT
2
SYM_TOP_28
8
0
10
0
20
0
0
INSERT
2
PKG_46
8
0
10
0
20
0
0
TEXT
8
LABEL_INFO
10
0
20
-0.45
40
0.07
1
0 0 1 0 0 1
72
1
11
0
21
-0.45
41
0.75
7
W0$01
0
TEXT
8
LABEL_ATTRIBUTE
10
0
20
-0.45
40
0.07
1
PartType
72
1
11
0
21
-0.45
41
0.75
7
W0$01
0
TEXT
8
PART_TYPE_26
10
0
20
-0.45
40
0.07
1
SWI_202036
72
1
11
0
21
-0.45
41
0.75
7
W0$01
0
TEXT
8
LABEL_INFO
10
-0.005
20
0.375
40
0.14
1
0 0 1 0 0 1
72
1
11
-0.005
21
0.375
41
0.75
7
W0$01
0
TEXT
8
LABEL_ATTRIBUTE
10
-0.005
20
0.375
40
0.14
1
Ref.Des.
72
1
11
-0.005
21
0.375
41
0.75
7
W0$01
0
TEXT
8
PART_NAME_26
10
-0.005
20
0.375
40
0.14
1
SW1
72
1
11
-0.005
21
0.375
41
0.75
7
W0$01
0
TEXT
8
PART_INFO
10
-0.005
20
0.175
40
0.14
1
000010
72
1
11
-0.005
21
0.175
41
0.75
7
W0$01
0
TEXT
8
PART_PTS
10
-0.005
20
-0.025
40
0.14
1
1 2 3 
72
1
11
-0.005
21
-0.025
41
0.75
7
W0$01
0
ENDBLK
0
BLOCK
2
PART_TOP_264
8
0
10
0
20
0
3
PART_TOP_264
70
64
0
INSERT
2
SYM_TOP_28
8
0
10
0
20
0
0
INSERT
2
PKG_46
8
0
10
0
20
0
0
TEXT
8
LABEL_INFO
10
0
20
-0.45
40
0.07
1
0 0 1 0 0 1
72
1
11
0
21
-0.45
41
0.75
7
W0$01
0
TEXT
8
LABEL_ATTRIBUTE
10
0
20
-0.45
40
0.07
1
PartType
72
1
11
0
21
-0.45
41
0.75
7
W0$01
0
TEXT
8
PART_TYPE_26
10
0
20
-0.45
40
0.07
1
SWI_202036
72
1
11
0
21
-0.45
41
0.75
7
W0$01
0
TEXT
8
LABEL_INFO
10
-0.005
20
0.375
40
0.14
1
0 0 1 0 0 1
72
1
11
-0.005
21
0.375
41
0.75
7
W0$01
0
TEXT
8
LABEL_ATTRIBUTE
10
-0.005
20
0.375
40
0.14
1
Ref.Des.
72
1
11
-0.005
21
0.375
41
0.75
7
W0$01
0
TEXT
8
PART_NAME_26
10
-0.005
20
0.375
40
0.14
1
SW2
72
1
11
-0.005
21
0.375
41
0.75
7
W0$01
0
TEXT
8
PART_INFO
10
-0.005
20
0.175
40
0.14
1
000010
72
1
11
-0.005
21
0.175
41
0.75
7
W0$01
0
TEXT
8
PART_PTS
10
-0.005
20
-0.025
40
0.14
1
1 2 3 
72
1
11
-0.005
21
-0.025
41
0.75
7
W0$01
0
ENDBLK
0
BLOCK
2
PART_TOP_314
8
0
10
0
20
0
3
PART_TOP_314
70
64
0
INSERT
2
SYM_TOP_36
8
0
10
0
20
0
0
INSERT
2
PKG_54
8
0
10
0
20
0
0
TEXT
8
LABEL_INFO
10
-0.165
20
0.265
40
0.07
1
0 0 1 1 0 1
72
1
73
1
11
-0.165
21
0.265
41
0.75
7
W0$01
0
TEXT
8
LABEL_ATTRIBUTE
10
-0.165
20
0.265
40
0.07
1
Ref.Des.
72
1
73
1
11
-0.165
21
0.265
41
0.75
7
W0$01
0
TEXT
8
PART_NAME_26
10
-0.165
20
0.265
40
0.07
1
X1
72
1
73
2
11
-0.165
21
0.265
41
0.75
7
W0$01
0
TEXT
8
LABEL_INFO
10
0.01
20
-0.185
40
0.07
1
0 0 1 0 0 1
72
1
11
0.01
21
-0.185
41
0.75
7
W0$01
0
TEXT
8
LABEL_ATTRIBUTE
10
0.01
20
-0.185
40
0.07
1
PartType
72
1
11
0.01
21
-0.185
41
0.75
7
W0$01
0
TEXT
8
PART_TYPE_26
10
0.01
20
-0.185
40
0.07
1
STANDOFF_150_250
72
1
11
0.01
21
-0.185
41
0.75
7
W0$01
0
TEXT
8
PART_INFO
10
0.01
20
-0.285
40
0.07
1
000010
72
1
11
0.01
21
-0.285
41
0.75
7
W0$01
0
ENDBLK
0
BLOCK
2
PART_TOP_315
8
0
10
0
20
0
3
PART_TOP_315
70
64
0
INSERT
2
SYM_TOP_36
8
0
10
0
20
0
0
INSERT
2
PKG_54
8
0
10
0
20
0
0
TEXT
8
LABEL_INFO
10
-0.135
20
-0.19
40
0.07
1
0 0 1 1 0 1
72
1
73
1
11
-0.135
21
-0.19
41
0.75
7
W0$01
0
TEXT
8
LABEL_ATTRIBUTE
10
-0.135
20
-0.19
40
0.07
1
Ref.Des.
72
1
73
1
11
-0.135
21
-0.19
41
0.75
7
W0$01
0
TEXT
8
PART_NAME_26
10
-0.135
20
-0.19
40
0.07
1
X2
72
1
73
2
11
-0.135
21
-0.19
41
0.75
7
W0$01
0
TEXT
8
LABEL_INFO
10
0.01
20
-0.185
40
0.07
1
0 0 1 0 0 1
72
1
11
0.01
21
-0.185
41
0.75
7
W0$01
0
TEXT
8
LABEL_ATTRIBUTE
10
0.01
20
-0.185
40
0.07
1
PartType
72
1
11
0.01
21
-0.185
41
0.75
7
W0$01
0
TEXT
8
PART_TYPE_26
10
0.01
20
-0.185
40
0.07
1
STANDOFF_150_250
72
1
11
0.01
21
-0.185
41
0.75
7
W0$01
0
TEXT
8
PART_INFO
10
0.01
20
-0.285
40
0.07
1
000010
72
1
11
0.01
21
-0.285
41
0.75
7
W0$01
0
ENDBLK
0
BLOCK
2
PART_TOP_316
8
0
10
0
20
0
3
PART_TOP_316
70
64
0
INSERT
2
SYM_TOP_36
8
0
10
0
20
0
0
INSERT
2
PKG_54
8
0
10
0
20
0
0
TEXT
8
LABEL_INFO
10
0.175
20
0.27
40
0.07
1
0 0 1 1 0 1
72
1
73
1
11
0.175
21
0.27
41
0.75
7
W0$01
0
TEXT
8
LABEL_ATTRIBUTE
10
0.175
20
0.27
40
0.07
1
Ref.Des.
72
1
73
1
11
0.175
21
0.27
41
0.75
7
W0$01
0
TEXT
8
PART_NAME_26
10
0.175
20
0.27
40
0.07
1
X3
72
1
73
2
11
0.175
21
0.27
41
0.75
7
W0$01
0
TEXT
8
LABEL_INFO
10
0.01
20
-0.185
40
0.07
1
0 0 1 0 0 1
72
1
11
0.01
21
-0.185
41
0.75
7
W0$01
0
TEXT
8
LABEL_ATTRIBUTE
10
0.01
20
-0.185
40
0.07
1
PartType
72
1
11
0.01
21
-0.185
41
0.75
7
W0$01
0
TEXT
8
PART_TYPE_26
10
0.01
20
-0.185
40
0.07
1
STANDOFF_150_250
72
1
11
0.01
21
-0.185
41
0.75
7
W0$01
0
TEXT
8
PART_INFO
10
0.01
20
-0.285
40
0.07
1
000010
72
1
11
0.01
21
-0.285
41
0.75
7
W0$01
0
ENDBLK
0
BLOCK
2
PART_TOP_317
8
0
10
0
20
0
3
PART_TOP_317
70
64
0
INSERT
2
SYM_TOP_36
8
0
10
0
20
0
0
INSERT
2
PKG_54
8
0
10
0
20
0
0
TEXT
8
LABEL_INFO
10
0.12
20
-0.215
40
0.07
1
0 0 1 1 0 1
72
1
73
1
11
0.12
21
-0.215
41
0.75
7
W0$01
0
TEXT
8
LABEL_ATTRIBUTE
10
0.12
20
-0.215
40
0.07
1
Ref.Des.
72
1
73
1
11
0.12
21
-0.215
41
0.75
7
W0$01
0
TEXT
8
PART_NAME_26
10
0.12
20
-0.215
40
0.07
1
X4
72
1
73
2
11
0.12
21
-0.215
41
0.75
7
W0$01
0
TEXT
8
LABEL_INFO
10
0.01
20
-0.185
40
0.07
1
0 0 1 0 0 1
72
1
11
0.01
21
-0.185
41
0.75
7
W0$01
0
TEXT
8
LABEL_ATTRIBUTE
10
0.01
20
-0.185
40
0.07
1
PartType
72
1
11
0.01
21
-0.185
41
0.75
7
W0$01
0
TEXT
8
PART_TYPE_26
10
0.01
20
-0.185
40
0.07
1
STANDOFF_150_250
72
1
11
0.01
21
-0.185
41
0.75
7
W0$01
0
TEXT
8
PART_INFO
10
0.01
20
-0.285
40
0.07
1
000010
72
1
11
0.01
21
-0.285
41
0.75
7
W0$01
0
ENDBLK
0
BLOCK
2
SYM_TOP_13
8
0
10
0
20
0
3
SYM_TOP_13
70
64
0
TEXT
8
SYM_NAME
10
0
20
0
40
0.0525
1
CON_344201
41
0.75
0
TEXT
8
SYM_PART_NAME_26
10
-0.115
20
0.34
40
0.07
1
 
41
0.75
7
W0$01R0
0
TEXT
8
SYM_PART_TYPE_26
10
0
20
-0.16
40
0.07
1
 
72
1
11
0
21
-0.16
41
0.75
7
W0$01R0
0
INSERT
2
PART_BODY_TOP_15
8
0
10
0
20
0
0
INSERT
2
STK_TOP_30
8
0
10
-0.1
20
0
0
TEXT
8
SYM_TERMINAL
10
0
20
-0.12
40
0.07
1
1
0
INSERT
2
STK_TOP_30
8
0
10
0
20
0
0
TEXT
8
SYM_TERMINAL
10
0
20
-0.24
40
0.07
1
2
0
INSERT
2
STK_TOP_31
8
0
10
0.2
20
0.2
0
TEXT
8
SYM_TERMINAL
10
0
20
-0.36
40
0.07
1
3
0
INSERT
2
STK_TOP_31
8
0
10
-0.2
20
-0.2
0
TEXT
8
SYM_TERMINAL
10
0
20
-0.48
40
0.07
1
4
0
ENDBLK
0
BLOCK
2
PKG_18
8
0
10
0
20
0
3
PKG_18
70
64
0
TEXT
8
PKG_INFO
10
0
20
0
40
0.07
1
*SYM:= 13
0
TEXT
8
PKG_INFO
10
0
20
-0.12
40
0.07
1
*PKG:= 0 CON_344201 SOC
0
TEXT
8
PKG_INFO
10
0
20
-0.24
40
0.07
1
*GATE:=0
0
TEXT
8
PKG_INFO
10
0
20
-0.36
40
0.07
1
*GATEPIN:= 0 9 1 G
0
TEXT
8
PKG_INFO
10
0
20
-0.48
40
0.07
1
*GATEPIN:= 0 9 2 S
0
ENDBLK
0
BLOCK
2
SYM_TOP_17
8
0
10
0
20
0
3
SYM_TOP_17
70
64
0
TEXT
8
SYM_NAME
10
0
20
0
40
0.0525
1
LED_128025
41
0.75
0
TEXT
8
SYM_PART_NAME_26
10
0.005
20
0.14
40
0.07
1
 
72
1
11
0.005
21
0.14
41
0.75
7
W0$01R0
0
INSERT
2
PART_BODY_TOP_19
8
0
10
0
20
0
0
INSERT
2
STK_TOP_36
8
0
10
-0.05
20
0
0
TEXT
8
SYM_TERMINAL
10
0
20
-0.12
40
0.07
1
1
0
INSERT
2
STK_TOP_36
8
0
10
0.05
20
0
0
TEXT
8
SYM_TERMINAL
10
0
20
-0.24
40
0.07
1
2
0
ENDBLK
0
BLOCK
2
PKG_22
8
0
10
0
20
0
3
PKG_22
70
64
0
TEXT
8
PKG_INFO
10
0
20
0
40
0.07
1
*SYM:= 17
0
TEXT
8
PKG_INFO
10
0
20
-0.12
40
0.07
1
*PKG:= 0 LED_128327 LED
0
TEXT
8
PKG_INFO
10
0
20
-0.24
40
0.07
1
*GATE:=0
0
TEXT
8
PKG_INFO
10
0
20
-0.36
40
0.07
1
*GATEPIN:= 0 9 1 K
0
TEXT
8
PKG_INFO
10
0
20
-0.48
40
0.07
1
*GATEPIN:= 0 9 2 A
0
ENDBLK
0
BLOCK
2
SYM_TOP_27
8
0
10
0
20
0
3
SYM_TOP_27
70
64
0
TEXT
8
SYM_NAME
10
0
20
0
40
0.0525
1
SWI_200050
41
0.75
0
TEXT
8
SYM_PART_TYPE_26
10
0.01
20
-0.025
40
0.07
1
 
72
1
11
0.01
21
-0.025
41
0.75
7
W0$01R0
0
TEXT
8
SYM_PART_NAME_26
10
0
20
0.35
40
0.07
1
 
72
1
11
0
21
0.35
41
0.75
7
W0$01R0
0
INSERT
2
PART_BODY_TOP_29
8
0
10
0
20
0
0
INSERT
2
STK_TOP_46
8
0
10
-0.0985
20
-0.295
0
TEXT
8
SYM_TERMINAL
10
0
20
-0.12
40
0.07
1
5
0
INSERT
2
STK_TOP_46
8
0
10
0
20
-0.295
0
TEXT
8
SYM_TERMINAL
10
0
20
-0.24
40
0.07
1
4
0
INSERT
2
STK_TOP_46
8
0
10
0.0985
20
-0.295
0
TEXT
8
SYM_TERMINAL
10
0
20
-0.36
40
0.07
1
3
0
INSERT
2
STK_TOP_47
8
0
10
-0.26
20
0.00028
0
TEXT
8
SYM_TERMINAL
10
0
20
-0.48
40
0.07
1
MT1
0
INSERT
2
STK_TOP_47
8
0
10
0.26
20
0
0
TEXT
8
SYM_TERMINAL
10
0
20
-0.6
40
0.07
1
MT2
0
INSERT
2
STK_TOP_48
8
0
10
0.0985
20
0.276
0
TEXT
8
SYM_TERMINAL
10
0
20
-0.72
40
0.07
1
2
0
INSERT
2
STK_TOP_48
8
0
10
-0.0985
20
0.276
0
TEXT
8
SYM_TERMINAL
10
0
20
-0.84
40
0.07
1
1
0
ENDBLK
0
BLOCK
2
PKG_45
8
0
10
0
20
0
3
PKG_45
70
64
0
TEXT
8
PKG_INFO
10
0
20
0
40
0.07
1
*SYM:= 27
0
TEXT
8
PKG_INFO
10
0
20
-0.12
40
0.07
1
*PKG:= 0 SWI_200050 SWI
0
TEXT
8
PKG_INFO
10
0
20
-0.24
40
0.07
1
*GATE:=0
0
TEXT
8
PKG_INFO
10
0
20
-0.36
40
0.07
1
*GATEPIN:= 0 9 1 <>
0
TEXT
8
PKG_INFO
10
0
20
-0.48
40
0.07
1
*GATEPIN:= 0 9 2 <>
0
TEXT
8
PKG_INFO
10
0
20
-0.6
40
0.07
1
*GATE:=0
0
TEXT
8
PKG_INFO
10
0
20
-0.72
40
0.07
1
*GATEPIN:= 0 9 5 C
0
TEXT
8
PKG_INFO
10
0
20
-0.84
40
0.07
1
*GATEPIN:= 0 9 4 A
0
TEXT
8
PKG_INFO
10
0
20
-0.96
40
0.07
1
*GATEPIN:= 0 9 3 B
0
ENDBLK
0
BLOCK
2
SYM_TOP_28
8
0
10
0
20
0
3
SYM_TOP_28
70
64
0
TEXT
8
SYM_NAME
10
0
20
0
40
0.0525
1
SWI_202036
41
0.75
0
TEXT
8
SYM_PART_NAME_26
10
-0.005
20
0.375
40
0.07
1
 
72
1
11
-0.005
21
0.375
41
0.75
7
W0$01R0
0
TEXT
8
SYM_PART_TYPE_26
10
0
20
-0.45
40
0.07
1
 
72
1
11
0
21
-0.45
41
0.75
7
W0$01R0
0
INSERT
2
PART_BODY_TOP_30
8
0
10
0
20
0
0
INSERT
2
STK_TOP_50
8
0
10
0
20
-0.185
0
TEXT
8
SYM_TERMINAL
10
0
20
-0.12
40
0.07
1
1
0
INSERT
2
STK_TOP_50
8
0
10
0
20
0
0
TEXT
8
SYM_TERMINAL
10
0
20
-0.24
40
0.07
1
2
0
INSERT
2
STK_TOP_50
8
0
10
0
20
0.185
0
TEXT
8
SYM_TERMINAL
10
0
20
-0.36
40
0.07
1
3
0
INSERT
2
STK_TOP_49
8
0
10
-0.0625
20
0.31
0
TEXT
8
SYM_TERMINAL
10
0
20
-0.48
40
0.07
1
7
0
INSERT
2
STK_TOP_49
8
0
10
0.0625
20
0.31
0
TEXT
8
SYM_TERMINAL
10
0
20
-0.6
40
0.07
1
8
0
INSERT
2
STK_TOP_49
8
0
10
-0.0625
20
-0.31
0
TEXT
8
SYM_TERMINAL
10
0
20
-0.72
40
0.07
1
9
0
INSERT
2
STK_TOP_49
8
0
10
0.0625
20
-0.31
0
TEXT
8
SYM_TERMINAL
10
0
20
-0.84
40
0.07
1
10
0
ENDBLK
0
BLOCK
2
PKG_46
8
0
10
0
20
0
3
PKG_46
70
64
0
TEXT
8
PKG_INFO
10
0
20
0
40
0.07
1
*SYM:= 28
0
TEXT
8
PKG_INFO
10
0
20
-0.12
40
0.07
1
*PKG:= 0 SWI_202036 SWI
0
TEXT
8
PKG_INFO
10
0
20
-0.24
40
0.07
1
*GATE:=1
0
TEXT
8
PKG_INFO
10
0
20
-0.36
40
0.07
1
*GATEPIN:= 0 9 2 <>
0
TEXT
8
PKG_INFO
10
0
20
-0.48
40
0.07
1
*GATEPIN:= 0 9 3 <>
0
TEXT
8
PKG_INFO
10
0
20
-0.6
40
0.07
1
*GATEPIN:= 0 9 1 <>
0
ENDBLK
0
BLOCK
2
SYM_TOP_36
8
0
10
0
20
0
3
SYM_TOP_36
70
64
0
TEXT
8
SYM_NAME
10
0
20
0
40
0.0525
1
STANDOFF_150_250
41
0.75
0
TEXT
8
SYM_PART_TYPE_26
10
0.01
20
-0.185
40
0.07
1
 
72
1
11
0.01
21
-0.185
41
0.75
7
W0$01R0
0
TEXT
8
SYM_PART_NAME_26
10
0.005
20
0.01
40
0.07
1
 
72
1
73
1
11
0.005
21
0.01
41
0.75
7
W0$01R0
0
INSERT
2
PART_BODY_TOP_38
8
0
10
0
20
0
0
INSERT
2
STK_TOP_59
8
0
10
0
20
0
0
TEXT
8
SYM_TERMINAL
10
0
20
-0.12
40
0.07
1
1
0
ENDBLK
0
BLOCK
2
PKG_54
8
0
10
0
20
0
3
PKG_54
70
64
0
TEXT
8
PKG_INFO
10
0
20
0
40
0.07
1
*SYM:= 36
0
TEXT
8
PKG_INFO
10
0
20
-0.12
40
0.07
1
*PKG:= 0 STANDOFF_150_250 HOL
0
TEXT
8
PKG_INFO
10
0
20
-0.24
40
0.07
1
*GATE:=0
0
TEXT
8
PKG_INFO
10
0
20
-0.36
40
0.07
1
*GATEPIN:= 0 9 1 <>
0
ENDBLK
0
BLOCK
2
PART_BODY_TOP_15
8
0
10
0
20
0
3
PART_BODY_TOP_15
70
64
0
POLYLINE
8
PART_TOP_2DLINE_26
66
1
40
0.01
41
0.01
39
1.4
70
1
0
VERTEX
8
PART_TOP_2DLINE_26
10
-0.3125
20
-0.3125
0
VERTEX
8
PART_TOP_2DLINE_26
10
0.3125
20
-0.3125
0
VERTEX
8
PART_TOP_2DLINE_26
10
0.3125
20
0.3125
0
VERTEX
8
PART_TOP_2DLINE_26
10
-0.3125
20
0.3125
0
SEQEND
0
INSERT
2
SMOOTH_0$01
8
PART_TOP_2DLINE_26
10
-0.3125
20
-0.3125
0
INSERT
2
SMOOTH_0$01
8
PART_TOP_2DLINE_26
10
0.3125
20
-0.3125
0
INSERT
2
SMOOTH_0$01
8
PART_TOP_2DLINE_26
10
0.3125
20
0.3125
0
INSERT
2
SMOOTH_0$01
8
PART_TOP_2DLINE_26
10
-0.3125
20
0.3125
0
POLYLINE
8
TAG_01
66
1
0
VERTEX
8
TAG_01
10
0
20
0
0
VERTEX
8
TAG_01
10
0
20
0
0
SEQEND
0
POLYLINE
8
PART_TOP_2DLINE_26
66
1
40
0.01
41
0.01
39
1.4
0
VERTEX
8
PART_TOP_2DLINE_26
10
-0.25
20
0
42
0.1298773237
0
VERTEX
8
PART_TOP_2DLINE_26
10
-0.21705
20
-0.12403
0
SEQEND
0
INSERT
2
SMOOTH_0$01
8
PART_TOP_2DLINE_26
10
-0.25
20
0
0
INSERT
2
SMOOTH_0$01
8
PART_TOP_2DLINE_26
10
-0.21705
20
-0.12403
0
POLYLINE
8
PART_TOP_2DLINE_26
66
1
40
0.01
41
0.01
39
1.4
0
VERTEX
8
PART_TOP_2DLINE_26
10
0.25
20
0
42
-0.5837676421
0
VERTEX
8
PART_TOP_2DLINE_26
10
-0.1294
20
-0.214
0
SEQEND
0
INSERT
2
SMOOTH_0$01
8
PART_TOP_2DLINE_26
10
0.25
20
0
0
INSERT
2
SMOOTH_0$01
8
PART_TOP_2DLINE_26
10
-0.1294
20
-0.214
0
POLYLINE
8
PART_TOP_2DLINE_26
66
1
40
0.01
41
0.01
39
1.4
0
VERTEX
8
PART_TOP_2DLINE_26
10
0.12566
20
0.21613
42
0.5785144089
0
VERTEX
8
PART_TOP_2DLINE_26
10
-0.25
20
0
0
SEQEND
0
INSERT
2
SMOOTH_0$01
8
PART_TOP_2DLINE_26
10
0.12566
20
0.21613
0
INSERT
2
SMOOTH_0$01
8
PART_TOP_2DLINE_26
10
-0.25
20
0
0
POLYLINE
8
PART_TOP_2DLINE_26
66
1
40
0.01
41
0.01
39
1.4
0
VERTEX
8
PART_TOP_2DLINE_26
10
0.21097
20
0.13061
42
-0.1409858126
0
VERTEX
8
PART_TOP_2DLINE_26
10
0.25
20
-0.005
0
SEQEND
0
INSERT
2
SMOOTH_0$01
8
PART_TOP_2DLINE_26
10
0.21097
20
0.13061
0
INSERT
2
SMOOTH_0$01
8
PART_TOP_2DLINE_26
10
0.25
20
-0.005
0
POLYLINE
8
TAG_00
66
1
0
VERTEX
8
TAG_00
10
0
20
0
0
VERTEX
8
TAG_00
10
0
20
0
0
SEQEND
0
ENDBLK
0
BLOCK
2
STK_TOP_30
8
0
10
0
20
0
3
STK_TOP_30
70
64
0
INSERT
2
DRIL_HOLE_0$035
8
DRIL_PLTE_THRU_01
10
0
20
0
0
INSERT
2
DRIL_HOLE_0$035
8
DRIL_PLTE_THRU_02
10
0
20
0
0
INSERT
2
DRIL_HOLE_0$035
8
DRIL_PLTE_THRU_03
10
0
20
0
0
INSERT
2
DRIL_HOLE_0$035
8
DRIL_PLTE_THRU_04
10
0
20
0
0
INSERT
2
PAD_0
8
PADS_INNER
10
0
20
0
50
90
0
INSERT
2
PAD_0
8
PADS_BOT
10
0
20
0
50
90
0
INSERT
2
PAD_0
8
PADS_TOP
10
0
20
0
50
90
0
ENDBLK
0
BLOCK
2
STK_TOP_31
8
0
10
0
20
0
3
STK_TOP_31
70
64
0
INSERT
2
DRIL_HOLE_0$079
8
DRIL_NPLTE_THRU_01
10
0
20
0
0
INSERT
2
DRIL_HOLE_0$079
8
DRIL_NPLTE_THRU_02
10
0
20
0
0
INSERT
2
DRIL_HOLE_0$079
8
DRIL_NPLTE_THRU_03
10
0
20
0
0
INSERT
2
DRIL_HOLE_0$079
8
DRIL_NPLTE_THRU_04
10
0
20
0
0
INSERT
2
PAD_1
8
PADS_INNER
10
0
20
0
0
INSERT
2
PAD_2
8
PADS_BOT
10
0
20
0
0
INSERT
2
PAD_1
8
PADS_TOP
10
0
20
0
0
ENDBLK
0
BLOCK
2
PART_BODY_TOP_19
8
0
10
0
20
0
3
PART_BODY_TOP_19
70
64
0
POLYLINE
8
TAG_01
66
1
0
VERTEX
8
TAG_01
10
0
20
0
0
VERTEX
8
TAG_01
10
0
20
0
0
SEQEND
0
POLYLINE
8
PART_TOP_2DLINE_26
66
1
40
0.01
41
0.01
39
0.423
70
1
0
VERTEX
8
PART_TOP_2DLINE_26
10
-0.12
20
0
42
1
0
VERTEX
8
PART_TOP_2DLINE_26
10
0.12
20
0
42
1
0
SEQEND
0
POLYLINE
8
PART_TOP_2DLINE_26
66
1
40
0.01
41
0.01
39
0.423
0
VERTEX
8
PART_TOP_2DLINE_26
10
-0.1
20
0.065
0
VERTEX
8
PART_TOP_2DLINE_26
10
-0.1
20
-0.065
0
SEQEND
0
INSERT
2
SMOOTH_0$01
8
PART_TOP_2DLINE_26
10
-0.1
20
0.065
0
INSERT
2
SMOOTH_0$01
8
PART_TOP_2DLINE_26
10
-0.1
20
-0.065
0
POLYLINE
8
TAG_00
66
1
0
VERTEX
8
TAG_00
10
0
20
0
0
VERTEX
8
TAG_00
10
0
20
0
0
SEQEND
0
ENDBLK
0
BLOCK
2
STK_TOP_36
8
0
10
0
20
0
3
STK_TOP_36
70
64
0
INSERT
2
DRIL_HOLE_0$035
8
DRIL_PLTE_THRU_01
10
0
20
0
0
INSERT
2
DRIL_HOLE_0$035
8
DRIL_PLTE_THRU_02
10
0
20
0
0
INSERT
2
DRIL_HOLE_0$035
8
DRIL_PLTE_THRU_03
10
0
20
0
0
INSERT
2
DRIL_HOLE_0$035
8
DRIL_PLTE_THRU_04
10
0
20
0
0
INSERT
2
PAD_3
8
PADS_INNER
10
0
20
0
50
90
0
INSERT
2
PAD_3
8
PADS_BOT
10
0
20
0
50
90
0
INSERT
2
PAD_3
8
PADS_TOP
10
0
20
0
50
90
0
ENDBLK
0
BLOCK
2
PART_BODY_TOP_29
8
0
10
0
20
0
3
PART_BODY_TOP_29
70
64
0
POLYLINE
8
PART_TOP_2DLINE_26
66
1
40
0.01
41
0.01
39
1.437
0
VERTEX
8
PART_TOP_2DLINE_26
10
-0.165
20
0.265
0
VERTEX
8
PART_TOP_2DLINE_26
10
-0.245
20
0.265
0
VERTEX
8
PART_TOP_2DLINE_26
10
-0.245
20
0.1
0
SEQEND
0
INSERT
2
SMOOTH_0$01
8
PART_TOP_2DLINE_26
10
-0.165
20
0.265
0
INSERT
2
SMOOTH_0$01
8
PART_TOP_2DLINE_26
10
-0.245
20
0.265
0
INSERT
2
SMOOTH_0$01
8
PART_TOP_2DLINE_26
10
-0.245
20
0.1
0
POLYLINE
8
PART_TOP_2DLINE_26
66
1
40
0.01
41
0.01
39
1.437
0
VERTEX
8
PART_TOP_2DLINE_26
10
0.165
20
0.265
0
VERTEX
8
PART_TOP_2DLINE_26
10
0.245
20
0.265
0
VERTEX
8
PART_TOP_2DLINE_26
10
0.245
20
0.1
0
SEQEND
0
INSERT
2
SMOOTH_0$01
8
PART_TOP_2DLINE_26
10
0.165
20
0.265
0
INSERT
2
SMOOTH_0$01
8
PART_TOP_2DLINE_26
10
0.245
20
0.265
0
INSERT
2
SMOOTH_0$01
8
PART_TOP_2DLINE_26
10
0.245
20
0.1
0
POLYLINE
8
PART_TOP_2DLINE_26
66
1
40
0.01
41
0.01
39
1.437
0
VERTEX
8
PART_TOP_2DLINE_26
10
-0.03
20
0.265
0
VERTEX
8
PART_TOP_2DLINE_26
10
0.03
20
0.265
0
SEQEND
0
INSERT
2
SMOOTH_0$01
8
PART_TOP_2DLINE_26
10
-0.03
20
0.265
0
INSERT
2
SMOOTH_0$01
8
PART_TOP_2DLINE_26
10
0.03
20
0.265
0
POLYLINE
8
PART_TOP_2DLINE_26
66
1
40
0.01
41
0.01
39
1.437
0
VERTEX
8
PART_TOP_2DLINE_26
10
-0.245
20
-0.1
0
VERTEX
8
PART_TOP_2DLINE_26
10
-0.245
20
-0.265
0
VERTEX
8
PART_TOP_2DLINE_26
10
-0.15
20
-0.265
0
SEQEND
0
INSERT
2
SMOOTH_0$01
8
PART_TOP_2DLINE_26
10
-0.245
20
-0.1
0
INSERT
2
SMOOTH_0$01
8
PART_TOP_2DLINE_26
10
-0.245
20
-0.265
0
INSERT
2
SMOOTH_0$01
8
PART_TOP_2DLINE_26
10
-0.15
20
-0.265
0
POLYLINE
8
PART_TOP_2DLINE_26
66
1
40
0.01
41
0.01
39
1.437
0
VERTEX
8
PART_TOP_2DLINE_26
10
0.15
20
-0.265
0
VERTEX
8
PART_TOP_2DLINE_26
10
0.245
20
-0.265
0
VERTEX
8
PART_TOP_2DLINE_26
10
0.245
20
-0.1
0
SEQEND
0
INSERT
2
SMOOTH_0$01
8
PART_TOP_2DLINE_26
10
0.15
20
-0.265
0
INSERT
2
SMOOTH_0$01
8
PART_TOP_2DLINE_26
10
0.245
20
-0.265
0
INSERT
2
SMOOTH_0$01
8
PART_TOP_2DLINE_26
10
0.245
20
-0.1
0
POLYLINE
8
PART_TOP_2DLINE_26
66
1
40
0.01
41
0.01
39
1.437
70
1
0
VERTEX
8
PART_TOP_2DLINE_26
10
0.118
20
0
42
1
0
VERTEX
8
PART_TOP_2DLINE_26
10
-0.118
20
0
42
1
0
SEQEND
0
POLYLINE
8
PART_TOP_2DLINE_26
66
1
40
0.01
41
0.01
39
1.437
0
VERTEX
8
PART_TOP_2DLINE_26
10
-0.1
20
-0.059
0
VERTEX
8
PART_TOP_2DLINE_26
10
0.1
20
-0.059
0
SEQEND
0
INSERT
2
SMOOTH_0$01
8
PART_TOP_2DLINE_26
10
-0.1
20
-0.059
0
INSERT
2
SMOOTH_0$01
8
PART_TOP_2DLINE_26
10
0.1
20
-0.059
0
ENDBLK
0
BLOCK
2
STK_TOP_46
8
0
10
0
20
0
3
STK_TOP_46
70
64
0
INSERT
2
DRIL_HOLE_0$039
8
DRIL_PLTE_THRU_01
10
0
20
0
0
INSERT
2
DRIL_HOLE_0$039
8
DRIL_PLTE_THRU_02
10
0
20
0
0
INSERT
2
DRIL_HOLE_0$039
8
DRIL_PLTE_THRU_03
10
0
20
0
0
INSERT
2
DRIL_HOLE_0$039
8
DRIL_PLTE_THRU_04
10
0
20
0
0
INSERT
2
PAD_4
8
PADS_INNER
10
0
20
0
50
90
0
INSERT
2
PAD_4
8
PADS_BOT
10
0
20
0
50
90
0
INSERT
2
PAD_4
8
PADS_TOP
10
0
20
0
50
90
0
ENDBLK
0
BLOCK
2
STK_TOP_47
8
0
10
0
20
0
3
STK_TOP_47
70
64
0
INSERT
2
DRIL_SLOT_0007100173000000900
8
DRIL_NPLTE_THRU_01
10
0
20
0
0
INSERT
2
DRIL_SLOT_0007100173000000900
8
DRIL_NPLTE_THRU_02
10
0
20
0
0
INSERT
2
DRIL_SLOT_0007100173000000900
8
DRIL_NPLTE_THRU_03
10
0
20
0
0
INSERT
2
DRIL_SLOT_0007100173000000900
8
DRIL_NPLTE_THRU_04
10
0
20
0
0
INSERT
2
PAD_5
8
PADS_INNER
10
0
20
0
0
INSERT
2
PAD_5
8
PADS_BOT
10
0
20
0
0
INSERT
2
PAD_6
8
PADS_TOP
10
0
20
0
50
90
0
ENDBLK
0
BLOCK
2
STK_TOP_48
8
0
10
0
20
0
3
STK_TOP_48
70
64
0
INSERT
2
DRIL_HOLE_0$039
8
DRIL_PLTE_THRU_01
10
0
20
0
0
INSERT
2
DRIL_HOLE_0$039
8
DRIL_PLTE_THRU_02
10
0
20
0
0
INSERT
2
DRIL_HOLE_0$039
8
DRIL_PLTE_THRU_03
10
0
20
0
0
INSERT
2
DRIL_HOLE_0$039
8
DRIL_PLTE_THRU_04
10
0
20
0
0
INSERT
2
PAD_7
8
PADS_INNER
10
0
20
0
0
INSERT
2
PAD_7
8
PADS_BOT
10
0
20
0
0
INSERT
2
PAD_7
8
PADS_TOP
10
0
20
0
0
ENDBLK
0
BLOCK
2
PART_BODY_TOP_30
8
0
10
0
20
0
3
PART_BODY_TOP_30
70
64
0
POLYLINE
8
PART_TOP_2DLINE_26
66
1
40
0.01
41
0.01
39
1.22
70
1
0
VERTEX
8
PART_TOP_2DLINE_26
10
-0.16
20
-0.355
0
VERTEX
8
PART_TOP_2DLINE_26
10
0.16
20
-0.355
0
VERTEX
8
PART_TOP_2DLINE_26
10
0.16
20
0.355
0
VERTEX
8
PART_TOP_2DLINE_26
10
-0.16
20
0.355
0
SEQEND
0
INSERT
2
SMOOTH_0$01
8
PART_TOP_2DLINE_26
10
-0.16
20
-0.355
0
INSERT
2
SMOOTH_0$01
8
PART_TOP_2DLINE_26
10
0.16
20
-0.355
0
INSERT
2
SMOOTH_0$01
8
PART_TOP_2DLINE_26
10
0.16
20
0.355
0
INSERT
2
SMOOTH_0$01
8
PART_TOP_2DLINE_26
10
-0.16
20
0.355
0
POLYLINE
8
PART_TOP_2DLINE_26
66
1
40
0.01
41
0.01
39
1.22
0
VERTEX
8
PART_TOP_2DLINE_26
10
-0.16
20
-0.29
0
VERTEX
8
PART_TOP_2DLINE_26
10
-0.095
20
-0.355
0
SEQEND
0
INSERT
2
SMOOTH_0$01
8
PART_TOP_2DLINE_26
10
-0.16
20
-0.29
0
INSERT
2
SMOOTH_0$01
8
PART_TOP_2DLINE_26
10
-0.095
20
-0.355
0
POLYLINE
8
KEEPOUT_01
6
KEEPOUT_00011100$0
66
1
39
1.22
70
1
0
VERTEX
8
KEEPOUT_01
10
0.17
20
-0.33
0
VERTEX
8
KEEPOUT_01
10
-0.17
20
-0.33
0
VERTEX
8
KEEPOUT_01
10
-0.17
20
-0.29
0
VERTEX
8
KEEPOUT_01
10
0.17
20
-0.29
0
SEQEND
0
POLYLINE
8
KEEPOUT_01
6
KEEPOUT_00011100$0
66
1
39
1.22
70
1
0
VERTEX
8
KEEPOUT_01
10
-0.17
20
0.33
0
VERTEX
8
KEEPOUT_01
10
0.17
20
0.33
0
VERTEX
8
KEEPOUT_01
10
0.17
20
0.29
0
VERTEX
8
KEEPOUT_01
10
-0.17
20
0.29
0
SEQEND
0
ENDBLK
0
BLOCK
2
STK_TOP_50
8
0
10
0
20
0
3
STK_TOP_50
70
64
0
INSERT
2
DRIL_HOLE_0$073
8
DRIL_PLTE_THRU_01
10
0
20
0
0
INSERT
2
DRIL_HOLE_0$073
8
DRIL_PLTE_THRU_02
10
0
20
0
0
INSERT
2
DRIL_HOLE_0$073
8
DRIL_PLTE_THRU_03
10
0
20
0
0
INSERT
2
DRIL_HOLE_0$073
8
DRIL_PLTE_THRU_04
10
0
20
0
0
INSERT
2
PAD_8
8
PADS_INNER
10
0
20
0
0
INSERT
2
PAD_8
8
PADS_BOT
10
0
20
0
0
INSERT
2
PAD_8
8
PADS_TOP
10
0
20
0
0
ENDBLK
0
BLOCK
2
STK_TOP_49
8
0
10
0
20
0
3
STK_TOP_49
70
64
0
INSERT
2
DRIL_HOLE_0$073
8
DRIL_NPLTE_THRU_01
10
0
20
0
0
INSERT
2
DRIL_HOLE_0$073
8
DRIL_NPLTE_THRU_02
10
0
20
0
0
INSERT
2
DRIL_HOLE_0$073
8
DRIL_NPLTE_THRU_03
10
0
20
0
0
INSERT
2
DRIL_HOLE_0$073
8
DRIL_NPLTE_THRU_04
10
0
20
0
0
INSERT
2
PAD_9
8
PADS_INNER
10
0
20
0
0
INSERT
2
PAD_9
8
PADS_BOT
10
0
20
0
0
INSERT
2
PAD_9
8
PADS_TOP
10
0
20
0
0
ENDBLK
0
BLOCK
2
PART_BODY_TOP_38
8
0
10
0
20
0
3
PART_BODY_TOP_38
70
64
0
POLYLINE
8
KEEPOUT_01
6
KEEPOUT_00011110$0
66
1
39
0.1
70
1
0
VERTEX
8
KEEPOUT_01
10
0.245
20
0
42
1
0
VERTEX
8
KEEPOUT_01
10
-0.245
20
0
42
1
0
SEQEND
0
POLYLINE
8
KEEPOUT_-1
6
KEEPOUT_00011110$0
66
1
39
0.1
70
1
0
VERTEX
8
KEEPOUT_-1
10
0.245
20
0
42
1
0
VERTEX
8
KEEPOUT_-1
10
-0.245
20
0
42
1
0
SEQEND
0
POLYLINE
8
KEEPOUT_00
6
KEEPOUT_00011110$0
66
1
39
0.1
70
1
0
VERTEX
8
KEEPOUT_00
10
0.19
20
0
42
1
0
VERTEX
8
KEEPOUT_00
10
-0.19
20
0
42
1
0
SEQEND
0
POLYLINE
8
PART_TOP_2DLINE_27
66
1
40
0.01
41
0.01
39
0.1
70
1
0
VERTEX
8
PART_TOP_2DLINE_27
10
0.145
20
0
42
1
0
VERTEX
8
PART_TOP_2DLINE_27
10
-0.145
20
0
42
1
0
SEQEND
0
ENDBLK
0
BLOCK
2
STK_TOP_59
8
0
10
0
20
0
3
STK_TOP_59
70
64
0
INSERT
2
DRIL_HOLE_0$15
8
DRIL_NPLTE_THRU_01
10
0
20
0
0
INSERT
2
DRIL_HOLE_0$15
8
DRIL_NPLTE_THRU_02
10
0
20
0
0
INSERT
2
DRIL_HOLE_0$15
8
DRIL_NPLTE_THRU_03
10
0
20
0
0
INSERT
2
DRIL_HOLE_0$15
8
DRIL_NPLTE_THRU_04
10
0
20
0
0
INSERT
2
PAD_10
8
PADS_INNER
10
0
20
0
0
INSERT
2
PAD_10
8
PADS_BOT
10
0
20
0
0
INSERT
2
PAD_10
8
PADS_TOP
10
0
20
0
0
ENDBLK
999
*** POWERPCB  PCB PARAMETER ***
0
BLOCK
2
PCB_PARAMS
8
0
10
0
20
0
3
PCB_PARAMS
70
64
999
 *  1.Job name           2.Backupfile name       3.CursorType
999
 *  4.TearDropFlag       5.HighlighNetsFlag      6.HatchDisplayFlag
999
 *  7.PadsFlag           8.TracksFlag            9.ViasFlag
999
 * 10.CopperFlag        11.LinesFlag            12.TextFlag
999
 * 13.TopComponentFlag  14.BottomComponentFlag  16.ObjectSnapFlags
0
TEXT
8
PCB_PARAMS
10
0
20
-0.12
40
0.07
1
A:=D3005H100_A.PCB <> 3 0 0 1 1 1 1 1 1 1 1 1 32 502 0
999
 *  1.RefDesHeight       2.RefDesWidth           3.DefaultWidth
999
 *  4.VGX                5.VGY                   6.OVR
999
 *  7.HatchGrid          8.ObjectSnapRadius
0
TEXT
8
PCB_PARAMS
10
0
20
-0.24
40
0.07
1
B:=0.075 0.01 0.001 0.005 0.005 0.003 0.001 0.01
999
 *  1.ScaleFactor        2.NetAttributeFlags     3.BackupInterval
999
 *  4.WorkingLevel       5.HatchMode             6.HatchDirection
999
 *  7.ConnectionColor    8.BackgroundColor       9.ForegroundColor
999
 * 10.BoardOutlineColor
0
TEXT
8
PCB_PARAMS
10
0
20
-0.36
40
0.07
1
C:=2.9426128864 40010002 20 4 0 0 29 0 11 11
999
 * MitreAngle0 - MitreAngle6
0
TEXT
8
PCB_PARAMS
10
0
20
-0.48
40
0.07
1
D:=324000000 324000000 324000000 324000000 324000000 324000000 162000000
999
 * Hatch & Keepout Parameters
0
TEXT
8
PCB_PARAMS
10
0
20
-0.6
40
0.07
1
E:=0.5 0 0 0.1 0 1
999
 * Fanout Parameters
0
TEXT
8
PCB_PARAMS
10
0
20
-0.72
40
0.07
1
F:=0.01 0.01 0.25 1 2 0 1 1 0 0 1 1 1 1
999
 * Pad Entry Parameters
0
TEXT
8
PCB_PARAMS
10
0
20
-0.84
40
0.07
1
P:= 1 1 1 1
999
 * DFF Parameters
0
TEXT
8
PCB_PARAMS
10
0
20
-0.96
40
0.07
1
Q:=89.9999 3967 114300 114300 114300 5 4 114300 114300 114300 114300 1 114300 1 114300 1 114300 0
0
ENDBLK
0
BLOCK
2
DRIL_SYMBOL_0$035
8
0
10
0
20
0
3
DRIL_SYMBOL_0$035
70
64
0
POLYLINE
8
DRIL_SYMBOL
66
1
40
0.002
41
0.002
0
VERTEX
8
DRIL_SYMBOL
10
0
20
-0.01
0
VERTEX
8
DRIL_SYMBOL
10
0
20
0.01
0
SEQEND
0
POLYLINE
8
DRIL_SYMBOL
66
1
40
0.002
41
0.002
0
VERTEX
8
DRIL_SYMBOL
10
-0.01
20
0
0
VERTEX
8
DRIL_SYMBOL
10
0.01
20
0
0
SEQEND
0
ENDBLK
0
BLOCK
2
DRIL_SYMBOL_0$079
8
0
10
0
20
0
3
DRIL_SYMBOL_0$079
70
64
0
POLYLINE
8
DRIL_SYMBOL
66
1
40
0.002
41
0.002
0
VERTEX
8
DRIL_SYMBOL
10
0
20
-0.01
0
VERTEX
8
DRIL_SYMBOL
10
0
20
0.01
0
SEQEND
0
POLYLINE
8
DRIL_SYMBOL
66
1
40
0.002
41
0.002
0
VERTEX
8
DRIL_SYMBOL
10
-0.01
20
0
0
VERTEX
8
DRIL_SYMBOL
10
0.01
20
0
0
SEQEND
0
ENDBLK
0
BLOCK
2
DRIL_SYMBOL_0$039
8
0
10
0
20
0
3
DRIL_SYMBOL_0$039
70
64
0
POLYLINE
8
DRIL_SYMBOL
66
1
40
0.002
41
0.002
0
VERTEX
8
DRIL_SYMBOL
10
0
20
-0.01
0
VERTEX
8
DRIL_SYMBOL
10
0
20
0.01
0
SEQEND
0
POLYLINE
8
DRIL_SYMBOL
66
1
40
0.002
41
0.002
0
VERTEX
8
DRIL_SYMBOL
10
-0.01
20
0
0
VERTEX
8
DRIL_SYMBOL
10
0.01
20
0
0
SEQEND
0
ENDBLK
0
BLOCK
2
DRIL_SYMBOL_0$071
8
0
10
0
20
0
3
DRIL_SYMBOL_0$071
70
64
0
POLYLINE
8
DRIL_SYMBOL
66
1
40
0.002
41
0.002
0
VERTEX
8
DRIL_SYMBOL
10
0
20
-0.01
0
VERTEX
8
DRIL_SYMBOL
10
0
20
0.01
0
SEQEND
0
POLYLINE
8
DRIL_SYMBOL
66
1
40
0.002
41
0.002
0
VERTEX
8
DRIL_SYMBOL
10
-0.01
20
0
0
VERTEX
8
DRIL_SYMBOL
10
0.01
20
0
0
SEQEND
0
ENDBLK
0
BLOCK
2
DRIL_SYMBOL_0$073
8
0
10
0
20
0
3
DRIL_SYMBOL_0$073
70
64
0
POLYLINE
8
DRIL_SYMBOL
66
1
40
0.002
41
0.002
0
VERTEX
8
DRIL_SYMBOL
10
0
20
-0.01
0
VERTEX
8
DRIL_SYMBOL
10
0
20
0.01
0
SEQEND
0
POLYLINE
8
DRIL_SYMBOL
66
1
40
0.002
41
0.002
0
VERTEX
8
DRIL_SYMBOL
10
-0.01
20
0
0
VERTEX
8
DRIL_SYMBOL
10
0.01
20
0
0
SEQEND
0
ENDBLK
0
BLOCK
2
DRIL_SYMBOL_0$15
8
0
10
0
20
0
3
DRIL_SYMBOL_0$15
70
64
0
POLYLINE
8
DRIL_SYMBOL
66
1
40
0.002
41
0.002
0
VERTEX
8
DRIL_SYMBOL
10
0
20
-0.01
0
VERTEX
8
DRIL_SYMBOL
10
0
20
0.01
0
SEQEND
0
POLYLINE
8
DRIL_SYMBOL
66
1
40
0.002
41
0.002
0
VERTEX
8
DRIL_SYMBOL
10
-0.01
20
0
0
VERTEX
8
DRIL_SYMBOL
10
0.01
20
0
0
SEQEND
0
ENDBLK
999
*** POWERPCB  SMOOTH CIRCLE ***
0
BLOCK
2
SMOOTH_0$01
8
0
10
0
20
0
3
SMOOTH_0$01
70
64
0
POLYLINE
8
0
66
1
40
0.005
41
0.005
70
1
0
VERTEX
8
0
10
-0.0025
20
0
42
1
0
VERTEX
8
0
10
0.0025
20
0
42
1
0
SEQEND
0
ENDBLK
0
BLOCK
2
SMOOTH_0$007
8
0
10
0
20
0
3
SMOOTH_0$007
70
64
0
POLYLINE
8
0
66
1
40
0.0035
41
0.0035
70
1
0
VERTEX
8
0
10
-0.00175
20
0
42
1
0
VERTEX
8
0
10
0.00175
20
0
42
1
0
SEQEND
0
ENDBLK
0
BLOCK
2
SMOOTH_0$005
8
0
10
0
20
0
3
SMOOTH_0$005
70
64
0
POLYLINE
8
0
66
1
40
0.0025
41
0.0025
70
1
0
VERTEX
8
0
10
-0.00125
20
0
42
1
0
VERTEX
8
0
10
0.00125
20
0
42
1
0
SEQEND
0
ENDBLK
0
BLOCK
2
PAD_0
8
0
10
0
20
0
3
PAD_0
70
64
0
POLYLINE
8
0
70
1
66
1
40
0.04
41
0.04
0
VERTEX
8
0
10
-0.01
20
-0.02
0
VERTEX
8
0
10
0.01
20
-0.02
42
1
0
VERTEX
8
0
10
0.01
20
0.02
0
VERTEX
8
0
10
-0.01
20
0.02
42
1
0
SEQEND
0
ENDBLK
0
BLOCK
2
PAD_1
8
0
10
0
20
0
3
PAD_1
70
64
0
POLYLINE
8
0
70
1
66
1
0
VERTEX
8
0
10
0
20
0
42
1
0
VERTEX
8
0
10
0
20
0
42
1
0
SEQEND
0
ENDBLK
0
BLOCK
2
PAD_2
8
0
10
0
20
0
3
PAD_2
70
64
0
POLYLINE
8
0
70
1
66
1
40
0.06
41
0.06
0
VERTEX
8
0
10
0
20
-0.03
42
1
0
VERTEX
8
0
10
0
20
0.03
42
1
0
SEQEND
0
ENDBLK
0
BLOCK
2
PAD_3
8
0
10
0
20
0
3
PAD_3
70
64
0
POLYLINE
8
0
70
1
66
1
40
0.035
41
0.035
0
VERTEX
8
0
10
-0.015
20
-0.0175
0
VERTEX
8
0
10
0.015
20
-0.0175
42
1
0
VERTEX
8
0
10
0.015
20
0.0175
0
VERTEX
8
0
10
-0.015
20
0.0175
42
1
0
SEQEND
0
ENDBLK
0
BLOCK
2
PAD_4
8
0
10
0
20
0
3
PAD_4
70
64
0
POLYLINE
8
0
70
1
66
1
40
0.034
41
0.034
0
VERTEX
8
0
10
-0.016
20
-0.017
0
VERTEX
8
0
10
0.016
20
-0.017
42
1
0
VERTEX
8
0
10
0.016
20
0.017
0
VERTEX
8
0
10
-0.016
20
0.017
42
1
0
SEQEND
0
ENDBLK
0
BLOCK
2
PAD_5
8
0
10
0
20
0
3
PAD_5
70
64
0
POLYLINE
8
0
70
1
66
1
40
0.0355
41
0.0355
0
VERTEX
8
0
10
0
20
-0.01775
42
1
0
VERTEX
8
0
10
0
20
0.01775
42
1
0
SEQEND
0
ENDBLK
0
BLOCK
2
PAD_6
8
0
10
0
20
0
3
PAD_6
70
64
0
POLYLINE
8
0
70
1
66
1
40
0.0355
41
0.0355
0
VERTEX
8
0
10
-0.051
20
-0.01775
0
VERTEX
8
0
10
0.051
20
-0.01775
42
1
0
VERTEX
8
0
10
0.051
20
0.01775
0
VERTEX
8
0
10
-0.051
20
0.01775
42
1
0
SEQEND
0
ENDBLK
0
BLOCK
2
PAD_7
8
0
10
0
20
0
3
PAD_7
70
64
0
POLYLINE
8
0
70
1
66
1
40
0.05
41
0.05
0
VERTEX
8
0
10
0
20
-0.025
42
1
0
VERTEX
8
0
10
0
20
0.025
42
1
0
SEQEND
0
ENDBLK
0
BLOCK
2
PAD_8
8
0
10
0
20
0
3
PAD_8
70
64
0
POLYLINE
8
0
70
1
66
1
40
0.0625
41
0.0625
0
VERTEX
8
0
10
0
20
-0.03125
42
1
0
VERTEX
8
0
10
0
20
0.03125
42
1
0
SEQEND
0
ENDBLK
0
BLOCK
2
PAD_9
8
0
10
0
20
0
3
PAD_9
70
64
0
POLYLINE
8
0
70
1
66
1
40
0.025
41
0.025
0
VERTEX
8
0
10
0
20
-0.0125
42
1
0
VERTEX
8
0
10
0
20
0.0125
42
1
0
SEQEND
0
ENDBLK
0
BLOCK
2
PAD_10
8
0
10
0
20
0
3
PAD_10
70
64
0
POLYLINE
8
0
70
1
66
1
40
0.075
41
0.075
0
VERTEX
8
0
10
0
20
-0.0375
42
1
0
VERTEX
8
0
10
0
20
0.0375
42
1
0
SEQEND
0
ENDBLK
999
*** POWERPCB  DRILL HOLE ***
0
BLOCK
2
DRIL_HOLE_0$035
8
0
10
0
20
0
3
DRIL_HOLE_0$035
70
64
0
POLYLINE
8
0
66
1
40
0.0175
41
0.0175
70
1
0
VERTEX
8
0
10
-0.00875
20
0
42
1
0
VERTEX
8
0
10
0.00875
20
0
42
1
0
SEQEND
0
INSERT
2
DRIL_SYMBOL_0$035
8
0
10
0
20
0
0
ENDBLK
0
BLOCK
2
DRIL_HOLE_0$079
8
0
10
0
20
0
3
DRIL_HOLE_0$079
70
64
0
POLYLINE
8
0
66
1
40
0.0395
41
0.0395
70
1
0
VERTEX
8
0
10
-0.01975
20
0
42
1
0
VERTEX
8
0
10
0.01975
20
0
42
1
0
SEQEND
0
INSERT
2
DRIL_SYMBOL_0$079
8
0
10
0
20
0
0
ENDBLK
0
BLOCK
2
DRIL_HOLE_0$039
8
0
10
0
20
0
3
DRIL_HOLE_0$039
70
64
0
POLYLINE
8
0
66
1
40
0.0195
41
0.0195
70
1
0
VERTEX
8
0
10
-0.00975
20
0
42
1
0
VERTEX
8
0
10
0.00975
20
0
42
1
0
SEQEND
0
INSERT
2
DRIL_SYMBOL_0$039
8
0
10
0
20
0
0
ENDBLK
0
BLOCK
2
DRIL_HOLE_0$071
8
0
10
0
20
0
3
DRIL_HOLE_0$071
70
64
0
POLYLINE
8
0
66
1
40
0.0355
41
0.0355
70
1
0
VERTEX
8
0
10
-0.01775
20
0
42
1
0
VERTEX
8
0
10
0.01775
20
0
42
1
0
SEQEND
0
INSERT
2
DRIL_SYMBOL_0$071
8
0
10
0
20
0
0
ENDBLK
0
BLOCK
2
DRIL_HOLE_0$073
8
0
10
0
20
0
3
DRIL_HOLE_0$073
70
64
0
POLYLINE
8
0
66
1
40
0.0365
41
0.0365
70
1
0
VERTEX
8
0
10
-0.01825
20
0
42
1
0
VERTEX
8
0
10
0.01825
20
0
42
1
0
SEQEND
0
INSERT
2
DRIL_SYMBOL_0$073
8
0
10
0
20
0
0
ENDBLK
0
BLOCK
2
DRIL_HOLE_0$15
8
0
10
0
20
0
3
DRIL_HOLE_0$15
70
64
0
POLYLINE
8
0
66
1
40
0.075
41
0.075
70
1
0
VERTEX
8
0
10
-0.0375
20
0
42
1
0
VERTEX
8
0
10
0.0375
20
0
42
1
0
SEQEND
0
INSERT
2
DRIL_SYMBOL_0$15
8
0
10
0
20
0
0
ENDBLK
0
BLOCK
2
DRIL_SLOT_0007100173000000900
8
0
10
0
20
0
3
DRIL_SLOT_0007100173000000900
70
64
0
POLYLINE
8
0
70
1
66
1
40
0.0355
41
0.0355
0
VERTEX
8
0
10
0.01775
20
-0.051
0
VERTEX
8
0
10
0.01775
20
0.051
42
1
0
VERTEX
8
0
10
-0.01775
20
0.051
0
VERTEX
8
0
10
-0.01775
20
-0.051
42
1
0
SEQEND
0
ENDBLK
0
ENDSEC
0
SECTION
2
ENTITIES
999
*** POWERPCB  DBLAYER ***
0
INSERT
2
DBLAYERS
8
0
10
0
20
0
999
*** POWERPCB  BOARD ***
0
INSERT
2
BOARD_3
8
0
10
0
20
0
999
*** POWERPCB  2DLINE ***
0
INSERT
2
DRAWING_1
8
0
10
0
20
0
0
INSERT
2
DRAWING_2
8
0
10
-0.1
20
-0.1
0
INSERT
2
DRAWING_43
8
0
10
8.8
20
4.1
0
INSERT
2
DRAWING_44
8
0
10
5.55
20
6.4
0
INSERT
2
DRAWING_45
8
0
10
2.8
20
6.4
999
*** POWERPCB  FREE TEXT ***
0
TEXT
8
TEXT_01
10
7.795
20
0.13
40
0.0525
1
TOP ISS-A
41
0.75
7
W0$01
0
TEXT
8
TEXT_26
10
7.825
20
0.285
40
0.0525
1
TSS
41
0.75
7
W0$01
999
*** POWERPCB  COMPONENT ***
0
INSERT
2
PART_TOP_131
8
0
10
1
20
2.1
0
INSERT
2
PART_TOP_132
8
0
10
1
20
0.85
0
INSERT
2
PART_TOP_141
8
0
10
5.15
20
2.1
50
180
0
INSERT
2
PART_TOP_259
8
0
10
3.55
20
2.1
0
INSERT
2
PART_TOP_260
8
0
10
3.55
20
0.85
0
INSERT
2
PART_TOP_261
8
0
10
6.75
20
2.1
0
INSERT
2
PART_TOP_262
8
0
10
6.75
20
0.85
0
INSERT
2
PART_TOP_263
8
0
10
2
20
2.1
0
INSERT
2
PART_TOP_264
8
0
10
2
20
0.85
0
INSERT
2
PART_TOP_314
8
0
10
0.25
20
0.25
0
INSERT
2
PART_TOP_315
8
0
10
0.25
20
3.75
0
INSERT
2
PART_TOP_316
8
0
10
8.45
20
0.25
0
INSERT
2
PART_TOP_317
8
0
10
8.45
20
3.75
999
*** POWERPCB  PCB PARAMETER ***
0
INSERT
2
PCB_PARAMS
8
0
10
0
20
0
0
ENDSEC
0
EOF
