*
*
G04 PADS VX.2.2 Build Number: 7607494 generated Gerber (RS-274-X) file*
G04 PC Version=2.1*
*
%IN "D3005H100_A.PCB"*%
*
%MOIN*%
*
%FSLAX35Y35*%
*
*
*
*
G04 PC Standard Apertures*
*
*
G04 Thermal Relief Aperture macro.*
%AMTER*
1,1,$1,0,0*
1,0,$1-$2,0,0*
21,0,$3,$4,0,0,45*
21,0,$3,$4,0,0,135*
%
*
*
G04 Annular Aperture macro.*
%AMANN*
1,1,$1,0,0*
1,0,$2,0,0*
%
*
*
G04 Odd Aperture macro.*
%AMODD*
1,1,$1,0,0*
1,0,$1-0.005,0,0*
%
*
*
G04 PC Custom Aperture Macros*
*
*
*
*
*
*
G04 PC Aperture Table*
*
%ADD010C,0.01*%
%ADD012C,0.005*%
%ADD028C,0.05*%
%ADD059C,0.001*%
%ADD061C,0.007*%
%ADD082R,0.05315X0.06102*%
%ADD083R,0.06102X0.05315*%
%ADD084R,0.07087X0.04528*%
%ADD085R,0.04528X0.07087*%
%ADD086R,0.09843X0.09055*%
%ADD087R,0.09055X0.09843*%
%ADD088R,0.0878X0.07087*%
%ADD089R,0.07087X0.0878*%
%ADD090R,0.129X0.094*%
%ADD091R,0.083X0.06*%
%ADD092R,0.01181X0.05709*%
%ADD093R,0.0748X0.05512*%
%ADD094R,0.05512X0.0748*%
%ADD095R,0.06102X0.02362*%
%ADD096R,0.02362X0.06102*%
%ADD097R,0.03X0.068*%
%ADD098O,0.0748X0.02362*%
%ADD099R,0.0689X0.02559*%
%ADD100R,0.02362X0.04331*%
%ADD101O,0.02362X0.05512*%
%ADD102R,0.05512X0.01378*%
%ADD103R,0.01378X0.05512*%
%ADD104R,0.01772X0.07283*%
%ADD105R,0.01181X0.05118*%
%ADD106R,0.07087X0.08661*%
%ADD107R,0.07087X0.07874*%
*
*
*
*
G04 PC Circuitry*
G04 Layer Name D3005H100_A.PCB - circuitry*
%LPD*%
*
G54D59*
G01X916914Y136271D02*
X915159D01*
X914629Y136205*
X914304Y136140*
X913985Y135949*
X913794Y135694*
X913664Y135370*
X913600Y135050*
X913663Y134799*
X913793Y134540*
X913985Y134283*
X914311Y134088*
X914336Y134045*
X914308Y134000*
X913914Y133803*
X913656Y133545*
X913463Y133223*
X913398Y132901*
Y132581*
X913528Y132257*
X913655Y132003*
X913842Y131878*
X914369Y131615*
X914692Y131550*
X916914*
Y136271*
X916345Y135786D02*
Y134246D01*
X916295Y134196*
X914955*
X914943Y134197*
X914675Y134264*
X914656Y134273*
X914321Y134541*
X914311Y134553*
X914177Y134754*
X914169Y134781*
Y134982*
X914171Y134996*
X914305Y135465*
X914317Y135486*
X914585Y135754*
X914611Y135768*
X914946Y135835*
X914955Y135836*
X916295*
X916345Y135786*
Y133710D02*
Y132036D01*
X916295Y131986*
X914687*
X914687D02*
X914669Y131989D01*
X914334Y132123*
X914317Y132134*
X914049Y132402*
X914036Y132429*
X914036D02*
X913969Y132831D01*
X913968Y132839*
Y133107*
X913976Y133135*
X914110Y133336*
X914120Y133346*
X914522Y133681*
X914541Y133691*
X914809Y133758*
X914821Y133760*
X916295*
X916345Y133710*
X912428Y136271D02*
X910274D01*
X910014Y136206*
X909424Y136010*
X909234Y135820*
X909040Y135560*
X909040D02*
X908912Y135240D01*
Y134918*
X908977Y134398*
X909302Y133943*
X909492Y133752*
X909813Y133624*
X910139Y133559*
X911808*
X911858Y133509*
Y131550*
X912428*
Y136271*
X911858Y135786D02*
Y134045D01*
X911808Y133995*
X910603*
X910596*
X910127Y134062*
X910115Y134065*
X909781Y134199*
X909756Y134220*
X909555Y134555*
X909549Y134571*
X909482Y134905*
X909481Y134915*
Y135183*
X909487Y135205*
X909620Y135473*
X909630Y135486*
X909831Y135687*
X909850Y135699*
X910252Y135833*
X910268Y135836*
X911808*
X911858Y135786*
X908008Y136271D02*
X907090D01*
X906030Y132891*
Y132890*
X905896Y132489*
X905893Y132482*
X905759Y132214*
X905666Y132224*
X905599Y132492*
X905466Y132959*
X904405Y136271*
X903487*
X903487D02*
Y131550D01*
X903487D02*
X904057D01*
Y135585*
X904155Y135600*
X905483Y131550*
X906079*
X907341Y135600*
X907438Y135585*
Y131550*
X908008*
Y136271*
X903500Y131550D02*
Y136271D01*
X903600Y131550D02*
Y136271D01*
X903700Y131550D02*
Y136271D01*
X903800Y131550D02*
Y136271D01*
X903900Y131550D02*
Y136271D01*
X904000Y131550D02*
Y136271D01*
X904100Y135634D02*
Y136271D01*
X904200Y135462D02*
Y136271D01*
X904300Y135157D02*
Y136271D01*
X904400Y134852D02*
Y136271D01*
X904500Y134547D02*
Y135976D01*
X904600Y134242D02*
Y135664D01*
X904700Y133937D02*
Y135351D01*
X904800Y133632D02*
Y135039D01*
X904900Y133327D02*
Y134726D01*
X905000Y133022D02*
Y134414D01*
X905100Y132717D02*
Y134101D01*
X905200Y132412D02*
Y133789D01*
X905300Y132107D02*
Y133476D01*
X905400Y131802D02*
Y133164D01*
X905500Y131550D02*
Y132838D01*
X905600Y131550D02*
Y132488D01*
X905700Y131550D02*
Y132189D01*
X905800Y131550D02*
Y132296D01*
X905900Y131550D02*
Y132502D01*
X906000Y131550D02*
Y132802D01*
X906100Y131617D02*
Y133115D01*
X906200Y131938D02*
Y133434D01*
X906300Y132259D02*
Y133752D01*
X906400Y132580D02*
Y134071D01*
X906500Y132901D02*
Y134390D01*
X906600Y133222D02*
Y134709D01*
X906700Y133543D02*
Y135027D01*
X906800Y133864D02*
Y135346D01*
X906900Y134185D02*
Y135665D01*
X907000Y134506D02*
Y135984D01*
X907100Y134827D02*
Y136271D01*
X907200Y135148D02*
Y136271D01*
X907300Y135469D02*
Y136271D01*
X907400Y135633D02*
Y136271D01*
X907500Y131550D02*
Y136271D01*
X907600Y131550D02*
Y136271D01*
X907700Y131550D02*
Y136271D01*
X907800Y131550D02*
Y136271D01*
X907900Y131550D02*
Y136271D01*
X908000Y131550D02*
Y136271D01*
X909000Y134365D02*
Y135461D01*
X909100Y134225D02*
Y135641D01*
X909200Y134085D02*
Y135774D01*
X909300Y133945D02*
Y135886D01*
X909400Y133845D02*
Y135986D01*
X909500Y133749D02*
Y134816D01*
Y135232D02*
Y136035D01*
X909600Y133709D02*
Y134480D01*
Y135432D02*
Y136068D01*
X909700Y133669D02*
Y134314D01*
Y135556D02*
Y136102D01*
X909800Y133629D02*
Y134191D01*
Y135656D02*
Y136135D01*
X909900Y133607D02*
Y134151D01*
Y135716D02*
Y136168D01*
X910000Y133587D02*
Y134111D01*
Y135749D02*
Y136202D01*
X910100Y133567D02*
Y134071D01*
Y135782D02*
Y136228D01*
X910200Y133559D02*
Y134052D01*
Y135816D02*
Y136253D01*
X910300Y133559D02*
Y134037D01*
Y135836D02*
Y136271D01*
X910400Y133559D02*
Y134023D01*
Y135836D02*
Y136271D01*
X910500Y133559D02*
Y134009D01*
Y135836D02*
Y136271D01*
X910600Y133559D02*
Y133995D01*
Y135836D02*
Y136271D01*
X910700Y133559D02*
Y133995D01*
Y135836D02*
Y136271D01*
X910800Y133559D02*
Y133995D01*
Y135836D02*
Y136271D01*
X910900Y133559D02*
Y133995D01*
Y135836D02*
Y136271D01*
X911000Y133559D02*
Y133995D01*
Y135836D02*
Y136271D01*
X911100Y133559D02*
Y133995D01*
Y135836D02*
Y136271D01*
X911200Y133559D02*
Y133995D01*
Y135836D02*
Y136271D01*
X911300Y133559D02*
Y133995D01*
Y135836D02*
Y136271D01*
X911400Y133559D02*
Y133995D01*
Y135836D02*
Y136271D01*
X911500Y133559D02*
Y133995D01*
Y135836D02*
Y136271D01*
X911600Y133559D02*
Y133995D01*
Y135836D02*
Y136271D01*
X911700Y133559D02*
Y133995D01*
Y135836D02*
Y136271D01*
X911800Y133559D02*
Y133995D01*
Y135836D02*
Y136271D01*
X911900Y131550D02*
Y136271D01*
X912000Y131550D02*
Y136271D01*
X912100Y131550D02*
Y136271D01*
X912200Y131550D02*
Y136271D01*
X912300Y131550D02*
Y136271D01*
X912400Y131550D02*
Y136271D01*
X913400Y132577D02*
Y132910D01*
X913500Y132327D02*
Y133285D01*
X913600Y132113D02*
Y133452D01*
X913700Y131973D02*
Y133589D01*
Y134725D02*
Y135459D01*
X913800Y131906D02*
Y133689D01*
Y134530D02*
Y135702D01*
X913900Y131849D02*
Y133789D01*
Y134397D02*
Y135835D01*
X914000Y131799D02*
Y132642D01*
Y133170D02*
Y133846D01*
Y134274D02*
Y135958D01*
X914100Y131749D02*
Y132352D01*
Y133320D02*
Y133896D01*
Y134214D02*
Y136018D01*
X914200Y131699D02*
Y132252D01*
Y133413D02*
Y133946D01*
Y134154D02*
Y134719D01*
Y135099D02*
Y136078D01*
X914300Y131649D02*
Y132152D01*
Y133497D02*
Y133996D01*
Y134094D02*
Y134569D01*
Y135449D02*
Y136138D01*
X914400Y131608D02*
Y132097D01*
Y133580D02*
Y134478D01*
Y135569D02*
Y136159D01*
X914500Y131588D02*
Y132057D01*
Y133663D02*
Y134398D01*
Y135669D02*
Y136179D01*
X914600Y131568D02*
Y132017D01*
Y133706D02*
Y134318D01*
Y135764D02*
Y136199D01*
X914700Y131550D02*
Y131986D01*
Y133731D02*
Y134258D01*
Y135786D02*
Y136214D01*
X914800Y131550D02*
Y131986D01*
Y133756D02*
Y134233D01*
Y135806D02*
Y136227D01*
X914900Y131550D02*
Y131986D01*
Y133760D02*
Y134208D01*
Y135826D02*
Y136239D01*
X915000Y131550D02*
Y131986D01*
Y133760D02*
Y134196D01*
Y135836D02*
Y136252D01*
X915100Y131550D02*
Y131986D01*
Y133760D02*
Y134196D01*
Y135836D02*
Y136264D01*
X915200Y131550D02*
Y131986D01*
Y133760D02*
Y134196D01*
Y135836D02*
Y136271D01*
X915300Y131550D02*
Y131986D01*
Y133760D02*
Y134196D01*
Y135836D02*
Y136271D01*
X915400Y131550D02*
Y131986D01*
Y133760D02*
Y134196D01*
Y135836D02*
Y136271D01*
X915500Y131550D02*
Y131986D01*
Y133760D02*
Y134196D01*
Y135836D02*
Y136271D01*
X915600Y131550D02*
Y131986D01*
Y133760D02*
Y134196D01*
Y135836D02*
Y136271D01*
X915700Y131550D02*
Y131986D01*
Y133760D02*
Y134196D01*
Y135836D02*
Y136271D01*
X915800Y131550D02*
Y131986D01*
Y133760D02*
Y134196D01*
Y135836D02*
Y136271D01*
X915900Y131550D02*
Y131986D01*
Y133760D02*
Y134196D01*
Y135836D02*
Y136271D01*
X916000Y131550D02*
Y131986D01*
Y133760D02*
Y134196D01*
Y135836D02*
Y136271D01*
X916100Y131550D02*
Y131986D01*
Y133760D02*
Y134196D01*
Y135836D02*
Y136271D01*
X916200Y131550D02*
Y131986D01*
Y133760D02*
Y134196D01*
Y135836D02*
Y136271D01*
X916300Y131550D02*
Y131986D01*
Y133760D02*
Y134196D01*
Y135835D02*
Y136271D01*
X916400Y131550D02*
Y136271D01*
X916500Y131550D02*
Y136271D01*
X916600Y131550D02*
Y136271D01*
X916700Y131550D02*
Y136271D01*
X916800Y131550D02*
Y136271D01*
X916900Y131550D02*
Y136271D01*
*
G04 PC Custom Flashes*
G04 Layer Name D3005H100_A.PCB - flashes*
%LPD*%
*
*
G04 PC Circuitry*
G04 Layer Name D3005H100_A.PCB - circuitry*
%LPD*%
*
G54D10*
G54D12*
X980000Y510000D02*
Y510500D01*
Y510000D02*
X980500D01*
X980000D02*
Y509500D01*
Y510000D02*
X979500D01*
X981500D02*
X986500D01*
X980000Y508500D02*
Y505100D01*
Y511500D02*
Y516000D01*
X974000Y510000D02*
X978500D01*
X983000D02*
G75*
G03X983000I-3000J0D01*
G01X982000D02*
G03X982000I-2000J0D01*
G01X655000Y740000D02*
Y740500D01*
Y740000D02*
X655500D01*
X655000D02*
Y739500D01*
Y740000D02*
X654500D01*
X656500D02*
X661500D01*
X655000Y738500D02*
Y735100D01*
Y741500D02*
Y746000D01*
X649000Y740000D02*
X653500D01*
X658000D02*
G03X658000I-3000J0D01*
G01X657000D02*
G03X657000I-2000J0D01*
G01X380000D02*
Y740500D01*
Y740000D02*
X380500D01*
X380000D02*
Y739500D01*
Y740000D02*
X379500D01*
X381500D02*
X386500D01*
X380000Y738500D02*
Y735100D01*
Y741500D02*
Y746000D01*
X374000Y740000D02*
X378500D01*
X383000D02*
G03X383000I-3000J0D01*
G01X382000D02*
G03X382000I-2000J0D01*
G54D28*
G01X150000Y450000D03*
X920000Y150000D03*
Y450000D03*
G54D59*
G54D61*
X100000Y100000D02*
Y100500D01*
Y100000D02*
X100500D01*
X100000D02*
Y99500D01*
Y100000D02*
X99500D01*
X101500D02*
X106500D01*
X100000Y98500D02*
Y95100D01*
Y101500D02*
Y106000D01*
X94000Y100000D02*
X98500D01*
X103000D02*
G03X103000I-3000J0D01*
G01X102000D02*
G03X102000I-2000J0D01*
G01X90000Y90000D02*
Y90500D01*
Y90000D02*
X90500D01*
X90000D02*
Y89500D01*
Y90000D02*
X89500D01*
X91500D02*
X96500D01*
X90000Y88500D02*
Y85100D01*
Y91500D02*
Y96000D01*
X84000Y90000D02*
X88500D01*
X93000D02*
G03X93000I-3000J0D01*
G01X92000D02*
G03X92000I-2000J0D01*
G54D82*
G01X206063Y488000D03*
X213937D03*
X703563Y478000D03*
X711437D03*
X306937Y242500D03*
X299063D03*
X306937Y117500D03*
X299063D03*
G54D83*
X308500Y483937D03*
Y476063D03*
G54D84*
X265000Y428406D03*
Y416594D03*
X768500Y439094D03*
Y450906D03*
X861000Y414094D03*
Y425906D03*
Y435594D03*
Y447406D03*
X450000Y258406D03*
Y246594D03*
Y133406D03*
Y121594D03*
X908500Y199094D03*
Y210906D03*
X780000Y480906D03*
Y469094D03*
X184500Y474094D03*
Y485906D03*
X215000Y475906D03*
Y464094D03*
X723500Y488406D03*
Y476594D03*
X283500Y379094D03*
Y390906D03*
Y400594D03*
Y412406D03*
X348500Y379094D03*
Y390906D03*
Y400594D03*
Y412406D03*
X305000Y443406D03*
Y431594D03*
X790000Y369094D03*
Y380906D03*
X703000Y463406D03*
Y451594D03*
X390000Y480906D03*
Y469094D03*
X223500Y265594D03*
Y277406D03*
Y255906D03*
Y244094D03*
Y140594D03*
Y152406D03*
Y130906D03*
Y119094D03*
X301500Y254594D03*
Y266406D03*
X413000Y246594D03*
Y258406D03*
X269500Y303406D03*
Y291594D03*
X340500Y258406D03*
Y246594D03*
X301500Y129594D03*
Y141406D03*
X413000Y121594D03*
Y133406D03*
X269500Y178406D03*
Y166594D03*
X340500Y133406D03*
Y121594D03*
X452000Y430906D03*
Y419094D03*
X572500Y430906D03*
Y419094D03*
X937500Y171594D03*
Y183406D03*
X920000Y210906D03*
Y199094D03*
X877500Y385094D03*
Y396906D03*
X174500Y424094D03*
Y435906D03*
X455000Y325406D03*
Y313594D03*
Y200406D03*
Y188594D03*
X785000Y324406D03*
Y312594D03*
X515000Y460594D03*
Y472406D03*
X148000Y374094D03*
Y385906D03*
X162500Y424094D03*
Y435906D03*
X902000Y235906D03*
Y224094D03*
X150500Y424094D03*
Y435906D03*
X402500Y258406D03*
Y246594D03*
Y133406D03*
Y121594D03*
X888000Y385094D03*
Y396906D03*
G54D85*
X826594Y359000D03*
X838406D03*
X215906Y452500D03*
X204094D03*
X933906Y386000D03*
X922094D03*
X707406Y439000D03*
X695594D03*
X330906Y307000D03*
X319094D03*
X330906Y182000D03*
X319094D03*
X354906Y328000D03*
X343094D03*
X354906Y203000D03*
X343094D03*
X867906Y262500D03*
X856094D03*
X906094Y275000D03*
X917906D03*
X319094Y278000D03*
X330906D03*
X383406Y340000D03*
X371594D03*
X319094Y153000D03*
X330906D03*
X383406Y215000D03*
X371594D03*
X819906Y445000D03*
X808094D03*
X590906Y396000D03*
X579094D03*
X634094Y338500D03*
X645906D03*
X798406Y445000D03*
X786594D03*
X826594Y369500D03*
X838406D03*
X861406Y359000D03*
X849594D03*
X149594Y315000D03*
X161406D03*
X149594Y190000D03*
X161406D03*
X514594Y162000D03*
X526406D03*
X514594Y192000D03*
X526406D03*
X713406Y270000D03*
X701594D03*
X713406Y313500D03*
X701594D03*
X713406Y145000D03*
X701594D03*
X713406Y188500D03*
X701594D03*
X514594Y287000D03*
X526406D03*
X514594Y317000D03*
X526406D03*
X514594Y179000D03*
X526406D03*
X713406Y299000D03*
X701594D03*
X713406Y174000D03*
X701594D03*
X789094Y245000D03*
X800906D03*
X149594Y274500D03*
X161406D03*
X149594Y325000D03*
X161406D03*
X149594Y149500D03*
X161406D03*
X149594Y200000D03*
X161406D03*
X514594Y304000D03*
X526406D03*
X149594Y335000D03*
X161406D03*
X149594Y210000D03*
X161406D03*
X861406Y369500D03*
X849594D03*
X861406Y347500D03*
X849594D03*
G54D86*
X402500Y275295D03*
Y299705D03*
Y150295D03*
Y174705D03*
X493500Y240295D03*
Y264705D03*
Y115295D03*
Y139705D03*
G54D87*
X877705Y306500D03*
X853295D03*
X915295Y353000D03*
X939705D03*
X379705Y285000D03*
X355295D03*
X379705Y160000D03*
X355295D03*
G54D88*
X736500Y476752D03*
Y488248D03*
X793000Y480748D03*
Y469252D03*
X462500Y246752D03*
Y258248D03*
Y121752D03*
Y133248D03*
X895000Y199252D03*
Y210748D03*
X888500Y235748D03*
Y224252D03*
X170000Y485748D03*
Y474252D03*
X200500Y475748D03*
Y464252D03*
X319500Y443248D03*
Y431752D03*
X690000Y463248D03*
Y451752D03*
X189500Y424252D03*
Y435748D03*
X314000Y254752D03*
Y266248D03*
Y129752D03*
Y141248D03*
G54D89*
X343252Y315500D03*
X354748D03*
X343252Y190500D03*
X354748D03*
X149752Y302500D03*
X161248D03*
X149752Y177500D03*
X161248D03*
X330748Y292500D03*
X319252D03*
X330748Y167500D03*
X319252D03*
G54D90*
X205000Y237050D03*
Y262950D03*
X203500Y112050D03*
Y137950D03*
X208500Y367050D03*
Y392950D03*
G54D91*
X283000Y305800D03*
Y289200D03*
Y180800D03*
Y164200D03*
G54D92*
X771563Y383661D03*
X773531D03*
X775500D03*
X777469D03*
X779437D03*
Y366339D03*
X777469D03*
X775500D03*
X773531D03*
X771563D03*
X713563Y466161D03*
X715531D03*
X717500D03*
X719469D03*
X721437D03*
Y448839D03*
X719469D03*
X717500D03*
X715531D03*
X713563D03*
X287937Y242339D03*
X285969D03*
X284000D03*
X282031D03*
X280063D03*
Y259661D03*
X282031D03*
X284000D03*
X285969D03*
X287937D03*
Y117339D03*
X285969D03*
X284000D03*
X282031D03*
X280063D03*
Y134661D03*
X282031D03*
X284000D03*
X285969D03*
X287937D03*
X226063Y478661D03*
X228031D03*
X230000D03*
X231969D03*
X233937D03*
Y461339D03*
X231969D03*
X230000D03*
X228031D03*
X226063D03*
G54D93*
X296500Y412799D03*
Y400201D03*
X361500Y412799D03*
Y400201D03*
X265000Y451799D03*
Y439201D03*
X421000Y287299D03*
Y274701D03*
X512000Y246201D03*
Y258799D03*
X421000Y162299D03*
Y149701D03*
X512000Y121201D03*
Y133799D03*
X872500Y447299D03*
Y434701D03*
X812500Y481299D03*
Y468701D03*
X825000Y481299D03*
Y468701D03*
X940000Y248701D03*
Y261299D03*
X245500Y378701D03*
Y391299D03*
X310500Y378701D03*
Y391299D03*
X803000Y381299D03*
Y368701D03*
X515000Y483701D03*
Y496299D03*
X148000Y409299D03*
Y396701D03*
X940000Y223701D03*
Y236299D03*
X442000Y313201D03*
Y325799D03*
Y188201D03*
Y200799D03*
X933000Y198701D03*
Y211299D03*
X162500Y459299D03*
Y446701D03*
X282500Y461201D03*
Y473799D03*
X522000Y431299D03*
Y418701D03*
X440000D03*
Y431299D03*
X509500Y418701D03*
Y431299D03*
X642500D03*
Y418701D03*
X560500D03*
Y431299D03*
X630000Y418701D03*
Y431299D03*
X950500Y183799D03*
Y171201D03*
X468000Y325799D03*
Y313201D03*
Y200799D03*
Y188201D03*
X770000Y324799D03*
Y312201D03*
X837500Y481299D03*
Y468701D03*
X477500Y483701D03*
Y496299D03*
X465000Y483701D03*
Y496299D03*
X250000Y416201D03*
Y428799D03*
X946500Y211299D03*
Y198701D03*
X390000Y246201D03*
Y258799D03*
Y121201D03*
Y133799D03*
G54D94*
X786201Y456000D03*
X798799D03*
X921201Y334500D03*
X933799D03*
X858701Y325000D03*
X871299D03*
X760799Y366500D03*
X748201D03*
X793701Y408000D03*
X806299D03*
X826701Y306500D03*
X839299D03*
X149201Y286000D03*
X161799D03*
X149201Y161000D03*
X161799D03*
X342701Y302000D03*
X355299D03*
X399701Y314000D03*
X412299D03*
X822201Y405000D03*
X834799D03*
X342701Y177000D03*
X355299D03*
X399701Y189000D03*
X412299D03*
X633701Y362500D03*
X646299D03*
X633701Y375000D03*
X646299D03*
X583701Y310000D03*
X596299D03*
X738701Y337500D03*
X751299D03*
X753701Y230000D03*
X766299D03*
X905701Y262500D03*
X918299D03*
X878701D03*
X891299D03*
X933799Y373000D03*
X921201D03*
X284799Y328500D03*
X272201D03*
X284799Y203500D03*
X272201D03*
X646299Y350000D03*
X633701D03*
X826201Y347500D03*
X838799D03*
X503799Y291000D03*
X491201D03*
Y278000D03*
X503799D03*
Y304000D03*
X491201D03*
Y317000D03*
X503799D03*
Y166000D03*
X491201D03*
Y153000D03*
X503799D03*
Y179000D03*
X491201D03*
Y192000D03*
X503799D03*
X724201Y284500D03*
X736799D03*
Y270000D03*
X724201D03*
Y299000D03*
X736799D03*
Y313500D03*
X724201D03*
Y159500D03*
X736799D03*
Y145000D03*
X724201D03*
Y174000D03*
X736799D03*
Y188500D03*
X724201D03*
X788701Y230000D03*
X801299D03*
X743701Y425500D03*
X756299D03*
X338701Y444500D03*
X351299D03*
Y430000D03*
X338701D03*
X743701Y451500D03*
X756299D03*
Y438500D03*
X743701D03*
X331299Y323000D03*
X318701D03*
X331299Y198000D03*
X318701D03*
X372201Y302000D03*
X384799D03*
X556799Y242500D03*
X544201D03*
X372201Y177000D03*
X384799D03*
X556799Y117500D03*
X544201D03*
X933799Y320000D03*
X921201D03*
X414799Y490000D03*
X402201D03*
X276701Y487000D03*
X289299D03*
X320299Y460500D03*
X307701D03*
G54D95*
X366870Y314500D03*
Y319500D03*
Y324500D03*
Y329500D03*
X388130D03*
Y324500D03*
Y319500D03*
Y314500D03*
X366870Y189500D03*
Y194500D03*
Y199500D03*
Y204500D03*
X388130D03*
Y199500D03*
Y194500D03*
Y189500D03*
X895630Y290000D03*
Y285000D03*
Y280000D03*
Y275000D03*
X874370D03*
Y280000D03*
Y285000D03*
Y290000D03*
X341630Y487500D03*
Y482500D03*
Y477500D03*
Y472500D03*
X320370D03*
Y477500D03*
Y482500D03*
Y487500D03*
G54D96*
X424500Y263130D03*
X429500D03*
X434500D03*
X439500D03*
Y241870D03*
X434500D03*
X429500D03*
X424500D03*
Y138130D03*
X429500D03*
X434500D03*
X439500D03*
Y116870D03*
X434500D03*
X429500D03*
X424500D03*
X927500Y224370D03*
X922500D03*
X917500D03*
X912500D03*
Y245630D03*
X917500D03*
X922500D03*
X927500D03*
X770000Y464370D03*
X765000D03*
X760000D03*
X755000D03*
Y485630D03*
X760000D03*
X765000D03*
X770000D03*
X292500Y426870D03*
X287500D03*
X282500D03*
X277500D03*
Y448130D03*
X282500D03*
X287500D03*
X292500D03*
X462000Y435630D03*
X467000D03*
X472000D03*
X477000D03*
X482000D03*
X487000D03*
X492000D03*
X497000D03*
Y414370D03*
X492000D03*
X487000D03*
X482000D03*
X477000D03*
X472000D03*
X467000D03*
X462000D03*
X582500Y435630D03*
X587500D03*
X592500D03*
X597500D03*
X602500D03*
X607500D03*
X612500D03*
X617500D03*
Y414370D03*
X612500D03*
X607500D03*
X602500D03*
X597500D03*
X592500D03*
X587500D03*
X582500D03*
G54D97*
X504500Y461400D03*
X499500D03*
X494500D03*
X489500D03*
Y488600D03*
X494500D03*
X499500D03*
X504500D03*
G54D98*
X613110Y387500D03*
Y382500D03*
Y377500D03*
Y372500D03*
Y367500D03*
Y362500D03*
Y357500D03*
Y352500D03*
Y347500D03*
X576890D03*
Y352500D03*
Y357500D03*
Y362500D03*
Y367500D03*
Y372500D03*
Y377500D03*
Y382500D03*
Y387500D03*
G54D99*
X903976Y167500D03*
Y172500D03*
Y177500D03*
Y182500D03*
X926024D03*
Y177500D03*
Y172500D03*
Y167500D03*
G54D100*
X860260Y391618D03*
X864000D03*
X867740D03*
Y381382D03*
X860260D03*
G54D101*
X847740Y381972D03*
X844000D03*
X840260D03*
Y391028D03*
X844000D03*
X847740D03*
G54D102*
X813819Y435177D03*
Y432618D03*
Y430059D03*
Y427500D03*
Y424941D03*
Y422382D03*
Y419823D03*
X791181D03*
Y422382D03*
Y424941D03*
Y427500D03*
Y430059D03*
Y432618D03*
Y435177D03*
G54D103*
X272677Y378681D03*
X270118D03*
X267559D03*
X265000D03*
X262441D03*
X259882D03*
X257323D03*
Y401319D03*
X259882D03*
X262441D03*
X265000D03*
X267559D03*
X270118D03*
X272677D03*
X850177Y418681D03*
X847618D03*
X845059D03*
X842500D03*
X839941D03*
X837382D03*
X834823D03*
Y441319D03*
X837382D03*
X839941D03*
X842500D03*
X845059D03*
X847618D03*
X850177D03*
X337677Y378681D03*
X335118D03*
X332559D03*
X330000D03*
X327441D03*
X324882D03*
X322323D03*
Y401319D03*
X324882D03*
X327441D03*
X330000D03*
X332559D03*
X335118D03*
X337677D03*
G54D104*
X235484Y269280D03*
X238043D03*
X240602D03*
X243161D03*
X245720D03*
X248280D03*
X250839D03*
X253398D03*
X255957D03*
X258516D03*
Y241720D03*
X255957D03*
X253398D03*
X250839D03*
X248280D03*
X245720D03*
X243161D03*
X240602D03*
X238043D03*
X235484D03*
Y144280D03*
X238043D03*
X240602D03*
X243161D03*
X245720D03*
X248280D03*
X250839D03*
X253398D03*
X255957D03*
X258516D03*
Y116720D03*
X255957D03*
X253398D03*
X250839D03*
X248280D03*
X245720D03*
X243161D03*
X240602D03*
X238043D03*
X235484D03*
G54D105*
X546457Y700000D03*
X548425D03*
X550394D03*
X552362D03*
X554331D03*
X556299D03*
X558268D03*
X560236D03*
X562205D03*
X564173D03*
X566142D03*
X568110D03*
X570079D03*
X572047D03*
X574016D03*
X575984D03*
X577953D03*
X579921D03*
X581890D03*
X583858D03*
X585827D03*
X587795D03*
X589764D03*
X591732D03*
X593701D03*
X595669D03*
X597638D03*
X599606D03*
X601575D03*
X603543D03*
G54D106*
X538976Y712795D03*
X611024D03*
G54D107*
X375000Y466732D03*
X355000D03*
Y483268D03*
X375000D03*
X355000Y260768D03*
X375000D03*
Y244232D03*
X355000D03*
Y135768D03*
X375000D03*
Y119232D03*
X355000D03*
G74*
X0Y0D02*
M02*
