M48
;FILE_FORMAT=2:4
INCH,LZ
FMAT,2
ICI,OFF
;TYPE=PLATED
T1C.02
T2C.035
T3C.037
T4C.039
T5C.04
T6C.05
T7C.055
T8C.063
T9C.067
T11C.073
;TYPE=NON_PLATED
T10C.071
T12C.073
T13C.079
T14C.108
T15C.11
T16C.13
T17C.15
%
M72
G90
G93X0Y0
T1C.02F197S55
X01375Y01825
X0216Y0131
X0216Y01405
X0216Y01525
X0216Y0119
X0288Y0143
X0323Y0141
X0338Y0141
X03405Y0115
X04025Y014
X04125Y015
X0442Y01795
X05145Y01715
X05265Y01715
X07015Y01595
X0714Y01595
X09505Y0164
X09375Y019
X0885Y01995
X0885Y02105
X08775Y02245
X08775Y02355
X07535Y02205
X06825Y02425
X05425Y0225
X05375Y02305
X05375Y026
X03895Y0215
X03655Y0215
X0355Y02105
X03405Y02405
X0265Y02035
X02525Y02225
X0245Y02225
X02375Y02225
X0216Y0244
X0216Y0256
X01375Y03075
X0216Y02655
X0216Y02775
X024Y028
X0245Y0285
X025Y028
X0255Y0285
X0288Y0268
X03225Y0266
X0338Y0266
X04025Y0265
X04125Y02755
X0442Y03045
X05145Y02965
X05265Y02965
X05425Y0265
X05675Y027
X05765Y031
X07015Y0285
X07135Y029
X0785Y03055
X0788Y02615
X08475Y02625
X0906Y02825
X0926Y02625
X094Y027
X0884Y03765
X0844Y0337
X08265Y03365
X0803Y0362
X077Y03585
X0765Y0385
X074Y03665
X07385Y03295
X0718Y0324
X0655Y03385
X0655Y035
X0655Y03625
X0623Y03775
X05905Y03725
X059Y033
X05825Y0324
X0575Y03375
X05475Y03305
X0515Y03305
X0395Y0385
X039Y034
X0365Y034
X03625Y03775
X03575Y03725
X0355Y03355
X03485Y0372
X033Y03625
X0325Y03675
X03105Y0372
X02835Y0372
X02765Y0372
X0265Y03625
X0264Y03285
X026Y03675
X02455Y0372
X02325Y03625
X02415Y0415
X026Y041
X02965Y03935
X0315Y0405
X033Y0432
X03325Y041
X03615Y03935
X0415Y041
X042Y03975
X0425Y04025
X044Y0412
X0467Y04075
X0472Y04025
X0492Y0405
X05095Y0412
X0522Y0412
X05605Y0412
X0573Y0396
X0597Y0396
X0613Y0405
X06225Y04
X063Y0412
X06425Y0412
X07245Y041
X0737Y0428
X078Y0425
X0787Y0408
X079Y0387
X0815Y0405
X08225Y04325
X08475Y0411
X08475Y04
X0855Y04
X0861Y0408
X08725Y04275
X0888Y04035
X08425Y045
X0826Y0445
X08025Y04695
X08025Y04805
X07745Y04575
X0737Y04515
X0737Y04385
X07275Y04575
X07275Y04675
X0715Y04395
X069Y0475
X0675Y0485
X0665Y0475
X066Y048
X05925Y04525
X05875Y04475
X05825Y04425
X05725Y04375
X0523Y04725
X04775Y04725
X0477Y04425
X0472Y04575
X0467Y04525
X0462Y04475
X0452Y04375
X0443Y04425
X0415Y048
X03975Y0469
X03975Y04775
X033Y0443
X03Y0476
X03Y0484
X0256Y0439
X02225Y04475
X0197Y0488
X055Y0645
X0555Y063
X0565Y065
X058Y066
X0585Y0645
X067Y049
X07455Y0488
X06175Y07025
X061Y07225
X0595Y06925
X057Y06725
X05475Y0685
X0545Y0665
X05425Y069
X0525Y0715
X0525Y07075
T2C.035F197S55
X019Y0185
X019Y031
X02Y0185
X02Y031
X061Y031
X062Y031
T3C.037F197S55
X0126Y0155
X0126Y0165
X0126Y0175
X0126Y0205
X0126Y0215
X0126Y0225
X017Y01175
X017Y01313
X01715Y02425
X01715Y02563
X0126Y028
X0126Y029
X0126Y03
X0126Y033
X0126Y034
X0126Y035
X0126Y0375
X0126Y0385
X0126Y0395
X0126Y0425
X0126Y0435
X0126Y0445
X0175Y0373
X0175Y03868
X0613Y05306
X0613Y05206
X0603Y05306
X0603Y05206
X0593Y05306
X0593Y05206
X0583Y05306
X0583Y05206
X0573Y05306
X0573Y05206
X0563Y05306
X0563Y05206
X0553Y05206
X0553Y05306
X0543Y05306
X0543Y05206
X0533Y05306
X0533Y05206
X0523Y05306
X0523Y05206
X0513Y05306
X0513Y05206
X0503Y05306
X0503Y05206
X0493Y05306
X0493Y05206
X0483Y05306
X0483Y05206
X0473Y05306
X0473Y05206
X0463Y05306
X0463Y05206
X0453Y05306
X0453Y05206
X0443Y05306
X0443Y05206
X0433Y05306
X0433Y05206
X0423Y05206
X0423Y05306
T4C.039F197S55
X044515Y01555
X044515Y02126
X0455Y01555
X046485Y02126
X046485Y01555
X076515Y01555
X076515Y02126
X0775Y01555
X078485Y02126
X078485Y01555
X078485Y02805
X078485Y03376
X0775Y02805
X076515Y02805
X076515Y03376
X046485Y02805
X046485Y03376
X0455Y02805
X044515Y02805
X044515Y03376
T5C.04F139S55
X0945Y0285
X0945Y0295
T6C.05F107S55
X027Y0135
X027Y0115
X027Y0155
X027Y019
X032Y01185
X0342Y01555
X04025Y0111
X04765Y01175
X04765Y02425
X04025Y0236
X0342Y02805
X032Y02435
X027Y026
X027Y028
X027Y024
X027Y0315
X01375Y026
X0115Y0245
X01895Y045
X019Y0405
X0205Y0425
X02085Y0354
X02225Y0415
X023Y044
X0245Y0455
X0445Y0385
X0685Y0439
X0716Y0428
X08525Y0485
X06225Y04775
X0598Y04875
X02675Y04725
T7C.055F107S55
X053575Y046915
X053575Y049085
X055225Y046915
X055225Y049085
T8C.063F089S55
X06206Y0155
X06206Y01747
X06403Y0155
X06403Y01747
X066Y0155
X066Y01747
X08403Y0145
X08403Y01647
X08403Y01844
X086Y0145
X086Y01844
X086Y01647
X066Y01944
X066Y02338
X066Y02141
X066Y02535
X06403Y02338
X06403Y02141
X06403Y01944
X06403Y02535
X06206Y02141
X06206Y01944
X06206Y02338
X06206Y02535
T9C.067F089S55
X0528Y01175
X0528Y02425
X0573Y02425
X0573Y01175
X0905Y032
X095Y032
X095Y0373
X0905Y0373
T10C.071F081S55
X0429Y030493G85X0429Y031513
X0481Y03049G85X0481Y03151
X0429Y017993G85X0429Y019013
X0481Y01799G85X0481Y01901
X0749Y030493G85X0749Y031513
X0801Y03049G85X0801Y03151
X0749Y017993G85X0749Y019013
X0801Y01799G85X0801Y01901
T11C.073F081S55
X03Y01665
X03Y0185
X03Y02035
X03Y02915
X03Y031
X03Y03285
T12C.073F081S55
X029375Y0154
X029375Y0216
X029375Y0279
X030625Y0216
X030625Y0154
X030625Y0279
X030625Y0341
X029375Y0341
T13C.079F081S55
X018Y0165
X018Y029
X022Y0205
X022Y033
T14C.108F069S658
X04038Y05249
X06321Y05249
X06321Y07178
X04038Y07178
T15C.11F069S658
X085015Y01206
X085015Y02088
T16C.13F035S794
X06403Y01245
X06403Y02843
T17C.15F035S9
X0125Y0125
X0125Y0475
X0945Y0125
X0945Y0475
M30
