*
*
G04 PADS VX.2.2 Build Number: 7607494 generated Gerber (RS-274-X) file*
G04 PC Version=2.1*
*
%IN "D3005H100_A.PCB"*%
*
%MOIN*%
*
%FSLAX35Y35*%
*
*
*
*
G04 PC Standard Apertures*
*
*
G04 Thermal Relief Aperture macro.*
%AMTER*
1,1,$1,0,0*
1,0,$1-$2,0,0*
21,0,$3,$4,0,0,45*
21,0,$3,$4,0,0,135*
%
*
*
G04 Annular Aperture macro.*
%AMANN*
1,1,$1,0,0*
1,0,$2,0,0*
%
*
*
G04 Odd Aperture macro.*
%AMODD*
1,1,$1,0,0*
1,0,$1-0.005,0,0*
%
*
*
G04 PC Custom Aperture Macros*
*
*
*
*
*
*
G04 PC Aperture Table*
*
%ADD010C,0.01*%
%ADD012C,0.005*%
%ADD059C,0.001*%
%ADD061C,0.007*%
*
*
*
*
G04 PC Circuitry*
G04 Layer Name D3005H100_A.PCB - circuitry*
%LPD*%
*
*
G04 PC Custom Flashes*
G04 Layer Name D3005H100_A.PCB - flashes*
%LPD*%
*
*
G04 PC Circuitry*
G04 Layer Name D3005H100_A.PCB - circuitry*
%LPD*%
*
G54D10*
G01X1797925Y1246303D02*
X1805925D01*
X1801925Y1242303D02*
Y1250303D01*
X1803925Y1251584D02*
Y1248303D01*
X1805516Y1251584D02*
Y1248303D01*
X1803925Y1250022D02*
X1805516D01*
X1797925Y1256503D02*
X1805925D01*
X1801925Y1252503D02*
Y1260503D01*
X1803925Y1261784D02*
Y1258503D01*
X1805516Y1261784D02*
Y1258503D01*
X1803925Y1260222D02*
X1805516D01*
X1798375Y1246303D02*
G75*
G03X1805475I3550J0D01*
G01Y1256503*
G03X1798375I-3550J0*
G01Y1246303*
X1849925Y1246275D02*
X1857925D01*
X1853925Y1242275D02*
Y1250275D01*
X1855925Y1251556D02*
Y1248275D01*
X1857516Y1251556D02*
Y1248275D01*
X1855925Y1249994D02*
X1857516D01*
X1849925Y1256475D02*
X1857925D01*
X1853925Y1252475D02*
Y1260475D01*
X1855925Y1261756D02*
Y1258475D01*
X1857516Y1261756D02*
Y1258475D01*
X1855925Y1260194D02*
X1857516D01*
X1850375Y1246275D02*
G03X1857475I3550J0D01*
G01Y1256475*
G03X1850375I-3550J0*
G01Y1246275*
X1797925Y1121303D02*
X1805925D01*
X1801925Y1117303D02*
Y1125303D01*
X1803925Y1126584D02*
Y1123303D01*
X1805516Y1126584D02*
Y1123303D01*
X1803925Y1125022D02*
X1805516D01*
X1797925Y1131503D02*
X1805925D01*
X1801925Y1127503D02*
Y1135503D01*
X1803925Y1136784D02*
Y1133503D01*
X1805516Y1136784D02*
Y1133503D01*
X1803925Y1135222D02*
X1805516D01*
X1798375Y1121303D02*
G03X1805475I3550J0D01*
G01Y1131503*
G03X1798375I-3550J0*
G01Y1121303*
X1849925Y1121275D02*
X1857925D01*
X1853925Y1117275D02*
Y1125275D01*
X1855925Y1126556D02*
Y1123275D01*
X1857516Y1126556D02*
Y1123275D01*
X1855925Y1124994D02*
X1857516D01*
X1849925Y1131475D02*
X1857925D01*
X1853925Y1127475D02*
Y1135475D01*
X1855925Y1136756D02*
Y1133475D01*
X1857516Y1136756D02*
Y1133475D01*
X1855925Y1135194D02*
X1857516D01*
X1850375Y1121275D02*
G03X1857475I3550J0D01*
G01Y1131475*
G03X1850375I-3550J0*
G01Y1121275*
X2117925Y1246303D02*
X2125925D01*
X2121925Y1242303D02*
Y1250303D01*
X2123925Y1251584D02*
Y1248303D01*
X2125516Y1251584D02*
Y1248303D01*
X2123925Y1250022D02*
X2125516D01*
X2117925Y1256503D02*
X2125925D01*
X2121925Y1252503D02*
Y1260503D01*
X2123925Y1261784D02*
Y1258503D01*
X2125516Y1261784D02*
Y1258503D01*
X2123925Y1260222D02*
X2125516D01*
X2118375Y1246303D02*
G03X2125475I3550J0D01*
G01Y1256503*
G03X2118375I-3550J0*
G01Y1246303*
X2169925Y1246275D02*
X2177925D01*
X2173925Y1242275D02*
Y1250275D01*
X2175925Y1251556D02*
Y1248275D01*
X2177516Y1251556D02*
Y1248275D01*
X2175925Y1249994D02*
X2177516D01*
X2169925Y1256475D02*
X2177925D01*
X2173925Y1252475D02*
Y1260475D01*
X2175925Y1261756D02*
Y1258475D01*
X2177516Y1261756D02*
Y1258475D01*
X2175925Y1260194D02*
X2177516D01*
X2170375Y1246275D02*
G03X2177475I3550J0D01*
G01Y1256475*
G03X2170375I-3550J0*
G01Y1246275*
X2117925Y1121303D02*
X2125925D01*
X2121925Y1117303D02*
Y1125303D01*
X2123925Y1126584D02*
Y1123303D01*
X2125516Y1126584D02*
Y1123303D01*
X2123925Y1125022D02*
X2125516D01*
X2117925Y1131503D02*
X2125925D01*
X2121925Y1127503D02*
Y1135503D01*
X2123925Y1136784D02*
Y1133503D01*
X2125516Y1136784D02*
Y1133503D01*
X2123925Y1135222D02*
X2125516D01*
X2118375Y1121303D02*
G03X2125475I3550J0D01*
G01Y1131503*
G03X2118375I-3550J0*
G01Y1121303*
X2169925Y1121275D02*
X2177925D01*
X2173925Y1117275D02*
Y1125275D01*
X2175925Y1126556D02*
Y1123275D01*
X2177516Y1126556D02*
Y1123275D01*
X2175925Y1124994D02*
X2177516D01*
X2169925Y1131475D02*
X2177925D01*
X2173925Y1127475D02*
Y1135475D01*
X2175925Y1136756D02*
Y1133475D01*
X2177516Y1136756D02*
Y1133475D01*
X2175925Y1135194D02*
X2177516D01*
X2170375Y1121275D02*
G03X2177475I3550J0D01*
G01Y1131475*
G03X2170375I-3550J0*
G01Y1121275*
X1540425Y1183875D02*
X1548425D01*
X1544425Y1179875D02*
Y1187875D01*
X1540425Y1197675D02*
X1548425D01*
X1544425Y1193675D02*
Y1201675D01*
X1538925Y1058875D02*
X1546925D01*
X1542925Y1054875D02*
Y1062875D01*
X1538925Y1072675D02*
X1546925D01*
X1542925Y1068675D02*
Y1076675D01*
X1543925Y1314375D02*
X1551925D01*
X1547925Y1310375D02*
Y1318375D01*
X1543925Y1328175D02*
X1551925D01*
X1547925Y1324175D02*
Y1332175D01*
X1981925Y1471975D02*
X1989925D01*
X1985925Y1467975D02*
Y1475975D01*
X1981925Y1461975D02*
X1989925D01*
X1985925Y1457975D02*
Y1465975D01*
X1971925Y1471975D02*
X1979925D01*
X1975925Y1467975D02*
Y1475975D01*
X1971925Y1461975D02*
X1979925D01*
X1975925Y1457975D02*
Y1465975D01*
X1961925Y1471975D02*
X1969925D01*
X1965925Y1467975D02*
Y1475975D01*
X1961925Y1461975D02*
X1969925D01*
X1965925Y1457975D02*
Y1465975D01*
X1951925Y1471975D02*
X1959925D01*
X1955925Y1467975D02*
Y1475975D01*
X1951925Y1461975D02*
X1959925D01*
X1955925Y1457975D02*
Y1465975D01*
X1941925Y1471975D02*
X1949925D01*
X1945925Y1467975D02*
Y1475975D01*
X1941925Y1461975D02*
X1949925D01*
X1945925Y1457975D02*
Y1465975D01*
X1931925Y1471975D02*
X1939925D01*
X1935925Y1467975D02*
Y1475975D01*
X1931925Y1461975D02*
X1939925D01*
X1935925Y1457975D02*
Y1465975D01*
X1921925Y1471975D02*
X1929925D01*
X1925925Y1467975D02*
Y1475975D01*
X1921925Y1461975D02*
X1929925D01*
X1925925Y1457975D02*
Y1465975D01*
X1911925Y1471975D02*
X1919925D01*
X1915925Y1467975D02*
Y1475975D01*
X1911925Y1461975D02*
X1919925D01*
X1915925Y1457975D02*
Y1465975D01*
X1901925Y1471975D02*
X1909925D01*
X1905925Y1467975D02*
Y1475975D01*
X1901925Y1461975D02*
X1909925D01*
X1905925Y1457975D02*
Y1465975D01*
X1891925Y1471975D02*
X1899925D01*
X1895925Y1467975D02*
Y1475975D01*
X1891925Y1461975D02*
X1899925D01*
X1895925Y1457975D02*
Y1465975D01*
X1881925Y1471975D02*
X1889925D01*
X1885925Y1467975D02*
Y1475975D01*
X1881925Y1461975D02*
X1889925D01*
X1885925Y1457975D02*
Y1465975D01*
X1871925Y1471975D02*
X1879925D01*
X1875925Y1467975D02*
Y1475975D01*
X1871925Y1461975D02*
X1879925D01*
X1875925Y1457975D02*
Y1465975D01*
X1861925Y1471975D02*
X1869925D01*
X1865925Y1467975D02*
Y1475975D01*
X1861925Y1461975D02*
X1869925D01*
X1865925Y1457975D02*
Y1465975D01*
X1851925Y1471975D02*
X1859925D01*
X1855925Y1467975D02*
Y1475975D01*
X1851925Y1461975D02*
X1859925D01*
X1855925Y1457975D02*
Y1465975D01*
X1841925Y1471975D02*
X1849925D01*
X1845925Y1467975D02*
Y1475975D01*
X1841925Y1461975D02*
X1849925D01*
X1845925Y1457975D02*
Y1465975D01*
X1831925Y1471975D02*
X1839925D01*
X1835925Y1467975D02*
Y1475975D01*
X1831925Y1461975D02*
X1839925D01*
X1835925Y1457975D02*
Y1465975D01*
X1821925Y1471975D02*
X1829925D01*
X1825925Y1467975D02*
Y1475975D01*
X1821925Y1461975D02*
X1829925D01*
X1825925Y1457975D02*
Y1465975D01*
X1811925Y1471975D02*
X1819925D01*
X1815925Y1467975D02*
Y1475975D01*
X1811925Y1461975D02*
X1819925D01*
X1815925Y1457975D02*
Y1465975D01*
X1801925Y1471975D02*
X1809925D01*
X1805925Y1467975D02*
Y1475975D01*
X1801925Y1461975D02*
X1809925D01*
X1805925Y1457975D02*
Y1465975D01*
X1791925Y1471975D02*
X1799925D01*
X1795925Y1467975D02*
Y1475975D01*
X1791925Y1461975D02*
X1799925D01*
X1795925Y1457975D02*
Y1465975D01*
X2028925Y1096375D02*
X2036925D01*
X2032925Y1092375D02*
Y1100375D01*
X2036630Y1100875D02*
X2036516Y1101188D01*
X2036516D02*
X2036289Y1101500D01*
X2036061Y1101656*
X2035607*
X2035380Y1101500*
X2035152Y1101188*
X2035152D02*
X2035039Y1100875D01*
X2034925Y1100406*
Y1099625*
X2035039Y1099156*
X2035152Y1098844*
X2035380Y1098531*
X2035607Y1098375*
X2036061*
X2036289Y1098531*
X2036516Y1098844*
X2036630Y1099156*
X2009225Y1096375D02*
X2017225D01*
X2013225Y1092375D02*
Y1100375D01*
X2016930Y1100875D02*
X2016816Y1101188D01*
X2016816D02*
X2016589Y1101500D01*
X2016361Y1101656*
X2015907*
X2015680Y1101500*
X2015452Y1101188*
X2015452D02*
X2015339Y1100875D01*
X2015225Y1100406*
Y1099625*
X2015339Y1099156*
X2015452Y1098844*
X2015680Y1098531*
X2015907Y1098375*
X2016361*
X2016589Y1098531*
X2016816Y1098844*
X2016930Y1099156*
X1989525Y1096375D02*
X1997525D01*
X1993525Y1092375D02*
Y1100375D01*
X1997230Y1100875D02*
X1997116Y1101188D01*
X1997116D02*
X1996889Y1101500D01*
X1996661Y1101656*
X1996207*
X1995980Y1101500*
X1995752Y1101188*
X1995752D02*
X1995639Y1100875D01*
X1995525Y1100406*
Y1099625*
X1995639Y1099156*
X1995752Y1098844*
X1995980Y1098531*
X1996207Y1098375*
X1996661*
X1996889Y1098531*
X1997116Y1098844*
X1997230Y1099156*
X2028925Y1116075D02*
X2036925D01*
X2032925Y1112075D02*
Y1120075D01*
X2036630Y1120575D02*
X2036516Y1120888D01*
X2036516D02*
X2036289Y1121200D01*
X2036061Y1121356*
X2035607*
X2035380Y1121200*
X2035152Y1120888*
X2035152D02*
X2035039Y1120575D01*
X2034925Y1120106*
Y1119325*
X2035039Y1118856*
X2035152Y1118544*
X2035380Y1118231*
X2035607Y1118075*
X2036061*
X2036289Y1118231*
X2036516Y1118544*
X2036630Y1118856*
X2009225Y1116075D02*
X2017225D01*
X2013225Y1112075D02*
Y1120075D01*
X2016930Y1120575D02*
X2016816Y1120888D01*
X2016816D02*
X2016589Y1121200D01*
X2016361Y1121356*
X2015907*
X2015680Y1121200*
X2015452Y1120888*
X2015452D02*
X2015339Y1120575D01*
X2015225Y1120106*
Y1119325*
X2015339Y1118856*
X2015452Y1118544*
X2015680Y1118231*
X2015907Y1118075*
X2016361*
X2016589Y1118231*
X2016816Y1118544*
X2016930Y1118856*
X1989525Y1116075D02*
X1997525D01*
X1993525Y1112075D02*
Y1120075D01*
X1997230Y1120575D02*
X1997116Y1120888D01*
X1997116D02*
X1996889Y1121200D01*
X1996661Y1121356*
X1996207*
X1995980Y1121200*
X1995752Y1120888*
X1995752D02*
X1995639Y1120575D01*
X1995525Y1120106*
Y1119325*
X1995639Y1118856*
X1995752Y1118544*
X1995980Y1118231*
X1996207Y1118075*
X1996661*
X1996889Y1118231*
X1997116Y1118544*
X1997230Y1118856*
X2028925Y1135775D02*
X2036925D01*
X2032925Y1131775D02*
Y1139775D01*
X2036630Y1140275D02*
X2036516Y1140588D01*
X2036516D02*
X2036289Y1140900D01*
X2036061Y1141056*
X2035607*
X2035380Y1140900*
X2035152Y1140588*
X2035152D02*
X2035039Y1140275D01*
X2034925Y1139806*
Y1139025*
X2035039Y1138556*
X2035152Y1138244*
X2035380Y1137931*
X2035607Y1137775*
X2036061*
X2036289Y1137931*
X2036516Y1138244*
X2036630Y1138556*
X2009225Y1135775D02*
X2017225D01*
X2013225Y1131775D02*
Y1139775D01*
X2016930Y1140275D02*
X2016816Y1140588D01*
X2016816D02*
X2016589Y1140900D01*
X2016361Y1141056*
X2015907*
X2015680Y1140900*
X2015452Y1140588*
X2015452D02*
X2015339Y1140275D01*
X2015225Y1139806*
Y1139025*
X2015339Y1138556*
X2015452Y1138244*
X2015680Y1137931*
X2015907Y1137775*
X2016361*
X2016589Y1137931*
X2016816Y1138244*
X2016930Y1138556*
X1989525Y1135775D02*
X1997525D01*
X1993525Y1131775D02*
Y1139775D01*
X1997230Y1140275D02*
X1997116Y1140588D01*
X1997116D02*
X1996889Y1140900D01*
X1996661Y1141056*
X1996207*
X1995980Y1140900*
X1995752Y1140588*
X1995752D02*
X1995639Y1140275D01*
X1995525Y1139806*
Y1139025*
X1995639Y1138556*
X1995752Y1138244*
X1995980Y1137931*
X1996207Y1137775*
X1996661*
X1996889Y1137931*
X1997116Y1138244*
X1997230Y1138556*
X2028925Y1155475D02*
X2036925D01*
X2032925Y1151475D02*
Y1159475D01*
X2036630Y1159975D02*
X2036516Y1160288D01*
X2036516D02*
X2036289Y1160600D01*
X2036061Y1160756*
X2035607*
X2035380Y1160600*
X2035152Y1160288*
X2035152D02*
X2035039Y1159975D01*
X2034925Y1159506*
Y1158725*
X2035039Y1158256*
X2035152Y1157944*
X2035380Y1157631*
X2035607Y1157475*
X2036061*
X2036289Y1157631*
X2036516Y1157944*
X2036630Y1158256*
X2009225Y1155475D02*
X2017225D01*
X2013225Y1151475D02*
Y1159475D01*
X2016930Y1159975D02*
X2016816Y1160288D01*
X2016816D02*
X2016589Y1160600D01*
X2016361Y1160756*
X2015907*
X2015680Y1160600*
X2015452Y1160288*
X2015452D02*
X2015339Y1159975D01*
X2015225Y1159506*
Y1158725*
X2015339Y1158256*
X2015452Y1157944*
X2015680Y1157631*
X2015907Y1157475*
X2016361*
X2016589Y1157631*
X2016816Y1157944*
X2016930Y1158256*
X1989525Y1155475D02*
X1997525D01*
X1993525Y1151475D02*
Y1159475D01*
X1997230Y1159975D02*
X1997116Y1160288D01*
X1997116D02*
X1996889Y1160600D01*
X1996661Y1160756*
X1996207*
X1995980Y1160600*
X1995752Y1160288*
X1995752D02*
X1995639Y1159975D01*
X1995525Y1159506*
Y1158725*
X1995639Y1158256*
X1995752Y1157944*
X1995980Y1157631*
X1996207Y1157475*
X1996661*
X1996889Y1157631*
X1997116Y1157944*
X1997230Y1158256*
X2028925Y1175175D02*
X2036925D01*
X2032925Y1171175D02*
Y1179175D01*
X2036630Y1179675D02*
X2036516Y1179988D01*
X2036516D02*
X2036289Y1180300D01*
X2036061Y1180456*
X2035607*
X2035380Y1180300*
X2035152Y1179988*
X2035152D02*
X2035039Y1179675D01*
X2034925Y1179206*
Y1178425*
X2035039Y1177956*
X2035152Y1177644*
X2035380Y1177331*
X2035607Y1177175*
X2036061*
X2036289Y1177331*
X2036516Y1177644*
X2036630Y1177956*
X2009225Y1175175D02*
X2017225D01*
X2013225Y1171175D02*
Y1179175D01*
X2016930Y1179675D02*
X2016816Y1179988D01*
X2016816D02*
X2016589Y1180300D01*
X2016361Y1180456*
X2015907*
X2015680Y1180300*
X2015452Y1179988*
X2015452D02*
X2015339Y1179675D01*
X2015225Y1179206*
Y1178425*
X2015339Y1177956*
X2015452Y1177644*
X2015680Y1177331*
X2015907Y1177175*
X2016361*
X2016589Y1177331*
X2016816Y1177644*
X2016930Y1177956*
X1989525Y1175175D02*
X1997525D01*
X1993525Y1171175D02*
Y1179175D01*
X1997230Y1179675D02*
X1997116Y1179988D01*
X1997116D02*
X1996889Y1180300D01*
X1996661Y1180456*
X1996207*
X1995980Y1180300*
X1995752Y1179988*
X1995752D02*
X1995639Y1179675D01*
X1995525Y1179206*
Y1178425*
X1995639Y1177956*
X1995752Y1177644*
X1995980Y1177331*
X1996207Y1177175*
X1996661*
X1996889Y1177331*
X1997116Y1177644*
X1997230Y1177956*
X2028925Y1194875D02*
X2036925D01*
X2032925Y1190875D02*
Y1198875D01*
X2036630Y1199375D02*
X2036516Y1199688D01*
X2036516D02*
X2036289Y1200000D01*
X2036061Y1200156*
X2035607*
X2035380Y1200000*
X2035152Y1199688*
X2035152D02*
X2035039Y1199375D01*
X2034925Y1198906*
Y1198125*
X2035039Y1197656*
X2035152Y1197344*
X2035380Y1197031*
X2035607Y1196875*
X2036061*
X2036289Y1197031*
X2036516Y1197344*
X2036630Y1197656*
X2009225Y1194875D02*
X2017225D01*
X2013225Y1190875D02*
Y1198875D01*
X2016930Y1199375D02*
X2016816Y1199688D01*
X2016816D02*
X2016589Y1200000D01*
X2016361Y1200156*
X2015907*
X2015680Y1200000*
X2015452Y1199688*
X2015452D02*
X2015339Y1199375D01*
X2015225Y1198906*
Y1198125*
X2015339Y1197656*
X2015452Y1197344*
X2015680Y1197031*
X2015907Y1196875*
X2016361*
X2016589Y1197031*
X2016816Y1197344*
X2016930Y1197656*
X1989525Y1194875D02*
X1997525D01*
X1993525Y1190875D02*
Y1198875D01*
X1997230Y1199375D02*
X1997116Y1199688D01*
X1997116D02*
X1996889Y1200000D01*
X1996661Y1200156*
X1996207*
X1995980Y1200000*
X1995752Y1199688*
X1995752D02*
X1995639Y1199375D01*
X1995525Y1198906*
Y1198125*
X1995639Y1197656*
X1995752Y1197344*
X1995980Y1197031*
X1996207Y1196875*
X1996661*
X1996889Y1197031*
X1997116Y1197344*
X1997230Y1197656*
X2009225Y1065875D02*
X2017225D01*
X2013225Y1061875D02*
Y1069875D01*
X2015225Y1071156D02*
Y1067875D01*
Y1071156D02*
X2016248D01*
X2016589Y1071000*
X2016702Y1070844*
X2016816Y1070531*
Y1070219*
X2016702Y1069906*
X2016589Y1069750*
X2016248Y1069594*
X2015225D02*
X2016248D01*
X2016589Y1069438*
X2016589D02*
X2016702Y1069281D01*
X2016816Y1068969*
Y1068500*
X2016702Y1068188*
X2016702D02*
X2016589Y1068031D01*
X2016248Y1067875*
X2015225*
X2009225Y1225675D02*
X2017225D01*
X2013225Y1221675D02*
Y1229675D01*
X2015225Y1230956D02*
Y1227675D01*
Y1230956D02*
X2016248D01*
X2016589Y1230800*
X2016702Y1230644*
X2016816Y1230331*
Y1230019*
X2016702Y1229706*
X2016589Y1229550*
X2016248Y1229394*
X2015225D02*
X2016248D01*
X2016589Y1229238*
X2016589D02*
X2016702Y1229081D01*
X2016816Y1228769*
Y1228300*
X2016702Y1227988*
X2016702D02*
X2016589Y1227831D01*
X2016248Y1227675*
X2015225*
X2228925Y1086375D02*
X2236925D01*
X2232925Y1082375D02*
Y1090375D01*
X2236630Y1090875D02*
X2236516Y1091188D01*
X2236516D02*
X2236289Y1091500D01*
X2236061Y1091656*
X2235607*
X2235380Y1091500*
X2235152Y1091188*
X2235152D02*
X2235039Y1090875D01*
X2234925Y1090406*
Y1089625*
X2235039Y1089156*
X2235152Y1088844*
X2235380Y1088531*
X2235607Y1088375*
X2236061*
X2236289Y1088531*
X2236516Y1088844*
X2236630Y1089156*
X2209225Y1086375D02*
X2217225D01*
X2213225Y1082375D02*
Y1090375D01*
X2216930Y1090875D02*
X2216816Y1091188D01*
X2216816D02*
X2216589Y1091500D01*
X2216361Y1091656*
X2215907*
X2215680Y1091500*
X2215452Y1091188*
X2215452D02*
X2215339Y1090875D01*
X2215225Y1090406*
Y1089625*
X2215339Y1089156*
X2215452Y1088844*
X2215680Y1088531*
X2215907Y1088375*
X2216361*
X2216589Y1088531*
X2216816Y1088844*
X2216930Y1089156*
X2228925Y1106075D02*
X2236925D01*
X2232925Y1102075D02*
Y1110075D01*
X2236630Y1110575D02*
X2236516Y1110888D01*
X2236516D02*
X2236289Y1111200D01*
X2236061Y1111356*
X2235607*
X2235380Y1111200*
X2235152Y1110888*
X2235152D02*
X2235039Y1110575D01*
X2234925Y1110106*
Y1109325*
X2235039Y1108856*
X2235152Y1108544*
X2235380Y1108231*
X2235607Y1108075*
X2236061*
X2236289Y1108231*
X2236516Y1108544*
X2236630Y1108856*
X2209225Y1106075D02*
X2217225D01*
X2213225Y1102075D02*
Y1110075D01*
X2216930Y1110575D02*
X2216816Y1110888D01*
X2216816D02*
X2216589Y1111200D01*
X2216361Y1111356*
X2215907*
X2215680Y1111200*
X2215452Y1110888*
X2215452D02*
X2215339Y1110575D01*
X2215225Y1110106*
Y1109325*
X2215339Y1108856*
X2215452Y1108544*
X2215680Y1108231*
X2215907Y1108075*
X2216361*
X2216589Y1108231*
X2216816Y1108544*
X2216930Y1108856*
X2228925Y1125775D02*
X2236925D01*
X2232925Y1121775D02*
Y1129775D01*
X2236630Y1130275D02*
X2236516Y1130588D01*
X2236516D02*
X2236289Y1130900D01*
X2236061Y1131056*
X2235607*
X2235380Y1130900*
X2235152Y1130588*
X2235152D02*
X2235039Y1130275D01*
X2234925Y1129806*
Y1129025*
X2235039Y1128556*
X2235152Y1128244*
X2235380Y1127931*
X2235607Y1127775*
X2236061*
X2236289Y1127931*
X2236516Y1128244*
X2236630Y1128556*
X2209225Y1125775D02*
X2217225D01*
X2213225Y1121775D02*
Y1129775D01*
X2216930Y1130275D02*
X2216816Y1130588D01*
X2216816D02*
X2216589Y1130900D01*
X2216361Y1131056*
X2215907*
X2215680Y1130900*
X2215452Y1130588*
X2215452D02*
X2215339Y1130275D01*
X2215225Y1129806*
Y1129025*
X2215339Y1128556*
X2215452Y1128244*
X2215680Y1127931*
X2215907Y1127775*
X2216361*
X2216589Y1127931*
X2216816Y1128244*
X2216930Y1128556*
X2219075Y1061975D02*
X2227075D01*
X2223075Y1057975D02*
Y1065975D01*
X2225075Y1067256D02*
Y1063975D01*
Y1067256D02*
X2225870D01*
X2226211Y1067100*
X2226439Y1066788*
X2226439D02*
X2226552Y1066475D01*
X2226666Y1066006*
Y1065225*
X2226552Y1064756*
X2226439Y1064444*
X2226211Y1064131*
X2225870Y1063975*
X2225075*
X2219075Y1150175D02*
X2227075D01*
X2223075Y1146175D02*
Y1154175D01*
X2225075Y1155456D02*
Y1152175D01*
Y1155456D02*
X2225870D01*
X2226211Y1155300*
X2226439Y1154988*
X2226439D02*
X2226552Y1154675D01*
X2226666Y1154206*
Y1153425*
X2226552Y1152956*
X2226439Y1152644*
X2226211Y1152331*
X2225870Y1152175*
X2225075*
X2313925Y1236375D02*
X2321925D01*
X2317925Y1232375D02*
Y1240375D01*
X2319925Y1241656D02*
Y1238375D01*
X2313925Y1226375D02*
X2321925D01*
X2317925Y1222375D02*
Y1230375D01*
X2319925Y1231656D02*
Y1228375D01*
X1921175Y1432225D02*
X1929175D01*
X1925175Y1428225D02*
Y1436225D01*
X1928311Y1437506D02*
Y1435006D01*
X1928198Y1434538*
X1928198D02*
X1928084Y1434381D01*
X1927857Y1434225*
X1927630*
X1927402Y1434381*
X1927289Y1434538*
X1927289D02*
X1927175Y1435006D01*
Y1435319*
X1921175Y1410525D02*
X1929175D01*
X1925175Y1406525D02*
Y1414525D01*
X1928311Y1415806D02*
Y1413306D01*
X1928198Y1412838*
X1928198D02*
X1928084Y1412681D01*
X1927857Y1412525*
X1927630*
X1927402Y1412681*
X1927289Y1412838*
X1927289D02*
X1927175Y1413306D01*
Y1413619*
X1904675Y1432225D02*
X1912675D01*
X1908675Y1428225D02*
Y1436225D01*
X1911811Y1437506D02*
Y1435006D01*
X1911698Y1434538*
X1911698D02*
X1911584Y1434381D01*
X1911357Y1434225*
X1911130*
X1910902Y1434381*
X1910789Y1434538*
X1910789D02*
X1910675Y1435006D01*
Y1435319*
X1904675Y1410525D02*
X1912675D01*
X1908675Y1406525D02*
Y1414525D01*
X1911811Y1415806D02*
Y1413306D01*
X1911698Y1412838*
X1911698D02*
X1911584Y1412681D01*
X1911357Y1412525*
X1911130*
X1910902Y1412681*
X1910789Y1412838*
X1910789D02*
X1910675Y1413306D01*
Y1413619*
X1558925Y1251375D02*
X1566925D01*
X1562925Y1247375D02*
Y1255375D01*
X1564925Y1256656D02*
Y1253375D01*
Y1256656D02*
X1566402D01*
X1564925Y1255094D02*
X1565834D01*
X1568925Y1251375D02*
X1576925D01*
X1572925Y1247375D02*
Y1255375D01*
X1574925Y1256656D02*
Y1253375D01*
Y1256656D02*
X1576402D01*
X1574925Y1255094D02*
X1575834D01*
X1588925Y1271375D02*
X1596925D01*
X1592925Y1267375D02*
Y1275375D01*
X1594925Y1276656D02*
Y1273375D01*
Y1276656D02*
X1596402D01*
X1594925Y1275094D02*
X1595834D01*
X1594925Y1273375D02*
X1596402D01*
X1548925Y1231375D02*
X1556925D01*
X1552925Y1227375D02*
Y1235375D01*
X1554925Y1236656D02*
Y1233375D01*
Y1236656D02*
X1556402D01*
X1554925Y1235094D02*
X1555834D01*
X1554925Y1233375D02*
X1556402D01*
X1558925Y1126375D02*
X1566925D01*
X1562925Y1122375D02*
Y1130375D01*
X1564925Y1131656D02*
Y1128375D01*
Y1131656D02*
X1566402D01*
X1564925Y1130094D02*
X1565834D01*
X1568925Y1126375D02*
X1576925D01*
X1572925Y1122375D02*
Y1130375D01*
X1574925Y1131656D02*
Y1128375D01*
Y1131656D02*
X1576402D01*
X1574925Y1130094D02*
X1575834D01*
X1588925Y1146375D02*
X1596925D01*
X1592925Y1142375D02*
Y1150375D01*
X1594925Y1151656D02*
Y1148375D01*
Y1151656D02*
X1596402D01*
X1594925Y1150094D02*
X1595834D01*
X1594925Y1148375D02*
X1596402D01*
X1548925Y1106375D02*
X1556925D01*
X1552925Y1102375D02*
Y1110375D01*
X1554925Y1111656D02*
Y1108375D01*
Y1111656D02*
X1556402D01*
X1554925Y1110094D02*
X1555834D01*
X1554925Y1108375D02*
X1556402D01*
X1494925Y1221375D02*
X1502925D01*
X1498925Y1217375D02*
Y1225375D01*
X1494925Y1231375D02*
X1502925D01*
X1498925Y1227375D02*
Y1235375D01*
X1494925Y1241375D02*
X1502925D01*
X1498925Y1237375D02*
Y1245375D01*
X1494925Y1271375D02*
X1502925D01*
X1498925Y1267375D02*
Y1275375D01*
X1494925Y1281375D02*
X1502925D01*
X1498925Y1277375D02*
Y1285375D01*
X1494925Y1291375D02*
X1502925D01*
X1498925Y1287375D02*
Y1295375D01*
X1494925Y1096375D02*
X1502925D01*
X1498925Y1092375D02*
Y1100375D01*
X1494925Y1106375D02*
X1502925D01*
X1498925Y1102375D02*
Y1110375D01*
X1494925Y1116375D02*
X1502925D01*
X1498925Y1112375D02*
Y1120375D01*
X1494925Y1146375D02*
X1502925D01*
X1498925Y1142375D02*
Y1150375D01*
X1494925Y1156375D02*
X1502925D01*
X1498925Y1152375D02*
Y1160375D01*
X1494925Y1166375D02*
X1502925D01*
X1498925Y1162375D02*
Y1170375D01*
X1494925Y1316375D02*
X1502925D01*
X1498925Y1312375D02*
Y1320375D01*
X1494925Y1326375D02*
X1502925D01*
X1498925Y1322375D02*
Y1330375D01*
X1494925Y1336375D02*
X1502925D01*
X1498925Y1332375D02*
Y1340375D01*
X1494925Y1366375D02*
X1502925D01*
X1498925Y1362375D02*
Y1370375D01*
X1494925Y1376375D02*
X1502925D01*
X1498925Y1372375D02*
Y1380375D01*
X1494925Y1386375D02*
X1502925D01*
X1498925Y1382375D02*
Y1390375D01*
X1988925Y1251375D02*
X1996925D01*
X1992925Y1247375D02*
Y1255375D01*
X1994925Y1256656D02*
Y1253375D01*
Y1256656D02*
X1996402D01*
X1994925Y1255094D02*
X1995834D01*
X1978925Y1251375D02*
X1986925D01*
X1982925Y1247375D02*
Y1255375D01*
X1984925Y1256656D02*
Y1253375D01*
Y1256656D02*
X1986402D01*
X1984925Y1255094D02*
X1985834D01*
X1814075Y1221875D02*
X1822075D01*
X1818075Y1217875D02*
Y1225875D01*
X1820984Y1227156D02*
X1820075Y1223875D01*
X1820984Y1227156D02*
X1821893Y1223875D01*
X1820416Y1224969D02*
X1821552D01*
X1823925Y1221875D02*
X1831925D01*
X1827925Y1217875D02*
Y1225875D01*
X1830834Y1227156D02*
X1829925Y1223875D01*
X1830834Y1227156D02*
X1831743Y1223875D01*
X1830266Y1224969D02*
X1831402D01*
X1833775Y1221875D02*
X1841775D01*
X1837775Y1217875D02*
Y1225875D01*
X1840684Y1227156D02*
X1839775Y1223875D01*
X1840684Y1227156D02*
X1841593Y1223875D01*
X1840116Y1224969D02*
X1841252D01*
X1833775Y1278975D02*
X1841775D01*
X1837775Y1274975D02*
Y1282975D01*
X1840684Y1284256D02*
X1839775Y1280975D01*
X1840684Y1284256D02*
X1841593Y1280975D01*
X1840116Y1282069D02*
X1841252D01*
X1814075Y1278975D02*
X1822075D01*
X1818075Y1274975D02*
Y1282975D01*
X1820984Y1284256D02*
X1820075Y1280975D01*
X1820984Y1284256D02*
X1821893Y1280975D01*
X1820416Y1282069D02*
X1821552D01*
X1814075Y1096875D02*
X1822075D01*
X1818075Y1092875D02*
Y1100875D01*
X1820984Y1102156D02*
X1820075Y1098875D01*
X1820984Y1102156D02*
X1821893Y1098875D01*
X1820416Y1099969D02*
X1821552D01*
X1823925Y1096875D02*
X1831925D01*
X1827925Y1092875D02*
Y1100875D01*
X1830834Y1102156D02*
X1829925Y1098875D01*
X1830834Y1102156D02*
X1831743Y1098875D01*
X1830266Y1099969D02*
X1831402D01*
X1833775Y1096875D02*
X1841775D01*
X1837775Y1092875D02*
Y1100875D01*
X1840684Y1102156D02*
X1839775Y1098875D01*
X1840684Y1102156D02*
X1841593Y1098875D01*
X1840116Y1099969D02*
X1841252D01*
X1833775Y1153975D02*
X1841775D01*
X1837775Y1149975D02*
Y1157975D01*
X1840684Y1159256D02*
X1839775Y1155975D01*
X1840684Y1159256D02*
X1841593Y1155975D01*
X1840116Y1157069D02*
X1841252D01*
X1814075Y1153975D02*
X1822075D01*
X1818075Y1149975D02*
Y1157975D01*
X1820984Y1159256D02*
X1820075Y1155975D01*
X1820984Y1159256D02*
X1821893Y1155975D01*
X1820416Y1157069D02*
X1821552D01*
X2134075Y1221875D02*
X2142075D01*
X2138075Y1217875D02*
Y1225875D01*
X2140984Y1227156D02*
X2140075Y1223875D01*
X2140984Y1227156D02*
X2141893Y1223875D01*
X2140416Y1224969D02*
X2141552D01*
X2143925Y1221875D02*
X2151925D01*
X2147925Y1217875D02*
Y1225875D01*
X2150834Y1227156D02*
X2149925Y1223875D01*
X2150834Y1227156D02*
X2151743Y1223875D01*
X2150266Y1224969D02*
X2151402D01*
X2153775Y1221875D02*
X2161775D01*
X2157775Y1217875D02*
Y1225875D01*
X2160684Y1227156D02*
X2159775Y1223875D01*
X2160684Y1227156D02*
X2161593Y1223875D01*
X2160116Y1224969D02*
X2161252D01*
X2153775Y1278975D02*
X2161775D01*
X2157775Y1274975D02*
Y1282975D01*
X2160684Y1284256D02*
X2159775Y1280975D01*
X2160684Y1284256D02*
X2161593Y1280975D01*
X2160116Y1282069D02*
X2161252D01*
X2134075Y1278975D02*
X2142075D01*
X2138075Y1274975D02*
Y1282975D01*
X2140984Y1284256D02*
X2140075Y1280975D01*
X2140984Y1284256D02*
X2141893Y1280975D01*
X2140416Y1282069D02*
X2141552D01*
X2134075Y1096875D02*
X2142075D01*
X2138075Y1092875D02*
Y1100875D01*
X2140984Y1102156D02*
X2140075Y1098875D01*
X2140984Y1102156D02*
X2141893Y1098875D01*
X2140416Y1099969D02*
X2141552D01*
X2143925Y1096875D02*
X2151925D01*
X2147925Y1092875D02*
Y1100875D01*
X2150834Y1102156D02*
X2149925Y1098875D01*
X2150834Y1102156D02*
X2151743Y1098875D01*
X2150266Y1099969D02*
X2151402D01*
X2153775Y1096875D02*
X2161775D01*
X2157775Y1092875D02*
Y1100875D01*
X2160684Y1102156D02*
X2159775Y1098875D01*
X2160684Y1102156D02*
X2161593Y1098875D01*
X2160116Y1099969D02*
X2161252D01*
X2153775Y1153975D02*
X2161775D01*
X2157775Y1149975D02*
Y1157975D01*
X2160684Y1159256D02*
X2159775Y1155975D01*
X2160684Y1159256D02*
X2161593Y1155975D01*
X2160116Y1157069D02*
X2161252D01*
X2134075Y1153975D02*
X2142075D01*
X2138075Y1149975D02*
Y1157975D01*
X2140984Y1159256D02*
X2140075Y1155975D01*
X2140984Y1159256D02*
X2141893Y1155975D01*
X2140416Y1157069D02*
X2141552D01*
X1668925Y1232875D02*
X1676925D01*
X1672925Y1228875D02*
Y1236875D01*
X1676630Y1237375D02*
X1676516Y1237688D01*
X1676516D02*
X1676289Y1238000D01*
X1676061Y1238156*
X1675607*
X1675380Y1238000*
X1675152Y1237688*
X1675152D02*
X1675039Y1237375D01*
X1674925Y1236906*
Y1236125*
X1675039Y1235656*
X1675152Y1235344*
X1675380Y1235031*
X1675607Y1234875*
X1676061*
X1676289Y1235031*
X1676516Y1235344*
X1676630Y1235656*
Y1236125*
X1676061D02*
X1676630D01*
X1668925Y1251375D02*
X1676925D01*
X1672925Y1247375D02*
Y1255375D01*
X1676630Y1255875D02*
X1676516Y1256188D01*
X1676516D02*
X1676289Y1256500D01*
X1676061Y1256656*
X1675607*
X1675380Y1256500*
X1675152Y1256188*
X1675152D02*
X1675039Y1255875D01*
X1674925Y1255406*
Y1254625*
X1675039Y1254156*
X1675152Y1253844*
X1675380Y1253531*
X1675607Y1253375*
X1676061*
X1676289Y1253531*
X1676516Y1253844*
X1676630Y1254156*
Y1254625*
X1676061D02*
X1676630D01*
X1668925Y1269875D02*
X1676925D01*
X1672925Y1265875D02*
Y1273875D01*
X1676630Y1274375D02*
X1676516Y1274688D01*
X1676516D02*
X1676289Y1275000D01*
X1676061Y1275156*
X1675607*
X1675380Y1275000*
X1675152Y1274688*
X1675152D02*
X1675039Y1274375D01*
X1674925Y1273906*
Y1273125*
X1675039Y1272656*
X1675152Y1272344*
X1675380Y1272031*
X1675607Y1271875*
X1676061*
X1676289Y1272031*
X1676516Y1272344*
X1676630Y1272656*
Y1273125*
X1676061D02*
X1676630D01*
X1662675Y1278375D02*
X1670675Y1286375D01*
Y1278375*
X1662675Y1286375*
Y1278375*
X1675175D02*
X1683175Y1286375D01*
Y1278375*
X1675175Y1286375*
Y1278375*
X1662675Y1216375D02*
X1670675Y1224375D01*
Y1216375*
X1662675Y1224375*
Y1216375*
X1675175D02*
X1683175Y1224375D01*
Y1216375*
X1675175Y1224375*
Y1216375*
X1668925Y1107875D02*
X1676925D01*
X1672925Y1103875D02*
Y1111875D01*
X1676630Y1112375D02*
X1676516Y1112688D01*
X1676516D02*
X1676289Y1113000D01*
X1676061Y1113156*
X1675607*
X1675380Y1113000*
X1675152Y1112688*
X1675152D02*
X1675039Y1112375D01*
X1674925Y1111906*
Y1111125*
X1675039Y1110656*
X1675152Y1110344*
X1675380Y1110031*
X1675607Y1109875*
X1676061*
X1676289Y1110031*
X1676516Y1110344*
X1676630Y1110656*
Y1111125*
X1676061D02*
X1676630D01*
X1668925Y1126375D02*
X1676925D01*
X1672925Y1122375D02*
Y1130375D01*
X1676630Y1130875D02*
X1676516Y1131188D01*
X1676516D02*
X1676289Y1131500D01*
X1676061Y1131656*
X1675607*
X1675380Y1131500*
X1675152Y1131188*
X1675152D02*
X1675039Y1130875D01*
X1674925Y1130406*
Y1129625*
X1675039Y1129156*
X1675152Y1128844*
X1675380Y1128531*
X1675607Y1128375*
X1676061*
X1676289Y1128531*
X1676516Y1128844*
X1676630Y1129156*
Y1129625*
X1676061D02*
X1676630D01*
X1668925Y1144875D02*
X1676925D01*
X1672925Y1140875D02*
Y1148875D01*
X1676630Y1149375D02*
X1676516Y1149688D01*
X1676516D02*
X1676289Y1150000D01*
X1676061Y1150156*
X1675607*
X1675380Y1150000*
X1675152Y1149688*
X1675152D02*
X1675039Y1149375D01*
X1674925Y1148906*
Y1148125*
X1675039Y1147656*
X1675152Y1147344*
X1675380Y1147031*
X1675607Y1146875*
X1676061*
X1676289Y1147031*
X1676516Y1147344*
X1676630Y1147656*
Y1148125*
X1676061D02*
X1676630D01*
X1662675Y1153375D02*
X1670675Y1161375D01*
Y1153375*
X1662675Y1161375*
Y1153375*
X1675175D02*
X1683175Y1161375D01*
Y1153375*
X1675175Y1161375*
Y1153375*
X1662675Y1091375D02*
X1670675Y1099375D01*
Y1091375*
X1662675Y1099375*
Y1091375*
X1675175D02*
X1683175Y1099375D01*
Y1091375*
X1675175Y1099375*
Y1091375*
X2322925Y1310375D02*
X2326925Y1314375D01*
X2322925Y1318375*
X2318925Y1314375*
X2322925Y1310375*
Y1314375D02*
Y1318375D01*
X2277925Y1310375D02*
X2281925Y1314375D01*
X2277925Y1318375*
X2273925Y1314375*
X2277925Y1310375*
Y1314375D02*
Y1318375D01*
X2322925Y1257375D02*
X2326925Y1261375D01*
X2322925Y1265375*
X2318925Y1261375*
X2322925Y1257375*
Y1261375D02*
Y1265375D01*
X2277925Y1257375D02*
X2281925Y1261375D01*
X2277925Y1265375*
X2273925Y1261375*
X2277925Y1257375*
Y1261375D02*
Y1265375D01*
X1945925Y1179875D02*
X1949925Y1183875D01*
X1945925Y1187875*
X1941925Y1183875*
X1945925Y1179875*
Y1183875D02*
Y1187875D01*
X1900925Y1179875D02*
X1904925Y1183875D01*
X1900925Y1187875*
X1896925Y1183875*
X1900925Y1179875*
Y1183875D02*
Y1187875D01*
X1945925Y1054875D02*
X1949925Y1058875D01*
X1945925Y1062875*
X1941925Y1058875*
X1945925Y1054875*
Y1058875D02*
Y1062875D01*
X1900925Y1054875D02*
X1904925Y1058875D01*
X1900925Y1062875*
X1896925Y1058875*
X1900925Y1054875*
Y1058875D02*
Y1062875D01*
X2221425Y1422375D02*
X2229425D01*
Y1430375*
X2221425*
Y1422375*
X2225425Y1426375D02*
Y1430375D01*
X1771425Y1048375D02*
X1779425D01*
Y1056375*
X1771425*
Y1048375*
X1775425Y1052375D02*
Y1056375D01*
X1688925Y1055875D02*
X1696925D01*
Y1063875*
X1688925*
Y1055875*
X1692925Y1059875D02*
Y1063875D01*
X1483925Y1182375D02*
X1491925D01*
Y1190375*
X1483925*
Y1182375*
X1487925Y1186375D02*
Y1190375D01*
X1577425Y1291375D02*
X1585425D01*
Y1299375*
X1577425*
Y1291375*
X1581425Y1295375D02*
Y1299375D01*
X1573925Y1362375D02*
X1581925D01*
Y1370375*
X1573925*
Y1362375*
X1577925Y1366375D02*
Y1370375D01*
X1558425Y1387375D02*
X1566425D01*
Y1395375*
X1558425*
Y1387375*
X1562425Y1391375D02*
Y1395375D01*
X1710925Y1217875D02*
X1718925D01*
Y1225875*
X1710925*
Y1217875*
X1714925Y1221875D02*
Y1225875D01*
X1845425Y1179875D02*
X1853425D01*
Y1187875*
X1845425*
Y1179875*
X1849425Y1183875D02*
Y1187875D01*
X1710925Y1092875D02*
X1718925D01*
Y1100875*
X1710925*
Y1092875*
X1714925Y1096875D02*
Y1100875D01*
X1845425Y1054875D02*
X1853425D01*
Y1062875*
X1845425*
Y1054875*
X1849425Y1058875D02*
Y1062875D01*
X1636425Y1409875D02*
X1644425D01*
Y1417875*
X1636425*
Y1409875*
X1640425Y1413875D02*
Y1417875D01*
X1638925Y1252375D02*
X1646925D01*
Y1260375*
X1638925*
Y1252375*
X1642925Y1256375D02*
Y1260375D01*
X1638925Y1127375D02*
X1646925D01*
Y1135375*
X1638925*
Y1127375*
X1642925Y1131375D02*
Y1135375D01*
X1966925Y1424875D02*
X1974925D01*
Y1432875*
X1966925*
Y1424875*
X1970925Y1428875D02*
Y1432875D01*
X1813925Y1322375D02*
X1821925D01*
Y1330375*
X1813925*
Y1322375*
X1817925Y1326375D02*
Y1330375D01*
X1598925Y1377375D02*
X1606925D01*
Y1385375*
X1598925*
Y1377375*
X1602925Y1381375D02*
Y1385375D01*
X1613925Y1392375D02*
X1621925D01*
Y1400375*
X1613925*
Y1392375*
X1617925Y1396375D02*
Y1400375D01*
X1638925Y1217375D02*
X1646925D01*
Y1225375*
X1638925*
Y1217375*
X1642925Y1221375D02*
Y1225375D01*
X1638925Y1197375D02*
X1646925D01*
Y1205375*
X1638925*
Y1197375*
X1642925Y1201375D02*
Y1205375D01*
X1638925Y1177375D02*
X1646925D01*
Y1185375*
X1638925*
Y1177375*
X1642925Y1181375D02*
Y1185375D01*
X1638925Y1092375D02*
X1646925D01*
Y1100375*
X1638925*
Y1092375*
X1642925Y1096375D02*
Y1100375D01*
X2084925Y1365375D02*
X2092925D01*
Y1373375*
X2084925*
Y1365375*
X2088925Y1369375D02*
Y1373375D01*
X1638925Y1072375D02*
X1646925D01*
Y1080375*
X1638925*
Y1072375*
X1642925Y1076375D02*
Y1080375D01*
X1638925Y1052375D02*
X1646925D01*
Y1060375*
X1638925*
Y1052375*
X1642925Y1056375D02*
Y1060375D01*
X2053925Y1376375D02*
X2061925D01*
Y1384375*
X2053925*
Y1376375*
X2057925Y1380375D02*
Y1384375D01*
X1591425Y1352375D02*
X1599425D01*
Y1360375*
X1591425*
Y1352375*
X1595425Y1356375D02*
Y1360375D01*
X1558925Y1342375D02*
X1566925D01*
Y1350375*
X1558925*
Y1342375*
X1562925Y1346375D02*
Y1350375D01*
X1771425Y1173375D02*
X1779425D01*
Y1181375*
X1771425*
Y1173375*
X1775425Y1177375D02*
Y1181375D01*
X1688925Y1180875D02*
X1696925D01*
Y1188875*
X1688925*
Y1180875*
X1692925Y1184875D02*
Y1188875D01*
X1506425Y1197375D02*
X1514425D01*
Y1205375*
X1506425*
Y1197375*
X1510425Y1201375D02*
Y1205375D01*
X1493925Y1062375D02*
X1501925D01*
X1493925Y1070375*
X1501925*
X1493925Y1062375*
Y1412375D02*
X1501925D01*
X1493925Y1420375*
X1501925*
X1493925Y1412375*
X2313925Y1062375D02*
X2321925D01*
X2313925Y1070375*
X2321925*
X2313925Y1062375*
Y1412375D02*
X2321925D01*
X2313925Y1420375*
X2321925*
X2313925Y1412375*
X1772725Y1466275D02*
X1780725D01*
X1776725Y1462275D02*
Y1470275D01*
X1778725Y1471556D02*
Y1468275D01*
X1780316Y1471556D02*
X1778725Y1469369D01*
X1779293Y1470150D02*
X1780316Y1468275D01*
X1772725Y1659175D02*
X1780725D01*
X1776725Y1655175D02*
Y1663175D01*
X1778725Y1664456D02*
Y1661175D01*
X1780316Y1664456D02*
X1778725Y1662269D01*
X1779293Y1663050D02*
X1780316Y1661175D01*
X2001025Y1466275D02*
X2009025D01*
X2005025Y1462275D02*
Y1470275D01*
X2007025Y1471556D02*
Y1468275D01*
X2008616Y1471556D02*
X2007025Y1469369D01*
X2007593Y1470150D02*
X2008616Y1468275D01*
X2001025Y1659175D02*
X2009025D01*
X2005025Y1655175D02*
Y1663175D01*
X2007025Y1664456D02*
Y1661175D01*
X2008616Y1664456D02*
X2007025Y1662269D01*
X2007593Y1663050D02*
X2008616Y1661175D01*
X1991425Y1414875D02*
X1999425D01*
Y1422875*
X1991425*
Y1414875*
X1995425Y1418875D02*
Y1422875D01*
X1584925Y1056375D02*
X1592925Y1064375D01*
X1584925D02*
X1592925Y1056375D01*
X1709425Y1052375D02*
X1717425Y1060375D01*
X1709425D02*
X1717425Y1052375D01*
X1584925Y1077875D02*
X1592925Y1085875D01*
X1584925D02*
X1592925Y1077875D01*
X1584925Y1068375D02*
X1592925Y1076375D01*
X1584925D02*
X1592925Y1068375D01*
X1584925Y1089875D02*
X1592925Y1097875D01*
X1584925D02*
X1592925Y1089875D01*
X1656925Y1080375D02*
X1664925Y1088375D01*
X1656925D02*
X1664925Y1080375D01*
X1691925Y1078375D02*
X1699925Y1086375D01*
X1691925D02*
X1699925Y1078375D01*
X1706925D02*
X1714925Y1086375D01*
X1706925D02*
X1714925Y1078375D01*
X1771425Y1077375D02*
X1779425Y1085375D01*
X1771425D02*
X1779425Y1077375D01*
X1781425Y1087375D02*
X1789425Y1095375D01*
X1781425D02*
X1789425Y1087375D01*
X2070425Y1096875D02*
X2078425Y1104875D01*
X2070425D02*
X2078425Y1096875D01*
X2082925D02*
X2090925Y1104875D01*
X2082925D02*
X2090925Y1096875D01*
X1506425Y1119875D02*
X1514425Y1127875D01*
X1506425D02*
X1514425Y1119875D01*
X1810925Y1116875D02*
X1818925Y1124875D01*
X1810925D02*
X1818925Y1116875D01*
X1895425Y1108875D02*
X1903425Y1116875D01*
X1895425D02*
X1903425Y1108875D01*
X1883425D02*
X1891425Y1116875D01*
X1883425D02*
X1891425Y1108875D01*
X2253925Y1136875D02*
X2261925Y1144875D01*
X2253925D02*
X2261925Y1136875D01*
X2306425Y1127375D02*
X2314425Y1135375D01*
X2306425D02*
X2314425Y1127375D01*
X2319425Y1101375D02*
X2327425Y1109375D01*
X2319425D02*
X2327425Y1101375D01*
X1613925Y1159875D02*
X1621925Y1167875D01*
X1613925D02*
X1621925Y1159875D01*
X1621425D02*
X1629425Y1167875D01*
X1621425D02*
X1629425Y1159875D01*
X1606425D02*
X1614425Y1167875D01*
X1606425D02*
X1614425Y1159875D01*
X1633925Y1140875D02*
X1641925Y1148875D01*
X1633925D02*
X1641925Y1140875D01*
X1734425Y1152375D02*
X1742425Y1160375D01*
X1734425D02*
X1742425Y1152375D01*
X1723925Y1147875D02*
X1731925Y1155875D01*
X1723925D02*
X1731925Y1147875D01*
X1758425Y1152375D02*
X1766425Y1160375D01*
X1758425D02*
X1766425Y1152375D01*
X1906425Y1167875D02*
X1914425Y1175875D01*
X1906425D02*
X1914425Y1167875D01*
X1911425Y1162375D02*
X1919425Y1170375D01*
X1911425D02*
X1919425Y1162375D01*
X2122425Y1157875D02*
X2130425Y1165875D01*
X2122425D02*
X2130425Y1157875D01*
X2246425Y1161875D02*
X2254425Y1169875D01*
X2246425D02*
X2254425Y1161875D01*
X2253925Y1147875D02*
X2261925Y1155875D01*
X2253925D02*
X2261925Y1147875D01*
X2246425Y1172875D02*
X2254425Y1180875D01*
X2246425D02*
X2254425Y1172875D01*
X1584925Y1181375D02*
X1592925Y1189375D01*
X1584925D02*
X1592925Y1181375D01*
X1584925Y1202875D02*
X1592925Y1210875D01*
X1584925D02*
X1592925Y1202875D01*
X1584925Y1193375D02*
X1592925Y1201375D01*
X1584925D02*
X1592925Y1193375D01*
X1584925Y1214875D02*
X1592925Y1222875D01*
X1584925D02*
X1592925Y1214875D01*
X1656925Y1205375D02*
X1664925Y1213375D01*
X1656925D02*
X1664925Y1205375D01*
X1691425Y1203375D02*
X1699425Y1211375D01*
X1691425D02*
X1699425Y1203375D01*
X1706925D02*
X1714925Y1211375D01*
X1706925D02*
X1714925Y1203375D01*
X1709425Y1177875D02*
X1717425Y1185875D01*
X1709425D02*
X1717425Y1177875D01*
X1771425Y1202375D02*
X1779425Y1210375D01*
X1771425D02*
X1779425Y1202375D01*
X1781425Y1212875D02*
X1789425Y1220875D01*
X1781425D02*
X1789425Y1212875D01*
X1936425Y1207375D02*
X1944425Y1215375D01*
X1936425D02*
X1944425Y1207375D01*
X1906425Y1197375D02*
X1914425Y1205375D01*
X1906425D02*
X1914425Y1197375D01*
X1911425Y1202375D02*
X1919425Y1210375D01*
X1911425D02*
X1919425Y1202375D01*
X2051425Y1179875D02*
X2059425Y1187875D01*
X2051425D02*
X2059425Y1179875D01*
X2156925Y1198875D02*
X2164925Y1206875D01*
X2156925D02*
X2164925Y1198875D01*
X2216425Y1199875D02*
X2224425Y1207875D01*
X2216425D02*
X2224425Y1199875D01*
X2294925D02*
X2302925Y1207875D01*
X2294925D02*
X2302925Y1199875D01*
X2308925Y1207375D02*
X2316925Y1215375D01*
X2308925D02*
X2316925Y1207375D01*
X1506425Y1244875D02*
X1514425Y1252875D01*
X1506425D02*
X1514425Y1244875D01*
X1618925Y1217375D02*
X1626925Y1225375D01*
X1618925D02*
X1626925Y1217375D01*
X1608925D02*
X1616925Y1225375D01*
X1608925D02*
X1616925Y1217375D01*
X1613925Y1222375D02*
X1621925Y1230375D01*
X1613925D02*
X1621925Y1222375D01*
X1623925D02*
X1631925Y1230375D01*
X1623925D02*
X1631925Y1222375D01*
X1810925Y1241875D02*
X1818925Y1249875D01*
X1810925D02*
X1818925Y1241875D01*
X1895425Y1233875D02*
X1903425Y1241875D01*
X1895425D02*
X1903425Y1233875D01*
X1883425D02*
X1891425Y1241875D01*
X1883425D02*
X1891425Y1233875D01*
X1945425Y1247375D02*
X1953425Y1255375D01*
X1945425D02*
X1953425Y1247375D01*
X2070425Y1222375D02*
X2078425Y1230375D01*
X2070425D02*
X2078425Y1222375D01*
X2082425Y1227375D02*
X2090425Y1235375D01*
X2082425D02*
X2090425Y1227375D01*
X2153925Y1242875D02*
X2161925Y1250875D01*
X2153925D02*
X2161925Y1242875D01*
X2274925Y1219875D02*
X2282925Y1227875D01*
X2274925D02*
X2282925Y1219875D01*
X1632925Y1265875D02*
X1640925Y1273875D01*
X1632925D02*
X1640925Y1265875D01*
X1733925Y1277375D02*
X1741925Y1285375D01*
X1733925D02*
X1741925Y1277375D01*
X1723925Y1272875D02*
X1731925Y1280875D01*
X1723925D02*
X1731925Y1272875D01*
X1758925Y1277375D02*
X1766925Y1285375D01*
X1758925D02*
X1766925Y1277375D01*
X1883925Y1267875D02*
X1891925Y1275875D01*
X1883925D02*
X1891925Y1267875D01*
X1916425D02*
X1924425Y1275875D01*
X1916425D02*
X1924425Y1267875D01*
X1958925Y1267375D02*
X1966925Y1275375D01*
X1958925D02*
X1966925Y1267375D01*
X1951425Y1261375D02*
X1959425Y1269375D01*
X1951425D02*
X1959425Y1261375D01*
X1943925Y1274875D02*
X1951925Y1282875D01*
X1943925D02*
X1951925Y1274875D01*
X2023925Y1275875D02*
X2031925Y1283875D01*
X2023925D02*
X2031925Y1275875D01*
X2023925Y1287375D02*
X2031925Y1295375D01*
X2023925D02*
X2031925Y1287375D01*
X2086925Y1261375D02*
X2094925Y1269375D01*
X2086925D02*
X2094925Y1261375D01*
X2107425Y1266875D02*
X2115425Y1274875D01*
X2107425D02*
X2115425Y1266875D01*
X2138925Y1295875D02*
X2146925Y1303875D01*
X2138925D02*
X2146925Y1295875D01*
X2212925Y1274375D02*
X2220925Y1282375D01*
X2212925D02*
X2220925Y1274375D01*
X2195425Y1273875D02*
X2203425Y1281875D01*
X2195425D02*
X2203425Y1273875D01*
X1601425Y1299875D02*
X1609425Y1307875D01*
X1601425D02*
X1609425Y1299875D01*
X1614425Y1309375D02*
X1622425Y1317375D01*
X1614425D02*
X1622425Y1309375D01*
X1645425D02*
X1653425Y1317375D01*
X1645425D02*
X1653425Y1309375D01*
X1633925Y1299875D02*
X1641925Y1307875D01*
X1633925D02*
X1641925Y1299875D01*
X1628925Y1304875D02*
X1636925Y1312875D01*
X1628925D02*
X1636925Y1304875D01*
X1652425Y1309375D02*
X1660425Y1317375D01*
X1652425D02*
X1660425Y1309375D01*
X1698925Y1299875D02*
X1706925Y1307875D01*
X1698925D02*
X1706925Y1299875D01*
X1693925Y1304875D02*
X1701925Y1312875D01*
X1693925D02*
X1701925Y1304875D01*
X1665425Y1330875D02*
X1673425Y1338875D01*
X1665425D02*
X1673425Y1330875D01*
X1679425Y1309375D02*
X1687425Y1317375D01*
X1679425D02*
X1687425Y1309375D01*
X1726425Y1309875D02*
X1734425Y1317875D01*
X1726425D02*
X1734425Y1309875D01*
X1731425Y1314875D02*
X1739425Y1322875D01*
X1731425D02*
X1739425Y1314875D01*
X1730425Y1330875D02*
X1738425Y1338875D01*
X1730425D02*
X1738425Y1330875D01*
X1717425Y1309375D02*
X1725425Y1317375D01*
X1717425D02*
X1725425Y1309375D01*
X1763925Y1322375D02*
X1771925Y1330375D01*
X1763925D02*
X1771925Y1322375D01*
X1788925Y1334875D02*
X1796925Y1342875D01*
X1788925D02*
X1796925Y1334875D01*
X1941925Y1333375D02*
X1949925Y1341375D01*
X1941925D02*
X1949925Y1333375D01*
X1959425Y1309875D02*
X1967425Y1317875D01*
X1959425D02*
X1967425Y1309875D01*
X1965925Y1333375D02*
X1973925Y1341375D01*
X1965925D02*
X1973925Y1333375D01*
X1991925Y1314875D02*
X1999925Y1322875D01*
X1991925D02*
X1999925Y1314875D01*
X2023925Y1299875D02*
X2031925Y1307875D01*
X2023925D02*
X2031925Y1299875D01*
X2133925Y1322375D02*
X2141925Y1330375D01*
X2133925D02*
X2141925Y1322375D01*
X2108925Y1303875D02*
X2116925Y1311875D01*
X2108925D02*
X2116925Y1303875D01*
X2158925Y1324375D02*
X2166925Y1332375D01*
X2158925D02*
X2166925Y1324375D01*
X2171925Y1299375D02*
X2179925Y1307375D01*
X2171925D02*
X2179925Y1299375D01*
X2252925Y1313875D02*
X2260925Y1321875D01*
X2252925D02*
X2260925Y1313875D01*
X1610425Y1352375D02*
X1618425Y1360375D01*
X1610425D02*
X1618425Y1352375D01*
X1624925Y1376375D02*
X1632925Y1384375D01*
X1624925D02*
X1632925Y1376375D01*
X1628925Y1347375D02*
X1636925Y1355375D01*
X1628925D02*
X1636925Y1347375D01*
X1698925Y1369375D02*
X1706925Y1377375D01*
X1698925D02*
X1706925Y1369375D01*
X1683925Y1342375D02*
X1691925Y1350375D01*
X1683925D02*
X1691925Y1342375D01*
X1701425Y1347375D02*
X1709425Y1355375D01*
X1701425D02*
X1709425Y1347375D01*
X1783925D02*
X1791925Y1355375D01*
X1783925D02*
X1791925Y1347375D01*
X1793925Y1339875D02*
X1801925Y1347875D01*
X1793925D02*
X1801925Y1339875D01*
X1820925Y1374875D02*
X1828925Y1382875D01*
X1820925D02*
X1828925Y1374875D01*
X1808925Y1349375D02*
X1816925Y1357375D01*
X1808925D02*
X1816925Y1349375D01*
X1860925Y1342375D02*
X1868925Y1350375D01*
X1860925D02*
X1868925Y1342375D01*
X1840925Y1339875D02*
X1848925Y1347875D01*
X1840925D02*
X1848925Y1339875D01*
X1835925Y1344875D02*
X1843925Y1352875D01*
X1835925D02*
X1843925Y1344875D01*
X1890925Y1349375D02*
X1898925Y1357375D01*
X1890925D02*
X1898925Y1349375D01*
X1878425D02*
X1886425Y1357375D01*
X1878425D02*
X1886425Y1349375D01*
X1941425Y1374875D02*
X1949425Y1382875D01*
X1941425D02*
X1949425Y1374875D01*
X1929425Y1349375D02*
X1937425Y1357375D01*
X1929425D02*
X1937425Y1349375D01*
X1981925Y1342375D02*
X1989925Y1350375D01*
X1981925D02*
X1989925Y1342375D01*
X1991425Y1337375D02*
X1999425Y1345375D01*
X1991425D02*
X1999425Y1337375D01*
X2011425Y1349375D02*
X2019425Y1357375D01*
X2011425D02*
X2019425Y1349375D01*
X1998925D02*
X2006925Y1357375D01*
X1998925D02*
X2006925Y1349375D01*
X2083925Y1376875D02*
X2091925Y1384875D01*
X2083925D02*
X2091925Y1376875D01*
X2093425Y1347375D02*
X2101425Y1355375D01*
X2093425D02*
X2101425Y1347375D01*
X2105925Y1375875D02*
X2113925Y1383875D01*
X2105925D02*
X2113925Y1375875D01*
X2105925Y1365375D02*
X2113925Y1373375D01*
X2105925D02*
X2113925Y1365375D01*
X2155925Y1345375D02*
X2163925Y1353375D01*
X2155925D02*
X2163925Y1345375D01*
X2148925Y1362375D02*
X2156925Y1370375D01*
X2148925D02*
X2156925Y1362375D01*
X2216425Y1348375D02*
X2224425Y1356375D01*
X2216425D02*
X2224425Y1348375D01*
X2191425Y1369875D02*
X2199425Y1377875D01*
X2191425D02*
X2199425Y1369875D01*
X2216425Y1337375D02*
X2224425Y1345375D01*
X2216425D02*
X2224425Y1337375D01*
X2183925Y1342375D02*
X2191925Y1350375D01*
X2183925D02*
X2191925Y1342375D01*
X2223925Y1337375D02*
X2231925Y1345375D01*
X2223925D02*
X2231925Y1337375D01*
X2256925Y1340875D02*
X2264925Y1348875D01*
X2256925D02*
X2264925Y1340875D01*
X2241425Y1364875D02*
X2249425Y1372875D01*
X2241425D02*
X2249425Y1364875D01*
X2229925Y1345375D02*
X2237925Y1353375D01*
X2229925D02*
X2237925Y1345375D01*
X1591425Y1384875D02*
X1599425Y1392875D01*
X1591425D02*
X1599425Y1384875D01*
X1668925Y1413375D02*
X1676925Y1421375D01*
X1668925D02*
X1676925Y1413375D01*
X1698925Y1380375D02*
X1706925Y1388375D01*
X1698925D02*
X1706925Y1380375D01*
X1766425Y1406375D02*
X1774425Y1414375D01*
X1766425D02*
X1774425Y1406375D01*
X1766425Y1414875D02*
X1774425Y1422875D01*
X1766425D02*
X1774425Y1414875D01*
X1811925Y1379875D02*
X1819925Y1387875D01*
X1811925D02*
X1819925Y1379875D01*
X1840925Y1394875D02*
X1848925Y1402875D01*
X1840925D02*
X1848925Y1394875D01*
X1835925Y1389875D02*
X1843925Y1397875D01*
X1835925D02*
X1843925Y1389875D01*
X1830925Y1384875D02*
X1838925Y1392875D01*
X1830925D02*
X1838925Y1384875D01*
X1845925Y1379875D02*
X1853925Y1387875D01*
X1845925D02*
X1853925Y1379875D01*
X1846425Y1409875D02*
X1854425Y1417875D01*
X1846425D02*
X1854425Y1409875D01*
X1891925D02*
X1899925Y1417875D01*
X1891925D02*
X1899925Y1409875D01*
X1956425Y1384875D02*
X1964425Y1392875D01*
X1956425D02*
X1964425Y1384875D01*
X1951425Y1379875D02*
X1959425Y1387875D01*
X1951425D02*
X1959425Y1379875D01*
X1961425Y1389875D02*
X1969425Y1397875D01*
X1961425D02*
X1969425Y1389875D01*
X2033925Y1412375D02*
X2041925Y1420375D01*
X2033925D02*
X2041925Y1412375D01*
X2058925D02*
X2066925Y1420375D01*
X2058925D02*
X2066925Y1412375D01*
X2096425Y1404875D02*
X2104425Y1412875D01*
X2096425D02*
X2104425Y1404875D01*
X2096425Y1394875D02*
X2104425Y1402875D01*
X2096425D02*
X2104425Y1394875D01*
X2105925Y1388875D02*
X2113925Y1396875D01*
X2105925D02*
X2113925Y1388875D01*
X2143425Y1394875D02*
X2151425Y1402875D01*
X2143425D02*
X2151425Y1394875D01*
X2171425Y1406875D02*
X2179425Y1414875D01*
X2171425D02*
X2179425Y1406875D01*
X2194925Y1382375D02*
X2202925Y1390375D01*
X2194925D02*
X2202925Y1382375D01*
X2211425Y1387375D02*
X2219425Y1395375D01*
X2211425D02*
X2219425Y1387375D01*
X1565925Y1425375D02*
X1573925Y1433375D01*
X1565925D02*
X1573925Y1425375D01*
X1668925Y1421375D02*
X1676925Y1429375D01*
X1668925D02*
X1676925Y1421375D01*
X1783925Y1417375D02*
X1791925Y1425375D01*
X1783925D02*
X1791925Y1417375D01*
X2028925D02*
X2036925Y1425375D01*
X2028925D02*
X2036925Y1417375D01*
X2043925Y1422375D02*
X2051925Y1430375D01*
X2043925D02*
X2051925Y1422375D01*
X2038925Y1427375D02*
X2046925Y1435375D01*
X2038925D02*
X2046925Y1427375D01*
X2114425Y1425375D02*
X2122425Y1433375D01*
X2114425D02*
X2122425Y1425375D01*
X2171425Y1417875D02*
X2179425Y1425875D01*
X2171425D02*
X2179425Y1417875D01*
X1923925Y1567375D02*
X1931925Y1575375D01*
X1923925D02*
X1931925Y1567375D01*
X1938925Y1609875D02*
X1946925Y1617875D01*
X1938925D02*
X1946925Y1609875D01*
X1918925Y1582375D02*
X1926925Y1590375D01*
X1918925D02*
X1926925Y1582375D01*
X1933925Y1587375D02*
X1941925Y1595375D01*
X1933925D02*
X1941925Y1587375D01*
X1913925Y1602375D02*
X1921925Y1610375D01*
X1913925D02*
X1921925Y1602375D01*
X1948925Y1597375D02*
X1956925Y1605375D01*
X1948925D02*
X1956925Y1597375D01*
X1953925Y1582375D02*
X1961925Y1590375D01*
X1953925D02*
X1961925Y1582375D01*
X1893925Y1644875D02*
X1901925Y1652875D01*
X1893925D02*
X1901925Y1644875D01*
X1893925Y1652375D02*
X1901925Y1660375D01*
X1893925D02*
X1901925Y1652375D01*
X1911425Y1627375D02*
X1919425Y1635375D01*
X1911425D02*
X1919425Y1627375D01*
X1916425Y1622375D02*
X1924425Y1630375D01*
X1916425D02*
X1924425Y1622375D01*
X1963925Y1629875D02*
X1971925Y1637875D01*
X1963925D02*
X1971925Y1629875D01*
X1986425Y1639875D02*
X1994425Y1647875D01*
X1986425D02*
X1994425Y1639875D01*
X1978925Y1659875D02*
X1986925Y1667875D01*
X1978925D02*
X1986925Y1659875D01*
X1472925Y1041375D02*
X2342925D01*
Y1441375*
X2018825*
Y1672975*
X1762925*
Y1441375*
X1472925*
Y1041375*
X2272925Y2173375D02*
X2542925D01*
X2272925Y2149375D02*
X2542925D01*
X2272925Y2125375D02*
X2542925D01*
X2272925Y2101375D02*
X2542925D01*
X2272925Y2077375D02*
X2542925D01*
X2272925Y2053375D02*
X2542925D01*
X2272925Y2029375D02*
X2542925D01*
X2272925Y2005375D02*
X2542925D01*
X2272925Y1981375D02*
X2542925D01*
X2272925Y1957375D02*
X2542925D01*
X2272925Y1933375D02*
X2542925D01*
X2272925Y1909375D02*
X2542925D01*
X2272925Y1885375D02*
X2542925D01*
X2272925Y1861375D02*
X2542925D01*
X2272925Y1837375D02*
X2542925D01*
X2272925Y1813375D02*
X2542925D01*
X2272925Y1789375D02*
X2542925D01*
X2272925Y1765375D02*
X2542925D01*
X2272925Y1741375D02*
X2542925D01*
X2272925Y2173375D02*
Y1741375D01*
X2356925Y2173375D02*
Y1741375D01*
X2392925Y2173375D02*
Y1741375D01*
X2428925Y2173375D02*
Y1741375D01*
X2482925Y2173375D02*
Y1741375D01*
X2542925Y2173375D02*
Y1741375D01*
X2308425Y2162125D02*
X2307880Y2162875D01*
X2307061Y2163250*
X2305970*
X2305152Y2162875*
X2304607Y2162125*
Y2161375*
X2304880Y2160625*
X2305152Y2160250*
X2305698Y2159875*
X2307334Y2159125*
X2307880Y2158750*
X2308152Y2158375*
X2308425Y2157625*
Y2156500*
X2307880Y2155750*
X2307061Y2155375*
X2305970*
X2305152Y2155750*
X2304607Y2156500*
X2310880Y2163250D02*
Y2155375D01*
X2317152Y2163250D02*
X2313334Y2155375D01*
Y2163250D02*
X2317152D01*
X2313334Y2155375D02*
X2317152D01*
X2319607Y2163250D02*
Y2155375D01*
Y2163250D02*
X2323152D01*
X2319607Y2159500D02*
X2321789D01*
X2319607Y2155375D02*
X2323152D01*
X2366789Y2163250D02*
X2366243Y2162875D01*
X2365698Y2162125*
X2365425Y2161375*
X2365152Y2160250*
Y2158375*
X2365425Y2157250*
X2365698Y2156500*
X2366243Y2155750*
X2366789Y2155375*
X2367880*
X2368425Y2155750*
X2368970Y2156500*
X2369243Y2157250*
X2369516Y2158375*
Y2160250*
X2369243Y2161375*
X2368970Y2162125*
X2368425Y2162875*
X2367880Y2163250*
X2366789*
X2367607Y2156875D02*
X2369243Y2154625D01*
X2373880Y2163250D02*
Y2155375D01*
X2371970Y2163250D02*
X2375789D01*
X2378243D02*
X2380425Y2159500D01*
Y2155375*
X2382607Y2163250D02*
X2380425Y2159500D01*
X2404970Y2162125D02*
X2404425Y2162875D01*
X2403607Y2163250*
X2402516*
X2401698Y2162875*
X2401152Y2162125*
Y2161375*
X2401425Y2160625*
X2401698Y2160250*
X2402243Y2159875*
X2403880Y2159125*
X2404425Y2158750*
X2404698Y2158375*
X2404970Y2157625*
Y2156500*
X2404425Y2155750*
X2403607Y2155375*
X2402516*
X2401698Y2155750*
X2401152Y2156500*
X2407425Y2163250D02*
X2409607Y2159500D01*
Y2155375*
X2411789Y2163250D02*
X2409607Y2159500D01*
X2414243Y2163250D02*
Y2155375D01*
Y2163250D02*
X2416425Y2155375D01*
X2418607Y2163250D02*
X2416425Y2155375D01*
X2418607Y2163250D02*
Y2155375D01*
X2440425Y2163250D02*
Y2155375D01*
Y2163250D02*
X2442880D01*
X2443698Y2162875*
X2443970Y2162500*
X2444243Y2161750*
Y2160625*
X2443970Y2159875*
X2443698Y2159500*
X2442880Y2159125*
X2440425*
X2446698Y2163250D02*
Y2155375D01*
X2449970*
X2454607Y2163250D02*
X2452425Y2155375D01*
X2454607Y2163250D02*
X2456789Y2155375D01*
X2453243Y2158000D02*
X2455970D01*
X2461152Y2163250D02*
Y2155375D01*
X2459243Y2163250D02*
X2463061D01*
X2465516D02*
Y2155375D01*
Y2163250D02*
X2469061D01*
X2465516Y2159500D02*
X2467698D01*
X2465516Y2155375D02*
X2469061D01*
X2471516Y2163250D02*
Y2155375D01*
Y2163250D02*
X2473425D01*
X2474243Y2162875*
X2474789Y2162125*
X2475061Y2161375*
X2475334Y2160250*
Y2158375*
X2475061Y2157250*
X2474789Y2156500*
X2474243Y2155750*
X2473425Y2155375*
X2471516*
X2505607Y2163250D02*
Y2155375D01*
X2503698Y2163250D02*
X2507516D01*
X2511607D02*
X2511061Y2162875D01*
X2510516Y2162125*
X2510243Y2161375*
X2509970Y2160250*
Y2158375*
X2510243Y2157250*
X2510516Y2156500*
X2511061Y2155750*
X2511607Y2155375*
X2512698*
X2513243Y2155750*
X2513789Y2156500*
X2514061Y2157250*
X2514334Y2158375*
Y2160250*
X2514061Y2161375*
X2513789Y2162125*
X2513243Y2162875*
X2512698Y2163250*
X2511607*
X2516789D02*
Y2155375D01*
X2520061*
X2280561Y2139250D02*
X2279743Y2138875D01*
X2279198Y2137750*
X2278925Y2135875*
Y2134750*
X2279198Y2132875*
X2279743Y2131750*
X2280561Y2131375*
X2281107*
X2281925Y2131750*
X2282470Y2132875*
X2282743Y2134750*
Y2135875*
X2282470Y2137750*
X2281925Y2138875*
X2281107Y2139250*
X2280561*
X2285470Y2132125D02*
X2285198Y2131750D01*
X2285470Y2131375*
X2285743Y2131750*
X2285470Y2132125*
X2289834Y2139250D02*
X2289016Y2138875D01*
X2288470Y2137750*
X2288198Y2135875*
Y2134750*
X2288470Y2132875*
X2289016Y2131750*
X2289834Y2131375*
X2290380*
X2291198Y2131750*
X2291743Y2132875*
X2292016Y2134750*
Y2135875*
X2291743Y2137750*
X2291198Y2138875*
X2290380Y2139250*
X2289834*
X2294743Y2137375D02*
Y2137750D01*
X2295016Y2138500*
X2295289Y2138875*
X2295834Y2139250*
X2296925*
X2297470Y2138875*
X2297743Y2138500*
X2298016Y2137750*
Y2137000*
X2297743Y2136250*
X2297198Y2135125*
X2294470Y2131375*
X2298289*
X2367061Y2137750D02*
X2367607Y2138125D01*
X2368425Y2139250*
Y2131375*
X2372243Y2139250D02*
X2371425Y2138875D01*
X2371152Y2138125*
Y2137375*
X2371425Y2136625*
X2371970Y2136250*
X2373061Y2135875*
X2373880Y2135500*
X2374425Y2134750*
X2374698Y2134000*
Y2132875*
X2374425Y2132125*
X2374152Y2131750*
X2373334Y2131375*
X2372243*
X2371425Y2131750*
X2371152Y2132125*
X2370880Y2132875*
Y2134000*
X2371152Y2134750*
X2371698Y2135500*
X2372516Y2135875*
X2373607Y2136250*
X2374152Y2136625*
X2374425Y2137375*
Y2138125*
X2374152Y2138875*
X2373334Y2139250*
X2372243*
X2380425Y2138125D02*
X2380152Y2138875D01*
X2379334Y2139250*
X2378789*
X2377970Y2138875*
X2377425Y2137750*
X2377152Y2135875*
Y2134000*
X2377425Y2132500*
X2377970Y2131750*
X2378789Y2131375*
X2379061*
X2379880Y2131750*
X2380425Y2132500*
X2380698Y2133625*
Y2134000*
X2380425Y2135125*
X2379880Y2135875*
X2379061Y2136250*
X2378789*
X2377970Y2135875*
X2377425Y2135125*
X2377152Y2134000*
X2404925Y2131375D02*
X2416925Y2143375D01*
X2404925D02*
X2416925Y2131375D01*
X2437561Y2139250D02*
X2439743Y2135500D01*
Y2131375*
X2441925Y2139250D02*
X2439743Y2135500D01*
X2444380Y2139250D02*
Y2131375D01*
Y2139250D02*
X2447925D01*
X2444380Y2135500D02*
X2446561D01*
X2444380Y2131375D02*
X2447925D01*
X2454198Y2138125D02*
X2453652Y2138875D01*
X2452834Y2139250*
X2451743*
X2450925Y2138875*
X2450380Y2138125*
Y2137375*
X2450652Y2136625*
X2450925Y2136250*
X2451470Y2135875*
X2453107Y2135125*
X2453652Y2134750*
X2453925Y2134375*
X2454198Y2133625*
Y2132500*
X2453652Y2131750*
X2452834Y2131375*
X2451743*
X2450925Y2131750*
X2450380Y2132500*
X2490470Y2138125D02*
Y2131375D01*
X2488016Y2134750D02*
X2492925D01*
X2500289Y2140750D02*
X2495380Y2128750D01*
X2502743Y2134750D02*
X2507652D01*
X2511743Y2139250D02*
X2510925Y2138875D01*
X2510380Y2137750*
X2510107Y2135875*
Y2134750*
X2510380Y2132875*
X2510925Y2131750*
X2511743Y2131375*
X2512289*
X2513107Y2131750*
X2513652Y2132875*
X2513925Y2134750*
Y2135875*
X2513652Y2137750*
X2513107Y2138875*
X2512289Y2139250*
X2511743*
X2516652Y2132125D02*
X2516380Y2131750D01*
X2516652Y2131375*
X2516925Y2131750*
X2516652Y2132125*
X2521016Y2139250D02*
X2520198Y2138875D01*
X2519652Y2137750*
X2519380Y2135875*
Y2134750*
X2519652Y2132875*
X2520198Y2131750*
X2521016Y2131375*
X2521561*
X2522380Y2131750*
X2522925Y2132875*
X2523198Y2134750*
Y2135875*
X2522925Y2137750*
X2522380Y2138875*
X2521561Y2139250*
X2521016*
X2527289D02*
X2526470Y2138875D01*
X2525925Y2137750*
X2525652Y2135875*
Y2134750*
X2525925Y2132875*
X2526470Y2131750*
X2527289Y2131375*
X2527834*
X2528652Y2131750*
X2529198Y2132875*
X2529470Y2134750*
Y2135875*
X2529198Y2137750*
X2528652Y2138875*
X2527834Y2139250*
X2527289*
X2532470D02*
X2535470D01*
X2533834Y2136250*
X2534652*
X2535198Y2135875*
X2535470Y2135500*
X2535743Y2134375*
Y2133625*
X2535470Y2132500*
X2534925Y2131750*
X2534107Y2131375*
X2533289*
X2532470Y2131750*
X2532198Y2132125*
X2531925Y2132875*
X2280561Y2115250D02*
X2279743Y2114875D01*
X2279198Y2113750*
X2278925Y2111875*
Y2110750*
X2279198Y2108875*
X2279743Y2107750*
X2280561Y2107375*
X2281107*
X2281925Y2107750*
X2282470Y2108875*
X2282743Y2110750*
Y2111875*
X2282470Y2113750*
X2281925Y2114875*
X2281107Y2115250*
X2280561*
X2285470Y2108125D02*
X2285198Y2107750D01*
X2285470Y2107375*
X2285743Y2107750*
X2285470Y2108125*
X2289834Y2115250D02*
X2289016Y2114875D01*
X2288470Y2113750*
X2288198Y2111875*
Y2110750*
X2288470Y2108875*
X2289016Y2107750*
X2289834Y2107375*
X2290380*
X2291198Y2107750*
X2291743Y2108875*
X2292016Y2110750*
Y2111875*
X2291743Y2113750*
X2291198Y2114875*
X2290380Y2115250*
X2289834*
X2295016D02*
X2298016D01*
X2296380Y2112250*
X2297198*
X2297743Y2111875*
X2298016Y2111500*
X2298289Y2110375*
Y2109625*
X2298016Y2108500*
X2297470Y2107750*
X2296652Y2107375*
X2295834*
X2295016Y2107750*
X2294743Y2108125*
X2294470Y2108875*
X2304289Y2115250D02*
X2301561D01*
X2301289Y2111875*
X2301561Y2112250*
X2302380Y2112625*
X2303198*
X2304016Y2112250*
X2304561Y2111500*
X2304834Y2110375*
X2304561Y2109625*
X2304289Y2108500*
X2303743Y2107750*
X2302925Y2107375*
X2302107*
X2301289Y2107750*
X2301016Y2108125*
X2300743Y2108875*
X2375380Y2114125D02*
X2375107Y2114875D01*
X2374289Y2115250*
X2373743*
X2372925Y2114875*
X2372380Y2113750*
X2372107Y2111875*
Y2110000*
X2372380Y2108500*
X2372925Y2107750*
X2373743Y2107375*
X2374016*
X2374834Y2107750*
X2375380Y2108500*
X2375652Y2109625*
Y2110000*
X2375380Y2111125*
X2374834Y2111875*
X2374016Y2112250*
X2373743*
X2372925Y2111875*
X2372380Y2111125*
X2372107Y2110000*
X2404925Y2113375D02*
X2416925D01*
X2410925Y2107375D02*
Y2119375D01*
X2413925Y2122675D02*
Y2116375D01*
Y2122675D02*
X2416761D01*
X2413925Y2119675D02*
X2415670D01*
X2437561Y2115250D02*
X2439743Y2111500D01*
Y2107375*
X2441925Y2115250D02*
X2439743Y2111500D01*
X2444380Y2115250D02*
Y2107375D01*
Y2115250D02*
X2447925D01*
X2444380Y2111500D02*
X2446561D01*
X2444380Y2107375D02*
X2447925D01*
X2454198Y2114125D02*
X2453652Y2114875D01*
X2452834Y2115250*
X2451743*
X2450925Y2114875*
X2450380Y2114125*
Y2113375*
X2450652Y2112625*
X2450925Y2112250*
X2451470Y2111875*
X2453107Y2111125*
X2453652Y2110750*
X2453925Y2110375*
X2454198Y2109625*
Y2108500*
X2453652Y2107750*
X2452834Y2107375*
X2451743*
X2450925Y2107750*
X2450380Y2108500*
X2490470Y2114125D02*
Y2107375D01*
X2488016Y2110750D02*
X2492925D01*
X2500289Y2116750D02*
X2495380Y2104750D01*
X2502743Y2110750D02*
X2507652D01*
X2511743Y2115250D02*
X2510925Y2114875D01*
X2510380Y2113750*
X2510107Y2111875*
Y2110750*
X2510380Y2108875*
X2510925Y2107750*
X2511743Y2107375*
X2512289*
X2513107Y2107750*
X2513652Y2108875*
X2513925Y2110750*
Y2111875*
X2513652Y2113750*
X2513107Y2114875*
X2512289Y2115250*
X2511743*
X2516652Y2108125D02*
X2516380Y2107750D01*
X2516652Y2107375*
X2516925Y2107750*
X2516652Y2108125*
X2521016Y2115250D02*
X2520198Y2114875D01*
X2519652Y2113750*
X2519380Y2111875*
Y2110750*
X2519652Y2108875*
X2520198Y2107750*
X2521016Y2107375*
X2521561*
X2522380Y2107750*
X2522925Y2108875*
X2523198Y2110750*
Y2111875*
X2522925Y2113750*
X2522380Y2114875*
X2521561Y2115250*
X2521016*
X2527289D02*
X2526470Y2114875D01*
X2525925Y2113750*
X2525652Y2111875*
Y2110750*
X2525925Y2108875*
X2526470Y2107750*
X2527289Y2107375*
X2527834*
X2528652Y2107750*
X2529198Y2108875*
X2529470Y2110750*
Y2111875*
X2529198Y2113750*
X2528652Y2114875*
X2527834Y2115250*
X2527289*
X2532470D02*
X2535470D01*
X2533834Y2112250*
X2534652*
X2535198Y2111875*
X2535470Y2111500*
X2535743Y2110375*
Y2109625*
X2535470Y2108500*
X2534925Y2107750*
X2534107Y2107375*
X2533289*
X2532470Y2107750*
X2532198Y2108125*
X2531925Y2108875*
X2280561Y2091250D02*
X2279743Y2090875D01*
X2279198Y2089750*
X2278925Y2087875*
Y2086750*
X2279198Y2084875*
X2279743Y2083750*
X2280561Y2083375*
X2281107*
X2281925Y2083750*
X2282470Y2084875*
X2282743Y2086750*
Y2087875*
X2282470Y2089750*
X2281925Y2090875*
X2281107Y2091250*
X2280561*
X2285470Y2084125D02*
X2285198Y2083750D01*
X2285470Y2083375*
X2285743Y2083750*
X2285470Y2084125*
X2289834Y2091250D02*
X2289016Y2090875D01*
X2288470Y2089750*
X2288198Y2087875*
Y2086750*
X2288470Y2084875*
X2289016Y2083750*
X2289834Y2083375*
X2290380*
X2291198Y2083750*
X2291743Y2084875*
X2292016Y2086750*
Y2087875*
X2291743Y2089750*
X2291198Y2090875*
X2290380Y2091250*
X2289834*
X2295016D02*
X2298016D01*
X2296380Y2088250*
X2297198*
X2297743Y2087875*
X2298016Y2087500*
X2298289Y2086375*
Y2085625*
X2298016Y2084500*
X2297470Y2083750*
X2296652Y2083375*
X2295834*
X2295016Y2083750*
X2294743Y2084125*
X2294470Y2084875*
X2304561Y2091250D02*
X2301834Y2083375D01*
X2300743Y2091250D02*
X2304561D01*
X2372107Y2090125D02*
X2371834Y2090875D01*
X2371016Y2091250*
X2370470*
X2369652Y2090875*
X2369107Y2089750*
X2368834Y2087875*
Y2086000*
X2369107Y2084500*
X2369652Y2083750*
X2370470Y2083375*
X2370743*
X2371561Y2083750*
X2372107Y2084500*
X2372380Y2085625*
Y2086000*
X2372107Y2087125*
X2371561Y2087875*
X2370743Y2088250*
X2370470*
X2369652Y2087875*
X2369107Y2087125*
X2368834Y2086000*
X2377561Y2091250D02*
X2374834Y2086000D01*
X2378925*
X2377561Y2091250D02*
Y2083375D01*
X2404925Y2089375D02*
X2416925D01*
X2410925Y2083375D02*
Y2095375D01*
X2437561Y2091250D02*
X2439743Y2087500D01*
Y2083375*
X2441925Y2091250D02*
X2439743Y2087500D01*
X2444380Y2091250D02*
Y2083375D01*
Y2091250D02*
X2447925D01*
X2444380Y2087500D02*
X2446561D01*
X2444380Y2083375D02*
X2447925D01*
X2454198Y2090125D02*
X2453652Y2090875D01*
X2452834Y2091250*
X2451743*
X2450925Y2090875*
X2450380Y2090125*
Y2089375*
X2450652Y2088625*
X2450925Y2088250*
X2451470Y2087875*
X2453107Y2087125*
X2453652Y2086750*
X2453925Y2086375*
X2454198Y2085625*
Y2084500*
X2453652Y2083750*
X2452834Y2083375*
X2451743*
X2450925Y2083750*
X2450380Y2084500*
X2490470Y2090125D02*
Y2083375D01*
X2488016Y2086750D02*
X2492925D01*
X2500289Y2092750D02*
X2495380Y2080750D01*
X2502743Y2086750D02*
X2507652D01*
X2511743Y2091250D02*
X2510925Y2090875D01*
X2510380Y2089750*
X2510107Y2087875*
Y2086750*
X2510380Y2084875*
X2510925Y2083750*
X2511743Y2083375*
X2512289*
X2513107Y2083750*
X2513652Y2084875*
X2513925Y2086750*
Y2087875*
X2513652Y2089750*
X2513107Y2090875*
X2512289Y2091250*
X2511743*
X2516652Y2084125D02*
X2516380Y2083750D01*
X2516652Y2083375*
X2516925Y2083750*
X2516652Y2084125*
X2521016Y2091250D02*
X2520198Y2090875D01*
X2519652Y2089750*
X2519380Y2087875*
Y2086750*
X2519652Y2084875*
X2520198Y2083750*
X2521016Y2083375*
X2521561*
X2522380Y2083750*
X2522925Y2084875*
X2523198Y2086750*
Y2087875*
X2522925Y2089750*
X2522380Y2090875*
X2521561Y2091250*
X2521016*
X2527289D02*
X2526470Y2090875D01*
X2525925Y2089750*
X2525652Y2087875*
Y2086750*
X2525925Y2084875*
X2526470Y2083750*
X2527289Y2083375*
X2527834*
X2528652Y2083750*
X2529198Y2084875*
X2529470Y2086750*
Y2087875*
X2529198Y2089750*
X2528652Y2090875*
X2527834Y2091250*
X2527289*
X2532470D02*
X2535470D01*
X2533834Y2088250*
X2534652*
X2535198Y2087875*
X2535470Y2087500*
X2535743Y2086375*
Y2085625*
X2535470Y2084500*
X2534925Y2083750*
X2534107Y2083375*
X2533289*
X2532470Y2083750*
X2532198Y2084125*
X2531925Y2084875*
X2280561Y2067250D02*
X2279743Y2066875D01*
X2279198Y2065750*
X2278925Y2063875*
Y2062750*
X2279198Y2060875*
X2279743Y2059750*
X2280561Y2059375*
X2281107*
X2281925Y2059750*
X2282470Y2060875*
X2282743Y2062750*
Y2063875*
X2282470Y2065750*
X2281925Y2066875*
X2281107Y2067250*
X2280561*
X2285470Y2060125D02*
X2285198Y2059750D01*
X2285470Y2059375*
X2285743Y2059750*
X2285470Y2060125*
X2289834Y2067250D02*
X2289016Y2066875D01*
X2288470Y2065750*
X2288198Y2063875*
Y2062750*
X2288470Y2060875*
X2289016Y2059750*
X2289834Y2059375*
X2290380*
X2291198Y2059750*
X2291743Y2060875*
X2292016Y2062750*
Y2063875*
X2291743Y2065750*
X2291198Y2066875*
X2290380Y2067250*
X2289834*
X2295016D02*
X2298016D01*
X2296380Y2064250*
X2297198*
X2297743Y2063875*
X2298016Y2063500*
X2298289Y2062375*
Y2061625*
X2298016Y2060500*
X2297470Y2059750*
X2296652Y2059375*
X2295834*
X2295016Y2059750*
X2294743Y2060125*
X2294470Y2060875*
X2304289Y2064625D02*
X2304016Y2063500D01*
X2303470Y2062750*
X2302652Y2062375*
X2302380*
X2301561Y2062750*
X2301016Y2063500*
X2300743Y2064625*
Y2065000*
X2301016Y2066125*
X2301561Y2066875*
X2302380Y2067250*
X2302652*
X2303470Y2066875*
X2304016Y2066125*
X2304289Y2064625*
Y2062750*
X2304016Y2060875*
X2303470Y2059750*
X2302652Y2059375*
X2302107*
X2301289Y2059750*
X2301016Y2060500*
X2369107Y2065375D02*
Y2065750D01*
X2369380Y2066500*
X2369652Y2066875*
X2370198Y2067250*
X2371289*
X2371834Y2066875*
X2372107Y2066500*
X2372380Y2065750*
Y2065000*
X2372107Y2064250*
X2371561Y2063125*
X2368834Y2059375*
X2372652*
X2376743Y2067250D02*
X2375925Y2066875D01*
X2375380Y2065750*
X2375107Y2063875*
Y2062750*
X2375380Y2060875*
X2375925Y2059750*
X2376743Y2059375*
X2377289*
X2378107Y2059750*
X2378652Y2060875*
X2378925Y2062750*
Y2063875*
X2378652Y2065750*
X2378107Y2066875*
X2377289Y2067250*
X2376743*
X2404925Y2065375D02*
X2416925D01*
X2410925Y2059375D02*
Y2071375D01*
X2415670Y2074675D02*
X2413925Y2068375D01*
X2415670Y2074675D02*
X2417416Y2068375D01*
X2414580Y2070475D02*
X2416761D01*
X2437561Y2067250D02*
X2439743Y2063500D01*
Y2059375*
X2441925Y2067250D02*
X2439743Y2063500D01*
X2444380Y2067250D02*
Y2059375D01*
Y2067250D02*
X2447925D01*
X2444380Y2063500D02*
X2446561D01*
X2444380Y2059375D02*
X2447925D01*
X2454198Y2066125D02*
X2453652Y2066875D01*
X2452834Y2067250*
X2451743*
X2450925Y2066875*
X2450380Y2066125*
Y2065375*
X2450652Y2064625*
X2450925Y2064250*
X2451470Y2063875*
X2453107Y2063125*
X2453652Y2062750*
X2453925Y2062375*
X2454198Y2061625*
Y2060500*
X2453652Y2059750*
X2452834Y2059375*
X2451743*
X2450925Y2059750*
X2450380Y2060500*
X2490470Y2066125D02*
Y2059375D01*
X2488016Y2062750D02*
X2492925D01*
X2500289Y2068750D02*
X2495380Y2056750D01*
X2502743Y2062750D02*
X2507652D01*
X2511743Y2067250D02*
X2510925Y2066875D01*
X2510380Y2065750*
X2510107Y2063875*
Y2062750*
X2510380Y2060875*
X2510925Y2059750*
X2511743Y2059375*
X2512289*
X2513107Y2059750*
X2513652Y2060875*
X2513925Y2062750*
Y2063875*
X2513652Y2065750*
X2513107Y2066875*
X2512289Y2067250*
X2511743*
X2516652Y2060125D02*
X2516380Y2059750D01*
X2516652Y2059375*
X2516925Y2059750*
X2516652Y2060125*
X2521016Y2067250D02*
X2520198Y2066875D01*
X2519652Y2065750*
X2519380Y2063875*
Y2062750*
X2519652Y2060875*
X2520198Y2059750*
X2521016Y2059375*
X2521561*
X2522380Y2059750*
X2522925Y2060875*
X2523198Y2062750*
Y2063875*
X2522925Y2065750*
X2522380Y2066875*
X2521561Y2067250*
X2521016*
X2527289D02*
X2526470Y2066875D01*
X2525925Y2065750*
X2525652Y2063875*
Y2062750*
X2525925Y2060875*
X2526470Y2059750*
X2527289Y2059375*
X2527834*
X2528652Y2059750*
X2529198Y2060875*
X2529470Y2062750*
Y2063875*
X2529198Y2065750*
X2528652Y2066875*
X2527834Y2067250*
X2527289*
X2532470D02*
X2535470D01*
X2533834Y2064250*
X2534652*
X2535198Y2063875*
X2535470Y2063500*
X2535743Y2062375*
Y2061625*
X2535470Y2060500*
X2534925Y2059750*
X2534107Y2059375*
X2533289*
X2532470Y2059750*
X2532198Y2060125*
X2531925Y2060875*
X2280561Y2043250D02*
X2279743Y2042875D01*
X2279198Y2041750*
X2278925Y2039875*
Y2038750*
X2279198Y2036875*
X2279743Y2035750*
X2280561Y2035375*
X2281107*
X2281925Y2035750*
X2282470Y2036875*
X2282743Y2038750*
Y2039875*
X2282470Y2041750*
X2281925Y2042875*
X2281107Y2043250*
X2280561*
X2285470Y2036125D02*
X2285198Y2035750D01*
X2285470Y2035375*
X2285743Y2035750*
X2285470Y2036125*
X2289834Y2043250D02*
X2289016Y2042875D01*
X2288470Y2041750*
X2288198Y2039875*
Y2038750*
X2288470Y2036875*
X2289016Y2035750*
X2289834Y2035375*
X2290380*
X2291198Y2035750*
X2291743Y2036875*
X2292016Y2038750*
Y2039875*
X2291743Y2041750*
X2291198Y2042875*
X2290380Y2043250*
X2289834*
X2297198D02*
X2294470Y2038000D01*
X2298561*
X2297198Y2043250D02*
Y2035375D01*
X2372243Y2041375D02*
Y2041750D01*
X2372516Y2042500*
X2372789Y2042875*
X2373334Y2043250*
X2374425*
X2374970Y2042875*
X2375243Y2042500*
X2375516Y2041750*
Y2041000*
X2375243Y2040250*
X2374698Y2039125*
X2371970Y2035375*
X2375789*
X2404925Y2041375D02*
X2416925D01*
X2410925Y2035375D02*
Y2047375D01*
X2413925Y2050675D02*
Y2044375D01*
X2437561Y2043250D02*
X2439743Y2039500D01*
Y2035375*
X2441925Y2043250D02*
X2439743Y2039500D01*
X2444380Y2043250D02*
Y2035375D01*
Y2043250D02*
X2447925D01*
X2444380Y2039500D02*
X2446561D01*
X2444380Y2035375D02*
X2447925D01*
X2454198Y2042125D02*
X2453652Y2042875D01*
X2452834Y2043250*
X2451743*
X2450925Y2042875*
X2450380Y2042125*
Y2041375*
X2450652Y2040625*
X2450925Y2040250*
X2451470Y2039875*
X2453107Y2039125*
X2453652Y2038750*
X2453925Y2038375*
X2454198Y2037625*
Y2036500*
X2453652Y2035750*
X2452834Y2035375*
X2451743*
X2450925Y2035750*
X2450380Y2036500*
X2490470Y2042125D02*
Y2035375D01*
X2488016Y2038750D02*
X2492925D01*
X2500289Y2044750D02*
X2495380Y2032750D01*
X2502743Y2038750D02*
X2507652D01*
X2511743Y2043250D02*
X2510925Y2042875D01*
X2510380Y2041750*
X2510107Y2039875*
Y2038750*
X2510380Y2036875*
X2510925Y2035750*
X2511743Y2035375*
X2512289*
X2513107Y2035750*
X2513652Y2036875*
X2513925Y2038750*
Y2039875*
X2513652Y2041750*
X2513107Y2042875*
X2512289Y2043250*
X2511743*
X2516652Y2036125D02*
X2516380Y2035750D01*
X2516652Y2035375*
X2516925Y2035750*
X2516652Y2036125*
X2521016Y2043250D02*
X2520198Y2042875D01*
X2519652Y2041750*
X2519380Y2039875*
Y2038750*
X2519652Y2036875*
X2520198Y2035750*
X2521016Y2035375*
X2521561*
X2522380Y2035750*
X2522925Y2036875*
X2523198Y2038750*
Y2039875*
X2522925Y2041750*
X2522380Y2042875*
X2521561Y2043250*
X2521016*
X2527289D02*
X2526470Y2042875D01*
X2525925Y2041750*
X2525652Y2039875*
Y2038750*
X2525925Y2036875*
X2526470Y2035750*
X2527289Y2035375*
X2527834*
X2528652Y2035750*
X2529198Y2036875*
X2529470Y2038750*
Y2039875*
X2529198Y2041750*
X2528652Y2042875*
X2527834Y2043250*
X2527289*
X2532470D02*
X2535470D01*
X2533834Y2040250*
X2534652*
X2535198Y2039875*
X2535470Y2039500*
X2535743Y2038375*
Y2037625*
X2535470Y2036500*
X2534925Y2035750*
X2534107Y2035375*
X2533289*
X2532470Y2035750*
X2532198Y2036125*
X2531925Y2036875*
X2280561Y2019250D02*
X2279743Y2018875D01*
X2279198Y2017750*
X2278925Y2015875*
Y2014750*
X2279198Y2012875*
X2279743Y2011750*
X2280561Y2011375*
X2281107*
X2281925Y2011750*
X2282470Y2012875*
X2282743Y2014750*
Y2015875*
X2282470Y2017750*
X2281925Y2018875*
X2281107Y2019250*
X2280561*
X2285470Y2012125D02*
X2285198Y2011750D01*
X2285470Y2011375*
X2285743Y2011750*
X2285470Y2012125*
X2289834Y2019250D02*
X2289016Y2018875D01*
X2288470Y2017750*
X2288198Y2015875*
Y2014750*
X2288470Y2012875*
X2289016Y2011750*
X2289834Y2011375*
X2290380*
X2291198Y2011750*
X2291743Y2012875*
X2292016Y2014750*
Y2015875*
X2291743Y2017750*
X2291198Y2018875*
X2290380Y2019250*
X2289834*
X2298016D02*
X2295289D01*
X2295016Y2015875*
X2295289Y2016250*
X2296107Y2016625*
X2296925*
X2297743Y2016250*
X2298289Y2015500*
X2298561Y2014375*
X2298289Y2013625*
X2298016Y2012500*
X2297470Y2011750*
X2296652Y2011375*
X2295834*
X2295016Y2011750*
X2294743Y2012125*
X2294470Y2012875*
X2369380Y2019250D02*
X2372380D01*
X2370743Y2016250*
X2371561*
X2372107Y2015875*
X2372380Y2015500*
X2372652Y2014375*
Y2013625*
X2372380Y2012500*
X2371834Y2011750*
X2371016Y2011375*
X2370198*
X2369380Y2011750*
X2369107Y2012125*
X2368834Y2012875*
X2375380Y2017375D02*
Y2017750D01*
X2375652Y2018500*
X2375925Y2018875*
X2376470Y2019250*
X2377561*
X2378107Y2018875*
X2378380Y2018500*
X2378652Y2017750*
Y2017000*
X2378380Y2016250*
X2377834Y2015125*
X2375107Y2011375*
X2378925*
X2404925D02*
X2416925D01*
Y2023375*
X2404925*
Y2011375*
X2410925Y2017375D02*
Y2023375D01*
X2437561Y2019250D02*
X2439743Y2015500D01*
Y2011375*
X2441925Y2019250D02*
X2439743Y2015500D01*
X2444380Y2019250D02*
Y2011375D01*
Y2019250D02*
X2447925D01*
X2444380Y2015500D02*
X2446561D01*
X2444380Y2011375D02*
X2447925D01*
X2454198Y2018125D02*
X2453652Y2018875D01*
X2452834Y2019250*
X2451743*
X2450925Y2018875*
X2450380Y2018125*
Y2017375*
X2450652Y2016625*
X2450925Y2016250*
X2451470Y2015875*
X2453107Y2015125*
X2453652Y2014750*
X2453925Y2014375*
X2454198Y2013625*
Y2012500*
X2453652Y2011750*
X2452834Y2011375*
X2451743*
X2450925Y2011750*
X2450380Y2012500*
X2490470Y2018125D02*
Y2011375D01*
X2488016Y2014750D02*
X2492925D01*
X2500289Y2020750D02*
X2495380Y2008750D01*
X2502743Y2014750D02*
X2507652D01*
X2511743Y2019250D02*
X2510925Y2018875D01*
X2510380Y2017750*
X2510107Y2015875*
Y2014750*
X2510380Y2012875*
X2510925Y2011750*
X2511743Y2011375*
X2512289*
X2513107Y2011750*
X2513652Y2012875*
X2513925Y2014750*
Y2015875*
X2513652Y2017750*
X2513107Y2018875*
X2512289Y2019250*
X2511743*
X2516652Y2012125D02*
X2516380Y2011750D01*
X2516652Y2011375*
X2516925Y2011750*
X2516652Y2012125*
X2521016Y2019250D02*
X2520198Y2018875D01*
X2519652Y2017750*
X2519380Y2015875*
Y2014750*
X2519652Y2012875*
X2520198Y2011750*
X2521016Y2011375*
X2521561*
X2522380Y2011750*
X2522925Y2012875*
X2523198Y2014750*
Y2015875*
X2522925Y2017750*
X2522380Y2018875*
X2521561Y2019250*
X2521016*
X2527289D02*
X2526470Y2018875D01*
X2525925Y2017750*
X2525652Y2015875*
Y2014750*
X2525925Y2012875*
X2526470Y2011750*
X2527289Y2011375*
X2527834*
X2528652Y2011750*
X2529198Y2012875*
X2529470Y2014750*
Y2015875*
X2529198Y2017750*
X2528652Y2018875*
X2527834Y2019250*
X2527289*
X2532470D02*
X2535470D01*
X2533834Y2016250*
X2534652*
X2535198Y2015875*
X2535470Y2015500*
X2535743Y2014375*
Y2013625*
X2535470Y2012500*
X2534925Y2011750*
X2534107Y2011375*
X2533289*
X2532470Y2011750*
X2532198Y2012125*
X2531925Y2012875*
X2280561Y1995250D02*
X2279743Y1994875D01*
X2279198Y1993750*
X2278925Y1991875*
Y1990750*
X2279198Y1988875*
X2279743Y1987750*
X2280561Y1987375*
X2281107*
X2281925Y1987750*
X2282470Y1988875*
X2282743Y1990750*
Y1991875*
X2282470Y1993750*
X2281925Y1994875*
X2281107Y1995250*
X2280561*
X2285470Y1988125D02*
X2285198Y1987750D01*
X2285470Y1987375*
X2285743Y1987750*
X2285470Y1988125*
X2289834Y1995250D02*
X2289016Y1994875D01*
X2288470Y1993750*
X2288198Y1991875*
Y1990750*
X2288470Y1988875*
X2289016Y1987750*
X2289834Y1987375*
X2290380*
X2291198Y1987750*
X2291743Y1988875*
X2292016Y1990750*
Y1991875*
X2291743Y1993750*
X2291198Y1994875*
X2290380Y1995250*
X2289834*
X2298016D02*
X2295289D01*
X2295016Y1991875*
X2295289Y1992250*
X2296107Y1992625*
X2296925*
X2297743Y1992250*
X2298289Y1991500*
X2298561Y1990375*
X2298289Y1989625*
X2298016Y1988500*
X2297470Y1987750*
X2296652Y1987375*
X2295834*
X2295016Y1987750*
X2294743Y1988125*
X2294470Y1988875*
X2304561Y1995250D02*
X2301834D01*
X2301561Y1991875*
X2301834Y1992250*
X2302652Y1992625*
X2303470*
X2304289Y1992250*
X2304834Y1991500*
X2305107Y1990375*
X2304834Y1989625*
X2304561Y1988500*
X2304016Y1987750*
X2303198Y1987375*
X2302380*
X2301561Y1987750*
X2301289Y1988125*
X2301016Y1988875*
X2374561Y1995250D02*
X2371834Y1990000D01*
X2375925*
X2374561Y1995250D02*
Y1987375D01*
X2404925Y1993375D02*
X2416925D01*
X2410925Y1987375D02*
Y1999375D01*
X2416107Y2002675D02*
Y1997875D01*
X2415889Y1996975*
X2415670Y1996675*
X2415234Y1996375*
X2414798*
X2414361Y1996675*
X2414143Y1996975*
X2413925Y1997875*
Y1998475*
X2437561Y1995250D02*
X2439743Y1991500D01*
Y1987375*
X2441925Y1995250D02*
X2439743Y1991500D01*
X2444380Y1995250D02*
Y1987375D01*
Y1995250D02*
X2447925D01*
X2444380Y1991500D02*
X2446561D01*
X2444380Y1987375D02*
X2447925D01*
X2454198Y1994125D02*
X2453652Y1994875D01*
X2452834Y1995250*
X2451743*
X2450925Y1994875*
X2450380Y1994125*
Y1993375*
X2450652Y1992625*
X2450925Y1992250*
X2451470Y1991875*
X2453107Y1991125*
X2453652Y1990750*
X2453925Y1990375*
X2454198Y1989625*
Y1988500*
X2453652Y1987750*
X2452834Y1987375*
X2451743*
X2450925Y1987750*
X2450380Y1988500*
X2490470Y1994125D02*
Y1987375D01*
X2488016Y1990750D02*
X2492925D01*
X2500289Y1996750D02*
X2495380Y1984750D01*
X2502743Y1990750D02*
X2507652D01*
X2511743Y1995250D02*
X2510925Y1994875D01*
X2510380Y1993750*
X2510107Y1991875*
Y1990750*
X2510380Y1988875*
X2510925Y1987750*
X2511743Y1987375*
X2512289*
X2513107Y1987750*
X2513652Y1988875*
X2513925Y1990750*
Y1991875*
X2513652Y1993750*
X2513107Y1994875*
X2512289Y1995250*
X2511743*
X2516652Y1988125D02*
X2516380Y1987750D01*
X2516652Y1987375*
X2516925Y1987750*
X2516652Y1988125*
X2521016Y1995250D02*
X2520198Y1994875D01*
X2519652Y1993750*
X2519380Y1991875*
Y1990750*
X2519652Y1988875*
X2520198Y1987750*
X2521016Y1987375*
X2521561*
X2522380Y1987750*
X2522925Y1988875*
X2523198Y1990750*
Y1991875*
X2522925Y1993750*
X2522380Y1994875*
X2521561Y1995250*
X2521016*
X2527289D02*
X2526470Y1994875D01*
X2525925Y1993750*
X2525652Y1991875*
Y1990750*
X2525925Y1988875*
X2526470Y1987750*
X2527289Y1987375*
X2527834*
X2528652Y1987750*
X2529198Y1988875*
X2529470Y1990750*
Y1991875*
X2529198Y1993750*
X2528652Y1994875*
X2527834Y1995250*
X2527289*
X2532470D02*
X2535470D01*
X2533834Y1992250*
X2534652*
X2535198Y1991875*
X2535470Y1991500*
X2535743Y1990375*
Y1989625*
X2535470Y1988500*
X2534925Y1987750*
X2534107Y1987375*
X2533289*
X2532470Y1987750*
X2532198Y1988125*
X2531925Y1988875*
X2280561Y1971250D02*
X2279743Y1970875D01*
X2279198Y1969750*
X2278925Y1967875*
Y1966750*
X2279198Y1964875*
X2279743Y1963750*
X2280561Y1963375*
X2281107*
X2281925Y1963750*
X2282470Y1964875*
X2282743Y1966750*
Y1967875*
X2282470Y1969750*
X2281925Y1970875*
X2281107Y1971250*
X2280561*
X2285470Y1964125D02*
X2285198Y1963750D01*
X2285470Y1963375*
X2285743Y1963750*
X2285470Y1964125*
X2289834Y1971250D02*
X2289016Y1970875D01*
X2288470Y1969750*
X2288198Y1967875*
Y1966750*
X2288470Y1964875*
X2289016Y1963750*
X2289834Y1963375*
X2290380*
X2291198Y1963750*
X2291743Y1964875*
X2292016Y1966750*
Y1967875*
X2291743Y1969750*
X2291198Y1970875*
X2290380Y1971250*
X2289834*
X2297743Y1970125D02*
X2297470Y1970875D01*
X2296652Y1971250*
X2296107*
X2295289Y1970875*
X2294743Y1969750*
X2294470Y1967875*
Y1966000*
X2294743Y1964500*
X2295289Y1963750*
X2296107Y1963375*
X2296380*
X2297198Y1963750*
X2297743Y1964500*
X2298016Y1965625*
Y1966000*
X2297743Y1967125*
X2297198Y1967875*
X2296380Y1968250*
X2296107*
X2295289Y1967875*
X2294743Y1967125*
X2294470Y1966000*
X2301016Y1971250D02*
X2304016D01*
X2302380Y1968250*
X2303198*
X2303743Y1967875*
X2304016Y1967500*
X2304289Y1966375*
Y1965625*
X2304016Y1964500*
X2303470Y1963750*
X2302652Y1963375*
X2301834*
X2301016Y1963750*
X2300743Y1964125*
X2300470Y1964875*
X2368970Y1969375D02*
Y1969750D01*
X2369243Y1970500*
X2369516Y1970875*
X2370061Y1971250*
X2371152*
X2371698Y1970875*
X2371970Y1970500*
X2372243Y1969750*
Y1969000*
X2371970Y1968250*
X2371425Y1967125*
X2368698Y1963375*
X2372516*
X2377698Y1971250D02*
X2374970Y1966000D01*
X2379061*
X2377698Y1971250D02*
Y1963375D01*
X2404925Y1969375D02*
X2416925D01*
X2410925Y1963375D02*
Y1975375D01*
X2417198Y1977175D02*
X2416980Y1977775D01*
X2416543Y1978375*
X2416107Y1978675*
X2415234*
X2414798Y1978375*
X2414361Y1977775*
X2414143Y1977175*
X2413925Y1976275*
Y1974775*
X2414143Y1973875*
X2414361Y1973275*
X2414798Y1972675*
X2415234Y1972375*
X2416107*
X2416543Y1972675*
X2416980Y1973275*
X2417198Y1973875*
X2437561Y1971250D02*
X2439743Y1967500D01*
Y1963375*
X2441925Y1971250D02*
X2439743Y1967500D01*
X2444380Y1971250D02*
Y1963375D01*
Y1971250D02*
X2447925D01*
X2444380Y1967500D02*
X2446561D01*
X2444380Y1963375D02*
X2447925D01*
X2454198Y1970125D02*
X2453652Y1970875D01*
X2452834Y1971250*
X2451743*
X2450925Y1970875*
X2450380Y1970125*
Y1969375*
X2450652Y1968625*
X2450925Y1968250*
X2451470Y1967875*
X2453107Y1967125*
X2453652Y1966750*
X2453925Y1966375*
X2454198Y1965625*
Y1964500*
X2453652Y1963750*
X2452834Y1963375*
X2451743*
X2450925Y1963750*
X2450380Y1964500*
X2490470Y1970125D02*
Y1963375D01*
X2488016Y1966750D02*
X2492925D01*
X2500289Y1972750D02*
X2495380Y1960750D01*
X2502743Y1966750D02*
X2507652D01*
X2511743Y1971250D02*
X2510925Y1970875D01*
X2510380Y1969750*
X2510107Y1967875*
Y1966750*
X2510380Y1964875*
X2510925Y1963750*
X2511743Y1963375*
X2512289*
X2513107Y1963750*
X2513652Y1964875*
X2513925Y1966750*
Y1967875*
X2513652Y1969750*
X2513107Y1970875*
X2512289Y1971250*
X2511743*
X2516652Y1964125D02*
X2516380Y1963750D01*
X2516652Y1963375*
X2516925Y1963750*
X2516652Y1964125*
X2521016Y1971250D02*
X2520198Y1970875D01*
X2519652Y1969750*
X2519380Y1967875*
Y1966750*
X2519652Y1964875*
X2520198Y1963750*
X2521016Y1963375*
X2521561*
X2522380Y1963750*
X2522925Y1964875*
X2523198Y1966750*
Y1967875*
X2522925Y1969750*
X2522380Y1970875*
X2521561Y1971250*
X2521016*
X2527289D02*
X2526470Y1970875D01*
X2525925Y1969750*
X2525652Y1967875*
Y1966750*
X2525925Y1964875*
X2526470Y1963750*
X2527289Y1963375*
X2527834*
X2528652Y1963750*
X2529198Y1964875*
X2529470Y1966750*
Y1967875*
X2529198Y1969750*
X2528652Y1970875*
X2527834Y1971250*
X2527289*
X2532470D02*
X2535470D01*
X2533834Y1968250*
X2534652*
X2535198Y1967875*
X2535470Y1967500*
X2535743Y1966375*
Y1965625*
X2535470Y1964500*
X2534925Y1963750*
X2534107Y1963375*
X2533289*
X2532470Y1963750*
X2532198Y1964125*
X2531925Y1964875*
X2280561Y1947250D02*
X2279743Y1946875D01*
X2279198Y1945750*
X2278925Y1943875*
Y1942750*
X2279198Y1940875*
X2279743Y1939750*
X2280561Y1939375*
X2281107*
X2281925Y1939750*
X2282470Y1940875*
X2282743Y1942750*
Y1943875*
X2282470Y1945750*
X2281925Y1946875*
X2281107Y1947250*
X2280561*
X2285470Y1940125D02*
X2285198Y1939750D01*
X2285470Y1939375*
X2285743Y1939750*
X2285470Y1940125*
X2289834Y1947250D02*
X2289016Y1946875D01*
X2288470Y1945750*
X2288198Y1943875*
Y1942750*
X2288470Y1940875*
X2289016Y1939750*
X2289834Y1939375*
X2290380*
X2291198Y1939750*
X2291743Y1940875*
X2292016Y1942750*
Y1943875*
X2291743Y1945750*
X2291198Y1946875*
X2290380Y1947250*
X2289834*
X2297743Y1946125D02*
X2297470Y1946875D01*
X2296652Y1947250*
X2296107*
X2295289Y1946875*
X2294743Y1945750*
X2294470Y1943875*
Y1942000*
X2294743Y1940500*
X2295289Y1939750*
X2296107Y1939375*
X2296380*
X2297198Y1939750*
X2297743Y1940500*
X2298016Y1941625*
Y1942000*
X2297743Y1943125*
X2297198Y1943875*
X2296380Y1944250*
X2296107*
X2295289Y1943875*
X2294743Y1943125*
X2294470Y1942000*
X2304289Y1947250D02*
X2301561Y1939375D01*
X2300470Y1947250D02*
X2304289D01*
X2373334D02*
X2372516Y1946875D01*
X2372243Y1946125*
Y1945375*
X2372516Y1944625*
X2373061Y1944250*
X2374152Y1943875*
X2374970Y1943500*
X2375516Y1942750*
X2375789Y1942000*
Y1940875*
X2375516Y1940125*
X2375243Y1939750*
X2374425Y1939375*
X2373334*
X2372516Y1939750*
X2372243Y1940125*
X2371970Y1940875*
Y1942000*
X2372243Y1942750*
X2372789Y1943500*
X2373607Y1943875*
X2374698Y1944250*
X2375243Y1944625*
X2375516Y1945375*
Y1946125*
X2375243Y1946875*
X2374425Y1947250*
X2373334*
X2410925Y1939375D02*
X2416925Y1945375D01*
X2410925Y1951375*
X2404925Y1945375*
X2410925Y1939375*
Y1945375D02*
Y1951375D01*
X2437561Y1947250D02*
X2439743Y1943500D01*
Y1939375*
X2441925Y1947250D02*
X2439743Y1943500D01*
X2444380Y1947250D02*
Y1939375D01*
Y1947250D02*
X2447925D01*
X2444380Y1943500D02*
X2446561D01*
X2444380Y1939375D02*
X2447925D01*
X2454198Y1946125D02*
X2453652Y1946875D01*
X2452834Y1947250*
X2451743*
X2450925Y1946875*
X2450380Y1946125*
Y1945375*
X2450652Y1944625*
X2450925Y1944250*
X2451470Y1943875*
X2453107Y1943125*
X2453652Y1942750*
X2453925Y1942375*
X2454198Y1941625*
Y1940500*
X2453652Y1939750*
X2452834Y1939375*
X2451743*
X2450925Y1939750*
X2450380Y1940500*
X2490470Y1946125D02*
Y1939375D01*
X2488016Y1942750D02*
X2492925D01*
X2500289Y1948750D02*
X2495380Y1936750D01*
X2502743Y1942750D02*
X2507652D01*
X2511743Y1947250D02*
X2510925Y1946875D01*
X2510380Y1945750*
X2510107Y1943875*
Y1942750*
X2510380Y1940875*
X2510925Y1939750*
X2511743Y1939375*
X2512289*
X2513107Y1939750*
X2513652Y1940875*
X2513925Y1942750*
Y1943875*
X2513652Y1945750*
X2513107Y1946875*
X2512289Y1947250*
X2511743*
X2516652Y1940125D02*
X2516380Y1939750D01*
X2516652Y1939375*
X2516925Y1939750*
X2516652Y1940125*
X2521016Y1947250D02*
X2520198Y1946875D01*
X2519652Y1945750*
X2519380Y1943875*
Y1942750*
X2519652Y1940875*
X2520198Y1939750*
X2521016Y1939375*
X2521561*
X2522380Y1939750*
X2522925Y1940875*
X2523198Y1942750*
Y1943875*
X2522925Y1945750*
X2522380Y1946875*
X2521561Y1947250*
X2521016*
X2527289D02*
X2526470Y1946875D01*
X2525925Y1945750*
X2525652Y1943875*
Y1942750*
X2525925Y1940875*
X2526470Y1939750*
X2527289Y1939375*
X2527834*
X2528652Y1939750*
X2529198Y1940875*
X2529470Y1942750*
Y1943875*
X2529198Y1945750*
X2528652Y1946875*
X2527834Y1947250*
X2527289*
X2532470D02*
X2535470D01*
X2533834Y1944250*
X2534652*
X2535198Y1943875*
X2535470Y1943500*
X2535743Y1942375*
Y1941625*
X2535470Y1940500*
X2534925Y1939750*
X2534107Y1939375*
X2533289*
X2532470Y1939750*
X2532198Y1940125*
X2531925Y1940875*
X2280561Y1923250D02*
X2279743Y1922875D01*
X2279198Y1921750*
X2278925Y1919875*
Y1918750*
X2279198Y1916875*
X2279743Y1915750*
X2280561Y1915375*
X2281107*
X2281925Y1915750*
X2282470Y1916875*
X2282743Y1918750*
Y1919875*
X2282470Y1921750*
X2281925Y1922875*
X2281107Y1923250*
X2280561*
X2285470Y1916125D02*
X2285198Y1915750D01*
X2285470Y1915375*
X2285743Y1915750*
X2285470Y1916125*
X2289834Y1923250D02*
X2289016Y1922875D01*
X2288470Y1921750*
X2288198Y1919875*
Y1918750*
X2288470Y1916875*
X2289016Y1915750*
X2289834Y1915375*
X2290380*
X2291198Y1915750*
X2291743Y1916875*
X2292016Y1918750*
Y1919875*
X2291743Y1921750*
X2291198Y1922875*
X2290380Y1923250*
X2289834*
X2298289D02*
X2295561Y1915375D01*
X2294470Y1923250D02*
X2298289D01*
X2300743Y1921750D02*
X2301289Y1922125D01*
X2302107Y1923250*
Y1915375*
X2310834Y1920625D02*
X2313834Y1915375D01*
Y1920625D02*
X2310834Y1915375D01*
X2324198Y1923250D02*
X2323380Y1922875D01*
X2322834Y1921750*
X2322561Y1919875*
Y1918750*
X2322834Y1916875*
X2323380Y1915750*
X2324198Y1915375*
X2324743*
X2325561Y1915750*
X2326107Y1916875*
X2326380Y1918750*
Y1919875*
X2326107Y1921750*
X2325561Y1922875*
X2324743Y1923250*
X2324198*
X2329107Y1916125D02*
X2328834Y1915750D01*
X2329107Y1915375*
X2329380Y1915750*
X2329107Y1916125*
X2331834Y1921750D02*
X2332380Y1922125D01*
X2333198Y1923250*
Y1915375*
X2339470Y1923250D02*
X2336743Y1915375D01*
X2335652Y1923250D02*
X2339470D01*
X2342470D02*
X2345470D01*
X2343834Y1920250*
X2344652*
X2345198Y1919875*
X2345470Y1919500*
X2345743Y1918375*
Y1917625*
X2345470Y1916500*
X2344925Y1915750*
X2344107Y1915375*
X2343289*
X2342470Y1915750*
X2342198Y1916125*
X2341925Y1916875*
X2373334Y1923250D02*
X2372516Y1922875D01*
X2372243Y1922125*
Y1921375*
X2372516Y1920625*
X2373061Y1920250*
X2374152Y1919875*
X2374970Y1919500*
X2375516Y1918750*
X2375789Y1918000*
Y1916875*
X2375516Y1916125*
X2375243Y1915750*
X2374425Y1915375*
X2373334*
X2372516Y1915750*
X2372243Y1916125*
X2371970Y1916875*
Y1918000*
X2372243Y1918750*
X2372789Y1919500*
X2373607Y1919875*
X2374698Y1920250*
X2375243Y1920625*
X2375516Y1921375*
Y1922125*
X2375243Y1922875*
X2374425Y1923250*
X2373334*
X2404925Y1921375D02*
X2416925D01*
X2410925Y1915375D02*
Y1927375D01*
X2413925Y1930675D02*
Y1924375D01*
X2416980Y1930675D02*
Y1924375D01*
X2413925Y1927675D02*
X2416980D01*
X2440561Y1923250D02*
Y1915375D01*
Y1923250D02*
X2444380Y1915375D01*
Y1923250D02*
Y1915375D01*
X2448470Y1923250D02*
X2447925Y1922875D01*
X2447380Y1922125*
X2447107Y1921375*
X2446834Y1920250*
Y1918375*
X2447107Y1917250*
X2447380Y1916500*
X2447925Y1915750*
X2448470Y1915375*
X2449561*
X2450107Y1915750*
X2450652Y1916500*
X2450925Y1917250*
X2451198Y1918375*
Y1920250*
X2450925Y1921375*
X2450652Y1922125*
X2450107Y1922875*
X2449561Y1923250*
X2448470*
X2490470Y1922125D02*
Y1915375D01*
X2488016Y1918750D02*
X2492925D01*
X2500289Y1924750D02*
X2495380Y1912750D01*
X2502743Y1918750D02*
X2507652D01*
X2511743Y1923250D02*
X2510925Y1922875D01*
X2510380Y1921750*
X2510107Y1919875*
Y1918750*
X2510380Y1916875*
X2510925Y1915750*
X2511743Y1915375*
X2512289*
X2513107Y1915750*
X2513652Y1916875*
X2513925Y1918750*
Y1919875*
X2513652Y1921750*
X2513107Y1922875*
X2512289Y1923250*
X2511743*
X2516652Y1916125D02*
X2516380Y1915750D01*
X2516652Y1915375*
X2516925Y1915750*
X2516652Y1916125*
X2521016Y1923250D02*
X2520198Y1922875D01*
X2519652Y1921750*
X2519380Y1919875*
Y1918750*
X2519652Y1916875*
X2520198Y1915750*
X2521016Y1915375*
X2521561*
X2522380Y1915750*
X2522925Y1916875*
X2523198Y1918750*
Y1919875*
X2522925Y1921750*
X2522380Y1922875*
X2521561Y1923250*
X2521016*
X2527289D02*
X2526470Y1922875D01*
X2525925Y1921750*
X2525652Y1919875*
Y1918750*
X2525925Y1916875*
X2526470Y1915750*
X2527289Y1915375*
X2527834*
X2528652Y1915750*
X2529198Y1916875*
X2529470Y1918750*
Y1919875*
X2529198Y1921750*
X2528652Y1922875*
X2527834Y1923250*
X2527289*
X2532470D02*
X2535470D01*
X2533834Y1920250*
X2534652*
X2535198Y1919875*
X2535470Y1919500*
X2535743Y1918375*
Y1917625*
X2535470Y1916500*
X2534925Y1915750*
X2534107Y1915375*
X2533289*
X2532470Y1915750*
X2532198Y1916125*
X2531925Y1916875*
X2280561Y1899250D02*
X2279743Y1898875D01*
X2279198Y1897750*
X2278925Y1895875*
Y1894750*
X2279198Y1892875*
X2279743Y1891750*
X2280561Y1891375*
X2281107*
X2281925Y1891750*
X2282470Y1892875*
X2282743Y1894750*
Y1895875*
X2282470Y1897750*
X2281925Y1898875*
X2281107Y1899250*
X2280561*
X2285470Y1892125D02*
X2285198Y1891750D01*
X2285470Y1891375*
X2285743Y1891750*
X2285470Y1892125*
X2289834Y1899250D02*
X2289016Y1898875D01*
X2288470Y1897750*
X2288198Y1895875*
Y1894750*
X2288470Y1892875*
X2289016Y1891750*
X2289834Y1891375*
X2290380*
X2291198Y1891750*
X2291743Y1892875*
X2292016Y1894750*
Y1895875*
X2291743Y1897750*
X2291198Y1898875*
X2290380Y1899250*
X2289834*
X2298289D02*
X2295561Y1891375D01*
X2294470Y1899250D02*
X2298289D01*
X2301289D02*
X2304289D01*
X2302652Y1896250*
X2303470*
X2304016Y1895875*
X2304289Y1895500*
X2304561Y1894375*
Y1893625*
X2304289Y1892500*
X2303743Y1891750*
X2302925Y1891375*
X2302107*
X2301289Y1891750*
X2301016Y1892125*
X2300743Y1892875*
X2373334Y1899250D02*
X2372516Y1898875D01*
X2372243Y1898125*
Y1897375*
X2372516Y1896625*
X2373061Y1896250*
X2374152Y1895875*
X2374970Y1895500*
X2375516Y1894750*
X2375789Y1894000*
Y1892875*
X2375516Y1892125*
X2375243Y1891750*
X2374425Y1891375*
X2373334*
X2372516Y1891750*
X2372243Y1892125*
X2371970Y1892875*
Y1894000*
X2372243Y1894750*
X2372789Y1895500*
X2373607Y1895875*
X2374698Y1896250*
X2375243Y1896625*
X2375516Y1897375*
Y1898125*
X2375243Y1898875*
X2374425Y1899250*
X2373334*
X2404925Y1891375D02*
X2416925Y1903375D01*
Y1891375*
X2404925Y1903375*
Y1891375*
X2440561Y1899250D02*
Y1891375D01*
Y1899250D02*
X2444380Y1891375D01*
Y1899250D02*
Y1891375D01*
X2448470Y1899250D02*
X2447925Y1898875D01*
X2447380Y1898125*
X2447107Y1897375*
X2446834Y1896250*
Y1894375*
X2447107Y1893250*
X2447380Y1892500*
X2447925Y1891750*
X2448470Y1891375*
X2449561*
X2450107Y1891750*
X2450652Y1892500*
X2450925Y1893250*
X2451198Y1894375*
Y1896250*
X2450925Y1897375*
X2450652Y1898125*
X2450107Y1898875*
X2449561Y1899250*
X2448470*
X2490470Y1898125D02*
Y1891375D01*
X2488016Y1894750D02*
X2492925D01*
X2500289Y1900750D02*
X2495380Y1888750D01*
X2502743Y1894750D02*
X2507652D01*
X2511743Y1899250D02*
X2510925Y1898875D01*
X2510380Y1897750*
X2510107Y1895875*
Y1894750*
X2510380Y1892875*
X2510925Y1891750*
X2511743Y1891375*
X2512289*
X2513107Y1891750*
X2513652Y1892875*
X2513925Y1894750*
Y1895875*
X2513652Y1897750*
X2513107Y1898875*
X2512289Y1899250*
X2511743*
X2516652Y1892125D02*
X2516380Y1891750D01*
X2516652Y1891375*
X2516925Y1891750*
X2516652Y1892125*
X2521016Y1899250D02*
X2520198Y1898875D01*
X2519652Y1897750*
X2519380Y1895875*
Y1894750*
X2519652Y1892875*
X2520198Y1891750*
X2521016Y1891375*
X2521561*
X2522380Y1891750*
X2522925Y1892875*
X2523198Y1894750*
Y1895875*
X2522925Y1897750*
X2522380Y1898875*
X2521561Y1899250*
X2521016*
X2527289D02*
X2526470Y1898875D01*
X2525925Y1897750*
X2525652Y1895875*
Y1894750*
X2525925Y1892875*
X2526470Y1891750*
X2527289Y1891375*
X2527834*
X2528652Y1891750*
X2529198Y1892875*
X2529470Y1894750*
Y1895875*
X2529198Y1897750*
X2528652Y1898875*
X2527834Y1899250*
X2527289*
X2532470D02*
X2535470D01*
X2533834Y1896250*
X2534652*
X2535198Y1895875*
X2535470Y1895500*
X2535743Y1894375*
Y1893625*
X2535470Y1892500*
X2534925Y1891750*
X2534107Y1891375*
X2533289*
X2532470Y1891750*
X2532198Y1892125*
X2531925Y1892875*
X2280561Y1875250D02*
X2279743Y1874875D01*
X2279198Y1873750*
X2278925Y1871875*
Y1870750*
X2279198Y1868875*
X2279743Y1867750*
X2280561Y1867375*
X2281107*
X2281925Y1867750*
X2282470Y1868875*
X2282743Y1870750*
Y1871875*
X2282470Y1873750*
X2281925Y1874875*
X2281107Y1875250*
X2280561*
X2285470Y1868125D02*
X2285198Y1867750D01*
X2285470Y1867375*
X2285743Y1867750*
X2285470Y1868125*
X2289834Y1875250D02*
X2289016Y1874875D01*
X2288470Y1873750*
X2288198Y1871875*
Y1870750*
X2288470Y1868875*
X2289016Y1867750*
X2289834Y1867375*
X2290380*
X2291198Y1867750*
X2291743Y1868875*
X2292016Y1870750*
Y1871875*
X2291743Y1873750*
X2291198Y1874875*
X2290380Y1875250*
X2289834*
X2298289D02*
X2295561Y1867375D01*
X2294470Y1875250D02*
X2298289D01*
X2301289D02*
X2304289D01*
X2302652Y1872250*
X2303470*
X2304016Y1871875*
X2304289Y1871500*
X2304561Y1870375*
Y1869625*
X2304289Y1868500*
X2303743Y1867750*
X2302925Y1867375*
X2302107*
X2301289Y1867750*
X2301016Y1868125*
X2300743Y1868875*
X2375380Y1874125D02*
X2375107Y1874875D01*
X2374289Y1875250*
X2373743*
X2372925Y1874875*
X2372380Y1873750*
X2372107Y1871875*
Y1870000*
X2372380Y1868500*
X2372925Y1867750*
X2373743Y1867375*
X2374016*
X2374834Y1867750*
X2375380Y1868500*
X2375652Y1869625*
Y1870000*
X2375380Y1871125*
X2374834Y1871875*
X2374016Y1872250*
X2373743*
X2372925Y1871875*
X2372380Y1871125*
X2372107Y1870000*
X2404925Y1873375D02*
X2416925D01*
X2410925Y1867375D02*
Y1879375D01*
X2417198Y1881175D02*
X2416980Y1881775D01*
X2416543Y1882375*
X2416107Y1882675*
X2415234*
X2414798Y1882375*
X2414361Y1881775*
X2414143Y1881175*
X2413925Y1880275*
Y1878775*
X2414143Y1877875*
X2414361Y1877275*
X2414798Y1876675*
X2415234Y1876375*
X2416107*
X2416543Y1876675*
X2416980Y1877275*
X2417198Y1877875*
Y1878775*
X2416107D02*
X2417198D01*
X2437561Y1875250D02*
X2439743Y1871500D01*
Y1867375*
X2441925Y1875250D02*
X2439743Y1871500D01*
X2444380Y1875250D02*
Y1867375D01*
Y1875250D02*
X2447925D01*
X2444380Y1871500D02*
X2446561D01*
X2444380Y1867375D02*
X2447925D01*
X2454198Y1874125D02*
X2453652Y1874875D01*
X2452834Y1875250*
X2451743*
X2450925Y1874875*
X2450380Y1874125*
Y1873375*
X2450652Y1872625*
X2450925Y1872250*
X2451470Y1871875*
X2453107Y1871125*
X2453652Y1870750*
X2453925Y1870375*
X2454198Y1869625*
Y1868500*
X2453652Y1867750*
X2452834Y1867375*
X2451743*
X2450925Y1867750*
X2450380Y1868500*
X2490470Y1874125D02*
Y1867375D01*
X2488016Y1870750D02*
X2492925D01*
X2500289Y1876750D02*
X2495380Y1864750D01*
X2502743Y1870750D02*
X2507652D01*
X2511743Y1875250D02*
X2510925Y1874875D01*
X2510380Y1873750*
X2510107Y1871875*
Y1870750*
X2510380Y1868875*
X2510925Y1867750*
X2511743Y1867375*
X2512289*
X2513107Y1867750*
X2513652Y1868875*
X2513925Y1870750*
Y1871875*
X2513652Y1873750*
X2513107Y1874875*
X2512289Y1875250*
X2511743*
X2516652Y1868125D02*
X2516380Y1867750D01*
X2516652Y1867375*
X2516925Y1867750*
X2516652Y1868125*
X2521016Y1875250D02*
X2520198Y1874875D01*
X2519652Y1873750*
X2519380Y1871875*
Y1870750*
X2519652Y1868875*
X2520198Y1867750*
X2521016Y1867375*
X2521561*
X2522380Y1867750*
X2522925Y1868875*
X2523198Y1870750*
Y1871875*
X2522925Y1873750*
X2522380Y1874875*
X2521561Y1875250*
X2521016*
X2527289D02*
X2526470Y1874875D01*
X2525925Y1873750*
X2525652Y1871875*
Y1870750*
X2525925Y1868875*
X2526470Y1867750*
X2527289Y1867375*
X2527834*
X2528652Y1867750*
X2529198Y1868875*
X2529470Y1870750*
Y1871875*
X2529198Y1873750*
X2528652Y1874875*
X2527834Y1875250*
X2527289*
X2532470D02*
X2535470D01*
X2533834Y1872250*
X2534652*
X2535198Y1871875*
X2535470Y1871500*
X2535743Y1870375*
Y1869625*
X2535470Y1868500*
X2534925Y1867750*
X2534107Y1867375*
X2533289*
X2532470Y1867750*
X2532198Y1868125*
X2531925Y1868875*
X2280561Y1851250D02*
X2279743Y1850875D01*
X2279198Y1849750*
X2278925Y1847875*
Y1846750*
X2279198Y1844875*
X2279743Y1843750*
X2280561Y1843375*
X2281107*
X2281925Y1843750*
X2282470Y1844875*
X2282743Y1846750*
Y1847875*
X2282470Y1849750*
X2281925Y1850875*
X2281107Y1851250*
X2280561*
X2285470Y1844125D02*
X2285198Y1843750D01*
X2285470Y1843375*
X2285743Y1843750*
X2285470Y1844125*
X2289834Y1851250D02*
X2289016Y1850875D01*
X2288470Y1849750*
X2288198Y1847875*
Y1846750*
X2288470Y1844875*
X2289016Y1843750*
X2289834Y1843375*
X2290380*
X2291198Y1843750*
X2291743Y1844875*
X2292016Y1846750*
Y1847875*
X2291743Y1849750*
X2291198Y1850875*
X2290380Y1851250*
X2289834*
X2298289D02*
X2295561Y1843375D01*
X2294470Y1851250D02*
X2298289D01*
X2304289Y1848625D02*
X2304016Y1847500D01*
X2303470Y1846750*
X2302652Y1846375*
X2302380*
X2301561Y1846750*
X2301016Y1847500*
X2300743Y1848625*
Y1849000*
X2301016Y1850125*
X2301561Y1850875*
X2302380Y1851250*
X2302652*
X2303470Y1850875*
X2304016Y1850125*
X2304289Y1848625*
Y1846750*
X2304016Y1844875*
X2303470Y1843750*
X2302652Y1843375*
X2302107*
X2301289Y1843750*
X2301016Y1844500*
X2374561Y1851250D02*
X2371834Y1846000D01*
X2375925*
X2374561Y1851250D02*
Y1843375D01*
X2404925Y1849375D02*
X2416925D01*
X2410925Y1843375D02*
Y1855375D01*
X2413925Y1858675D02*
Y1852375D01*
Y1858675D02*
X2416761D01*
X2413925Y1855675D02*
X2415670D01*
X2413925Y1852375D02*
X2416761D01*
X2440561Y1851250D02*
Y1843375D01*
Y1851250D02*
X2444380Y1843375D01*
Y1851250D02*
Y1843375D01*
X2448470Y1851250D02*
X2447925Y1850875D01*
X2447380Y1850125*
X2447107Y1849375*
X2446834Y1848250*
Y1846375*
X2447107Y1845250*
X2447380Y1844500*
X2447925Y1843750*
X2448470Y1843375*
X2449561*
X2450107Y1843750*
X2450652Y1844500*
X2450925Y1845250*
X2451198Y1846375*
Y1848250*
X2450925Y1849375*
X2450652Y1850125*
X2450107Y1850875*
X2449561Y1851250*
X2448470*
X2490470Y1850125D02*
Y1843375D01*
X2488016Y1846750D02*
X2492925D01*
X2500289Y1852750D02*
X2495380Y1840750D01*
X2502743Y1846750D02*
X2507652D01*
X2511743Y1851250D02*
X2510925Y1850875D01*
X2510380Y1849750*
X2510107Y1847875*
Y1846750*
X2510380Y1844875*
X2510925Y1843750*
X2511743Y1843375*
X2512289*
X2513107Y1843750*
X2513652Y1844875*
X2513925Y1846750*
Y1847875*
X2513652Y1849750*
X2513107Y1850875*
X2512289Y1851250*
X2511743*
X2516652Y1844125D02*
X2516380Y1843750D01*
X2516652Y1843375*
X2516925Y1843750*
X2516652Y1844125*
X2521016Y1851250D02*
X2520198Y1850875D01*
X2519652Y1849750*
X2519380Y1847875*
Y1846750*
X2519652Y1844875*
X2520198Y1843750*
X2521016Y1843375*
X2521561*
X2522380Y1843750*
X2522925Y1844875*
X2523198Y1846750*
Y1847875*
X2522925Y1849750*
X2522380Y1850875*
X2521561Y1851250*
X2521016*
X2527289D02*
X2526470Y1850875D01*
X2525925Y1849750*
X2525652Y1847875*
Y1846750*
X2525925Y1844875*
X2526470Y1843750*
X2527289Y1843375*
X2527834*
X2528652Y1843750*
X2529198Y1844875*
X2529470Y1846750*
Y1847875*
X2529198Y1849750*
X2528652Y1850875*
X2527834Y1851250*
X2527289*
X2532470D02*
X2535470D01*
X2533834Y1848250*
X2534652*
X2535198Y1847875*
X2535470Y1847500*
X2535743Y1846375*
Y1845625*
X2535470Y1844500*
X2534925Y1843750*
X2534107Y1843375*
X2533289*
X2532470Y1843750*
X2532198Y1844125*
X2531925Y1844875*
X2280561Y1827250D02*
X2279743Y1826875D01*
X2279198Y1825750*
X2278925Y1823875*
Y1822750*
X2279198Y1820875*
X2279743Y1819750*
X2280561Y1819375*
X2281107*
X2281925Y1819750*
X2282470Y1820875*
X2282743Y1822750*
Y1823875*
X2282470Y1825750*
X2281925Y1826875*
X2281107Y1827250*
X2280561*
X2285470Y1820125D02*
X2285198Y1819750D01*
X2285470Y1819375*
X2285743Y1819750*
X2285470Y1820125*
X2288198Y1825750D02*
X2288743Y1826125D01*
X2289561Y1827250*
Y1819375*
X2293652Y1827250D02*
X2292834Y1826875D01*
X2292289Y1825750*
X2292016Y1823875*
Y1822750*
X2292289Y1820875*
X2292834Y1819750*
X2293652Y1819375*
X2294198*
X2295016Y1819750*
X2295561Y1820875*
X2295834Y1822750*
Y1823875*
X2295561Y1825750*
X2295016Y1826875*
X2294198Y1827250*
X2293652*
X2299652D02*
X2298834Y1826875D01*
X2298561Y1826125*
Y1825375*
X2298834Y1824625*
X2299380Y1824250*
X2300470Y1823875*
X2301289Y1823500*
X2301834Y1822750*
X2302107Y1822000*
Y1820875*
X2301834Y1820125*
X2301561Y1819750*
X2300743Y1819375*
X2299652*
X2298834Y1819750*
X2298561Y1820125*
X2298289Y1820875*
Y1822000*
X2298561Y1822750*
X2299107Y1823500*
X2299925Y1823875*
X2301016Y1824250*
X2301561Y1824625*
X2301834Y1825375*
Y1826125*
X2301561Y1826875*
X2300743Y1827250*
X2299652*
X2374561D02*
X2371834Y1822000D01*
X2375925*
X2374561Y1827250D02*
Y1819375D01*
X2404925Y1825375D02*
X2416925D01*
X2410925Y1819375D02*
Y1831375D01*
X2413925Y1834675D02*
Y1828375D01*
X2416980Y1834675D02*
X2413925Y1830475D01*
X2415016Y1831975D02*
X2416980Y1828375D01*
X2440561Y1827250D02*
Y1819375D01*
Y1827250D02*
X2444380Y1819375D01*
Y1827250D02*
Y1819375D01*
X2448470Y1827250D02*
X2447925Y1826875D01*
X2447380Y1826125*
X2447107Y1825375*
X2446834Y1824250*
Y1822375*
X2447107Y1821250*
X2447380Y1820500*
X2447925Y1819750*
X2448470Y1819375*
X2449561*
X2450107Y1819750*
X2450652Y1820500*
X2450925Y1821250*
X2451198Y1822375*
Y1824250*
X2450925Y1825375*
X2450652Y1826125*
X2450107Y1826875*
X2449561Y1827250*
X2448470*
X2490470Y1826125D02*
Y1819375D01*
X2488016Y1822750D02*
X2492925D01*
X2500289Y1828750D02*
X2495380Y1816750D01*
X2502743Y1822750D02*
X2507652D01*
X2511743Y1827250D02*
X2510925Y1826875D01*
X2510380Y1825750*
X2510107Y1823875*
Y1822750*
X2510380Y1820875*
X2510925Y1819750*
X2511743Y1819375*
X2512289*
X2513107Y1819750*
X2513652Y1820875*
X2513925Y1822750*
Y1823875*
X2513652Y1825750*
X2513107Y1826875*
X2512289Y1827250*
X2511743*
X2516652Y1820125D02*
X2516380Y1819750D01*
X2516652Y1819375*
X2516925Y1819750*
X2516652Y1820125*
X2521016Y1827250D02*
X2520198Y1826875D01*
X2519652Y1825750*
X2519380Y1823875*
Y1822750*
X2519652Y1820875*
X2520198Y1819750*
X2521016Y1819375*
X2521561*
X2522380Y1819750*
X2522925Y1820875*
X2523198Y1822750*
Y1823875*
X2522925Y1825750*
X2522380Y1826875*
X2521561Y1827250*
X2521016*
X2527289D02*
X2526470Y1826875D01*
X2525925Y1825750*
X2525652Y1823875*
Y1822750*
X2525925Y1820875*
X2526470Y1819750*
X2527289Y1819375*
X2527834*
X2528652Y1819750*
X2529198Y1820875*
X2529470Y1822750*
Y1823875*
X2529198Y1825750*
X2528652Y1826875*
X2527834Y1827250*
X2527289*
X2532470D02*
X2535470D01*
X2533834Y1824250*
X2534652*
X2535198Y1823875*
X2535470Y1823500*
X2535743Y1822375*
Y1821625*
X2535470Y1820500*
X2534925Y1819750*
X2534107Y1819375*
X2533289*
X2532470Y1819750*
X2532198Y1820125*
X2531925Y1820875*
X2280561Y1803250D02*
X2279743Y1802875D01*
X2279198Y1801750*
X2278925Y1799875*
Y1798750*
X2279198Y1796875*
X2279743Y1795750*
X2280561Y1795375*
X2281107*
X2281925Y1795750*
X2282470Y1796875*
X2282743Y1798750*
Y1799875*
X2282470Y1801750*
X2281925Y1802875*
X2281107Y1803250*
X2280561*
X2285470Y1796125D02*
X2285198Y1795750D01*
X2285470Y1795375*
X2285743Y1795750*
X2285470Y1796125*
X2288198Y1801750D02*
X2288743Y1802125D01*
X2289561Y1803250*
Y1795375*
X2292016Y1801750D02*
X2292561Y1802125D01*
X2293380Y1803250*
Y1795375*
X2372243Y1801375D02*
Y1801750D01*
X2372516Y1802500*
X2372789Y1802875*
X2373334Y1803250*
X2374425*
X2374970Y1802875*
X2375243Y1802500*
X2375516Y1801750*
Y1801000*
X2375243Y1800250*
X2374698Y1799125*
X2371970Y1795375*
X2375789*
X2404925Y1801375D02*
X2416925D01*
X2410925Y1795375D02*
Y1807375D01*
X2413925Y1810675D02*
Y1804375D01*
Y1810675D02*
X2415452D01*
X2416107Y1810375*
X2416543Y1809775*
X2416761Y1809175*
X2416980Y1808275*
Y1806775*
X2416761Y1805875*
X2416543Y1805275*
X2416107Y1804675*
X2415452Y1804375*
X2413925*
X2440561Y1803250D02*
Y1795375D01*
Y1803250D02*
X2444380Y1795375D01*
Y1803250D02*
Y1795375D01*
X2448470Y1803250D02*
X2447925Y1802875D01*
X2447380Y1802125*
X2447107Y1801375*
X2446834Y1800250*
Y1798375*
X2447107Y1797250*
X2447380Y1796500*
X2447925Y1795750*
X2448470Y1795375*
X2449561*
X2450107Y1795750*
X2450652Y1796500*
X2450925Y1797250*
X2451198Y1798375*
Y1800250*
X2450925Y1801375*
X2450652Y1802125*
X2450107Y1802875*
X2449561Y1803250*
X2448470*
X2490470Y1802125D02*
Y1795375D01*
X2488016Y1798750D02*
X2492925D01*
X2500289Y1804750D02*
X2495380Y1792750D01*
X2502743Y1798750D02*
X2507652D01*
X2511743Y1803250D02*
X2510925Y1802875D01*
X2510380Y1801750*
X2510107Y1799875*
Y1798750*
X2510380Y1796875*
X2510925Y1795750*
X2511743Y1795375*
X2512289*
X2513107Y1795750*
X2513652Y1796875*
X2513925Y1798750*
Y1799875*
X2513652Y1801750*
X2513107Y1802875*
X2512289Y1803250*
X2511743*
X2516652Y1796125D02*
X2516380Y1795750D01*
X2516652Y1795375*
X2516925Y1795750*
X2516652Y1796125*
X2521016Y1803250D02*
X2520198Y1802875D01*
X2519652Y1801750*
X2519380Y1799875*
Y1798750*
X2519652Y1796875*
X2520198Y1795750*
X2521016Y1795375*
X2521561*
X2522380Y1795750*
X2522925Y1796875*
X2523198Y1798750*
Y1799875*
X2522925Y1801750*
X2522380Y1802875*
X2521561Y1803250*
X2521016*
X2527289D02*
X2526470Y1802875D01*
X2525925Y1801750*
X2525652Y1799875*
Y1798750*
X2525925Y1796875*
X2526470Y1795750*
X2527289Y1795375*
X2527834*
X2528652Y1795750*
X2529198Y1796875*
X2529470Y1798750*
Y1799875*
X2529198Y1801750*
X2528652Y1802875*
X2527834Y1803250*
X2527289*
X2532470D02*
X2535470D01*
X2533834Y1800250*
X2534652*
X2535198Y1799875*
X2535470Y1799500*
X2535743Y1798375*
Y1797625*
X2535470Y1796500*
X2534925Y1795750*
X2534107Y1795375*
X2533289*
X2532470Y1795750*
X2532198Y1796125*
X2531925Y1796875*
X2280561Y1779250D02*
X2279743Y1778875D01*
X2279198Y1777750*
X2278925Y1775875*
Y1774750*
X2279198Y1772875*
X2279743Y1771750*
X2280561Y1771375*
X2281107*
X2281925Y1771750*
X2282470Y1772875*
X2282743Y1774750*
Y1775875*
X2282470Y1777750*
X2281925Y1778875*
X2281107Y1779250*
X2280561*
X2285470Y1772125D02*
X2285198Y1771750D01*
X2285470Y1771375*
X2285743Y1771750*
X2285470Y1772125*
X2288198Y1777750D02*
X2288743Y1778125D01*
X2289561Y1779250*
Y1771375*
X2292561Y1779250D02*
X2295561D01*
X2293925Y1776250*
X2294743*
X2295289Y1775875*
X2295561Y1775500*
X2295834Y1774375*
Y1773625*
X2295561Y1772500*
X2295016Y1771750*
X2294198Y1771375*
X2293380*
X2292561Y1771750*
X2292289Y1772125*
X2292016Y1772875*
X2372243Y1777375D02*
Y1777750D01*
X2372516Y1778500*
X2372789Y1778875*
X2373334Y1779250*
X2374425*
X2374970Y1778875*
X2375243Y1778500*
X2375516Y1777750*
Y1777000*
X2375243Y1776250*
X2374698Y1775125*
X2371970Y1771375*
X2375789*
X2404925Y1777375D02*
X2416925D01*
X2410925Y1771375D02*
Y1783375D01*
X2413925Y1786675D02*
Y1780375D01*
Y1786675D02*
X2415889D01*
X2416543Y1786375*
X2416761Y1786075*
X2416980Y1785475*
Y1784875*
X2416761Y1784275*
X2416543Y1783975*
X2415889Y1783675*
X2413925D02*
X2415889D01*
X2416543Y1783375*
X2416761Y1783075*
X2416980Y1782475*
Y1781575*
X2416761Y1780975*
X2416543Y1780675*
X2415889Y1780375*
X2413925*
X2440561Y1779250D02*
Y1771375D01*
Y1779250D02*
X2444380Y1771375D01*
Y1779250D02*
Y1771375D01*
X2448470Y1779250D02*
X2447925Y1778875D01*
X2447380Y1778125*
X2447107Y1777375*
X2446834Y1776250*
Y1774375*
X2447107Y1773250*
X2447380Y1772500*
X2447925Y1771750*
X2448470Y1771375*
X2449561*
X2450107Y1771750*
X2450652Y1772500*
X2450925Y1773250*
X2451198Y1774375*
Y1776250*
X2450925Y1777375*
X2450652Y1778125*
X2450107Y1778875*
X2449561Y1779250*
X2448470*
X2490470Y1778125D02*
Y1771375D01*
X2488016Y1774750D02*
X2492925D01*
X2500289Y1780750D02*
X2495380Y1768750D01*
X2502743Y1774750D02*
X2507652D01*
X2511743Y1779250D02*
X2510925Y1778875D01*
X2510380Y1777750*
X2510107Y1775875*
Y1774750*
X2510380Y1772875*
X2510925Y1771750*
X2511743Y1771375*
X2512289*
X2513107Y1771750*
X2513652Y1772875*
X2513925Y1774750*
Y1775875*
X2513652Y1777750*
X2513107Y1778875*
X2512289Y1779250*
X2511743*
X2516652Y1772125D02*
X2516380Y1771750D01*
X2516652Y1771375*
X2516925Y1771750*
X2516652Y1772125*
X2521016Y1779250D02*
X2520198Y1778875D01*
X2519652Y1777750*
X2519380Y1775875*
Y1774750*
X2519652Y1772875*
X2520198Y1771750*
X2521016Y1771375*
X2521561*
X2522380Y1771750*
X2522925Y1772875*
X2523198Y1774750*
Y1775875*
X2522925Y1777750*
X2522380Y1778875*
X2521561Y1779250*
X2521016*
X2527289D02*
X2526470Y1778875D01*
X2525925Y1777750*
X2525652Y1775875*
Y1774750*
X2525925Y1772875*
X2526470Y1771750*
X2527289Y1771375*
X2527834*
X2528652Y1771750*
X2529198Y1772875*
X2529470Y1774750*
Y1775875*
X2529198Y1777750*
X2528652Y1778875*
X2527834Y1779250*
X2527289*
X2532470D02*
X2535470D01*
X2533834Y1776250*
X2534652*
X2535198Y1775875*
X2535470Y1775500*
X2535743Y1774375*
Y1773625*
X2535470Y1772500*
X2534925Y1771750*
X2534107Y1771375*
X2533289*
X2532470Y1771750*
X2532198Y1772125*
X2531925Y1772875*
X2280561Y1755250D02*
X2279743Y1754875D01*
X2279198Y1753750*
X2278925Y1751875*
Y1750750*
X2279198Y1748875*
X2279743Y1747750*
X2280561Y1747375*
X2281107*
X2281925Y1747750*
X2282470Y1748875*
X2282743Y1750750*
Y1751875*
X2282470Y1753750*
X2281925Y1754875*
X2281107Y1755250*
X2280561*
X2285470Y1748125D02*
X2285198Y1747750D01*
X2285470Y1747375*
X2285743Y1747750*
X2285470Y1748125*
X2288198Y1753750D02*
X2288743Y1754125D01*
X2289561Y1755250*
Y1747375*
X2295561Y1755250D02*
X2292834D01*
X2292561Y1751875*
X2292834Y1752250*
X2293652Y1752625*
X2294470*
X2295289Y1752250*
X2295834Y1751500*
X2296107Y1750375*
X2295834Y1749625*
X2295561Y1748500*
X2295016Y1747750*
X2294198Y1747375*
X2293380*
X2292561Y1747750*
X2292289Y1748125*
X2292016Y1748875*
X2374561Y1755250D02*
X2371834Y1750000D01*
X2375925*
X2374561Y1755250D02*
Y1747375D01*
X2404925D02*
X2416925D01*
X2404925Y1759375*
X2416925*
X2404925Y1747375*
X2440561Y1755250D02*
Y1747375D01*
Y1755250D02*
X2444380Y1747375D01*
Y1755250D02*
Y1747375D01*
X2448470Y1755250D02*
X2447925Y1754875D01*
X2447380Y1754125*
X2447107Y1753375*
X2446834Y1752250*
Y1750375*
X2447107Y1749250*
X2447380Y1748500*
X2447925Y1747750*
X2448470Y1747375*
X2449561*
X2450107Y1747750*
X2450652Y1748500*
X2450925Y1749250*
X2451198Y1750375*
Y1752250*
X2450925Y1753375*
X2450652Y1754125*
X2450107Y1754875*
X2449561Y1755250*
X2448470*
X2490470Y1754125D02*
Y1747375D01*
X2488016Y1750750D02*
X2492925D01*
X2500289Y1756750D02*
X2495380Y1744750D01*
X2502743Y1750750D02*
X2507652D01*
X2511743Y1755250D02*
X2510925Y1754875D01*
X2510380Y1753750*
X2510107Y1751875*
Y1750750*
X2510380Y1748875*
X2510925Y1747750*
X2511743Y1747375*
X2512289*
X2513107Y1747750*
X2513652Y1748875*
X2513925Y1750750*
Y1751875*
X2513652Y1753750*
X2513107Y1754875*
X2512289Y1755250*
X2511743*
X2516652Y1748125D02*
X2516380Y1747750D01*
X2516652Y1747375*
X2516925Y1747750*
X2516652Y1748125*
X2521016Y1755250D02*
X2520198Y1754875D01*
X2519652Y1753750*
X2519380Y1751875*
Y1750750*
X2519652Y1748875*
X2520198Y1747750*
X2521016Y1747375*
X2521561*
X2522380Y1747750*
X2522925Y1748875*
X2523198Y1750750*
Y1751875*
X2522925Y1753750*
X2522380Y1754875*
X2521561Y1755250*
X2521016*
X2527289D02*
X2526470Y1754875D01*
X2525925Y1753750*
X2525652Y1751875*
Y1750750*
X2525925Y1748875*
X2526470Y1747750*
X2527289Y1747375*
X2527834*
X2528652Y1747750*
X2529198Y1748875*
X2529470Y1750750*
Y1751875*
X2529198Y1753750*
X2528652Y1754875*
X2527834Y1755250*
X2527289*
X2532470D02*
X2535470D01*
X2533834Y1752250*
X2534652*
X2535198Y1751875*
X2535470Y1751500*
X2535743Y1750375*
Y1749625*
X2535470Y1748500*
X2534925Y1747750*
X2534107Y1747375*
X2533289*
X2532470Y1747750*
X2532198Y1748125*
X2531925Y1748875*
G54D12*
X2352925Y1451375D02*
Y1451875D01*
Y1451375D02*
X2353425D01*
X2352925D02*
Y1450875D01*
Y1451375D02*
X2352425D01*
X2354425D02*
X2359425D01*
X2352925Y1449875D02*
Y1446475D01*
Y1452875D02*
Y1457375D01*
X2346925Y1451375D02*
X2351425D01*
X2355925D02*
G03X2355925I-3000J0D01*
G01X2354925D02*
G03X2354925I-2000J0D01*
G01X2027925Y1681375D02*
Y1681875D01*
Y1681375D02*
X2028425D01*
X2027925D02*
Y1680875D01*
Y1681375D02*
X2027425D01*
X2029425D02*
X2034425D01*
X2027925Y1679875D02*
Y1676475D01*
Y1682875D02*
Y1687375D01*
X2021925Y1681375D02*
X2026425D01*
X2030925D02*
G03X2030925I-3000J0D01*
G01X2029925D02*
G03X2029925I-2000J0D01*
G01X1752925D02*
Y1681875D01*
Y1681375D02*
X1753425D01*
X1752925D02*
Y1680875D01*
Y1681375D02*
X1752425D01*
X1754425D02*
X1759425D01*
X1752925Y1679875D02*
Y1676475D01*
Y1682875D02*
Y1687375D01*
X1746925Y1681375D02*
X1751425D01*
X1755925D02*
G03X1755925I-3000J0D01*
G01X1754925D02*
G03X1754925I-2000J0D01*
G54D59*
G54D61*
G01X1472925Y1041375D02*
Y1041875D01*
Y1041375D02*
X1473425D01*
X1472925D02*
Y1040875D01*
Y1041375D02*
X1472425D01*
X1474425D02*
X1479425D01*
X1472925Y1039875D02*
Y1036475D01*
Y1042875D02*
Y1047375D01*
X1466925Y1041375D02*
X1471425D01*
X1475925D02*
G03X1475925I-3000J0D01*
G01X1474925D02*
G03X1474925I-2000J0D01*
G01X1462925Y1031375D02*
Y1031875D01*
Y1031375D02*
X1463425D01*
X1462925D02*
Y1030875D01*
Y1031375D02*
X1462425D01*
X1464425D02*
X1469425D01*
X1462925Y1029875D02*
Y1026475D01*
Y1032875D02*
Y1037375D01*
X1456925Y1031375D02*
X1461425D01*
X1465925D02*
G03X1465925I-3000J0D01*
G01X1464925D02*
G03X1464925I-2000J0D01*
G74*
G01X0Y0D02*
M02*
