*
*
G04 PADS VX.2.2 Build Number: 7607494 generated Gerber (RS-274-X) file*
G04 PC Version=2.1*
*
%IN "D3005H100_A.PCB"*%
*
%MOIN*%
*
%FSLAX35Y35*%
*
*
*
*
G04 PC Standard Apertures*
*
*
G04 Thermal Relief Aperture macro.*
%AMTER*
1,1,$1,0,0*
1,0,$1-$2,0,0*
21,0,$3,$4,0,0,45*
21,0,$3,$4,0,0,135*
%
*
*
G04 Annular Aperture macro.*
%AMANN*
1,1,$1,0,0*
1,0,$2,0,0*
%
*
*
G04 Odd Aperture macro.*
%AMODD*
1,1,$1,0,0*
1,0,$1-0.005,0,0*
%
*
*
G04 PC Custom Aperture Macros*
*
*
*
*
*
*
G04 PC Aperture Table*
*
%ADD010C,0.01*%
%ADD012C,0.005*%
%ADD059C,0.001*%
%ADD061C,0.007*%
*
*
*
*
G04 PC Circuitry*
G04 Layer Name D3005H100_A.PCB - circuitry*
%LPD*%
*
G54D59*
G01X967449Y149860D02*
X967363Y150465D01*
X967103Y150898*
X966759Y151242*
X966234Y151417*
X966200Y151464*
X966220Y151504*
X966920Y152029*
X967092Y152716*
X966919Y153579*
X966225Y154099*
X965789Y154273*
X965355Y154360*
X964661Y154273*
X964143Y153928*
X963795Y153406*
X963552Y152757*
X964253Y152679*
X964418Y153090*
X964420Y153094*
X964598Y153451*
X964620Y153473*
X964620D02*
X964978Y153652D01*
X964988Y153656*
X965345Y153745*
X965367*
X965813Y153656*
X965831Y153649*
X966099Y153470*
X966116Y153451*
X966295Y153094*
X966299Y153084*
X966388Y152726*
X966389Y152714*
X966388Y152704*
X966299Y152258*
X966285Y152233*
X966017Y151965*
X966017D02*
X966012Y151960D01*
X965655Y151692*
X965625Y151682*
X965044*
X964969Y151078*
X965438Y151156*
X965455*
X965990Y151067*
X966012Y151058*
X966369Y150790*
X966379Y150780*
X966647Y150423*
X966656Y150401*
X966746Y149865*
Y149857*
X966745Y149847*
X966656Y149401*
X966650Y149385*
X966382Y148939*
X966369Y148924*
X966012Y148656*
X965990Y148647*
X965455Y148558*
X965437*
X964990Y148647*
X964978Y148652*
X964620Y148830*
X964620D02*
X964603Y148845D01*
X964335Y149202*
X964328Y149216*
X964162Y149714*
X963455Y149635*
X963618Y148986*
X964052Y148377*
X964659Y148031*
X965355Y147943*
X966232Y148119*
X966839Y148466*
X967275Y149163*
X967449Y149860*
X962764Y148032D02*
X960494Y151437D01*
X960486Y151464*
X960486*
X960494Y151492*
X962407Y154361*
X961455*
X960399Y152776*
X960398Y152775*
X959951Y152150*
X959866Y152156*
X959777Y152335*
X959775Y152339*
X959599Y152779*
X958457Y154361*
X957504*
X959417Y151492*
X959425Y151464*
X959425*
X959417Y151437*
X957147Y148032*
X958099*
X959602Y150242*
X959608Y150250*
X959783Y150425*
X959958Y150688*
X960043Y150686*
X960310Y150241*
X961812Y148032*
X962764*
X961950Y451754D02*
X961196D01*
X961146Y451804*
Y455771*
X960596*
X957586Y451787*
Y451050*
X960393*
X960443Y451000*
Y449532*
X961146*
Y451000*
X961196Y451050*
X961950*
Y451754*
X960443Y454304D02*
Y451804D01*
X960393Y451754*
X958518*
X958468Y451804*
X958478Y451834*
X960353Y454334*
X960443Y454304*
X957264Y449532D02*
X954994Y452937D01*
X954986Y452964*
X954986*
X954994Y452992*
X956907Y455861*
X955955*
X954899Y454276*
X954898Y454275*
X954451Y453650*
X954366Y453656*
X954277Y453835*
X954275Y453839*
X954099Y454279*
X952957Y455861*
X952004*
X953917Y452992*
X953925Y452964*
X953925*
X953917Y452937*
X951647Y449532*
X952599*
X954102Y451742*
X954108Y451750*
X954283Y451925*
X954458Y452188*
X954543Y452186*
X954810Y451741*
X956312Y449532*
X957264*
X895239Y129840D02*
X895175Y130228D01*
X895047Y130548*
X894792Y130803*
X894400Y130998*
X894004Y131130*
X894004D02*
X893404Y131264D01*
X893397Y131266*
X893065Y131399*
X892800Y131465*
X892797Y131466*
X892596Y131533*
X892567Y131558*
X892504Y131685*
X892375Y131813*
X892362Y131836*
X892295Y132104*
X892294Y132116*
X892295Y132128*
X892362Y132396*
X892371Y132414*
X892572Y132682*
X892593Y132698*
X892928Y132832*
X892939Y132835*
X893408Y132902*
X893423*
X893825Y132835*
X893836Y132832*
X894170Y132698*
X894187Y132687*
X894455Y132419*
X894469Y132392*
X894529Y132032*
X895097*
X895041Y132370*
X894913Y132691*
X894658Y132946*
X894267Y133141*
X893873Y133272*
X893349Y133338*
X892891Y133273*
X892499Y133142*
X892174Y132947*
X891918Y132691*
X891789Y132370*
X891725Y132049*
X891789Y131731*
X891916Y131476*
X892107Y131285*
X892765Y130890*
X894097Y130557*
X894107Y130554*
X894375Y130420*
X894394Y130403*
X894528Y130202*
X894533Y130193*
X894667Y129858*
X894671Y129839*
Y129638*
X894665Y129616*
X894531Y129348*
X894522Y129335*
X894388Y129201*
X894375Y129192*
X894107Y129058*
X894096Y129054*
X893493Y128920*
X893482Y128919*
X893147*
X893129Y128922*
X892794Y129056*
X892783Y129063*
X892783D02*
X892515Y129264D01*
X892509Y129268*
X892308Y129469*
X892297Y129486*
X892163Y129821*
X892161Y129829*
X892102Y130124*
X891531*
X891589Y129719*
X891784Y129263*
X892043Y128939*
X892431Y128680*
X892955Y128549*
X893548Y128483*
X894006Y128549*
X894400Y128680*
X894789Y128875*
X895046Y129195*
X895175Y129519*
X895239Y129840*
X890753D02*
X890688Y130228D01*
X890560Y130548*
X890305Y130803*
X889914Y130998*
X889518Y131130*
X888918Y131264*
X888910Y131266*
X888578Y131399*
X888314Y131465*
X888310Y131466*
X888109Y131533*
X888080Y131558*
X888017Y131685*
X887889Y131813*
X887876Y131836*
X887809Y132104*
X887807Y132116*
X887809Y132128*
X887876Y132396*
X887884Y132414*
X888085Y132682*
X888106Y132698*
X888441Y132832*
X888453Y132835*
X888922Y132902*
X888922D02*
X888937D01*
X889339Y132835*
X889349Y132832*
X889684Y132698*
X889701Y132687*
X889968Y132419*
X889982Y132392*
X890042Y132032*
X890611*
X890554Y132370*
X890426Y132691*
X890171Y132946*
X889780Y133141*
X889386Y133272*
X888862Y133338*
X888404Y133273*
X888012Y133142*
X887687Y132947*
X887431Y132691*
X887303Y132370*
X887238Y132049*
X887302Y131731*
X887429Y131476*
X887620Y131285*
X888278Y130890*
X889610Y130557*
X889621Y130554*
X889888Y130420*
X889908Y130403*
X890042Y130202*
X890046Y130193*
X890180Y129858*
X890184Y129839*
Y129638*
X890179Y129616*
X890045Y129348*
X890035Y129335*
X889901Y129201*
X889888Y129192*
X889621Y129058*
X889609Y129054*
X889006Y128920*
X888996Y128919*
X888661*
X888642Y128922*
X888307Y129056*
X888296Y129063*
X888028Y129264*
X888023Y129268*
X887822Y129469*
X887811Y129486*
X887677Y129821*
X887674Y129829*
X887615Y130124*
X887044*
X887102Y129719*
X887298Y129263*
X887557Y128939*
X887945Y128680*
X888469Y128549*
X889062Y128483*
X889520Y128549*
X889914Y128680*
X890303Y128875*
X890559Y129195*
X890688Y129519*
X890753Y129840*
X886468Y133271D02*
X882684D01*
Y132836*
X884241*
X884291Y132786*
Y128550*
X884861*
Y132786*
X884911Y132836*
X886468*
Y133271*
X793878Y224284D02*
X793524Y225875D01*
X792819Y227109*
X791586Y227990*
X790177Y228342*
X788414Y227989*
X787714Y227464*
X787003Y226576*
X786914Y226607*
X786915Y226612*
X787093Y228398*
X787095Y228409*
X787453Y229480*
X787454Y229483*
X787811Y230376*
X787822Y230392*
X788536Y231107*
X788559Y231120*
X789988Y231477*
X790010Y231478*
X790903Y231299*
X790923Y231290*
X791637Y230754*
X791649Y230742*
X792006Y230206*
X792013Y230188*
X792183Y229340*
X793688Y229508*
X793347Y230870*
X792466Y231927*
X791411Y232630*
X790002Y232807*
X788235Y232453*
X786823Y231394*
X786117Y230336*
X785763Y229097*
X785585Y227673*
X785407Y226069*
Y224471*
X785762Y223229*
X786117Y222164*
X786647Y221281*
X787351Y220577*
X788056Y220224*
X788938Y219871*
X789817*
X790881Y220049*
X791940Y220402*
X792819Y221105*
X793347Y221985*
X793701Y223047*
X793878Y224284*
X792371Y224107D02*
X792371D01*
Y224100*
X792192Y222850*
X792186Y222831*
X791650Y221939*
X791633Y221921*
X790740Y221386*
X790724Y221380*
X789831Y221201*
X789821Y221200*
X788929*
X788901Y221208*
X788365Y221566*
X788363Y221567*
X787649Y222103*
X787637Y222115*
X787280Y222651*
X787273Y222666*
X787094Y223381*
Y223383*
X786915Y224276*
X786914Y224286*
X786915Y224294*
X787094Y225365*
X787100Y225383*
X787636Y226276*
X787653Y226293*
X788546Y226829*
X788563Y226835*
X789635Y227014*
X789651*
X790723Y226835*
X790740Y226829*
X791633Y226293*
X791650Y226276*
X792186Y225383*
X792192Y225364*
X792371Y224114*
Y224107*
X784578Y232807D02*
X782897D01*
X780942Y224453*
X780585Y222848*
X780406Y221777*
X780309Y221771*
X778881Y226414*
X776927Y232807*
X775037*
X772371Y224100*
Y223750*
X772366Y223728*
X772190Y223375*
X772013Y222668*
X771835Y221776*
X771737Y221773*
X771023Y224451*
Y224453*
X769067Y232807*
X767386*
X770753Y220050*
X772641*
X775487Y229656*
X775666Y230369*
X775668Y230376*
X776025Y231269*
X776121Y231250*
Y230901*
X776476Y229837*
Y229836*
X779501Y220050*
X781211*
X784578Y232807*
X791878Y348964D02*
X791702Y350553D01*
X790821Y351786*
X789586Y352668*
X788176Y353021*
X786947Y352845*
X785885Y352137*
X785807Y352179*
X785808Y352186*
X786343Y355579*
X786393Y355621*
X791164*
Y357129*
X785184*
X783952Y350615*
X785482Y350445*
X786358Y351321*
X786379Y351334*
X787629Y351691*
X787650Y351692*
X788900Y351514*
X788923Y351504*
X789637Y350969*
X789650Y350954*
X790186Y350061*
X790192Y350043*
X790371Y348793*
Y348786*
X790371*
Y348779*
X790192Y347529*
X790186Y347510*
X789650Y346617*
X789642Y346608*
X789642D02*
X788928Y345893D01*
X788900Y345879*
X787650Y345701*
X787650D02*
X787633D01*
X786740Y345880*
X786728Y345884*
X786013Y346241*
X785991Y346263*
X785634Y346978*
X785631Y346984*
X785287Y348017*
X783777Y347849*
X784118Y346486*
X784999Y345252*
X786230Y344548*
X787642Y344372*
X788705Y344549*
X789586Y344725*
X790289Y345252*
X790996Y345959*
X791701Y347194*
X791878Y348964*
X782578Y357307D02*
X780897D01*
X778942Y348953*
X778585Y347348*
X778406Y346277*
X778309Y346271*
X776881Y350914*
X774927Y357307*
X773037*
X770371Y348600*
Y348250*
X770366Y348228*
X770190Y347875*
X770013Y347168*
X769835Y346276*
X769737Y346273*
X769023Y348951*
Y348953*
X767067Y357307*
X765386*
X768753Y344550*
X770641*
X773487Y354156*
X773666Y354869*
X773668Y354876*
X774025Y355769*
X774121Y355750*
Y355401*
X774476Y354337*
Y354336*
X777501Y344550*
X779211*
X782578Y357307*
X766199Y223572D02*
X766023Y224629D01*
X765672Y225508*
X764970Y226209*
X763909Y226739*
X762844Y227095*
X761239Y227451*
X761231Y227454*
X760342Y227809*
X759631Y227987*
X759627Y227988*
X759091Y228167*
X759062Y228192*
X758887Y228542*
X758536Y228893*
X758523Y228916*
X758344Y229631*
X758343Y229643*
X758344Y229655*
X758523Y230369*
X758531Y230387*
X759067Y231101*
X759089Y231118*
X759981Y231475*
X759993Y231478*
X761243Y231657*
X761258Y231656*
X762330Y231478*
X762340Y231475*
X763233Y231118*
X763250Y231107*
X763964Y230392*
X763978Y230365*
X764150Y229336*
X764150D02*
X765834D01*
X765666Y230344*
X765315Y231222*
X764613Y231923*
X763552Y232454*
X762489Y232808*
X761072Y232985*
X759833Y232808*
X758771Y232454*
X757888Y231925*
X757185Y231222*
X756834Y230343*
X756658Y229464*
X756833Y228588*
X757184Y227887*
X757710Y227361*
X759484Y226297*
X763048Y225406*
X763058Y225402*
X763772Y225045*
X763792Y225028*
X764149Y224492*
X764154Y224483*
X764511Y223590*
X764514Y223571*
Y223036*
X764509Y223013*
X764152Y222299*
X764142Y222286*
X764142D02*
X763785Y221929D01*
X763772Y221920*
X763058Y221562*
X763047Y221558*
X761439Y221201*
X761429Y221200*
X760536*
X760517Y221204*
X759624Y221561*
X759613Y221567*
X758899Y222103*
X758893Y222108*
X758358Y222643*
X758346Y222660*
X757989Y223553*
X757987Y223562*
X757816Y224414*
X756129*
X756299Y223228*
X756829Y221990*
X757534Y221109*
X758592Y220404*
X760009Y220049*
X761606Y219872*
X762846Y220049*
X763909Y220403*
X764968Y220933*
X765671Y221811*
X766023Y222693*
X766199Y223572*
X764199Y348072D02*
X764023Y349129D01*
X763672Y350008*
X762970Y350709*
X761909Y351239*
X760844Y351595*
X759239Y351951*
X759231Y351954*
X758342Y352309*
X757631Y352487*
X757627Y352488*
X757091Y352667*
X757062Y352692*
X756887Y353042*
X756536Y353393*
X756523Y353416*
X756344Y354131*
X756343Y354143*
X756344Y354155*
X756523Y354869*
X756531Y354887*
X757067Y355601*
X757089Y355618*
X757981Y355975*
X757993Y355978*
X759243Y356157*
X759258Y356156*
X760330Y355978*
X760340Y355975*
X761233Y355618*
X761250Y355607*
X761964Y354892*
X761978Y354865*
X762150Y353836*
X762150D02*
X763834D01*
X763666Y354844*
X763315Y355722*
X762613Y356423*
X761552Y356954*
X760489Y357308*
X759072Y357485*
X757833Y357308*
X756771Y356954*
X755888Y356425*
X755185Y355722*
X754834Y354843*
X754658Y353964*
X754833Y353088*
X755184Y352387*
X755710Y351861*
X757484Y350797*
X761048Y349906*
X761058Y349902*
X761772Y349545*
X761792Y349528*
X762149Y348992*
X762154Y348983*
X762511Y348090*
X762514Y348071*
Y347536*
X762509Y347513*
X762152Y346799*
X762142Y346786*
X762142D02*
X761785Y346429D01*
X761772Y346420*
X761058Y346062*
X761047Y346058*
X759439Y345701*
X759429Y345700*
X758536*
X758517Y345704*
X757624Y346061*
X757613Y346067*
X756899Y346603*
X756893Y346608*
X756358Y347143*
X756346Y347160*
X755989Y348053*
X755987Y348062*
X755816Y348914*
X754129*
X754299Y347728*
X754829Y346490*
X755534Y345609*
X756592Y344904*
X758009Y344549*
X759606Y344372*
X760846Y344549*
X761909Y344903*
X762968Y345433*
X763671Y346311*
X764023Y347193*
X764199Y348072*
X628664Y340807D02*
X627671D01*
X627150Y339939*
X627142Y339929*
X626250Y339036*
X626242Y339030*
X625171Y338316*
X625168Y338314*
X623943Y337614*
Y336117*
X625652Y336971*
X627077Y338040*
X627157Y338000*
Y328050*
X628664*
Y340807*
X620986Y334426D02*
X620808Y336027D01*
X620452Y337448*
X619921Y338688*
X619038Y339747*
X618158Y340276*
X617094Y340630*
X616209Y340807*
X610550*
Y328050*
X615141*
X617094Y328228*
X618685Y328935*
X618685D02*
X619746Y329995D01*
X620276Y330878*
X620631Y331943*
X620986Y333186*
Y334426*
X619300Y334429D02*
Y333179D01*
X619298Y333165*
X618941Y331915*
X618939Y331910*
X618582Y331017*
X618576Y331006*
X618040Y330291*
X618028Y330280*
X616956Y329566*
X616938Y329558*
X616046Y329380*
X616036Y329379*
X612286*
X612236Y329429*
Y339429*
X612286Y339479*
X616214*
X616233Y339475*
X617126Y339118*
X617137Y339111*
X617851Y338576*
X617860Y338567*
X618575Y337674*
X618582Y337663*
X619117Y336413*
X619121Y336397*
X619300Y334433*
Y334429*
X608486Y329379D02*
X602286D01*
X602236Y329429*
Y340807*
X600550*
Y328050*
X608486*
Y329379*
X473879Y224593D02*
X472321D01*
X472271Y224643*
Y232629*
X471096*
X465050Y224626*
Y223086*
X470714*
X470764Y223036*
Y220050*
X472271*
Y223036*
X472321Y223086*
X473879*
Y224593*
X470764Y229643D02*
Y224643D01*
X470714Y224593*
X466964*
X466914Y224643*
X466924Y224673*
X470674Y229673*
X470764Y229643*
X473878Y348753D02*
X473702Y349983D01*
X473175Y350862*
X472473Y351563*
X471413Y351917*
X471379Y351964*
X471399Y352004*
X472813Y353065*
X473163Y354466*
X472812Y356221*
X471404Y357277*
X470521Y357630*
X469641Y357807*
X468232Y357630*
X467179Y356928*
X466473Y355870*
X465962Y354507*
X467468Y354340*
X467811Y355197*
X467812Y355201*
X468170Y355915*
X468192Y355938*
X468906Y356295*
X468916Y356299*
X469631Y356477*
X469653Y356478*
X470546Y356299*
X470563Y356292*
X471099Y355934*
X471116Y355915*
X471473Y355201*
X471477Y355191*
X471656Y354476*
X471657Y354464*
X471656Y354454*
X471478Y353562*
X471464Y353536*
X470928Y353000*
X470923Y352996*
X470209Y352460*
X470179Y352450*
X468973*
X468808Y351132*
X469813Y351299*
X469830*
X470901Y351121*
X470923Y351111*
X471637Y350576*
X471647Y350566*
X472183Y349851*
X472192Y349830*
X472371Y348758*
Y348750*
X472370Y348740*
X472192Y347847*
X472186Y347831*
X471650Y346939*
X471637Y346924*
X470923Y346389*
X470901Y346379*
X469830Y346201*
X469812*
X468919Y346380*
X468906Y346384*
X468192Y346741*
X468174Y346756*
X467639Y347470*
X467631Y347484*
X467287Y348517*
X465777Y348349*
X466118Y346986*
X466999Y345752*
X468230Y345048*
X469641Y344872*
X471411Y345226*
X472643Y345930*
X473525Y347341*
X473878Y348753*
X464578Y232807D02*
X462897D01*
X460942Y224453*
X460585Y222848*
X460406Y221777*
X460309Y221771*
X458881Y226414*
X456927Y232807*
X455037*
X452371Y224100*
Y223750*
X452366Y223728*
X452190Y223375*
X452013Y222668*
X451835Y221776*
X451737Y221773*
X451023Y224451*
Y224453*
X449067Y232807*
X447386*
X450753Y220050*
X452641*
X455487Y229656*
X455666Y230369*
X455668Y230376*
X456025Y231269*
X456121Y231250*
Y230901*
X456476Y229837*
Y229836*
X459501Y220050*
X461211*
X464578Y232807*
Y357807D02*
X462897D01*
X460942Y349453*
X460585Y347848*
X460406Y346777*
X460309Y346771*
X458881Y351414*
X456927Y357807*
X455037*
X452371Y349100*
Y348750*
X452366Y348728*
X452190Y348375*
X452013Y347668*
X451835Y346776*
X451737Y346773*
X451023Y349451*
Y349453*
X449067Y357807*
X447386*
X450753Y345050*
X452641*
X455487Y354656*
X455666Y355369*
X455668Y355376*
X456025Y356269*
X456121Y356250*
Y355901*
X456476Y354837*
Y354836*
X459501Y345050*
X461211*
X464578Y357807*
X446199Y223572D02*
X446023Y224629D01*
X445672Y225508*
X444970Y226209*
X443909Y226739*
X442844Y227095*
X441239Y227451*
X441231Y227454*
X440342Y227809*
X439631Y227987*
X439627Y227988*
X439091Y228167*
X439062Y228192*
X438887Y228542*
X438536Y228893*
X438523Y228916*
X438344Y229631*
X438343Y229643*
X438344Y229655*
X438523Y230369*
X438531Y230387*
X439067Y231101*
X439089Y231118*
X439981Y231475*
X439993Y231478*
X441243Y231657*
X441258Y231656*
X442330Y231478*
X442340Y231475*
X443233Y231118*
X443250Y231107*
X443964Y230392*
X443978Y230365*
X444150Y229336*
X444150D02*
X445834D01*
X445666Y230344*
X445315Y231222*
X444613Y231923*
X443552Y232454*
X442489Y232808*
X441072Y232985*
X439833Y232808*
X438771Y232454*
X437888Y231925*
X437185Y231222*
X436834Y230343*
X436658Y229464*
X436833Y228588*
X437184Y227887*
X437710Y227361*
X439484Y226297*
X443048Y225406*
X443058Y225402*
X443772Y225045*
X443792Y225028*
X444149Y224492*
X444154Y224483*
X444511Y223590*
X444514Y223571*
Y223036*
X444509Y223013*
X444152Y222299*
X444142Y222286*
X444142D02*
X443785Y221929D01*
X443772Y221920*
X443058Y221562*
X443047Y221558*
X441439Y221201*
X441429Y221200*
X440536*
X440517Y221204*
X439624Y221561*
X439613Y221567*
X438899Y222103*
X438893Y222108*
X438358Y222643*
X438346Y222660*
X437989Y223553*
X437987Y223562*
X437816Y224414*
X436129*
X436299Y223228*
X436829Y221990*
X437534Y221109*
X438592Y220404*
X440009Y220049*
X441606Y219872*
X442846Y220049*
X443909Y220403*
X444968Y220933*
X445671Y221811*
X446023Y222693*
X446199Y223572*
Y348572D02*
X446023Y349629D01*
X445672Y350508*
X444970Y351209*
X443909Y351739*
X442844Y352095*
X441239Y352451*
X441231Y352454*
X440342Y352809*
X439631Y352987*
X439627Y352988*
X439091Y353167*
X439062Y353192*
X438887Y353542*
X438536Y353893*
X438523Y353916*
X438344Y354631*
X438343Y354643*
X438344Y354655*
X438523Y355369*
X438531Y355387*
X439067Y356101*
X439089Y356118*
X439981Y356475*
X439993Y356478*
X441243Y356657*
X441258Y356656*
X442330Y356478*
X442340Y356475*
X443233Y356118*
X443250Y356107*
X443964Y355392*
X443978Y355365*
X444150Y354336*
X444150D02*
X445834D01*
X445666Y355344*
X445315Y356222*
X444613Y356923*
X443552Y357454*
X442489Y357808*
X441072Y357985*
X439833Y357808*
X438771Y357454*
X437888Y356925*
X437185Y356222*
X436834Y355343*
X436658Y354464*
X436833Y353588*
X437184Y352887*
X437710Y352361*
X439484Y351297*
X443048Y350406*
X443058Y350402*
X443772Y350045*
X443792Y350028*
X444149Y349492*
X444154Y349483*
X444511Y348590*
X444514Y348571*
Y348036*
X444509Y348013*
X444152Y347299*
X444142Y347286*
X444142D02*
X443785Y346929D01*
X443772Y346920*
X443058Y346562*
X443047Y346558*
X441439Y346201*
X441429Y346200*
X440536*
X440517Y346204*
X439624Y346561*
X439613Y346567*
X438899Y347103*
X438893Y347108*
X438358Y347643*
X438346Y347660*
X437989Y348553*
X437987Y348562*
X437816Y349414*
X436129*
X436299Y348228*
X436829Y346990*
X437534Y346109*
X438592Y345404*
X440009Y345049*
X441606Y344872*
X442846Y345049*
X443909Y345403*
X444968Y345933*
X445671Y346811*
X446023Y347693*
X446199Y348572*
X318200Y224057D02*
X312000D01*
X311950Y224107*
X311961Y224138*
X312675Y225031*
X312684Y225040*
X313398Y225575*
X314468Y226467*
X315893Y227714*
X316782Y228781*
X317313Y229489*
X317667Y230373*
X318021Y231789*
X317845Y233194*
X316967Y234247*
X315732Y234953*
X314140Y235307*
X312552Y235130*
X311320Y234426*
X310439Y233193*
X310098Y231829*
X311603Y231662*
X311772Y232510*
X311781Y232530*
X312317Y233244*
X312327Y233254*
X313041Y233790*
X313063Y233799*
X314135Y233978*
X314153*
X315046Y233799*
X315066Y233790*
X315780Y233254*
X315785Y233250*
X316321Y232714*
X316335Y232688*
X316513Y231796*
X316514Y231786*
X316513Y231776*
X316335Y230883*
X316329Y230867*
X315793Y229974*
X315788Y229967*
X314717Y228717*
X314712Y228713*
X313105Y227284*
X313104Y227283*
X311858Y226215*
X310437Y224439*
X310084Y223558*
X309916Y222550*
X318200*
Y224057*
X316057Y360307D02*
X315064D01*
X314543Y359439*
X314535Y359429*
X313642Y358536*
X313642D02*
X313635Y358530D01*
X312563Y357816*
X312561Y357814*
X311336Y357114*
Y355617*
X313045Y356471*
X314470Y357540*
X314550Y357500*
Y347550*
X316057*
Y360307*
X309078Y235307D02*
X307397D01*
X305442Y226953*
X305085Y225348*
X304906Y224277*
X304809Y224271*
X303381Y228914*
X301427Y235307*
X299537*
X296871Y226600*
Y226250*
X296866Y226228*
X296690Y225875*
X296513Y225168*
X296335Y224276*
X296237Y224273*
X295523Y226951*
Y226953*
X293567Y235307*
X291886*
X295253Y222550*
X297141*
X299987Y232156*
X300166Y232869*
X300168Y232876*
X300525Y233769*
X300621Y233750*
Y233401*
X300976Y232337*
Y232336*
X304001Y222550*
X305711*
X309078Y235307*
Y360307D02*
X307397D01*
X305442Y351953*
X305085Y350348*
X304906Y349277*
X304809Y349271*
X303381Y353914*
X301427Y360307*
X299537*
X296871Y351600*
Y351250*
X296866Y351228*
X296690Y350875*
X296513Y350168*
X296335Y349276*
X296237Y349273*
X295523Y351951*
Y351953*
X293567Y360307*
X291886*
X295253Y347550*
X297141*
X299987Y357156*
X300166Y357869*
X300168Y357876*
X300525Y358769*
X300621Y358750*
Y358401*
X300976Y357337*
Y357336*
X304001Y347550*
X305711*
X309078Y360307*
X290699Y226072D02*
X290523Y227129D01*
X290172Y228008*
X289470Y228709*
X288409Y229239*
X287344Y229595*
X285739Y229951*
X285731Y229954*
X284842Y230309*
X284131Y230487*
X284127Y230488*
X283591Y230667*
X283562Y230692*
X283387Y231042*
X283036Y231393*
X283023Y231416*
X282844Y232131*
X282843Y232143*
X282844Y232155*
X283023Y232869*
X283031Y232887*
X283567Y233601*
X283589Y233618*
X284481Y233975*
X284493Y233978*
X285743Y234157*
X285758Y234156*
X286830Y233978*
X286840Y233975*
X287733Y233618*
X287750Y233607*
X288464Y232892*
X288478Y232865*
X288650Y231836*
X288650D02*
X290334D01*
X290166Y232844*
X289815Y233722*
X289113Y234423*
X288052Y234954*
X286989Y235308*
X285572Y235485*
X284333Y235308*
X283271Y234954*
X282388Y234425*
X281685Y233722*
X281334Y232843*
X281158Y231964*
X281333Y231088*
X281684Y230387*
X282210Y229861*
X283984Y228797*
X287548Y227906*
X287558Y227902*
X288272Y227545*
X288292Y227528*
X288649Y226992*
X288654Y226983*
X289011Y226090*
X289014Y226071*
Y225536*
X289009Y225513*
X288652Y224799*
X288642Y224786*
X288642D02*
X288285Y224429D01*
X288272Y224420*
X287558Y224062*
X287547Y224058*
X285939Y223701*
X285929Y223700*
X285036*
X285017Y223704*
X284124Y224061*
X284113Y224067*
X283399Y224603*
X283393Y224608*
X282858Y225143*
X282846Y225160*
X282489Y226053*
X282487Y226062*
X282316Y226914*
X280629*
X280799Y225728*
X281329Y224490*
X282034Y223609*
X283092Y222904*
X284509Y222549*
X286106Y222372*
X287346Y222549*
X288409Y222903*
X289468Y223433*
X290171Y224311*
X290523Y225193*
X290699Y226072*
Y351072D02*
X290523Y352129D01*
X290172Y353008*
X289470Y353709*
X288409Y354239*
X287344Y354595*
X285739Y354951*
X285731Y354954*
X284842Y355309*
X284131Y355487*
X284127Y355488*
X283591Y355667*
X283562Y355692*
X283387Y356042*
X283036Y356393*
X283023Y356416*
X282844Y357131*
X282843Y357143*
X282844Y357155*
X283023Y357869*
X283031Y357887*
X283567Y358601*
X283589Y358618*
X284481Y358975*
X284493Y358978*
X285743Y359157*
X285758Y359156*
X286830Y358978*
X286840Y358975*
X287733Y358618*
X287750Y358607*
X288464Y357892*
X288478Y357865*
X288650Y356836*
X288650D02*
X290334D01*
X290166Y357844*
X289815Y358722*
X289113Y359423*
X288052Y359954*
X286989Y360308*
X285572Y360485*
X284333Y360308*
X283271Y359954*
X282388Y359425*
X281685Y358722*
X281334Y357843*
X281158Y356964*
X281333Y356088*
X281684Y355387*
X282210Y354861*
X283984Y353797*
X287548Y352906*
X287558Y352902*
X288272Y352545*
X288292Y352528*
X288649Y351992*
X288654Y351983*
X289011Y351090*
X289014Y351071*
Y350536*
X289009Y350513*
X288652Y349799*
X288642Y349786*
X288642D02*
X288285Y349429D01*
X288272Y349420*
X287558Y349062*
X287547Y349058*
X285939Y348701*
X285929Y348700*
X285036*
X285017Y348704*
X284124Y349061*
X284113Y349067*
X283399Y349603*
X283393Y349608*
X282858Y350143*
X282846Y350160*
X282489Y351053*
X282487Y351062*
X282316Y351914*
X280629*
X280799Y350728*
X281329Y349490*
X282034Y348609*
X283092Y347904*
X284509Y347549*
X286106Y347372*
X287346Y347549*
X288409Y347903*
X289468Y348433*
X290171Y349311*
X290523Y350193*
X290699Y351072*
X218271Y220557D02*
X212071D01*
X212021Y220607*
X212032Y220638*
X212747Y221531*
X212756Y221540*
X213469Y222075*
X214539Y222967*
X215964Y224214*
X216854Y225281*
X217385Y225989*
X217738Y226873*
X218092Y228289*
X217916Y229694*
X217039Y230747*
X215803Y231453*
X214212Y231807*
X212623Y231630*
X211391Y230926*
X210510Y229693*
X210170Y228329*
X211674Y228162*
X211844Y229010*
X211853Y229030*
X212389Y229744*
X212399Y229754*
X213113Y230290*
X213135Y230299*
X214206Y230478*
X214224*
X215117Y230299*
X215137Y230290*
X215851Y229754*
X215857Y229750*
X216392Y229214*
X216406Y229188*
X216585Y228296*
X216586Y228286*
X216585Y228276*
X216406Y227383*
X216400Y227367*
X215864Y226474*
X215859Y226467*
X214788Y225217*
X214783Y225213*
X213176Y223784*
X213175Y223783*
X211929Y222715*
X210508Y220939*
X210156Y220058*
X209988Y219050*
X218271*
Y220557*
X208449Y222572D02*
X208273Y223629D01*
X207922Y224508*
X207220Y225209*
X206159Y225739*
X205094Y226095*
X203489Y226451*
X203481Y226454*
X202592Y226809*
X201881Y226987*
X201877Y226988*
X201341Y227167*
X201312Y227192*
X201137Y227542*
X200786Y227893*
X200773Y227916*
X200594Y228631*
X200593Y228643*
X200594Y228655*
X200773Y229369*
X200781Y229387*
X201317Y230101*
X201339Y230118*
X202231Y230475*
X202243Y230478*
X203493Y230657*
X203508Y230656*
X204580Y230478*
X204590Y230475*
X205483Y230118*
X205500Y230107*
X206214Y229392*
X206228Y229365*
X206399Y228336*
X206399D02*
X208084D01*
X207916Y229344*
X207565Y230222*
X206863Y230923*
X205802Y231454*
X204739Y231808*
X203322Y231985*
X202083Y231808*
X201021Y231454*
X200138Y230925*
X199435Y230222*
X199084Y229343*
X198908Y228464*
X199083Y227588*
X199434Y226887*
X199960Y226361*
X201734Y225297*
X205298Y224406*
X205308Y224402*
X206022Y224045*
X206042Y224028*
X206399Y223492*
X206404Y223483*
X206761Y222590*
X206764Y222571*
Y222036*
X206759Y222013*
X206402Y221299*
X206392Y221286*
X206035Y220929*
X206022Y220920*
X205308Y220562*
X205297Y220558*
X203689Y220201*
X203679Y220200*
X202786*
X202767Y220204*
X201874Y220561*
X201863Y220567*
X201149Y221103*
X201143Y221108*
X200608Y221643*
X200596Y221660*
X200239Y222553*
X200237Y222562*
X200066Y223414*
X198379*
X198549Y222228*
X199079Y220990*
X199784Y220109*
X200842Y219404*
X202259Y219049*
X203856Y218872*
X205096Y219049*
X206159Y219403*
X207218Y219933*
X207921Y220811*
X208273Y221693*
X208449Y222572*
X195950Y231807D02*
X194264D01*
Y222036*
X194263Y222024*
X194084Y221309*
X194076Y221291*
X193540Y220577*
X193516Y220560*
X192444Y220203*
X192413*
X191877Y220381*
X191865Y220387*
X191329Y220744*
X191311Y220767*
X190954Y221660*
X190951Y221672*
X190951D02*
X190779Y222874D01*
X189090Y222705*
X189263Y220980*
X189966Y219749*
X191018Y219048*
X192428Y218872*
X193486Y219048*
X194368Y219401*
X195071Y219929*
X195598Y220631*
X195950Y221687*
Y231807*
X191129Y356807D02*
X190135D01*
X189614Y355939*
X189607Y355929*
X188714Y355036*
X188706Y355030*
X187635Y354316*
X187632Y354314*
X186407Y353614*
Y352117*
X188116Y352971*
X189541Y354040*
X189621Y354000*
Y344050*
X191129*
Y356807*
X183449Y347572D02*
X183273Y348629D01*
X182922Y349508*
X182220Y350209*
X181159Y350739*
X180094Y351095*
X178489Y351451*
X178481Y351454*
X177592Y351809*
X176881Y351987*
X176877Y351988*
X176341Y352167*
X176312Y352192*
X176137Y352542*
X175786Y352893*
X175773Y352916*
X175594Y353631*
X175593Y353643*
X175594Y353655*
X175773Y354369*
X175781Y354387*
X176317Y355101*
X176339Y355118*
X177231Y355475*
X177243Y355478*
X178493Y355657*
X178508Y355656*
X179580Y355478*
X179590Y355475*
X180483Y355118*
X180500Y355107*
X181214Y354392*
X181228Y354365*
X181399Y353336*
X181399D02*
X183084D01*
X182916Y354344*
X182565Y355222*
X181863Y355923*
X180802Y356454*
X179739Y356808*
X178322Y356985*
X177083Y356808*
X176021Y356454*
X175138Y355925*
X174435Y355222*
X174084Y354343*
X173908Y353464*
X174083Y352588*
X174434Y351887*
X174960Y351361*
X176734Y350297*
X180298Y349406*
X180308Y349402*
X181022Y349045*
X181042Y349028*
X181399Y348492*
X181404Y348483*
X181761Y347590*
X181764Y347571*
Y347036*
X181759Y347013*
X181402Y346299*
X181392Y346286*
X181035Y345929*
X181022Y345920*
X180308Y345562*
X180297Y345558*
X178689Y345201*
X178679Y345200*
X177786*
X177767Y345204*
X176874Y345561*
X176863Y345567*
X176149Y346103*
X176143Y346108*
X175608Y346643*
X175596Y346660*
X175239Y347553*
X175237Y347562*
X175066Y348414*
X173379*
X173549Y347228*
X174079Y345990*
X174784Y345109*
X175842Y344404*
X177259Y344049*
X178856Y343872*
X180096Y344049*
X181159Y344403*
X182218Y344933*
X182921Y345811*
X183273Y346693*
X183449Y347572*
X170950Y356807D02*
X169264D01*
Y347036*
X169263Y347024*
X169084Y346309*
X169076Y346291*
X168540Y345577*
X168516Y345560*
X167444Y345203*
X167413*
X166877Y345381*
X166865Y345387*
X166329Y345744*
X166311Y345767*
X165954Y346660*
X165951Y346672*
X165951D02*
X165779Y347874D01*
X164090Y347705*
X164263Y345980*
X164966Y344749*
X166018Y344048*
X167428Y343872*
X168486Y344048*
X169368Y344401*
X170071Y344929*
X170598Y345631*
X170950Y346687*
Y356807*
X112289Y153861D02*
X111832D01*
X111579Y153439*
X111571Y153429*
X111125Y152983*
X111117Y152976*
X110581Y152619*
X110578Y152617*
X109979Y152275*
Y151581*
X110795Y151989*
X111506Y152522*
X111586Y152482*
Y147532*
X112289*
Y153861*
X116361Y452736D02*
X113286D01*
X113236Y452786*
X113247Y452817*
X113604Y453263*
X113613Y453272*
X113969Y453539*
X114503Y453984*
X115214Y454606*
X115657Y455138*
X115920Y455489*
X116095Y455926*
X116271Y456628*
X116184Y457319*
X115753Y457836*
X115142Y458185*
X114354Y458360*
X113569Y458273*
X112963Y457926*
X112528Y457318*
X112366Y456668*
X113067Y456590*
X113147Y456992*
X113156Y457012*
X113424Y457369*
X113434Y457379*
X113791Y457647*
X113813Y457656*
X114349Y457746*
X114367Y457745*
X114813Y457656*
X114834Y457647*
X115191Y457379*
X115196Y457375*
X115464Y457107*
X115478Y457081*
X115567Y456635*
X115568Y456625*
X115567Y456615*
X115478Y456169*
X115471Y456153*
X115204Y455706*
X115199Y455700*
X114663Y455075*
X114658Y455070*
X113855Y454355*
X113854*
X113233Y453822*
X112526Y452939*
X112352Y452504*
X112273Y452032*
X116361*
Y452736*
X108764Y147532D02*
X106494Y150937D01*
X106486Y150964*
X106486*
X106494Y150992*
X108407Y153861*
X107455*
X106399Y152276*
X106398Y152275*
X105951Y151650*
X105866Y151656*
X105777Y151835*
X105775Y151839*
X105599Y152279*
X104457Y153861*
X103504*
X105417Y150992*
X105425Y150964*
X105425*
X105417Y150937*
X103147Y147532*
X104099*
X105602Y149742*
X105608Y149750*
X105783Y149925*
X105958Y150188*
X106043Y150186*
X106310Y149741*
X107812Y147532*
X108764*
X111764Y452032D02*
X109494Y455437D01*
X109486Y455464*
X109486*
X109494Y455492*
X111407Y458361*
X110455*
X109399Y456776*
X109398Y456775*
X108951Y456150*
X108866Y456156*
X108777Y456335*
X108775Y456339*
X108599Y456779*
X107457Y458361*
X106504*
X108417Y455492*
X108425Y455464*
X108425*
X108417Y455437*
X106147Y452032*
X107099*
X108602Y454242*
X108608Y454250*
X108783Y454425*
X108958Y454688*
X109043Y454686*
X109310Y454241*
X110812Y452032*
X111764*
X103200Y147532D02*
Y147612D01*
X103300Y147532D02*
Y147762D01*
X103400Y147532D02*
Y147912D01*
X103500Y147532D02*
Y148062D01*
X103600Y147532D02*
Y148212D01*
Y153717D02*
Y153861D01*
X103700Y147532D02*
Y148362D01*
Y153567D02*
Y153861D01*
X103800Y147532D02*
Y148512D01*
Y153417D02*
Y153861D01*
X103900Y147532D02*
Y148662D01*
Y153267D02*
Y153861D01*
X104000Y147532D02*
Y148812D01*
Y153117D02*
Y153861D01*
X104100Y147534D02*
Y148962D01*
Y152967D02*
Y153861D01*
X104200Y147681D02*
Y149112D01*
Y152817D02*
Y153861D01*
X104300Y147828D02*
Y149262D01*
Y152667D02*
Y153861D01*
X104400Y147975D02*
Y149412D01*
Y152517D02*
Y153861D01*
X104500Y148123D02*
Y149562D01*
Y152367D02*
Y153801D01*
X104600Y148270D02*
Y149712D01*
Y152217D02*
Y153662D01*
X104700Y148417D02*
Y149862D01*
Y152067D02*
Y153524D01*
X104800Y148564D02*
Y150012D01*
Y151917D02*
Y153385D01*
X104900Y148711D02*
Y150162D01*
Y151767D02*
Y153247D01*
X105000Y148858D02*
Y150312D01*
Y151617D02*
Y153108D01*
X105100Y149005D02*
Y150462D01*
Y151467D02*
Y152970D01*
X105200Y149152D02*
Y150612D01*
Y151317D02*
Y152831D01*
X105300Y149299D02*
Y150762D01*
Y151167D02*
Y152693D01*
X105400Y149446D02*
Y150912D01*
Y151017D02*
Y152554D01*
X105500Y149593D02*
Y152416D01*
X105600Y149740D02*
Y152276D01*
X105700Y149842D02*
Y152026D01*
X105800Y149951D02*
Y151788D01*
X105900Y150101D02*
Y151630D01*
X106000Y150211D02*
Y151718D01*
X106100Y150091D02*
Y151858D01*
X106200Y149925D02*
Y151998D01*
Y452032D02*
Y452112D01*
X106300Y149758D02*
Y152138D01*
Y452032D02*
Y452262D01*
X106400Y149609D02*
Y152278D01*
Y452032D02*
Y452412D01*
X106500Y149462D02*
Y150928D01*
Y151001D02*
Y152428D01*
Y452032D02*
Y452562D01*
X106600Y149315D02*
Y150778D01*
Y151151D02*
Y152578D01*
Y452032D02*
Y452712D01*
Y458217D02*
Y458361D01*
X106700Y149168D02*
Y150628D01*
Y151301D02*
Y152728D01*
Y452032D02*
Y452862D01*
Y458067D02*
Y458361D01*
X106800Y149021D02*
Y150478D01*
Y151451D02*
Y152878D01*
Y452032D02*
Y453012D01*
Y457917D02*
Y458361D01*
X106900Y148874D02*
Y150328D01*
Y151601D02*
Y153028D01*
Y452032D02*
Y453162D01*
Y457767D02*
Y458361D01*
X107000Y148727D02*
Y150178D01*
Y151751D02*
Y153178D01*
Y452032D02*
Y453312D01*
Y457617D02*
Y458361D01*
X107100Y148579D02*
Y150028D01*
Y151901D02*
Y153328D01*
Y452034D02*
Y453462D01*
Y457467D02*
Y458361D01*
X107200Y148432D02*
Y149878D01*
Y152051D02*
Y153478D01*
Y452181D02*
Y453612D01*
Y457317D02*
Y458361D01*
X107300Y148285D02*
Y149728D01*
Y152201D02*
Y153628D01*
Y452328D02*
Y453762D01*
Y457167D02*
Y458361D01*
X107400Y148138D02*
Y149578D01*
Y152351D02*
Y153778D01*
Y452475D02*
Y453912D01*
Y457017D02*
Y458361D01*
X107500Y147991D02*
Y149428D01*
Y152501D02*
Y153861D01*
Y452623D02*
Y454062D01*
Y456867D02*
Y458301D01*
X107600Y147844D02*
Y149278D01*
Y152651D02*
Y153861D01*
Y452770D02*
Y454212D01*
Y456717D02*
Y458162D01*
X107700Y147697D02*
Y149128D01*
Y152801D02*
Y153861D01*
Y452917D02*
Y454362D01*
Y456567D02*
Y458024D01*
X107800Y147550D02*
Y148978D01*
Y152951D02*
Y153861D01*
Y453064D02*
Y454512D01*
Y456417D02*
Y457885D01*
X107900Y147532D02*
Y148828D01*
Y153101D02*
Y153861D01*
Y453211D02*
Y454662D01*
Y456267D02*
Y457747D01*
X108000Y147532D02*
Y148678D01*
Y153251D02*
Y153861D01*
Y453358D02*
Y454812D01*
Y456117D02*
Y457608D01*
X108100Y147532D02*
Y148528D01*
Y153401D02*
Y153861D01*
Y453505D02*
Y454962D01*
Y455967D02*
Y457470D01*
X108200Y147532D02*
Y148378D01*
Y153551D02*
Y153861D01*
Y453652D02*
Y455112D01*
Y455817D02*
Y457331D01*
X108300Y147532D02*
Y148228D01*
Y153701D02*
Y153861D01*
Y453799D02*
Y455262D01*
Y455667D02*
Y457193D01*
X108400Y147532D02*
Y148078D01*
Y153851D02*
Y153861D01*
Y453946D02*
Y455412D01*
Y455517D02*
Y457054D01*
X108500Y147532D02*
Y147928D01*
Y454093D02*
Y456916D01*
X108600Y147532D02*
Y147778D01*
Y454240D02*
Y456776D01*
X108700Y147532D02*
Y147628D01*
Y454342D02*
Y456526D01*
X108800Y454451D02*
Y456288D01*
X108900Y454601D02*
Y456130D01*
X109000Y454711D02*
Y456218D01*
X109100Y454591D02*
Y456358D01*
X109200Y454425D02*
Y456498D01*
X109300Y454258D02*
Y456638D01*
X109400Y454109D02*
Y456778D01*
X109500Y453962D02*
Y455428D01*
Y455501D02*
Y456928D01*
X109600Y453815D02*
Y455278D01*
Y455651D02*
Y457078D01*
X109700Y453668D02*
Y455128D01*
Y455801D02*
Y457228D01*
X109800Y453521D02*
Y454978D01*
Y455951D02*
Y457378D01*
X109900Y453374D02*
Y454828D01*
Y456101D02*
Y457528D01*
X110000Y151592D02*
Y152287D01*
Y453227D02*
Y454678D01*
Y456251D02*
Y457678D01*
X110100Y151642D02*
Y152344D01*
Y453079D02*
Y454528D01*
Y456401D02*
Y457828D01*
X110200Y151692D02*
Y152401D01*
Y452932D02*
Y454378D01*
Y456551D02*
Y457978D01*
X110300Y151742D02*
Y152458D01*
Y452785D02*
Y454228D01*
Y456701D02*
Y458128D01*
X110400Y151792D02*
Y152515D01*
Y452638D02*
Y454078D01*
Y456851D02*
Y458278D01*
X110500Y151842D02*
Y152573D01*
Y452491D02*
Y453928D01*
Y457001D02*
Y458361D01*
X110600Y151892D02*
Y152632D01*
Y452344D02*
Y453778D01*
Y457151D02*
Y458361D01*
X110700Y151942D02*
Y152698D01*
Y452197D02*
Y453628D01*
Y457301D02*
Y458361D01*
X110800Y151993D02*
Y152765D01*
Y452050D02*
Y453478D01*
Y457451D02*
Y458361D01*
X110900Y152068D02*
Y152832D01*
Y452032D02*
Y453328D01*
Y457601D02*
Y458361D01*
X111000Y152143D02*
Y152898D01*
Y452032D02*
Y453178D01*
Y457751D02*
Y458361D01*
X111100Y152218D02*
Y152965D01*
Y452032D02*
Y453028D01*
Y457901D02*
Y458361D01*
X111200Y152293D02*
Y153058D01*
Y452032D02*
Y452878D01*
Y458051D02*
Y458361D01*
X111300Y152368D02*
Y153158D01*
Y452032D02*
Y452728D01*
Y458201D02*
Y458361D01*
X111400Y152443D02*
Y153258D01*
Y452032D02*
Y452578D01*
Y458351D02*
Y458361D01*
X111500Y152518D02*
Y153358D01*
Y452032D02*
Y452428D01*
X111600Y147532D02*
Y153474D01*
Y452032D02*
Y452278D01*
X111700Y147532D02*
Y153641D01*
Y452032D02*
Y452128D01*
X111800Y147532D02*
Y153808D01*
X111900Y147532D02*
Y153861D01*
X112000Y147532D02*
Y153861D01*
X112100Y147532D02*
Y153861D01*
X112200Y147532D02*
Y153861D01*
X112300Y452032D02*
Y452192D01*
X112400Y452032D02*
Y452624D01*
Y456665D02*
Y456805D01*
X112500Y452032D02*
Y452874D01*
Y456653D02*
Y457205D01*
X112600Y452032D02*
Y453032D01*
Y456642D02*
Y457418D01*
X112700Y452032D02*
Y453157D01*
Y456631D02*
Y457558D01*
X112800Y452032D02*
Y453282D01*
Y456620D02*
Y457698D01*
X112900Y452032D02*
Y453407D01*
Y456609D02*
Y457838D01*
X113000Y452032D02*
Y453532D01*
Y456598D02*
Y457948D01*
X113100Y452032D02*
Y453657D01*
Y456755D02*
Y458005D01*
X113200Y452032D02*
Y453782D01*
Y457070D02*
Y458062D01*
X113300Y452032D02*
Y452736D01*
Y452884D02*
Y453880D01*
Y457204D02*
Y458119D01*
X113400Y452032D02*
Y452736D01*
Y453009D02*
Y453966D01*
Y457337D02*
Y458176D01*
X113500Y452032D02*
Y452736D01*
Y453134D02*
Y454051D01*
Y457429D02*
Y458233D01*
X113600Y452032D02*
Y452736D01*
Y453259D02*
Y454137D01*
Y457504D02*
Y458276D01*
X113700Y452032D02*
Y452736D01*
Y453337D02*
Y454223D01*
Y457579D02*
Y458287D01*
X113800Y452032D02*
Y452736D01*
Y453412D02*
Y454309D01*
Y457652D02*
Y458299D01*
X113900Y452032D02*
Y452736D01*
Y453487D02*
Y454396D01*
Y457671D02*
Y458310D01*
X114000Y452032D02*
Y452736D01*
Y453565D02*
Y454485D01*
Y457688D02*
Y458321D01*
X114100Y452032D02*
Y452736D01*
Y453648D02*
Y454574D01*
Y457704D02*
Y458332D01*
X114200Y452032D02*
Y452736D01*
Y453732D02*
Y454662D01*
Y457721D02*
Y458343D01*
X114300Y452032D02*
Y452736D01*
Y453815D02*
Y454751D01*
Y457738D02*
Y458354D01*
X114400Y452032D02*
Y452736D01*
Y453898D02*
Y454840D01*
Y457739D02*
Y458350D01*
X114500Y452032D02*
Y452736D01*
Y453982D02*
Y454929D01*
Y457719D02*
Y458328D01*
X114600Y452032D02*
Y452736D01*
Y454069D02*
Y455018D01*
Y457699D02*
Y458306D01*
X114700Y452032D02*
Y452736D01*
Y454157D02*
Y455118D01*
Y457679D02*
Y458283D01*
X114800Y452032D02*
Y452736D01*
Y454244D02*
Y455234D01*
Y457659D02*
Y458261D01*
X114900Y452032D02*
Y452736D01*
Y454332D02*
Y455351D01*
Y457597D02*
Y458239D01*
X115000Y452032D02*
Y452736D01*
Y454419D02*
Y455468D01*
Y457522D02*
Y458217D01*
X115100Y452032D02*
Y452736D01*
Y454507D02*
Y455584D01*
Y457447D02*
Y458194D01*
X115200Y452032D02*
Y452736D01*
Y454594D02*
Y455701D01*
Y457371D02*
Y458152D01*
X115300Y452032D02*
Y452736D01*
Y454710D02*
Y455867D01*
Y457271D02*
Y458095D01*
X115400Y452032D02*
Y452736D01*
Y454830D02*
Y456034D01*
Y457171D02*
Y458038D01*
X115500Y452032D02*
Y452736D01*
Y454950D02*
Y456281D01*
Y456969D02*
Y457981D01*
X115600Y452032D02*
Y452736D01*
Y455070D02*
Y457924D01*
X115700Y452032D02*
Y452736D01*
Y455195D02*
Y457866D01*
X115800Y452032D02*
Y452736D01*
Y455329D02*
Y457780D01*
X115900Y452032D02*
Y452736D01*
Y455462D02*
Y457660D01*
X116000Y452032D02*
Y452736D01*
Y455688D02*
Y457540D01*
X116100Y452032D02*
Y452736D01*
Y455945D02*
Y457420D01*
X116200Y452032D02*
Y452736D01*
Y456345D02*
Y457193D01*
X116300Y452032D02*
Y452736D01*
X164100Y347610D02*
Y347706D01*
X164200Y346610D02*
Y347716D01*
X164300Y345915D02*
Y347726D01*
X164400Y345740D02*
Y347736D01*
X164500Y345565D02*
Y347746D01*
X164600Y345390D02*
Y347756D01*
X164700Y345215D02*
Y347766D01*
X164800Y345040D02*
Y347776D01*
X164900Y344865D02*
Y347786D01*
X165000Y344727D02*
Y347796D01*
X165100Y344660D02*
Y347806D01*
X165200Y344593D02*
Y347816D01*
X165300Y344527D02*
Y347826D01*
X165400Y344460D02*
Y347836D01*
X165500Y344393D02*
Y347846D01*
X165600Y344327D02*
Y347856D01*
X165700Y344260D02*
Y347866D01*
X165800Y344193D02*
Y347725D01*
X165900Y344127D02*
Y347025D01*
X166000Y344060D02*
Y346544D01*
X166100Y344038D02*
Y346294D01*
X166200Y344025D02*
Y346044D01*
X166300Y344013D02*
Y345794D01*
X166400Y344000D02*
Y345697D01*
X166500Y343988D02*
Y345630D01*
X166600Y343975D02*
Y345564D01*
X166700Y343963D02*
Y345497D01*
X166800Y343950D02*
Y345430D01*
X166900Y343938D02*
Y345373D01*
X167000Y343925D02*
Y345340D01*
X167100Y343913D02*
Y345307D01*
X167200Y343900D02*
Y345273D01*
X167300Y343888D02*
Y345240D01*
X167400Y343875D02*
Y345207D01*
X167500Y343884D02*
Y345221D01*
X167600Y343901D02*
Y345254D01*
X167700Y343917D02*
Y345288D01*
X167800Y343934D02*
Y345321D01*
X167900Y343951D02*
Y345354D01*
X168000Y343967D02*
Y345388D01*
X168100Y343984D02*
Y345421D01*
X168200Y344001D02*
Y345454D01*
X168300Y344017D02*
Y345488D01*
X168400Y344034D02*
Y345521D01*
X168500Y344054D02*
Y345554D01*
X168600Y344094D02*
Y345657D01*
X168700Y344134D02*
Y345790D01*
X168800Y344174D02*
Y345924D01*
X168900Y344214D02*
Y346057D01*
X169000Y344254D02*
Y346190D01*
X169100Y344294D02*
Y346372D01*
X169200Y344334D02*
Y346772D01*
X169300Y344374D02*
Y356807D01*
X169400Y344425D02*
Y356807D01*
X169500Y344500D02*
Y356807D01*
X169600Y344575D02*
Y356807D01*
X169700Y344650D02*
Y356807D01*
X169800Y344725D02*
Y356807D01*
X169900Y344800D02*
Y356807D01*
X170000Y344875D02*
Y356807D01*
X170100Y344967D02*
Y356807D01*
X170200Y345100D02*
Y356807D01*
X170300Y345233D02*
Y356807D01*
X170400Y345367D02*
Y356807D01*
X170500Y345500D02*
Y356807D01*
X170600Y345637D02*
Y356807D01*
X170700Y345937D02*
Y356807D01*
X170800Y346237D02*
Y356807D01*
X170900Y346537D02*
Y356807D01*
X173400Y348268D02*
Y348414D01*
X173500Y347568D02*
Y348414D01*
X173600Y347108D02*
Y348414D01*
X173700Y346875D02*
Y348414D01*
X173800Y346641D02*
Y348414D01*
X173900Y346408D02*
Y348414D01*
X174000Y346175D02*
Y348414D01*
Y353005D02*
Y353924D01*
X174100Y345964D02*
Y348414D01*
Y352555D02*
Y354383D01*
X174200Y345839D02*
Y348414D01*
Y352355D02*
Y354633D01*
X174300Y345714D02*
Y348414D01*
Y352155D02*
Y354883D01*
X174400Y345589D02*
Y348414D01*
Y351955D02*
Y355133D01*
X174500Y345464D02*
Y348414D01*
Y351821D02*
Y355286D01*
X174600Y345339D02*
Y348414D01*
Y351721D02*
Y355386D01*
X174700Y345214D02*
Y348414D01*
Y351621D02*
Y355486D01*
X174800Y345098D02*
Y348414D01*
Y351521D02*
Y355586D01*
X174900Y345032D02*
Y348414D01*
Y351421D02*
Y355686D01*
X175000Y344965D02*
Y348414D01*
Y351337D02*
Y355786D01*
X175100Y344898D02*
Y348245D01*
Y351277D02*
Y355886D01*
X175200Y344832D02*
Y347745D01*
Y351217D02*
Y355962D01*
X175300Y344765D02*
Y347401D01*
Y351157D02*
Y356022D01*
X175400Y344698D02*
Y347151D01*
Y351097D02*
Y356082D01*
X175500Y344632D02*
Y346901D01*
Y351037D02*
Y356142D01*
X175600Y344565D02*
Y346653D01*
Y350977D02*
Y353608D01*
Y353678D02*
Y356202D01*
X175700Y344498D02*
Y346551D01*
Y350917D02*
Y353208D01*
Y354078D02*
Y356262D01*
X175800Y344432D02*
Y346451D01*
Y350857D02*
Y352879D01*
Y354412D02*
Y356322D01*
X175900Y344389D02*
Y346351D01*
Y350797D02*
Y352779D01*
Y354545D02*
Y356382D01*
X176000Y344364D02*
Y346251D01*
Y350737D02*
Y352679D01*
Y354679D02*
Y356442D01*
X176100Y344339D02*
Y346151D01*
Y350677D02*
Y352579D01*
Y354812D02*
Y356481D01*
X176200Y344314D02*
Y346064D01*
Y350617D02*
Y352417D01*
Y354945D02*
Y356514D01*
X176300Y344289D02*
Y345989D01*
Y350557D02*
Y352217D01*
Y355079D02*
Y356547D01*
X176400Y344264D02*
Y345914D01*
Y350497D02*
Y352147D01*
Y355142D02*
Y356581D01*
X176500Y344239D02*
Y345839D01*
Y350437D02*
Y352114D01*
Y355182D02*
Y356614D01*
X176600Y344214D02*
Y345764D01*
Y350377D02*
Y352081D01*
Y355222D02*
Y356647D01*
X176700Y344189D02*
Y345689D01*
Y350317D02*
Y352047D01*
Y355262D02*
Y356681D01*
X176800Y344164D02*
Y345614D01*
Y350280D02*
Y352014D01*
Y355302D02*
Y356714D01*
X176900Y344139D02*
Y345550D01*
Y350255D02*
Y351982D01*
Y355342D02*
Y356747D01*
X177000Y344114D02*
Y345510D01*
Y350230D02*
Y351957D01*
Y355382D02*
Y356781D01*
X177100Y344089D02*
Y345470D01*
Y350205D02*
Y351932D01*
Y355422D02*
Y356811D01*
X177200Y344064D02*
Y345430D01*
Y350180D02*
Y351907D01*
Y355462D02*
Y356825D01*
X177300Y344045D02*
Y345390D01*
Y350155D02*
Y351882D01*
Y355486D02*
Y356839D01*
X177400Y344034D02*
Y345350D01*
Y350130D02*
Y351857D01*
Y355501D02*
Y356854D01*
X177500Y344023D02*
Y345310D01*
Y350105D02*
Y351832D01*
Y355515D02*
Y356868D01*
X177600Y344011D02*
Y345270D01*
Y350080D02*
Y351806D01*
Y355529D02*
Y356882D01*
X177700Y344000D02*
Y345230D01*
Y350055D02*
Y351766D01*
Y355543D02*
Y356896D01*
X177800Y343989D02*
Y345200D01*
Y350030D02*
Y351726D01*
Y355558D02*
Y356911D01*
X177900Y343978D02*
Y345200D01*
Y350005D02*
Y351686D01*
Y355572D02*
Y356925D01*
X178000Y343967D02*
Y345200D01*
Y349980D02*
Y351646D01*
Y355586D02*
Y356939D01*
X178100Y343956D02*
Y345200D01*
Y349955D02*
Y351606D01*
Y355601D02*
Y356954D01*
X178200Y343945D02*
Y345200D01*
Y349930D02*
Y351566D01*
Y355615D02*
Y356968D01*
X178300Y343934D02*
Y345200D01*
Y349905D02*
Y351526D01*
Y355629D02*
Y356982D01*
X178400Y343923D02*
Y345200D01*
Y349880D02*
Y351486D01*
Y355643D02*
Y356976D01*
X178500Y343911D02*
Y345200D01*
Y349855D02*
Y351449D01*
Y355657D02*
Y356963D01*
X178600Y343900D02*
Y345200D01*
Y349830D02*
Y351427D01*
Y355641D02*
Y356951D01*
X178700Y343889D02*
Y345204D01*
Y349805D02*
Y351404D01*
Y355624D02*
Y356938D01*
X178800Y343878D02*
Y345226D01*
Y349780D02*
Y351382D01*
Y355608D02*
Y356926D01*
X178900Y343878D02*
Y345248D01*
Y349755D02*
Y351360D01*
Y355591D02*
Y356913D01*
X179000Y343892D02*
Y345270D01*
Y349730D02*
Y351338D01*
Y355574D02*
Y356901D01*
X179100Y343907D02*
Y345292D01*
Y349705D02*
Y351315D01*
Y355558D02*
Y356888D01*
X179200Y343921D02*
Y345315D01*
Y349680D02*
Y351293D01*
Y355541D02*
Y356876D01*
X179300Y343935D02*
Y345337D01*
Y349655D02*
Y351271D01*
Y355524D02*
Y356863D01*
X179400Y343949D02*
Y345359D01*
Y349630D02*
Y351249D01*
Y355508D02*
Y356851D01*
X179500Y343964D02*
Y345381D01*
Y349605D02*
Y351227D01*
Y355491D02*
Y356838D01*
X179600Y343978D02*
Y345404D01*
Y349580D02*
Y351204D01*
Y355471D02*
Y356826D01*
X179700Y343992D02*
Y345426D01*
Y349555D02*
Y351182D01*
Y355431D02*
Y356813D01*
X179800Y344007D02*
Y345448D01*
Y349530D02*
Y351160D01*
Y355391D02*
Y356788D01*
X179900Y344021D02*
Y345470D01*
Y349505D02*
Y351138D01*
Y355351D02*
Y356754D01*
X180000Y344035D02*
Y345492D01*
Y349480D02*
Y351115D01*
Y355311D02*
Y356721D01*
X180100Y344050D02*
Y345515D01*
Y349455D02*
Y351093D01*
Y355271D02*
Y356688D01*
X180200Y344084D02*
Y345537D01*
Y349430D02*
Y351059D01*
Y355231D02*
Y356654D01*
X180300Y344117D02*
Y345559D01*
Y349405D02*
Y351026D01*
Y355191D02*
Y356621D01*
X180400Y344150D02*
Y345608D01*
Y349356D02*
Y350993D01*
Y355151D02*
Y356588D01*
X180500Y344184D02*
Y345658D01*
Y349306D02*
Y350959D01*
Y355106D02*
Y356554D01*
X180600Y344217D02*
Y345708D01*
Y349256D02*
Y350926D01*
Y355006D02*
Y356521D01*
X180700Y344250D02*
Y345758D01*
Y349206D02*
Y350893D01*
Y354906D02*
Y356488D01*
X180800Y344284D02*
Y345808D01*
Y349156D02*
Y350859D01*
Y354806D02*
Y356454D01*
X180900Y344317D02*
Y345858D01*
Y349106D02*
Y350826D01*
Y354706D02*
Y356405D01*
X181000Y344350D02*
Y345908D01*
Y349056D02*
Y350793D01*
Y354606D02*
Y356355D01*
X181100Y344384D02*
Y345994D01*
Y348940D02*
Y350759D01*
Y354506D02*
Y356305D01*
X181200Y344424D02*
Y346094D01*
Y348790D02*
Y350719D01*
Y354406D02*
Y356255D01*
X181300Y344474D02*
Y346194D01*
Y348640D02*
Y350669D01*
Y353933D02*
Y356205D01*
X181400Y344524D02*
Y346296D01*
Y348490D02*
Y350619D01*
Y353336D02*
Y356155D01*
X181500Y344574D02*
Y346495D01*
Y348242D02*
Y350569D01*
Y353336D02*
Y356105D01*
X181600Y344624D02*
Y346695D01*
Y347992D02*
Y350519D01*
Y353336D02*
Y356055D01*
X181700Y344674D02*
Y346895D01*
Y347742D02*
Y350469D01*
Y353336D02*
Y356005D01*
X181800Y344724D02*
Y350419D01*
Y353336D02*
Y355955D01*
X181900Y344774D02*
Y350369D01*
Y353336D02*
Y355886D01*
X182000Y344824D02*
Y350319D01*
Y353336D02*
Y355786D01*
X182100Y344874D02*
Y350269D01*
Y353336D02*
Y355686D01*
X182200Y344924D02*
Y350219D01*
Y353336D02*
Y355586D01*
X182300Y345035D02*
Y350129D01*
Y353336D02*
Y355486D01*
X182400Y345160D02*
Y350029D01*
Y353336D02*
Y355386D01*
X182500Y345285D02*
Y349929D01*
Y353336D02*
Y355286D01*
X182600Y345410D02*
Y349829D01*
Y353336D02*
Y355133D01*
X182700Y345535D02*
Y349729D01*
Y353336D02*
Y354883D01*
X182800Y345660D02*
Y349629D01*
Y353336D02*
Y354633D01*
X182900Y345785D02*
Y349529D01*
Y353336D02*
Y354383D01*
X183000Y346010D02*
Y349312D01*
Y353336D02*
Y353839D01*
X183100Y346260D02*
Y349062D01*
X183200Y346510D02*
Y348812D01*
X183300Y346826D02*
Y348467D01*
X183400Y347326D02*
Y347867D01*
X186500Y352163D02*
Y353667D01*
X186600Y352213D02*
Y353724D01*
X186700Y352263D02*
Y353781D01*
X186800Y352313D02*
Y353838D01*
X186900Y352363D02*
Y353895D01*
X187000Y352413D02*
Y353953D01*
X187100Y352463D02*
Y354010D01*
X187200Y352513D02*
Y354067D01*
X187300Y352563D02*
Y354124D01*
X187400Y352613D02*
Y354181D01*
X187500Y352663D02*
Y354238D01*
X187600Y352713D02*
Y354295D01*
X187700Y352763D02*
Y354359D01*
X187800Y352813D02*
Y354426D01*
X187900Y352863D02*
Y354492D01*
X188000Y352913D02*
Y354559D01*
X188100Y352963D02*
Y354626D01*
X188200Y353034D02*
Y354692D01*
X188300Y353109D02*
Y354759D01*
X188400Y353184D02*
Y354826D01*
X188500Y353259D02*
Y354892D01*
X188600Y353334D02*
Y354959D01*
X188700Y353409D02*
Y355026D01*
X188800Y353484D02*
Y355122D01*
X188900Y353559D02*
Y355222D01*
X189000Y353634D02*
Y355322D01*
X189100Y222610D02*
Y222706D01*
Y353709D02*
Y355422D01*
X189200Y221610D02*
Y222716D01*
Y353784D02*
Y355522D01*
X189300Y220915D02*
Y222726D01*
Y353859D02*
Y355622D01*
X189400Y220740D02*
Y222736D01*
Y353934D02*
Y355722D01*
X189500Y220565D02*
Y222746D01*
Y354009D02*
Y355822D01*
X189600Y220390D02*
Y222756D01*
Y354041D02*
Y355922D01*
X189700Y220215D02*
Y222766D01*
Y344050D02*
Y356081D01*
X189800Y220040D02*
Y222776D01*
Y344050D02*
Y356248D01*
X189900Y219865D02*
Y222786D01*
Y344050D02*
Y356415D01*
X190000Y219727D02*
Y222796D01*
Y344050D02*
Y356581D01*
X190100Y219660D02*
Y222806D01*
Y344050D02*
Y356748D01*
X190200Y219593D02*
Y222816D01*
Y344050D02*
Y356807D01*
X190300Y219527D02*
Y222826D01*
Y344050D02*
Y356807D01*
X190400Y219460D02*
Y222836D01*
Y344050D02*
Y356807D01*
X190500Y219393D02*
Y222846D01*
Y344050D02*
Y356807D01*
X190600Y219327D02*
Y222856D01*
Y344050D02*
Y356807D01*
X190700Y219260D02*
Y222866D01*
Y344050D02*
Y356807D01*
X190800Y219193D02*
Y222725D01*
Y344050D02*
Y356807D01*
X190900Y219127D02*
Y222025D01*
Y344050D02*
Y356807D01*
X191000Y219060D02*
Y221544D01*
Y344050D02*
Y356807D01*
X191100Y219038D02*
Y221294D01*
Y344050D02*
Y356807D01*
X191200Y219025D02*
Y221044D01*
X191300Y219013D02*
Y220794D01*
X191400Y219000D02*
Y220697D01*
X191500Y218988D02*
Y220630D01*
X191600Y218975D02*
Y220564D01*
X191700Y218963D02*
Y220497D01*
X191800Y218950D02*
Y220430D01*
X191900Y218938D02*
Y220373D01*
X192000Y218925D02*
Y220340D01*
X192100Y218913D02*
Y220307D01*
X192200Y218900D02*
Y220273D01*
X192300Y218888D02*
Y220240D01*
X192400Y218875D02*
Y220207D01*
X192500Y218884D02*
Y220221D01*
X192600Y218901D02*
Y220254D01*
X192700Y218917D02*
Y220288D01*
X192800Y218934D02*
Y220321D01*
X192900Y218951D02*
Y220354D01*
X193000Y218967D02*
Y220388D01*
X193100Y218984D02*
Y220421D01*
X193200Y219001D02*
Y220454D01*
X193300Y219017D02*
Y220488D01*
X193400Y219034D02*
Y220521D01*
X193500Y219054D02*
Y220554D01*
X193600Y219094D02*
Y220657D01*
X193700Y219134D02*
Y220790D01*
X193800Y219174D02*
Y220924D01*
X193900Y219214D02*
Y221057D01*
X194000Y219254D02*
Y221190D01*
X194100Y219294D02*
Y221372D01*
X194200Y219334D02*
Y221772D01*
X194300Y219374D02*
Y231807D01*
X194400Y219425D02*
Y231807D01*
X194500Y219500D02*
Y231807D01*
X194600Y219575D02*
Y231807D01*
X194700Y219650D02*
Y231807D01*
X194800Y219725D02*
Y231807D01*
X194900Y219800D02*
Y231807D01*
X195000Y219875D02*
Y231807D01*
X195100Y219967D02*
Y231807D01*
X195200Y220100D02*
Y231807D01*
X195300Y220233D02*
Y231807D01*
X195400Y220367D02*
Y231807D01*
X195500Y220500D02*
Y231807D01*
X195600Y220637D02*
Y231807D01*
X195700Y220937D02*
Y231807D01*
X195800Y221237D02*
Y231807D01*
X195900Y221537D02*
Y231807D01*
X198400Y223268D02*
Y223414D01*
X198500Y222568D02*
Y223414D01*
X198600Y222108D02*
Y223414D01*
X198700Y221875D02*
Y223414D01*
X198800Y221641D02*
Y223414D01*
X198900Y221408D02*
Y223414D01*
X199000Y221175D02*
Y223414D01*
Y228005D02*
Y228924D01*
X199100Y220964D02*
Y223414D01*
Y227555D02*
Y229383D01*
X199200Y220839D02*
Y223414D01*
Y227355D02*
Y229633D01*
X199300Y220714D02*
Y223414D01*
Y227155D02*
Y229883D01*
X199400Y220589D02*
Y223414D01*
Y226955D02*
Y230133D01*
X199500Y220464D02*
Y223414D01*
Y226821D02*
Y230286D01*
X199600Y220339D02*
Y223414D01*
Y226721D02*
Y230386D01*
X199700Y220214D02*
Y223414D01*
Y226621D02*
Y230486D01*
X199800Y220098D02*
Y223414D01*
Y226521D02*
Y230586D01*
X199900Y220032D02*
Y223414D01*
Y226421D02*
Y230686D01*
X200000Y219965D02*
Y223414D01*
Y226337D02*
Y230786D01*
X200100Y219898D02*
Y223245D01*
Y226277D02*
Y230886D01*
X200200Y219832D02*
Y222745D01*
Y226217D02*
Y230962D01*
X200300Y219765D02*
Y222401D01*
Y226157D02*
Y231022D01*
X200400Y219698D02*
Y222151D01*
Y226097D02*
Y231082D01*
X200500Y219632D02*
Y221901D01*
Y226037D02*
Y231142D01*
X200600Y219565D02*
Y221653D01*
Y225977D02*
Y228608D01*
Y228678D02*
Y231202D01*
X200700Y219498D02*
Y221551D01*
Y225917D02*
Y228208D01*
Y229078D02*
Y231262D01*
X200800Y219432D02*
Y221451D01*
Y225857D02*
Y227879D01*
Y229412D02*
Y231322D01*
X200900Y219389D02*
Y221351D01*
Y225797D02*
Y227779D01*
Y229545D02*
Y231382D01*
X201000Y219364D02*
Y221251D01*
Y225737D02*
Y227679D01*
Y229679D02*
Y231442D01*
X201100Y219339D02*
Y221151D01*
Y225677D02*
Y227579D01*
Y229812D02*
Y231481D01*
X201200Y219314D02*
Y221064D01*
Y225617D02*
Y227417D01*
Y229945D02*
Y231514D01*
X201300Y219289D02*
Y220989D01*
Y225557D02*
Y227217D01*
Y230079D02*
Y231547D01*
X201400Y219264D02*
Y220914D01*
Y225497D02*
Y227147D01*
Y230142D02*
Y231581D01*
X201500Y219239D02*
Y220839D01*
Y225437D02*
Y227114D01*
Y230182D02*
Y231614D01*
X201600Y219214D02*
Y220764D01*
Y225377D02*
Y227081D01*
Y230222D02*
Y231647D01*
X201700Y219189D02*
Y220689D01*
Y225317D02*
Y227047D01*
Y230262D02*
Y231681D01*
X201800Y219164D02*
Y220614D01*
Y225280D02*
Y227014D01*
Y230302D02*
Y231714D01*
X201900Y219139D02*
Y220550D01*
Y225255D02*
Y226982D01*
Y230342D02*
Y231747D01*
X202000Y219114D02*
Y220510D01*
Y225230D02*
Y226957D01*
Y230382D02*
Y231781D01*
X202100Y219089D02*
Y220470D01*
Y225205D02*
Y226932D01*
Y230422D02*
Y231811D01*
X202200Y219064D02*
Y220430D01*
Y225180D02*
Y226907D01*
Y230462D02*
Y231825D01*
X202300Y219045D02*
Y220390D01*
Y225155D02*
Y226882D01*
Y230486D02*
Y231839D01*
X202400Y219034D02*
Y220350D01*
Y225130D02*
Y226857D01*
Y230501D02*
Y231854D01*
X202500Y219023D02*
Y220310D01*
Y225105D02*
Y226832D01*
Y230515D02*
Y231868D01*
X202600Y219011D02*
Y220270D01*
Y225080D02*
Y226806D01*
Y230529D02*
Y231882D01*
X202700Y219000D02*
Y220230D01*
Y225055D02*
Y226766D01*
Y230543D02*
Y231896D01*
X202800Y218989D02*
Y220200D01*
Y225030D02*
Y226726D01*
Y230558D02*
Y231911D01*
X202900Y218978D02*
Y220200D01*
Y225005D02*
Y226686D01*
Y230572D02*
Y231925D01*
X203000Y218967D02*
Y220200D01*
Y224980D02*
Y226646D01*
Y230586D02*
Y231939D01*
X203100Y218956D02*
Y220200D01*
Y224955D02*
Y226606D01*
Y230601D02*
Y231954D01*
X203200Y218945D02*
Y220200D01*
Y224930D02*
Y226566D01*
Y230615D02*
Y231968D01*
X203300Y218934D02*
Y220200D01*
Y224905D02*
Y226526D01*
Y230629D02*
Y231982D01*
X203400Y218923D02*
Y220200D01*
Y224880D02*
Y226486D01*
Y230643D02*
Y231976D01*
X203500Y218911D02*
Y220200D01*
Y224855D02*
Y226449D01*
Y230657D02*
Y231963D01*
X203600Y218900D02*
Y220200D01*
Y224830D02*
Y226427D01*
Y230641D02*
Y231951D01*
X203700Y218889D02*
Y220204D01*
Y224805D02*
Y226404D01*
Y230624D02*
Y231938D01*
X203800Y218878D02*
Y220226D01*
Y224780D02*
Y226382D01*
Y230608D02*
Y231926D01*
X203900Y218878D02*
Y220248D01*
Y224755D02*
Y226360D01*
Y230591D02*
Y231913D01*
X204000Y218892D02*
Y220270D01*
Y224730D02*
Y226338D01*
Y230574D02*
Y231901D01*
X204100Y218907D02*
Y220292D01*
Y224705D02*
Y226315D01*
Y230558D02*
Y231888D01*
X204200Y218921D02*
Y220315D01*
Y224680D02*
Y226293D01*
Y230541D02*
Y231876D01*
X204300Y218935D02*
Y220337D01*
Y224655D02*
Y226271D01*
Y230524D02*
Y231863D01*
X204400Y218949D02*
Y220359D01*
Y224630D02*
Y226249D01*
Y230508D02*
Y231851D01*
X204500Y218964D02*
Y220381D01*
Y224605D02*
Y226227D01*
Y230491D02*
Y231838D01*
X204600Y218978D02*
Y220404D01*
Y224580D02*
Y226204D01*
Y230471D02*
Y231826D01*
X204700Y218992D02*
Y220426D01*
Y224555D02*
Y226182D01*
Y230431D02*
Y231813D01*
X204800Y219007D02*
Y220448D01*
Y224530D02*
Y226160D01*
Y230391D02*
Y231788D01*
X204900Y219021D02*
Y220470D01*
Y224505D02*
Y226138D01*
Y230351D02*
Y231754D01*
X205000Y219035D02*
Y220492D01*
Y224480D02*
Y226115D01*
Y230311D02*
Y231721D01*
X205100Y219050D02*
Y220515D01*
Y224455D02*
Y226093D01*
Y230271D02*
Y231688D01*
X205200Y219084D02*
Y220537D01*
Y224430D02*
Y226059D01*
Y230231D02*
Y231654D01*
X205300Y219117D02*
Y220559D01*
Y224405D02*
Y226026D01*
Y230191D02*
Y231621D01*
X205400Y219150D02*
Y220608D01*
Y224356D02*
Y225993D01*
Y230151D02*
Y231588D01*
X205500Y219184D02*
Y220658D01*
Y224306D02*
Y225959D01*
Y230106D02*
Y231554D01*
X205600Y219217D02*
Y220708D01*
Y224256D02*
Y225926D01*
Y230006D02*
Y231521D01*
X205700Y219250D02*
Y220758D01*
Y224206D02*
Y225893D01*
Y229906D02*
Y231488D01*
X205800Y219284D02*
Y220808D01*
Y224156D02*
Y225859D01*
Y229806D02*
Y231454D01*
X205900Y219317D02*
Y220858D01*
Y224106D02*
Y225826D01*
Y229706D02*
Y231405D01*
X206000Y219350D02*
Y220908D01*
Y224056D02*
Y225793D01*
Y229606D02*
Y231355D01*
X206100Y219384D02*
Y220994D01*
Y223940D02*
Y225759D01*
Y229506D02*
Y231305D01*
X206200Y219424D02*
Y221094D01*
Y223790D02*
Y225719D01*
Y229406D02*
Y231255D01*
X206300Y219474D02*
Y221194D01*
Y223640D02*
Y225669D01*
Y228933D02*
Y231205D01*
X206400Y219524D02*
Y221296D01*
Y223490D02*
Y225619D01*
Y228336D02*
Y231155D01*
X206500Y219574D02*
Y221495D01*
Y223242D02*
Y225569D01*
Y228336D02*
Y231105D01*
X206600Y219624D02*
Y221695D01*
Y222992D02*
Y225519D01*
Y228336D02*
Y231055D01*
X206700Y219674D02*
Y221895D01*
Y222742D02*
Y225469D01*
Y228336D02*
Y231005D01*
X206800Y219724D02*
Y225419D01*
Y228336D02*
Y230955D01*
X206900Y219774D02*
Y225369D01*
Y228336D02*
Y230886D01*
X207000Y219824D02*
Y225319D01*
Y228336D02*
Y230786D01*
X207100Y219874D02*
Y225269D01*
Y228336D02*
Y230686D01*
X207200Y219924D02*
Y225219D01*
Y228336D02*
Y230586D01*
X207300Y220035D02*
Y225129D01*
Y228336D02*
Y230486D01*
X207400Y220160D02*
Y225029D01*
Y228336D02*
Y230386D01*
X207500Y220285D02*
Y224929D01*
Y228336D02*
Y230286D01*
X207600Y220410D02*
Y224829D01*
Y228336D02*
Y230133D01*
X207700Y220535D02*
Y224729D01*
Y228336D02*
Y229883D01*
X207800Y220660D02*
Y224629D01*
Y228336D02*
Y229633D01*
X207900Y220785D02*
Y224529D01*
Y228336D02*
Y229383D01*
X208000Y221010D02*
Y224312D01*
Y228336D02*
Y228839D01*
X208100Y221260D02*
Y224062D01*
X208200Y221510D02*
Y223812D01*
X208300Y221826D02*
Y223467D01*
X208400Y222326D02*
Y222867D01*
X210000Y219050D02*
Y219124D01*
X210100Y219050D02*
Y219724D01*
X210200Y219050D02*
Y220169D01*
Y228326D02*
Y228451D01*
X210300Y219050D02*
Y220419D01*
Y228315D02*
Y228851D01*
X210400Y219050D02*
Y220669D01*
Y228303D02*
Y229251D01*
X210500Y219050D02*
Y220919D01*
Y228292D02*
Y229651D01*
X210600Y219050D02*
Y221054D01*
Y228281D02*
Y229818D01*
X210700Y219050D02*
Y221179D01*
Y228270D02*
Y229958D01*
X210800Y219050D02*
Y221304D01*
Y228259D02*
Y230098D01*
X210900Y219050D02*
Y221429D01*
Y228248D02*
Y230238D01*
X211000Y219050D02*
Y221554D01*
Y228237D02*
Y230378D01*
X211100Y219050D02*
Y221679D01*
Y228226D02*
Y230518D01*
X211200Y219050D02*
Y221804D01*
Y228215D02*
Y230658D01*
X211300Y219050D02*
Y221929D01*
Y228203D02*
Y230798D01*
X211400Y219050D02*
Y222054D01*
Y228192D02*
Y230931D01*
X211500Y219050D02*
Y222179D01*
Y228181D02*
Y230988D01*
X211600Y219050D02*
Y222304D01*
Y228170D02*
Y231045D01*
X211700Y219050D02*
Y222429D01*
Y228291D02*
Y231103D01*
X211800Y219050D02*
Y222554D01*
Y228791D02*
Y231160D01*
X211900Y219050D02*
Y222679D01*
Y229093D02*
Y231217D01*
X212000Y219050D02*
Y222776D01*
Y229226D02*
Y231274D01*
X212100Y219050D02*
Y220557D01*
Y220723D02*
Y222862D01*
Y229360D02*
Y231331D01*
X212200Y219050D02*
Y220557D01*
Y220848D02*
Y222947D01*
Y229493D02*
Y231388D01*
X212300Y219050D02*
Y220557D01*
Y220973D02*
Y223033D01*
Y229626D02*
Y231445D01*
X212400Y219050D02*
Y220557D01*
Y221098D02*
Y223119D01*
Y229755D02*
Y231503D01*
X212500Y219050D02*
Y220557D01*
Y221223D02*
Y223205D01*
Y229830D02*
Y231560D01*
X212600Y219050D02*
Y220557D01*
Y221348D02*
Y223290D01*
Y229905D02*
Y231617D01*
X212700Y219050D02*
Y220557D01*
Y221473D02*
Y223376D01*
Y229980D02*
Y231639D01*
X212800Y219050D02*
Y220557D01*
Y221573D02*
Y223462D01*
Y230055D02*
Y231650D01*
X212900Y219050D02*
Y220557D01*
Y221648D02*
Y223547D01*
Y230130D02*
Y231661D01*
X213000Y219050D02*
Y220557D01*
Y221723D02*
Y223633D01*
Y230205D02*
Y231672D01*
X213100Y219050D02*
Y220557D01*
Y221798D02*
Y223719D01*
Y230280D02*
Y231683D01*
X213200Y219050D02*
Y220557D01*
Y221873D02*
Y223805D01*
Y230310D02*
Y231694D01*
X213300Y219050D02*
Y220557D01*
Y221948D02*
Y223894D01*
Y230327D02*
Y231705D01*
X213400Y219050D02*
Y220557D01*
Y222023D02*
Y223983D01*
Y230344D02*
Y231716D01*
X213500Y219050D02*
Y220557D01*
Y222101D02*
Y224072D01*
Y230360D02*
Y231727D01*
X213600Y219050D02*
Y220557D01*
Y222184D02*
Y224161D01*
Y230377D02*
Y231739D01*
X213700Y219050D02*
Y220557D01*
Y222267D02*
Y224250D01*
Y230394D02*
Y231750D01*
X213800Y219050D02*
Y220557D01*
Y222351D02*
Y224339D01*
Y230410D02*
Y231761D01*
X213900Y219050D02*
Y220557D01*
Y222434D02*
Y224428D01*
Y230427D02*
Y231772D01*
X214000Y219050D02*
Y220557D01*
Y222517D02*
Y224516D01*
Y230444D02*
Y231783D01*
X214100Y219050D02*
Y220557D01*
Y222601D02*
Y224605D01*
Y230460D02*
Y231794D01*
X214200Y219050D02*
Y220557D01*
Y222684D02*
Y224694D01*
Y230477D02*
Y231805D01*
X214300Y219050D02*
Y220557D01*
Y222767D02*
Y224783D01*
Y230462D02*
Y231787D01*
X214400Y219050D02*
Y220557D01*
Y222851D02*
Y224872D01*
Y230442D02*
Y231765D01*
X214500Y219050D02*
Y220557D01*
Y222934D02*
Y224961D01*
Y230422D02*
Y231742D01*
X214600Y219050D02*
Y220557D01*
Y223020D02*
Y225050D01*
Y230402D02*
Y231720D01*
X214700Y219050D02*
Y220557D01*
Y223108D02*
Y225139D01*
Y230382D02*
Y231698D01*
X214800Y219050D02*
Y220557D01*
Y223195D02*
Y225232D01*
Y230362D02*
Y231676D01*
X214900Y219050D02*
Y220557D01*
Y223283D02*
Y225348D01*
Y230342D02*
Y231654D01*
X215000Y219050D02*
Y220557D01*
Y223370D02*
Y225465D01*
Y230322D02*
Y231631D01*
X215100Y219050D02*
Y220557D01*
Y223458D02*
Y225582D01*
Y230302D02*
Y231609D01*
X215200Y219050D02*
Y220557D01*
Y223545D02*
Y225698D01*
Y230243D02*
Y231587D01*
X215300Y219050D02*
Y220557D01*
Y223633D02*
Y225815D01*
Y230168D02*
Y231565D01*
X215400Y219050D02*
Y220557D01*
Y223720D02*
Y225932D01*
Y230093D02*
Y231542D01*
X215500Y219050D02*
Y220557D01*
Y223808D02*
Y226048D01*
Y230018D02*
Y231520D01*
X215600Y219050D02*
Y220557D01*
Y223895D02*
Y226165D01*
Y229943D02*
Y231498D01*
X215700Y219050D02*
Y220557D01*
Y223983D02*
Y226282D01*
Y229868D02*
Y231476D01*
X215800Y219050D02*
Y220557D01*
Y224070D02*
Y226398D01*
Y229793D02*
Y231454D01*
X215900Y219050D02*
Y220557D01*
Y224158D02*
Y226534D01*
Y229706D02*
Y231398D01*
X216000Y219050D02*
Y220557D01*
Y224257D02*
Y226700D01*
Y229606D02*
Y231340D01*
X216100Y219050D02*
Y220557D01*
Y224377D02*
Y226867D01*
Y229506D02*
Y231283D01*
X216200Y219050D02*
Y220557D01*
Y224497D02*
Y227034D01*
Y229406D02*
Y231226D01*
X216300Y219050D02*
Y220557D01*
Y224617D02*
Y227200D01*
Y229306D02*
Y231169D01*
X216400Y219050D02*
Y220557D01*
Y224737D02*
Y227367D01*
Y229204D02*
Y231112D01*
X216500Y219050D02*
Y220557D01*
Y224857D02*
Y227852D01*
Y228719D02*
Y231055D01*
X216600Y219050D02*
Y220557D01*
Y224977D02*
Y230998D01*
X216700Y219050D02*
Y220557D01*
Y225097D02*
Y230940D01*
X216800Y219050D02*
Y220557D01*
Y225217D02*
Y230883D01*
X216900Y219050D02*
Y220557D01*
Y225343D02*
Y230826D01*
X217000Y219050D02*
Y220557D01*
Y225476D02*
Y230769D01*
X217100Y219050D02*
Y220557D01*
Y225610D02*
Y230673D01*
X217200Y219050D02*
Y220557D01*
Y225743D02*
Y230553D01*
X217300Y219050D02*
Y220557D01*
Y225876D02*
Y230433D01*
X217400Y219050D02*
Y220557D01*
Y226027D02*
Y230313D01*
X217500Y219050D02*
Y220557D01*
Y226277D02*
Y230193D01*
X217600Y219050D02*
Y220557D01*
Y226527D02*
Y230073D01*
X217700Y219050D02*
Y220557D01*
Y226777D02*
Y229953D01*
X217800Y219050D02*
Y220557D01*
Y227120D02*
Y229833D01*
X217900Y219050D02*
Y220557D01*
Y227520D02*
Y229713D01*
X218000Y219050D02*
Y220557D01*
Y227920D02*
Y229025D01*
X218100Y219050D02*
Y220557D01*
X218200Y219050D02*
Y220557D01*
X280700Y226418D02*
Y226914D01*
Y351418D02*
Y351914D01*
X280800Y225725D02*
Y226914D01*
Y350725D02*
Y351914D01*
X280900Y225491D02*
Y226914D01*
Y350491D02*
Y351914D01*
X281000Y225258D02*
Y226914D01*
Y350258D02*
Y351914D01*
X281100Y225025D02*
Y226914D01*
Y350025D02*
Y351914D01*
X281200Y224791D02*
Y226914D01*
Y231755D02*
Y232174D01*
Y349791D02*
Y351914D01*
Y356755D02*
Y357174D01*
X281300Y224558D02*
Y226914D01*
Y231255D02*
Y232674D01*
Y349558D02*
Y351914D01*
Y356255D02*
Y357674D01*
X281400Y224401D02*
Y226914D01*
Y230955D02*
Y233008D01*
Y349401D02*
Y351914D01*
Y355955D02*
Y358008D01*
X281500Y224276D02*
Y226914D01*
Y230755D02*
Y233258D01*
Y349276D02*
Y351914D01*
Y355755D02*
Y358258D01*
X281600Y224151D02*
Y226914D01*
Y230555D02*
Y233508D01*
Y349151D02*
Y351914D01*
Y355555D02*
Y358508D01*
X281700Y224026D02*
Y226914D01*
Y230371D02*
Y233736D01*
Y349026D02*
Y351914D01*
Y355371D02*
Y358736D01*
X281800Y223901D02*
Y226914D01*
Y230271D02*
Y233836D01*
Y348901D02*
Y351914D01*
Y355271D02*
Y358836D01*
X281900Y223776D02*
Y226914D01*
Y230171D02*
Y233936D01*
Y348776D02*
Y351914D01*
Y355171D02*
Y358936D01*
X282000Y223651D02*
Y226914D01*
Y230071D02*
Y234036D01*
Y348651D02*
Y351914D01*
Y355071D02*
Y359036D01*
X282100Y223565D02*
Y226914D01*
Y229971D02*
Y234136D01*
Y348565D02*
Y351914D01*
Y354971D02*
Y359136D01*
X282200Y223498D02*
Y226914D01*
Y229871D02*
Y234236D01*
Y348498D02*
Y351914D01*
Y354871D02*
Y359236D01*
X282300Y223432D02*
Y226914D01*
Y229807D02*
Y234336D01*
Y348432D02*
Y351914D01*
Y354807D02*
Y359336D01*
X282400Y223365D02*
Y226495D01*
Y229747D02*
Y234432D01*
Y348365D02*
Y351495D01*
Y354747D02*
Y359432D01*
X282500Y223298D02*
Y226026D01*
Y229687D02*
Y234492D01*
Y348298D02*
Y351026D01*
Y354687D02*
Y359492D01*
X282600Y223232D02*
Y225776D01*
Y229627D02*
Y234552D01*
Y348232D02*
Y350776D01*
Y354627D02*
Y359552D01*
X282700Y223165D02*
Y225526D01*
Y229567D02*
Y234612D01*
Y348165D02*
Y350526D01*
Y354567D02*
Y359612D01*
X282800Y223098D02*
Y225276D01*
Y229507D02*
Y234672D01*
Y348098D02*
Y350276D01*
Y354507D02*
Y359672D01*
X282900Y223032D02*
Y225101D01*
Y229447D02*
Y231908D01*
Y232378D02*
Y234732D01*
Y348032D02*
Y350101D01*
Y354447D02*
Y356908D01*
Y357378D02*
Y359732D01*
X283000Y222965D02*
Y225001D01*
Y229387D02*
Y231508D01*
Y232778D02*
Y234792D01*
Y347965D02*
Y350001D01*
Y354387D02*
Y356508D01*
Y357778D02*
Y359792D01*
X283100Y222902D02*
Y224901D01*
Y229327D02*
Y231329D01*
Y232979D02*
Y234852D01*
Y347902D02*
Y349901D01*
Y354327D02*
Y356329D01*
Y357979D02*
Y359852D01*
X283200Y222877D02*
Y224801D01*
Y229267D02*
Y231229D01*
Y233112D02*
Y234912D01*
Y347877D02*
Y349801D01*
Y354267D02*
Y356229D01*
Y358112D02*
Y359912D01*
X283300Y222852D02*
Y224701D01*
Y229207D02*
Y231129D01*
Y233245D02*
Y234964D01*
Y347852D02*
Y349701D01*
Y354207D02*
Y356129D01*
Y358245D02*
Y359964D01*
X283400Y222827D02*
Y224602D01*
Y229147D02*
Y231017D01*
Y233379D02*
Y234997D01*
Y347827D02*
Y349602D01*
Y354147D02*
Y356017D01*
Y358379D02*
Y359997D01*
X283500Y222802D02*
Y224527D01*
Y229087D02*
Y230817D01*
Y233512D02*
Y235031D01*
Y347802D02*
Y349527D01*
Y354087D02*
Y355817D01*
Y358512D02*
Y360031D01*
X283600Y222777D02*
Y224452D01*
Y229027D02*
Y230664D01*
Y233622D02*
Y235064D01*
Y347777D02*
Y349452D01*
Y354027D02*
Y355664D01*
Y358622D02*
Y360064D01*
X283700Y222752D02*
Y224377D01*
Y228967D02*
Y230631D01*
Y233662D02*
Y235097D01*
Y347752D02*
Y349377D01*
Y353967D02*
Y355631D01*
Y358662D02*
Y360097D01*
X283800Y222727D02*
Y224302D01*
Y228907D02*
Y230597D01*
Y233702D02*
Y235131D01*
Y347727D02*
Y349302D01*
Y353907D02*
Y355597D01*
Y358702D02*
Y360131D01*
X283900Y222702D02*
Y224227D01*
Y228847D02*
Y230564D01*
Y233742D02*
Y235164D01*
Y347702D02*
Y349227D01*
Y353847D02*
Y355564D01*
Y358742D02*
Y360164D01*
X284000Y222677D02*
Y224152D01*
Y228793D02*
Y230531D01*
Y233782D02*
Y235197D01*
Y347677D02*
Y349152D01*
Y353793D02*
Y355531D01*
Y358782D02*
Y360197D01*
X284100Y222652D02*
Y224077D01*
Y228768D02*
Y230497D01*
Y233822D02*
Y235231D01*
Y347652D02*
Y349077D01*
Y353768D02*
Y355497D01*
Y358822D02*
Y360231D01*
X284200Y222627D02*
Y224030D01*
Y228743D02*
Y230470D01*
Y233862D02*
Y235264D01*
Y347627D02*
Y349030D01*
Y353743D02*
Y355470D01*
Y358862D02*
Y360264D01*
X284300Y222602D02*
Y223990D01*
Y228718D02*
Y230445D01*
Y233902D02*
Y235297D01*
Y347602D02*
Y348990D01*
Y353718D02*
Y355445D01*
Y358902D02*
Y360297D01*
X284400Y222577D02*
Y223950D01*
Y228693D02*
Y230420D01*
Y233942D02*
Y235318D01*
Y347577D02*
Y348950D01*
Y353693D02*
Y355420D01*
Y358942D02*
Y360318D01*
X284500Y222552D02*
Y223910D01*
Y228668D02*
Y230395D01*
Y233979D02*
Y235332D01*
Y347552D02*
Y348910D01*
Y353668D02*
Y355395D01*
Y358979D02*
Y360332D01*
X284600Y222539D02*
Y223870D01*
Y228643D02*
Y230370D01*
Y233993D02*
Y235346D01*
Y347539D02*
Y348870D01*
Y353643D02*
Y355370D01*
Y358993D02*
Y360346D01*
X284700Y222528D02*
Y223830D01*
Y228618D02*
Y230345D01*
Y234008D02*
Y235361D01*
Y347528D02*
Y348830D01*
Y353618D02*
Y355345D01*
Y359008D02*
Y360361D01*
X284800Y222517D02*
Y223790D01*
Y228593D02*
Y230320D01*
Y234022D02*
Y235375D01*
Y347517D02*
Y348790D01*
Y353593D02*
Y355320D01*
Y359022D02*
Y360375D01*
X284900Y222506D02*
Y223750D01*
Y228568D02*
Y230286D01*
Y234036D02*
Y235389D01*
Y347506D02*
Y348750D01*
Y353568D02*
Y355286D01*
Y359036D02*
Y360389D01*
X285000Y222495D02*
Y223710D01*
Y228543D02*
Y230246D01*
Y234051D02*
Y235404D01*
Y347495D02*
Y348710D01*
Y353543D02*
Y355246D01*
Y359051D02*
Y360404D01*
X285100Y222484D02*
Y223700D01*
Y228518D02*
Y230206D01*
Y234065D02*
Y235418D01*
Y347484D02*
Y348700D01*
Y353518D02*
Y355206D01*
Y359065D02*
Y360418D01*
X285200Y222473D02*
Y223700D01*
Y228493D02*
Y230166D01*
Y234079D02*
Y235432D01*
Y347473D02*
Y348700D01*
Y353493D02*
Y355166D01*
Y359079D02*
Y360432D01*
X285300Y222461D02*
Y223700D01*
Y228468D02*
Y230126D01*
Y234093D02*
Y235446D01*
Y347461D02*
Y348700D01*
Y353468D02*
Y355126D01*
Y359093D02*
Y360446D01*
X285400Y222450D02*
Y223700D01*
Y228443D02*
Y230086D01*
Y234108D02*
Y235461D01*
Y347450D02*
Y348700D01*
Y353443D02*
Y355086D01*
Y359108D02*
Y360461D01*
X285500Y222439D02*
Y223700D01*
Y228418D02*
Y230046D01*
Y234122D02*
Y235475D01*
Y347439D02*
Y348700D01*
Y353418D02*
Y355046D01*
Y359122D02*
Y360475D01*
X285600Y222428D02*
Y223700D01*
Y228393D02*
Y230006D01*
Y234136D02*
Y235482D01*
Y347428D02*
Y348700D01*
Y353393D02*
Y355006D01*
Y359136D02*
Y360482D01*
X285700Y222417D02*
Y223700D01*
Y228368D02*
Y229966D01*
Y234151D02*
Y235469D01*
Y347417D02*
Y348700D01*
Y353368D02*
Y354966D01*
Y359151D02*
Y360469D01*
X285800Y222406D02*
Y223700D01*
Y228343D02*
Y229938D01*
Y234149D02*
Y235457D01*
Y347406D02*
Y348700D01*
Y353343D02*
Y354938D01*
Y359149D02*
Y360457D01*
X285900Y222395D02*
Y223700D01*
Y228318D02*
Y229915D01*
Y234133D02*
Y235444D01*
Y347395D02*
Y348700D01*
Y353318D02*
Y354915D01*
Y359133D02*
Y360444D01*
X286000Y222384D02*
Y223715D01*
Y228293D02*
Y229893D01*
Y234116D02*
Y235432D01*
Y347384D02*
Y348715D01*
Y353293D02*
Y354893D01*
Y359116D02*
Y360432D01*
X286100Y222373D02*
Y223737D01*
Y228268D02*
Y229871D01*
Y234099D02*
Y235419D01*
Y347373D02*
Y348737D01*
Y353268D02*
Y354871D01*
Y359099D02*
Y360419D01*
X286200Y222385D02*
Y223759D01*
Y228243D02*
Y229849D01*
Y234083D02*
Y235407D01*
Y347385D02*
Y348759D01*
Y353243D02*
Y354849D01*
Y359083D02*
Y360407D01*
X286300Y222399D02*
Y223781D01*
Y228218D02*
Y229827D01*
Y234066D02*
Y235394D01*
Y347399D02*
Y348781D01*
Y353218D02*
Y354827D01*
Y359066D02*
Y360394D01*
X286400Y222414D02*
Y223804D01*
Y228193D02*
Y229804D01*
Y234049D02*
Y235382D01*
Y347414D02*
Y348804D01*
Y353193D02*
Y354804D01*
Y359049D02*
Y360382D01*
X286500Y222428D02*
Y223826D01*
Y228168D02*
Y229782D01*
Y234033D02*
Y235369D01*
Y347428D02*
Y348826D01*
Y353168D02*
Y354782D01*
Y359033D02*
Y360369D01*
X286600Y222442D02*
Y223848D01*
Y228143D02*
Y229760D01*
Y234016D02*
Y235357D01*
Y347442D02*
Y348848D01*
Y353143D02*
Y354760D01*
Y359016D02*
Y360357D01*
X286700Y222457D02*
Y223870D01*
Y228118D02*
Y229738D01*
Y234000D02*
Y235344D01*
Y347457D02*
Y348870D01*
Y353118D02*
Y354738D01*
Y359000D02*
Y360344D01*
X286800Y222471D02*
Y223892D01*
Y228093D02*
Y229715D01*
Y233983D02*
Y235332D01*
Y347471D02*
Y348892D01*
Y353093D02*
Y354715D01*
Y358983D02*
Y360332D01*
X286900Y222485D02*
Y223915D01*
Y228068D02*
Y229693D01*
Y233951D02*
Y235319D01*
Y347485D02*
Y348915D01*
Y353068D02*
Y354693D01*
Y358951D02*
Y360319D01*
X287000Y222499D02*
Y223937D01*
Y228043D02*
Y229671D01*
Y233911D02*
Y235304D01*
Y347499D02*
Y348937D01*
Y353043D02*
Y354671D01*
Y358911D02*
Y360304D01*
X287100Y222514D02*
Y223959D01*
Y228018D02*
Y229649D01*
Y233871D02*
Y235271D01*
Y347514D02*
Y348959D01*
Y353018D02*
Y354649D01*
Y358871D02*
Y360271D01*
X287200Y222528D02*
Y223981D01*
Y227993D02*
Y229627D01*
Y233831D02*
Y235238D01*
Y347528D02*
Y348981D01*
Y352993D02*
Y354627D01*
Y358831D02*
Y360238D01*
X287300Y222542D02*
Y224004D01*
Y227968D02*
Y229604D01*
Y233791D02*
Y235204D01*
Y347542D02*
Y349004D01*
Y352968D02*
Y354604D01*
Y358791D02*
Y360204D01*
X287400Y222567D02*
Y224026D01*
Y227943D02*
Y229576D01*
Y233751D02*
Y235171D01*
Y347567D02*
Y349026D01*
Y352943D02*
Y354576D01*
Y358751D02*
Y360171D01*
X287500Y222600D02*
Y224048D01*
Y227918D02*
Y229543D01*
Y233711D02*
Y235138D01*
Y347600D02*
Y349048D01*
Y352918D02*
Y354543D01*
Y358711D02*
Y360138D01*
X287600Y222634D02*
Y224083D01*
Y227881D02*
Y229509D01*
Y233671D02*
Y235104D01*
Y347634D02*
Y349083D01*
Y352881D02*
Y354509D01*
Y358671D02*
Y360104D01*
X287700Y222667D02*
Y224133D01*
Y227831D02*
Y229476D01*
Y233631D02*
Y235071D01*
Y347667D02*
Y349133D01*
Y352831D02*
Y354476D01*
Y358631D02*
Y360071D01*
X287800Y222700D02*
Y224183D01*
Y227781D02*
Y229443D01*
Y233556D02*
Y235038D01*
Y347700D02*
Y349183D01*
Y352781D02*
Y354443D01*
Y358556D02*
Y360038D01*
X287900Y222734D02*
Y224233D01*
Y227731D02*
Y229409D01*
Y233456D02*
Y235004D01*
Y347734D02*
Y349233D01*
Y352731D02*
Y354409D01*
Y358456D02*
Y360004D01*
X288000Y222767D02*
Y224283D01*
Y227681D02*
Y229376D01*
Y233356D02*
Y234971D01*
Y347767D02*
Y349283D01*
Y352681D02*
Y354376D01*
Y358356D02*
Y359971D01*
X288100Y222800D02*
Y224333D01*
Y227631D02*
Y229343D01*
Y233256D02*
Y234930D01*
Y347800D02*
Y349333D01*
Y352631D02*
Y354343D01*
Y358256D02*
Y359930D01*
X288200Y222834D02*
Y224383D01*
Y227581D02*
Y229309D01*
Y233156D02*
Y234880D01*
Y347834D02*
Y349383D01*
Y352581D02*
Y354309D01*
Y358156D02*
Y359880D01*
X288300Y222867D02*
Y224444D01*
Y227515D02*
Y229276D01*
Y233056D02*
Y234830D01*
Y347867D02*
Y349444D01*
Y352515D02*
Y354276D01*
Y358056D02*
Y359830D01*
X288400Y222900D02*
Y224544D01*
Y227365D02*
Y229243D01*
Y232956D02*
Y234780D01*
Y347900D02*
Y349544D01*
Y352365D02*
Y354243D01*
Y357956D02*
Y359780D01*
X288500Y222949D02*
Y224644D01*
Y227215D02*
Y229194D01*
Y232733D02*
Y234730D01*
Y347949D02*
Y349644D01*
Y352215D02*
Y354194D01*
Y357733D02*
Y359730D01*
X288600Y222999D02*
Y224744D01*
Y227065D02*
Y229144D01*
Y232133D02*
Y234680D01*
Y347999D02*
Y349744D01*
Y352065D02*
Y354144D01*
Y357133D02*
Y359680D01*
X288700Y223049D02*
Y224895D01*
Y226867D02*
Y229094D01*
Y231836D02*
Y234630D01*
Y348049D02*
Y349895D01*
Y351867D02*
Y354094D01*
Y356836D02*
Y359630D01*
X288800Y223099D02*
Y225095D01*
Y226617D02*
Y229044D01*
Y231836D02*
Y234580D01*
Y348099D02*
Y350095D01*
Y351617D02*
Y354044D01*
Y356836D02*
Y359580D01*
X288900Y223149D02*
Y225295D01*
Y226367D02*
Y228994D01*
Y231836D02*
Y234530D01*
Y348149D02*
Y350295D01*
Y351367D02*
Y353994D01*
Y356836D02*
Y359530D01*
X289000Y223199D02*
Y225495D01*
Y226117D02*
Y228944D01*
Y231836D02*
Y234480D01*
Y348199D02*
Y350495D01*
Y351117D02*
Y353944D01*
Y356836D02*
Y359480D01*
X289100Y223249D02*
Y228894D01*
Y231836D02*
Y234430D01*
Y348249D02*
Y353894D01*
Y356836D02*
Y359430D01*
X289200Y223299D02*
Y228844D01*
Y231836D02*
Y234336D01*
Y348299D02*
Y353844D01*
Y356836D02*
Y359336D01*
X289300Y223349D02*
Y228794D01*
Y231836D02*
Y234236D01*
Y348349D02*
Y353794D01*
Y356836D02*
Y359236D01*
X289400Y223399D02*
Y228744D01*
Y231836D02*
Y234136D01*
Y348399D02*
Y353744D01*
Y356836D02*
Y359136D01*
X289500Y223473D02*
Y228679D01*
Y231836D02*
Y234036D01*
Y348473D02*
Y353679D01*
Y356836D02*
Y359036D01*
X289600Y223598D02*
Y228579D01*
Y231836D02*
Y233936D01*
Y348598D02*
Y353579D01*
Y356836D02*
Y358936D01*
X289700Y223723D02*
Y228479D01*
Y231836D02*
Y233836D01*
Y348723D02*
Y353479D01*
Y356836D02*
Y358836D01*
X289800Y223848D02*
Y228379D01*
Y231836D02*
Y233736D01*
Y348848D02*
Y353379D01*
Y356836D02*
Y358736D01*
X289900Y223973D02*
Y228279D01*
Y231836D02*
Y233508D01*
Y348973D02*
Y353279D01*
Y356836D02*
Y358508D01*
X290000Y224098D02*
Y228179D01*
Y231836D02*
Y233258D01*
Y349098D02*
Y353179D01*
Y356836D02*
Y358258D01*
X290100Y224223D02*
Y228079D01*
Y231836D02*
Y233008D01*
Y349223D02*
Y353079D01*
Y356836D02*
Y358008D01*
X290200Y224385D02*
Y227937D01*
Y231836D02*
Y232639D01*
Y349385D02*
Y352937D01*
Y356836D02*
Y357639D01*
X290300Y224635D02*
Y227687D01*
Y231836D02*
Y232039D01*
Y349635D02*
Y352687D01*
Y356836D02*
Y357039D01*
X290400Y224885D02*
Y227437D01*
Y349885D02*
Y352437D01*
X290500Y225135D02*
Y227187D01*
Y350135D02*
Y352187D01*
X290600Y225576D02*
Y226667D01*
Y350576D02*
Y351667D01*
X291900Y235255D02*
Y235307D01*
Y360255D02*
Y360307D01*
X292000Y234876D02*
Y235307D01*
Y359876D02*
Y360307D01*
X292100Y234497D02*
Y235307D01*
Y359497D02*
Y360307D01*
X292200Y234119D02*
Y235307D01*
Y359119D02*
Y360307D01*
X292300Y233740D02*
Y235307D01*
Y358740D02*
Y360307D01*
X292400Y233361D02*
Y235307D01*
Y358361D02*
Y360307D01*
X292500Y232982D02*
Y235307D01*
Y357982D02*
Y360307D01*
X292600Y232603D02*
Y235307D01*
Y357603D02*
Y360307D01*
X292700Y232224D02*
Y235307D01*
Y357224D02*
Y360307D01*
X292800Y231845D02*
Y235307D01*
Y356845D02*
Y360307D01*
X292900Y231466D02*
Y235307D01*
Y356466D02*
Y360307D01*
X293000Y231087D02*
Y235307D01*
Y356087D02*
Y360307D01*
X293100Y230708D02*
Y235307D01*
Y355708D02*
Y360307D01*
X293200Y230329D02*
Y235307D01*
Y355329D02*
Y360307D01*
X293300Y229950D02*
Y235307D01*
Y354950D02*
Y360307D01*
X293400Y229571D02*
Y235307D01*
Y354571D02*
Y360307D01*
X293500Y229192D02*
Y235307D01*
Y354192D02*
Y360307D01*
X293600Y228813D02*
Y235168D01*
Y353813D02*
Y360168D01*
X293700Y228434D02*
Y234741D01*
Y353434D02*
Y359741D01*
X293800Y228055D02*
Y234314D01*
Y353055D02*
Y359314D01*
X293900Y227676D02*
Y233886D01*
Y352676D02*
Y358886D01*
X294000Y227297D02*
Y233459D01*
Y352297D02*
Y358459D01*
X294100Y226919D02*
Y233032D01*
Y351919D02*
Y358032D01*
X294200Y226540D02*
Y232605D01*
Y351540D02*
Y357605D01*
X294300Y226161D02*
Y232177D01*
Y351161D02*
Y357177D01*
X294400Y225782D02*
Y231750D01*
Y350782D02*
Y356750D01*
X294500Y225403D02*
Y231323D01*
Y350403D02*
Y356323D01*
X294600Y225024D02*
Y230896D01*
Y350024D02*
Y355896D01*
X294700Y224645D02*
Y230468D01*
Y349645D02*
Y355468D01*
X294800Y224266D02*
Y230041D01*
Y349266D02*
Y355041D01*
X294900Y223887D02*
Y229614D01*
Y348887D02*
Y354614D01*
X295000Y223508D02*
Y229186D01*
Y348508D02*
Y354186D01*
X295100Y223129D02*
Y228759D01*
Y348129D02*
Y353759D01*
X295200Y222750D02*
Y228332D01*
Y347750D02*
Y353332D01*
X295300Y222550D02*
Y227905D01*
Y347550D02*
Y352905D01*
X295400Y222550D02*
Y227477D01*
Y347550D02*
Y352477D01*
X295500Y222550D02*
Y227050D01*
Y347550D02*
Y352050D01*
X295600Y222550D02*
Y226663D01*
Y347550D02*
Y351663D01*
X295700Y222550D02*
Y226288D01*
Y347550D02*
Y351288D01*
X295800Y222550D02*
Y225913D01*
Y347550D02*
Y350913D01*
X295900Y222550D02*
Y225538D01*
Y347550D02*
Y350538D01*
X296000Y222550D02*
Y225163D01*
Y347550D02*
Y350163D01*
X296100Y222550D02*
Y224788D01*
Y347550D02*
Y349788D01*
X296200Y222550D02*
Y224413D01*
Y347550D02*
Y349413D01*
X296300Y222550D02*
Y224238D01*
Y347550D02*
Y349238D01*
X296400Y222550D02*
Y224602D01*
Y347550D02*
Y349602D01*
X296500Y222550D02*
Y225102D01*
Y347550D02*
Y350102D01*
X296600Y222550D02*
Y225515D01*
Y347550D02*
Y350515D01*
X296700Y222550D02*
Y225895D01*
Y347550D02*
Y350895D01*
X296800Y222550D02*
Y226095D01*
Y347550D02*
Y351095D01*
X296900Y222550D02*
Y226693D01*
Y347550D02*
Y351693D01*
X297000Y222550D02*
Y227020D01*
Y347550D02*
Y352020D01*
X297100Y222550D02*
Y227346D01*
Y347550D02*
Y352346D01*
X297200Y222748D02*
Y227673D01*
Y347748D02*
Y352673D01*
X297300Y223086D02*
Y228000D01*
Y348086D02*
Y353000D01*
X297400Y223423D02*
Y228326D01*
Y348423D02*
Y353326D01*
X297500Y223761D02*
Y228653D01*
Y348761D02*
Y353653D01*
X297600Y224098D02*
Y228980D01*
Y349098D02*
Y353980D01*
X297700Y224436D02*
Y229306D01*
Y349436D02*
Y354306D01*
X297800Y224773D02*
Y229633D01*
Y349773D02*
Y354633D01*
X297900Y225111D02*
Y229960D01*
Y350111D02*
Y354960D01*
X298000Y225448D02*
Y230286D01*
Y350448D02*
Y355286D01*
X298100Y225786D02*
Y230613D01*
Y350786D02*
Y355613D01*
X298200Y226123D02*
Y230940D01*
Y351123D02*
Y355940D01*
X298300Y226461D02*
Y231266D01*
Y351461D02*
Y356266D01*
X298400Y226798D02*
Y231593D01*
Y351798D02*
Y356593D01*
X298500Y227136D02*
Y231920D01*
Y352136D02*
Y356920D01*
X298600Y227473D02*
Y232246D01*
Y352473D02*
Y357246D01*
X298700Y227811D02*
Y232573D01*
Y352811D02*
Y357573D01*
X298800Y228148D02*
Y232900D01*
Y353148D02*
Y357900D01*
X298900Y228486D02*
Y233226D01*
Y353486D02*
Y358226D01*
X299000Y228823D02*
Y233553D01*
Y353823D02*
Y358553D01*
X299100Y229161D02*
Y233880D01*
Y354161D02*
Y358880D01*
X299200Y229498D02*
Y234206D01*
Y354498D02*
Y359206D01*
X299300Y229836D02*
Y234533D01*
Y354836D02*
Y359533D01*
X299400Y230173D02*
Y234860D01*
Y355173D02*
Y359860D01*
X299500Y230511D02*
Y235186D01*
Y355511D02*
Y360186D01*
X299600Y230848D02*
Y235307D01*
Y355848D02*
Y360307D01*
X299700Y231186D02*
Y235307D01*
Y356186D02*
Y360307D01*
X299800Y231523D02*
Y235307D01*
Y356523D02*
Y360307D01*
X299900Y231861D02*
Y235307D01*
Y356861D02*
Y360307D01*
X300000Y232206D02*
Y235307D01*
Y357206D02*
Y360307D01*
X300100Y232606D02*
Y235307D01*
Y357606D02*
Y360307D01*
X300200Y232956D02*
Y235307D01*
Y357956D02*
Y360307D01*
X300300Y233206D02*
Y235307D01*
Y358206D02*
Y360307D01*
X300400Y233456D02*
Y235307D01*
Y358456D02*
Y360307D01*
X300500Y233706D02*
Y235307D01*
Y358706D02*
Y360307D01*
X300600Y233791D02*
Y235307D01*
Y358791D02*
Y360307D01*
X300700Y233165D02*
Y235307D01*
Y358165D02*
Y360307D01*
X300800Y232865D02*
Y235307D01*
Y357865D02*
Y360307D01*
X300900Y232565D02*
Y235307D01*
Y357565D02*
Y360307D01*
X301000Y232260D02*
Y235307D01*
Y357260D02*
Y360307D01*
X301100Y231936D02*
Y235307D01*
Y356936D02*
Y360307D01*
X301200Y231613D02*
Y235307D01*
Y356613D02*
Y360307D01*
X301300Y231289D02*
Y235307D01*
Y356289D02*
Y360307D01*
X301400Y230966D02*
Y235307D01*
Y355966D02*
Y360307D01*
X301500Y230642D02*
Y235069D01*
Y355642D02*
Y360069D01*
X301600Y230318D02*
Y234742D01*
Y355318D02*
Y359742D01*
X301700Y229995D02*
Y234415D01*
Y354995D02*
Y359415D01*
X301800Y229671D02*
Y234087D01*
Y354671D02*
Y359087D01*
X301900Y229348D02*
Y233760D01*
Y354348D02*
Y358760D01*
X302000Y229024D02*
Y233433D01*
Y354024D02*
Y358433D01*
X302100Y228701D02*
Y233106D01*
Y353701D02*
Y358106D01*
X302200Y228377D02*
Y232778D01*
Y353377D02*
Y357778D01*
X302300Y228054D02*
Y232451D01*
Y353054D02*
Y357451D01*
X302400Y227730D02*
Y232124D01*
Y352730D02*
Y357124D01*
X302500Y227407D02*
Y231796D01*
Y352407D02*
Y356796D01*
X302600Y227083D02*
Y231469D01*
Y352083D02*
Y356469D01*
X302700Y226760D02*
Y231142D01*
Y351760D02*
Y356142D01*
X302800Y226436D02*
Y230815D01*
Y351436D02*
Y355815D01*
X302900Y226113D02*
Y230487D01*
Y351113D02*
Y355487D01*
X303000Y225789D02*
Y230160D01*
Y350789D02*
Y355160D01*
X303100Y225466D02*
Y229833D01*
Y350466D02*
Y354833D01*
X303200Y225142D02*
Y229506D01*
Y350142D02*
Y354506D01*
X303300Y224818D02*
Y229178D01*
Y349818D02*
Y354178D01*
X303400Y224495D02*
Y228851D01*
Y349495D02*
Y353851D01*
X303500Y224171D02*
Y228526D01*
Y349171D02*
Y353526D01*
X303600Y223848D02*
Y228201D01*
Y348848D02*
Y353201D01*
X303700Y223524D02*
Y227876D01*
Y348524D02*
Y352876D01*
X303800Y223201D02*
Y227551D01*
Y348201D02*
Y352551D01*
X303900Y222877D02*
Y227226D01*
Y347877D02*
Y352226D01*
X304000Y222554D02*
Y226901D01*
Y347554D02*
Y351901D01*
X304100Y222550D02*
Y226576D01*
Y347550D02*
Y351576D01*
X304200Y222550D02*
Y226251D01*
Y347550D02*
Y351251D01*
X304300Y222550D02*
Y225926D01*
Y347550D02*
Y350926D01*
X304400Y222550D02*
Y225601D01*
Y347550D02*
Y350601D01*
X304500Y222550D02*
Y225276D01*
Y347550D02*
Y350276D01*
X304600Y222550D02*
Y224951D01*
Y347550D02*
Y349951D01*
X304700Y222550D02*
Y224626D01*
Y347550D02*
Y349626D01*
X304800Y222550D02*
Y224301D01*
Y347550D02*
Y349301D01*
X304900Y222550D02*
Y224260D01*
Y347550D02*
Y349260D01*
X305000Y222550D02*
Y224839D01*
Y347550D02*
Y349839D01*
X305100Y222550D02*
Y225416D01*
Y347550D02*
Y350416D01*
X305200Y222550D02*
Y225866D01*
Y347550D02*
Y350866D01*
X305300Y222550D02*
Y226316D01*
Y347550D02*
Y351316D01*
X305400Y222550D02*
Y226766D01*
Y347550D02*
Y351766D01*
X305500Y222550D02*
Y227203D01*
Y347550D02*
Y352203D01*
X305600Y222550D02*
Y227630D01*
Y347550D02*
Y352630D01*
X305700Y222550D02*
Y228057D01*
Y347550D02*
Y353057D01*
X305800Y222885D02*
Y228484D01*
Y347885D02*
Y353484D01*
X305900Y223264D02*
Y228912D01*
Y348264D02*
Y353912D01*
X306000Y223643D02*
Y229339D01*
Y348643D02*
Y354339D01*
X306100Y224022D02*
Y229766D01*
Y349022D02*
Y354766D01*
X306200Y224401D02*
Y230194D01*
Y349401D02*
Y355194D01*
X306300Y224780D02*
Y230621D01*
Y349780D02*
Y355621D01*
X306400Y225159D02*
Y231048D01*
Y350159D02*
Y356048D01*
X306500Y225538D02*
Y231475D01*
Y350538D02*
Y356475D01*
X306600Y225917D02*
Y231903D01*
Y350917D02*
Y356903D01*
X306700Y226296D02*
Y232330D01*
Y351296D02*
Y357330D01*
X306800Y226675D02*
Y232757D01*
Y351675D02*
Y357757D01*
X306900Y227054D02*
Y233184D01*
Y352054D02*
Y358184D01*
X307000Y227433D02*
Y233612D01*
Y352433D02*
Y358612D01*
X307100Y227812D02*
Y234039D01*
Y352812D02*
Y359039D01*
X307200Y228191D02*
Y234466D01*
Y353191D02*
Y359466D01*
X307300Y228570D02*
Y234894D01*
Y353570D02*
Y359894D01*
X307400Y228949D02*
Y235307D01*
Y353949D02*
Y360307D01*
X307500Y229328D02*
Y235307D01*
Y354328D02*
Y360307D01*
X307600Y229706D02*
Y235307D01*
Y354706D02*
Y360307D01*
X307700Y230085D02*
Y235307D01*
Y355085D02*
Y360307D01*
X307800Y230464D02*
Y235307D01*
Y355464D02*
Y360307D01*
X307900Y230843D02*
Y235307D01*
Y355843D02*
Y360307D01*
X308000Y231222D02*
Y235307D01*
Y356222D02*
Y360307D01*
X308100Y231601D02*
Y235307D01*
Y356601D02*
Y360307D01*
X308200Y231980D02*
Y235307D01*
Y356980D02*
Y360307D01*
X308300Y232359D02*
Y235307D01*
Y357359D02*
Y360307D01*
X308400Y232738D02*
Y235307D01*
Y357738D02*
Y360307D01*
X308500Y233117D02*
Y235307D01*
Y358117D02*
Y360307D01*
X308600Y233496D02*
Y235307D01*
Y358496D02*
Y360307D01*
X308700Y233875D02*
Y235307D01*
Y358875D02*
Y360307D01*
X308800Y234254D02*
Y235307D01*
Y359254D02*
Y360307D01*
X308900Y234633D02*
Y235307D01*
Y359633D02*
Y360307D01*
X309000Y235012D02*
Y235307D01*
Y360012D02*
Y360307D01*
X310000Y222550D02*
Y223053D01*
X310100Y222550D02*
Y223598D01*
Y231829D02*
Y231837D01*
X310200Y222550D02*
Y223848D01*
Y231818D02*
Y232237D01*
X310300Y222550D02*
Y224098D01*
Y231807D02*
Y232637D01*
X310400Y222550D02*
Y224348D01*
Y231796D02*
Y233037D01*
X310500Y222550D02*
Y224518D01*
Y231784D02*
Y233278D01*
X310600Y222550D02*
Y224643D01*
Y231773D02*
Y233418D01*
X310700Y222550D02*
Y224768D01*
Y231762D02*
Y233558D01*
X310800Y222550D02*
Y224893D01*
Y231751D02*
Y233698D01*
X310900Y222550D02*
Y225018D01*
Y231740D02*
Y233838D01*
X311000Y222550D02*
Y225143D01*
Y231729D02*
Y233978D01*
X311100Y222550D02*
Y225268D01*
Y231718D02*
Y234118D01*
X311200Y222550D02*
Y225393D01*
Y231707D02*
Y234258D01*
X311300Y222550D02*
Y225518D01*
Y231696D02*
Y234398D01*
X311400Y222550D02*
Y225643D01*
Y231684D02*
Y234472D01*
Y355649D02*
Y357151D01*
X311500Y222550D02*
Y225768D01*
Y231673D02*
Y234529D01*
Y355699D02*
Y357208D01*
X311600Y222550D02*
Y225893D01*
Y231662D02*
Y234586D01*
Y355749D02*
Y357265D01*
X311700Y222550D02*
Y226018D01*
Y232148D02*
Y234643D01*
Y355799D02*
Y357322D01*
X311800Y222550D02*
Y226143D01*
Y232555D02*
Y234701D01*
Y355849D02*
Y357379D01*
X311900Y222550D02*
Y226251D01*
Y232688D02*
Y234758D01*
Y355899D02*
Y357436D01*
X312000Y222550D02*
Y224057D01*
Y224187D02*
Y226337D01*
Y232821D02*
Y234815D01*
Y355949D02*
Y357493D01*
X312100Y222550D02*
Y224057D01*
Y224312D02*
Y226423D01*
Y232955D02*
Y234872D01*
Y355999D02*
Y357551D01*
X312200Y222550D02*
Y224057D01*
Y224437D02*
Y226509D01*
Y233088D02*
Y234929D01*
Y356049D02*
Y357608D01*
X312300Y222550D02*
Y224057D01*
Y224562D02*
Y226594D01*
Y233221D02*
Y234986D01*
Y356099D02*
Y357665D01*
X312400Y222550D02*
Y224057D01*
Y224687D02*
Y226680D01*
Y233309D02*
Y235043D01*
Y356149D02*
Y357722D01*
X312500Y222550D02*
Y224057D01*
Y224812D02*
Y226766D01*
Y233384D02*
Y235101D01*
Y356199D02*
Y357779D01*
X312600Y222550D02*
Y224057D01*
Y224937D02*
Y226851D01*
Y233459D02*
Y235135D01*
Y356249D02*
Y357840D01*
X312700Y222550D02*
Y224057D01*
Y225052D02*
Y226937D01*
Y233534D02*
Y235147D01*
Y356299D02*
Y357907D01*
X312800Y222550D02*
Y224057D01*
Y225127D02*
Y227023D01*
Y233609D02*
Y235158D01*
Y356349D02*
Y357973D01*
X312900Y222550D02*
Y224057D01*
Y225202D02*
Y227109D01*
Y233684D02*
Y235169D01*
Y356399D02*
Y358040D01*
X313000Y222550D02*
Y224057D01*
Y225277D02*
Y227194D01*
Y233759D02*
Y235180D01*
Y356449D02*
Y358107D01*
X313100Y222550D02*
Y224057D01*
Y225352D02*
Y227280D01*
Y233805D02*
Y235191D01*
Y356512D02*
Y358173D01*
X313200Y222550D02*
Y224057D01*
Y225427D02*
Y227369D01*
Y233822D02*
Y235202D01*
Y356587D02*
Y358240D01*
X313300Y222550D02*
Y224057D01*
Y225502D02*
Y227458D01*
Y233839D02*
Y235213D01*
Y356662D02*
Y358307D01*
X313400Y222550D02*
Y224057D01*
Y225577D02*
Y227547D01*
Y233855D02*
Y235224D01*
Y356737D02*
Y358373D01*
X313500Y222550D02*
Y224057D01*
Y225660D02*
Y227635D01*
Y233872D02*
Y235235D01*
Y356812D02*
Y358440D01*
X313600Y222550D02*
Y224057D01*
Y225744D02*
Y227724D01*
Y233889D02*
Y235247D01*
Y356887D02*
Y358507D01*
X313700Y222550D02*
Y224057D01*
Y225827D02*
Y227813D01*
Y233905D02*
Y235258D01*
Y356962D02*
Y358594D01*
X313800Y222550D02*
Y224057D01*
Y225910D02*
Y227902D01*
Y233922D02*
Y235269D01*
Y357037D02*
Y358694D01*
X313900Y222550D02*
Y224057D01*
Y225994D02*
Y227991D01*
Y233939D02*
Y235280D01*
Y357112D02*
Y358794D01*
X314000Y222550D02*
Y224057D01*
Y226077D02*
Y228080D01*
Y233955D02*
Y235291D01*
Y357187D02*
Y358894D01*
X314100Y222550D02*
Y224057D01*
Y226160D02*
Y228169D01*
Y233972D02*
Y235302D01*
Y357262D02*
Y358994D01*
X314200Y222550D02*
Y224057D01*
Y226244D02*
Y228258D01*
Y233968D02*
Y235293D01*
Y357337D02*
Y359094D01*
X314300Y222550D02*
Y224057D01*
Y226327D02*
Y228347D01*
Y233948D02*
Y235271D01*
Y357412D02*
Y359194D01*
X314400Y222550D02*
Y224057D01*
Y226410D02*
Y228435D01*
Y233928D02*
Y235249D01*
Y357487D02*
Y359294D01*
X314500Y222550D02*
Y224057D01*
Y226495D02*
Y228524D01*
Y233908D02*
Y235227D01*
Y357550D02*
Y359394D01*
X314600Y222550D02*
Y224057D01*
Y226583D02*
Y228613D01*
Y233888D02*
Y235204D01*
Y347550D02*
Y359534D01*
X314700Y222550D02*
Y224057D01*
Y226670D02*
Y228702D01*
Y233868D02*
Y235182D01*
Y347550D02*
Y359700D01*
X314800Y222550D02*
Y224057D01*
Y226758D02*
Y228815D01*
Y233848D02*
Y235160D01*
Y347550D02*
Y359867D01*
X314900Y222550D02*
Y224057D01*
Y226845D02*
Y228932D01*
Y233828D02*
Y235138D01*
Y347550D02*
Y360034D01*
X315000Y222550D02*
Y224057D01*
Y226933D02*
Y229048D01*
Y233808D02*
Y235115D01*
Y347550D02*
Y360200D01*
X315100Y222550D02*
Y224057D01*
Y227020D02*
Y229165D01*
Y233764D02*
Y235093D01*
Y347550D02*
Y360307D01*
X315200Y222550D02*
Y224057D01*
Y227108D02*
Y229282D01*
Y233689D02*
Y235071D01*
Y347550D02*
Y360307D01*
X315300Y222550D02*
Y224057D01*
Y227195D02*
Y229398D01*
Y233614D02*
Y235049D01*
Y347550D02*
Y360307D01*
X315400Y222550D02*
Y224057D01*
Y227283D02*
Y229515D01*
Y233539D02*
Y235027D01*
Y347550D02*
Y360307D01*
X315500Y222550D02*
Y224057D01*
Y227370D02*
Y229632D01*
Y233464D02*
Y235004D01*
Y347550D02*
Y360307D01*
X315600Y222550D02*
Y224057D01*
Y227458D02*
Y229748D01*
Y233389D02*
Y234982D01*
Y347550D02*
Y360307D01*
X315700Y222550D02*
Y224057D01*
Y227545D02*
Y229865D01*
Y233314D02*
Y234960D01*
Y347550D02*
Y360307D01*
X315800Y222550D02*
Y224057D01*
Y227633D02*
Y229986D01*
Y233235D02*
Y234914D01*
Y347550D02*
Y360307D01*
X315900Y222550D02*
Y224057D01*
Y227722D02*
Y230153D01*
Y233135D02*
Y234857D01*
Y347550D02*
Y360307D01*
X316000Y222550D02*
Y224057D01*
Y227842D02*
Y230319D01*
Y233035D02*
Y234800D01*
Y347550D02*
Y360307D01*
X316100Y222550D02*
Y224057D01*
Y227962D02*
Y230486D01*
Y232935D02*
Y234742D01*
X316200Y222550D02*
Y224057D01*
Y228082D02*
Y230653D01*
Y232835D02*
Y234685D01*
X316300Y222550D02*
Y224057D01*
Y228202D02*
Y230819D01*
Y232735D02*
Y234628D01*
X316400Y222550D02*
Y224057D01*
Y228322D02*
Y231209D01*
Y232362D02*
Y234571D01*
X316500Y222550D02*
Y224057D01*
Y228442D02*
Y231709D01*
Y231862D02*
Y234514D01*
X316600Y222550D02*
Y224057D01*
Y228562D02*
Y234457D01*
X316700Y222550D02*
Y224057D01*
Y228682D02*
Y234400D01*
X316800Y222550D02*
Y224057D01*
Y228805D02*
Y234342D01*
X316900Y222550D02*
Y224057D01*
Y228938D02*
Y234285D01*
X317000Y222550D02*
Y224057D01*
Y229071D02*
Y234208D01*
X317100Y222550D02*
Y224057D01*
Y229205D02*
Y234088D01*
X317200Y222550D02*
Y224057D01*
Y229338D02*
Y233968D01*
X317300Y222550D02*
Y224057D01*
Y229471D02*
Y233848D01*
X317400Y222550D02*
Y224057D01*
Y229706D02*
Y233728D01*
X317500Y222550D02*
Y224057D01*
Y229956D02*
Y233608D01*
X317600Y222550D02*
Y224057D01*
Y230206D02*
Y233488D01*
X317700Y222550D02*
Y224057D01*
Y230506D02*
Y233368D01*
X317800Y222550D02*
Y224057D01*
Y230906D02*
Y233248D01*
X317900Y222550D02*
Y224057D01*
Y231306D02*
Y232754D01*
X318000Y222550D02*
Y224057D01*
Y231706D02*
Y231954D01*
X318100Y222550D02*
Y224057D01*
X436200Y223918D02*
Y224414D01*
Y348918D02*
Y349414D01*
X436300Y223225D02*
Y224414D01*
Y348225D02*
Y349414D01*
X436400Y222991D02*
Y224414D01*
Y347991D02*
Y349414D01*
X436500Y222758D02*
Y224414D01*
Y347758D02*
Y349414D01*
X436600Y222525D02*
Y224414D01*
Y347525D02*
Y349414D01*
X436700Y222291D02*
Y224414D01*
Y229255D02*
Y229674D01*
Y347291D02*
Y349414D01*
Y354255D02*
Y354674D01*
X436800Y222058D02*
Y224414D01*
Y228755D02*
Y230174D01*
Y347058D02*
Y349414D01*
Y353755D02*
Y355174D01*
X436900Y221901D02*
Y224414D01*
Y228455D02*
Y230508D01*
Y346901D02*
Y349414D01*
Y353455D02*
Y355508D01*
X437000Y221776D02*
Y224414D01*
Y228255D02*
Y230758D01*
Y346776D02*
Y349414D01*
Y353255D02*
Y355758D01*
X437100Y221651D02*
Y224414D01*
Y228055D02*
Y231008D01*
Y346651D02*
Y349414D01*
Y353055D02*
Y356008D01*
X437200Y221526D02*
Y224414D01*
Y227871D02*
Y231236D01*
Y346526D02*
Y349414D01*
Y352871D02*
Y356236D01*
X437300Y221401D02*
Y224414D01*
Y227771D02*
Y231336D01*
Y346401D02*
Y349414D01*
Y352771D02*
Y356336D01*
X437400Y221276D02*
Y224414D01*
Y227671D02*
Y231436D01*
Y346276D02*
Y349414D01*
Y352671D02*
Y356436D01*
X437500Y221151D02*
Y224414D01*
Y227571D02*
Y231536D01*
Y346151D02*
Y349414D01*
Y352571D02*
Y356536D01*
X437600Y221065D02*
Y224414D01*
Y227471D02*
Y231636D01*
Y346065D02*
Y349414D01*
Y352471D02*
Y356636D01*
X437700Y220998D02*
Y224414D01*
Y227371D02*
Y231736D01*
Y345998D02*
Y349414D01*
Y352371D02*
Y356736D01*
X437800Y220932D02*
Y224414D01*
Y227307D02*
Y231836D01*
Y345932D02*
Y349414D01*
Y352307D02*
Y356836D01*
X437900Y220865D02*
Y223995D01*
Y227247D02*
Y231932D01*
Y345865D02*
Y348995D01*
Y352247D02*
Y356932D01*
X438000Y220798D02*
Y223526D01*
Y227187D02*
Y231992D01*
Y345798D02*
Y348526D01*
Y352187D02*
Y356992D01*
X438100Y220732D02*
Y223276D01*
Y227127D02*
Y232052D01*
Y345732D02*
Y348276D01*
Y352127D02*
Y357052D01*
X438200Y220665D02*
Y223026D01*
Y227067D02*
Y232112D01*
Y345665D02*
Y348026D01*
Y352067D02*
Y357112D01*
X438300Y220598D02*
Y222776D01*
Y227007D02*
Y232172D01*
Y345598D02*
Y347776D01*
Y352007D02*
Y357172D01*
X438400Y220532D02*
Y222601D01*
Y226947D02*
Y229408D01*
Y229878D02*
Y232232D01*
Y345532D02*
Y347601D01*
Y351947D02*
Y354408D01*
Y354878D02*
Y357232D01*
X438500Y220465D02*
Y222501D01*
Y226887D02*
Y229008D01*
Y230278D02*
Y232292D01*
Y345465D02*
Y347501D01*
Y351887D02*
Y354008D01*
Y355278D02*
Y357292D01*
X438600Y220402D02*
Y222401D01*
Y226827D02*
Y228829D01*
Y230479D02*
Y232352D01*
Y345402D02*
Y347401D01*
Y351827D02*
Y353829D01*
Y355479D02*
Y357352D01*
X438700Y220377D02*
Y222301D01*
Y226767D02*
Y228729D01*
Y230612D02*
Y232412D01*
Y345377D02*
Y347301D01*
Y351767D02*
Y353729D01*
Y355612D02*
Y357412D01*
X438800Y220352D02*
Y222201D01*
Y226707D02*
Y228629D01*
Y230745D02*
Y232464D01*
Y345352D02*
Y347201D01*
Y351707D02*
Y353629D01*
Y355745D02*
Y357464D01*
X438900Y220327D02*
Y222102D01*
Y226647D02*
Y228517D01*
Y230879D02*
Y232497D01*
Y345327D02*
Y347102D01*
Y351647D02*
Y353517D01*
Y355879D02*
Y357497D01*
X439000Y220302D02*
Y222027D01*
Y226587D02*
Y228317D01*
Y231012D02*
Y232531D01*
Y345302D02*
Y347027D01*
Y351587D02*
Y353317D01*
Y356012D02*
Y357531D01*
X439100Y220277D02*
Y221952D01*
Y226527D02*
Y228164D01*
Y231122D02*
Y232564D01*
Y345277D02*
Y346952D01*
Y351527D02*
Y353164D01*
Y356122D02*
Y357564D01*
X439200Y220252D02*
Y221877D01*
Y226467D02*
Y228131D01*
Y231162D02*
Y232597D01*
Y345252D02*
Y346877D01*
Y351467D02*
Y353131D01*
Y356162D02*
Y357597D01*
X439300Y220227D02*
Y221802D01*
Y226407D02*
Y228097D01*
Y231202D02*
Y232631D01*
Y345227D02*
Y346802D01*
Y351407D02*
Y353097D01*
Y356202D02*
Y357631D01*
X439400Y220202D02*
Y221727D01*
Y226347D02*
Y228064D01*
Y231242D02*
Y232664D01*
Y345202D02*
Y346727D01*
Y351347D02*
Y353064D01*
Y356242D02*
Y357664D01*
X439500Y220177D02*
Y221652D01*
Y226293D02*
Y228031D01*
Y231282D02*
Y232697D01*
Y345177D02*
Y346652D01*
Y351293D02*
Y353031D01*
Y356282D02*
Y357697D01*
X439600Y220152D02*
Y221577D01*
Y226268D02*
Y227997D01*
Y231322D02*
Y232731D01*
Y345152D02*
Y346577D01*
Y351268D02*
Y352997D01*
Y356322D02*
Y357731D01*
X439700Y220127D02*
Y221530D01*
Y226243D02*
Y227970D01*
Y231362D02*
Y232764D01*
Y345127D02*
Y346530D01*
Y351243D02*
Y352970D01*
Y356362D02*
Y357764D01*
X439800Y220102D02*
Y221490D01*
Y226218D02*
Y227945D01*
Y231402D02*
Y232797D01*
Y345102D02*
Y346490D01*
Y351218D02*
Y352945D01*
Y356402D02*
Y357797D01*
X439900Y220077D02*
Y221450D01*
Y226193D02*
Y227920D01*
Y231442D02*
Y232818D01*
Y345077D02*
Y346450D01*
Y351193D02*
Y352920D01*
Y356442D02*
Y357818D01*
X440000Y220052D02*
Y221410D01*
Y226168D02*
Y227895D01*
Y231479D02*
Y232832D01*
Y345052D02*
Y346410D01*
Y351168D02*
Y352895D01*
Y356479D02*
Y357832D01*
X440100Y220039D02*
Y221370D01*
Y226143D02*
Y227870D01*
Y231493D02*
Y232846D01*
Y345039D02*
Y346370D01*
Y351143D02*
Y352870D01*
Y356493D02*
Y357846D01*
X440200Y220028D02*
Y221330D01*
Y226118D02*
Y227845D01*
Y231508D02*
Y232861D01*
Y345028D02*
Y346330D01*
Y351118D02*
Y352845D01*
Y356508D02*
Y357861D01*
X440300Y220017D02*
Y221290D01*
Y226093D02*
Y227820D01*
Y231522D02*
Y232875D01*
Y345017D02*
Y346290D01*
Y351093D02*
Y352820D01*
Y356522D02*
Y357875D01*
X440400Y220006D02*
Y221250D01*
Y226068D02*
Y227786D01*
Y231536D02*
Y232889D01*
Y345006D02*
Y346250D01*
Y351068D02*
Y352786D01*
Y356536D02*
Y357889D01*
X440500Y219995D02*
Y221210D01*
Y226043D02*
Y227746D01*
Y231551D02*
Y232904D01*
Y344995D02*
Y346210D01*
Y351043D02*
Y352746D01*
Y356551D02*
Y357904D01*
X440600Y219984D02*
Y221200D01*
Y226018D02*
Y227706D01*
Y231565D02*
Y232918D01*
Y344984D02*
Y346200D01*
Y351018D02*
Y352706D01*
Y356565D02*
Y357918D01*
X440700Y219973D02*
Y221200D01*
Y225993D02*
Y227666D01*
Y231579D02*
Y232932D01*
Y344973D02*
Y346200D01*
Y350993D02*
Y352666D01*
Y356579D02*
Y357932D01*
X440800Y219961D02*
Y221200D01*
Y225968D02*
Y227626D01*
Y231593D02*
Y232946D01*
Y344961D02*
Y346200D01*
Y350968D02*
Y352626D01*
Y356593D02*
Y357946D01*
X440900Y219950D02*
Y221200D01*
Y225943D02*
Y227586D01*
Y231608D02*
Y232961D01*
Y344950D02*
Y346200D01*
Y350943D02*
Y352586D01*
Y356608D02*
Y357961D01*
X441000Y219939D02*
Y221200D01*
Y225918D02*
Y227546D01*
Y231622D02*
Y232975D01*
Y344939D02*
Y346200D01*
Y350918D02*
Y352546D01*
Y356622D02*
Y357975D01*
X441100Y219928D02*
Y221200D01*
Y225893D02*
Y227506D01*
Y231636D02*
Y232982D01*
Y344928D02*
Y346200D01*
Y350893D02*
Y352506D01*
Y356636D02*
Y357982D01*
X441200Y219917D02*
Y221200D01*
Y225868D02*
Y227466D01*
Y231651D02*
Y232969D01*
Y344917D02*
Y346200D01*
Y350868D02*
Y352466D01*
Y356651D02*
Y357969D01*
X441300Y219906D02*
Y221200D01*
Y225843D02*
Y227438D01*
Y231649D02*
Y232957D01*
Y344906D02*
Y346200D01*
Y350843D02*
Y352438D01*
Y356649D02*
Y357957D01*
X441400Y219895D02*
Y221200D01*
Y225818D02*
Y227415D01*
Y231633D02*
Y232944D01*
Y344895D02*
Y346200D01*
Y350818D02*
Y352415D01*
Y356633D02*
Y357944D01*
X441500Y219884D02*
Y221215D01*
Y225793D02*
Y227393D01*
Y231616D02*
Y232932D01*
Y344884D02*
Y346215D01*
Y350793D02*
Y352393D01*
Y356616D02*
Y357932D01*
X441600Y219873D02*
Y221237D01*
Y225768D02*
Y227371D01*
Y231599D02*
Y232919D01*
Y344873D02*
Y346237D01*
Y350768D02*
Y352371D01*
Y356599D02*
Y357919D01*
X441700Y219885D02*
Y221259D01*
Y225743D02*
Y227349D01*
Y231583D02*
Y232907D01*
Y344885D02*
Y346259D01*
Y350743D02*
Y352349D01*
Y356583D02*
Y357907D01*
X441800Y219899D02*
Y221281D01*
Y225718D02*
Y227327D01*
Y231566D02*
Y232894D01*
Y344899D02*
Y346281D01*
Y350718D02*
Y352327D01*
Y356566D02*
Y357894D01*
X441900Y219914D02*
Y221304D01*
Y225693D02*
Y227304D01*
Y231549D02*
Y232882D01*
Y344914D02*
Y346304D01*
Y350693D02*
Y352304D01*
Y356549D02*
Y357882D01*
X442000Y219928D02*
Y221326D01*
Y225668D02*
Y227282D01*
Y231533D02*
Y232869D01*
Y344928D02*
Y346326D01*
Y350668D02*
Y352282D01*
Y356533D02*
Y357869D01*
X442100Y219942D02*
Y221348D01*
Y225643D02*
Y227260D01*
Y231516D02*
Y232857D01*
Y344942D02*
Y346348D01*
Y350643D02*
Y352260D01*
Y356516D02*
Y357857D01*
X442200Y219957D02*
Y221370D01*
Y225618D02*
Y227238D01*
Y231500D02*
Y232844D01*
Y344957D02*
Y346370D01*
Y350618D02*
Y352238D01*
Y356500D02*
Y357844D01*
X442300Y219971D02*
Y221392D01*
Y225593D02*
Y227215D01*
Y231483D02*
Y232832D01*
Y344971D02*
Y346392D01*
Y350593D02*
Y352215D01*
Y356483D02*
Y357832D01*
X442400Y219985D02*
Y221415D01*
Y225568D02*
Y227193D01*
Y231451D02*
Y232819D01*
Y344985D02*
Y346415D01*
Y350568D02*
Y352193D01*
Y356451D02*
Y357819D01*
X442500Y219999D02*
Y221437D01*
Y225543D02*
Y227171D01*
Y231411D02*
Y232804D01*
Y344999D02*
Y346437D01*
Y350543D02*
Y352171D01*
Y356411D02*
Y357804D01*
X442600Y220014D02*
Y221459D01*
Y225518D02*
Y227149D01*
Y231371D02*
Y232771D01*
Y345014D02*
Y346459D01*
Y350518D02*
Y352149D01*
Y356371D02*
Y357771D01*
X442700Y220028D02*
Y221481D01*
Y225493D02*
Y227127D01*
Y231331D02*
Y232738D01*
Y345028D02*
Y346481D01*
Y350493D02*
Y352127D01*
Y356331D02*
Y357738D01*
X442800Y220042D02*
Y221504D01*
Y225468D02*
Y227104D01*
Y231291D02*
Y232704D01*
Y345042D02*
Y346504D01*
Y350468D02*
Y352104D01*
Y356291D02*
Y357704D01*
X442900Y220067D02*
Y221526D01*
Y225443D02*
Y227076D01*
Y231251D02*
Y232671D01*
Y345067D02*
Y346526D01*
Y350443D02*
Y352076D01*
Y356251D02*
Y357671D01*
X443000Y220100D02*
Y221548D01*
Y225418D02*
Y227043D01*
Y231211D02*
Y232638D01*
Y345100D02*
Y346548D01*
Y350418D02*
Y352043D01*
Y356211D02*
Y357638D01*
X443100Y220134D02*
Y221583D01*
Y225381D02*
Y227009D01*
Y231171D02*
Y232604D01*
Y345134D02*
Y346583D01*
Y350381D02*
Y352009D01*
Y356171D02*
Y357604D01*
X443200Y220167D02*
Y221633D01*
Y225331D02*
Y226976D01*
Y231131D02*
Y232571D01*
Y345167D02*
Y346633D01*
Y350331D02*
Y351976D01*
Y356131D02*
Y357571D01*
X443300Y220200D02*
Y221683D01*
Y225281D02*
Y226943D01*
Y231056D02*
Y232538D01*
Y345200D02*
Y346683D01*
Y350281D02*
Y351943D01*
Y356056D02*
Y357538D01*
X443400Y220234D02*
Y221733D01*
Y225231D02*
Y226909D01*
Y230956D02*
Y232504D01*
Y345234D02*
Y346733D01*
Y350231D02*
Y351909D01*
Y355956D02*
Y357504D01*
X443500Y220267D02*
Y221783D01*
Y225181D02*
Y226876D01*
Y230856D02*
Y232471D01*
Y345267D02*
Y346783D01*
Y350181D02*
Y351876D01*
Y355856D02*
Y357471D01*
X443600Y220300D02*
Y221833D01*
Y225131D02*
Y226843D01*
Y230756D02*
Y232430D01*
Y345300D02*
Y346833D01*
Y350131D02*
Y351843D01*
Y355756D02*
Y357430D01*
X443700Y220334D02*
Y221883D01*
Y225081D02*
Y226809D01*
Y230656D02*
Y232380D01*
Y345334D02*
Y346883D01*
Y350081D02*
Y351809D01*
Y355656D02*
Y357380D01*
X443800Y220367D02*
Y221944D01*
Y225015D02*
Y226776D01*
Y230556D02*
Y232330D01*
Y345367D02*
Y346944D01*
Y350015D02*
Y351776D01*
Y355556D02*
Y357330D01*
X443900Y220400D02*
Y222044D01*
Y224865D02*
Y226743D01*
Y230456D02*
Y232280D01*
Y345400D02*
Y347044D01*
Y349865D02*
Y351743D01*
Y355456D02*
Y357280D01*
X444000Y220449D02*
Y222144D01*
Y224715D02*
Y226694D01*
Y230233D02*
Y232230D01*
Y345449D02*
Y347144D01*
Y349715D02*
Y351694D01*
Y355233D02*
Y357230D01*
X444100Y220499D02*
Y222244D01*
Y224565D02*
Y226644D01*
Y229633D02*
Y232180D01*
Y345499D02*
Y347244D01*
Y349565D02*
Y351644D01*
Y354633D02*
Y357180D01*
X444200Y220549D02*
Y222395D01*
Y224367D02*
Y226594D01*
Y229336D02*
Y232130D01*
Y345549D02*
Y347395D01*
Y349367D02*
Y351594D01*
Y354336D02*
Y357130D01*
X444300Y220599D02*
Y222595D01*
Y224117D02*
Y226544D01*
Y229336D02*
Y232080D01*
Y345599D02*
Y347595D01*
Y349117D02*
Y351544D01*
Y354336D02*
Y357080D01*
X444400Y220649D02*
Y222795D01*
Y223867D02*
Y226494D01*
Y229336D02*
Y232030D01*
Y345649D02*
Y347795D01*
Y348867D02*
Y351494D01*
Y354336D02*
Y357030D01*
X444500Y220699D02*
Y222995D01*
Y223617D02*
Y226444D01*
Y229336D02*
Y231980D01*
Y345699D02*
Y347995D01*
Y348617D02*
Y351444D01*
Y354336D02*
Y356980D01*
X444600Y220749D02*
Y226394D01*
Y229336D02*
Y231930D01*
Y345749D02*
Y351394D01*
Y354336D02*
Y356930D01*
X444700Y220799D02*
Y226344D01*
Y229336D02*
Y231836D01*
Y345799D02*
Y351344D01*
Y354336D02*
Y356836D01*
X444800Y220849D02*
Y226294D01*
Y229336D02*
Y231736D01*
Y345849D02*
Y351294D01*
Y354336D02*
Y356736D01*
X444900Y220899D02*
Y226244D01*
Y229336D02*
Y231636D01*
Y345899D02*
Y351244D01*
Y354336D02*
Y356636D01*
X445000Y220973D02*
Y226179D01*
Y229336D02*
Y231536D01*
Y345973D02*
Y351179D01*
Y354336D02*
Y356536D01*
X445100Y221098D02*
Y226079D01*
Y229336D02*
Y231436D01*
Y346098D02*
Y351079D01*
Y354336D02*
Y356436D01*
X445200Y221223D02*
Y225979D01*
Y229336D02*
Y231336D01*
Y346223D02*
Y350979D01*
Y354336D02*
Y356336D01*
X445300Y221348D02*
Y225879D01*
Y229336D02*
Y231236D01*
Y346348D02*
Y350879D01*
Y354336D02*
Y356236D01*
X445400Y221473D02*
Y225779D01*
Y229336D02*
Y231008D01*
Y346473D02*
Y350779D01*
Y354336D02*
Y356008D01*
X445500Y221598D02*
Y225679D01*
Y229336D02*
Y230758D01*
Y346598D02*
Y350679D01*
Y354336D02*
Y355758D01*
X445600Y221723D02*
Y225579D01*
Y229336D02*
Y230508D01*
Y346723D02*
Y350579D01*
Y354336D02*
Y355508D01*
X445700Y221885D02*
Y225437D01*
Y229336D02*
Y230139D01*
Y346885D02*
Y350437D01*
Y354336D02*
Y355139D01*
X445800Y222135D02*
Y225187D01*
Y229336D02*
Y229539D01*
Y347135D02*
Y350187D01*
Y354336D02*
Y354539D01*
X445900Y222385D02*
Y224937D01*
Y347385D02*
Y349937D01*
X446000Y222635D02*
Y224687D01*
Y347635D02*
Y349687D01*
X446100Y223076D02*
Y224167D01*
Y348076D02*
Y349167D01*
X447400Y232755D02*
Y232807D01*
Y357755D02*
Y357807D01*
X447500Y232376D02*
Y232807D01*
Y357376D02*
Y357807D01*
X447600Y231997D02*
Y232807D01*
Y356997D02*
Y357807D01*
X447700Y231619D02*
Y232807D01*
Y356619D02*
Y357807D01*
X447800Y231240D02*
Y232807D01*
Y356240D02*
Y357807D01*
X447900Y230861D02*
Y232807D01*
Y355861D02*
Y357807D01*
X448000Y230482D02*
Y232807D01*
Y355482D02*
Y357807D01*
X448100Y230103D02*
Y232807D01*
Y355103D02*
Y357807D01*
X448200Y229724D02*
Y232807D01*
Y354724D02*
Y357807D01*
X448300Y229345D02*
Y232807D01*
Y354345D02*
Y357807D01*
X448400Y228966D02*
Y232807D01*
Y353966D02*
Y357807D01*
X448500Y228587D02*
Y232807D01*
Y353587D02*
Y357807D01*
X448600Y228208D02*
Y232807D01*
Y353208D02*
Y357807D01*
X448700Y227829D02*
Y232807D01*
Y352829D02*
Y357807D01*
X448800Y227450D02*
Y232807D01*
Y352450D02*
Y357807D01*
X448900Y227071D02*
Y232807D01*
Y352071D02*
Y357807D01*
X449000Y226692D02*
Y232807D01*
Y351692D02*
Y357807D01*
X449100Y226313D02*
Y232668D01*
Y351313D02*
Y357668D01*
X449200Y225934D02*
Y232241D01*
Y350934D02*
Y357241D01*
X449300Y225555D02*
Y231814D01*
Y350555D02*
Y356814D01*
X449400Y225176D02*
Y231386D01*
Y350176D02*
Y356386D01*
X449500Y224797D02*
Y230959D01*
Y349797D02*
Y355959D01*
X449600Y224419D02*
Y230532D01*
Y349419D02*
Y355532D01*
X449700Y224040D02*
Y230105D01*
Y349040D02*
Y355105D01*
X449800Y223661D02*
Y229677D01*
Y348661D02*
Y354677D01*
X449900Y223282D02*
Y229250D01*
Y348282D02*
Y354250D01*
X450000Y222903D02*
Y228823D01*
Y347903D02*
Y353823D01*
X450100Y222524D02*
Y228396D01*
Y347524D02*
Y353396D01*
X450200Y222145D02*
Y227968D01*
Y347145D02*
Y352968D01*
X450300Y221766D02*
Y227541D01*
Y346766D02*
Y352541D01*
X450400Y221387D02*
Y227114D01*
Y346387D02*
Y352114D01*
X450500Y221008D02*
Y226686D01*
Y346008D02*
Y351686D01*
X450600Y220629D02*
Y226259D01*
Y345629D02*
Y351259D01*
X450700Y220250D02*
Y225832D01*
Y345250D02*
Y350832D01*
X450800Y220050D02*
Y225405D01*
Y345050D02*
Y350405D01*
X450900Y220050D02*
Y224977D01*
Y345050D02*
Y349977D01*
X451000Y220050D02*
Y224550D01*
Y345050D02*
Y349550D01*
X451100Y220050D02*
Y224163D01*
Y345050D02*
Y349163D01*
X451200Y220050D02*
Y223788D01*
Y345050D02*
Y348788D01*
X451300Y220050D02*
Y223413D01*
Y345050D02*
Y348413D01*
X451400Y220050D02*
Y223038D01*
Y345050D02*
Y348038D01*
X451500Y220050D02*
Y222663D01*
Y345050D02*
Y347663D01*
X451600Y220050D02*
Y222288D01*
Y345050D02*
Y347288D01*
X451700Y220050D02*
Y221913D01*
Y345050D02*
Y346913D01*
X451800Y220050D02*
Y221738D01*
Y345050D02*
Y346738D01*
X451900Y220050D02*
Y222102D01*
Y345050D02*
Y347102D01*
X452000Y220050D02*
Y222602D01*
Y345050D02*
Y347602D01*
X452100Y220050D02*
Y223015D01*
Y345050D02*
Y348015D01*
X452200Y220050D02*
Y223395D01*
Y345050D02*
Y348395D01*
X452300Y220050D02*
Y223595D01*
Y345050D02*
Y348595D01*
X452400Y220050D02*
Y224193D01*
Y345050D02*
Y349193D01*
X452500Y220050D02*
Y224520D01*
Y345050D02*
Y349520D01*
X452600Y220050D02*
Y224846D01*
Y345050D02*
Y349846D01*
X452700Y220248D02*
Y225173D01*
Y345248D02*
Y350173D01*
X452800Y220586D02*
Y225500D01*
Y345586D02*
Y350500D01*
X452900Y220923D02*
Y225826D01*
Y345923D02*
Y350826D01*
X453000Y221261D02*
Y226153D01*
Y346261D02*
Y351153D01*
X453100Y221598D02*
Y226480D01*
Y346598D02*
Y351480D01*
X453200Y221936D02*
Y226806D01*
Y346936D02*
Y351806D01*
X453300Y222273D02*
Y227133D01*
Y347273D02*
Y352133D01*
X453400Y222611D02*
Y227460D01*
Y347611D02*
Y352460D01*
X453500Y222948D02*
Y227786D01*
Y347948D02*
Y352786D01*
X453600Y223286D02*
Y228113D01*
Y348286D02*
Y353113D01*
X453700Y223623D02*
Y228440D01*
Y348623D02*
Y353440D01*
X453800Y223961D02*
Y228766D01*
Y348961D02*
Y353766D01*
X453900Y224298D02*
Y229093D01*
Y349298D02*
Y354093D01*
X454000Y224636D02*
Y229420D01*
Y349636D02*
Y354420D01*
X454100Y224973D02*
Y229746D01*
Y349973D02*
Y354746D01*
X454200Y225311D02*
Y230073D01*
Y350311D02*
Y355073D01*
X454300Y225648D02*
Y230400D01*
Y350648D02*
Y355400D01*
X454400Y225986D02*
Y230726D01*
Y350986D02*
Y355726D01*
X454500Y226323D02*
Y231053D01*
Y351323D02*
Y356053D01*
X454600Y226661D02*
Y231380D01*
Y351661D02*
Y356380D01*
X454700Y226998D02*
Y231706D01*
Y351998D02*
Y356706D01*
X454800Y227336D02*
Y232033D01*
Y352336D02*
Y357033D01*
X454900Y227673D02*
Y232360D01*
Y352673D02*
Y357360D01*
X455000Y228011D02*
Y232686D01*
Y353011D02*
Y357686D01*
X455100Y228348D02*
Y232807D01*
Y353348D02*
Y357807D01*
X455200Y228686D02*
Y232807D01*
Y353686D02*
Y357807D01*
X455300Y229023D02*
Y232807D01*
Y354023D02*
Y357807D01*
X455400Y229361D02*
Y232807D01*
Y354361D02*
Y357807D01*
X455500Y229706D02*
Y232807D01*
Y354706D02*
Y357807D01*
X455600Y230106D02*
Y232807D01*
Y355106D02*
Y357807D01*
X455700Y230456D02*
Y232807D01*
Y355456D02*
Y357807D01*
X455800Y230706D02*
Y232807D01*
Y355706D02*
Y357807D01*
X455900Y230956D02*
Y232807D01*
Y355956D02*
Y357807D01*
X456000Y231206D02*
Y232807D01*
Y356206D02*
Y357807D01*
X456100Y231291D02*
Y232807D01*
Y356291D02*
Y357807D01*
X456200Y230665D02*
Y232807D01*
Y355665D02*
Y357807D01*
X456300Y230365D02*
Y232807D01*
Y355365D02*
Y357807D01*
X456400Y230065D02*
Y232807D01*
Y355065D02*
Y357807D01*
X456500Y229760D02*
Y232807D01*
Y354760D02*
Y357807D01*
X456600Y229436D02*
Y232807D01*
Y354436D02*
Y357807D01*
X456700Y229113D02*
Y232807D01*
Y354113D02*
Y357807D01*
X456800Y228789D02*
Y232807D01*
Y353789D02*
Y357807D01*
X456900Y228466D02*
Y232807D01*
Y353466D02*
Y357807D01*
X457000Y228142D02*
Y232569D01*
Y353142D02*
Y357569D01*
X457100Y227818D02*
Y232242D01*
Y352818D02*
Y357242D01*
X457200Y227495D02*
Y231915D01*
Y352495D02*
Y356915D01*
X457300Y227171D02*
Y231587D01*
Y352171D02*
Y356587D01*
X457400Y226848D02*
Y231260D01*
Y351848D02*
Y356260D01*
X457500Y226524D02*
Y230933D01*
Y351524D02*
Y355933D01*
X457600Y226201D02*
Y230606D01*
Y351201D02*
Y355606D01*
X457700Y225877D02*
Y230278D01*
Y350877D02*
Y355278D01*
X457800Y225554D02*
Y229951D01*
Y350554D02*
Y354951D01*
X457900Y225230D02*
Y229624D01*
Y350230D02*
Y354624D01*
X458000Y224907D02*
Y229296D01*
Y349907D02*
Y354296D01*
X458100Y224583D02*
Y228969D01*
Y349583D02*
Y353969D01*
X458200Y224260D02*
Y228642D01*
Y349260D02*
Y353642D01*
X458300Y223936D02*
Y228315D01*
Y348936D02*
Y353315D01*
X458400Y223613D02*
Y227987D01*
Y348613D02*
Y352987D01*
X458500Y223289D02*
Y227660D01*
Y348289D02*
Y352660D01*
X458600Y222966D02*
Y227333D01*
Y347966D02*
Y352333D01*
X458700Y222642D02*
Y227006D01*
Y347642D02*
Y352006D01*
X458800Y222318D02*
Y226678D01*
Y347318D02*
Y351678D01*
X458900Y221995D02*
Y226351D01*
Y346995D02*
Y351351D01*
X459000Y221671D02*
Y226026D01*
Y346671D02*
Y351026D01*
X459100Y221348D02*
Y225701D01*
Y346348D02*
Y350701D01*
X459200Y221024D02*
Y225376D01*
Y346024D02*
Y350376D01*
X459300Y220701D02*
Y225051D01*
Y345701D02*
Y350051D01*
X459400Y220377D02*
Y224726D01*
Y345377D02*
Y349726D01*
X459500Y220054D02*
Y224401D01*
Y345054D02*
Y349401D01*
X459600Y220050D02*
Y224076D01*
Y345050D02*
Y349076D01*
X459700Y220050D02*
Y223751D01*
Y345050D02*
Y348751D01*
X459800Y220050D02*
Y223426D01*
Y345050D02*
Y348426D01*
X459900Y220050D02*
Y223101D01*
Y345050D02*
Y348101D01*
X460000Y220050D02*
Y222776D01*
Y345050D02*
Y347776D01*
X460100Y220050D02*
Y222451D01*
Y345050D02*
Y347451D01*
X460200Y220050D02*
Y222126D01*
Y345050D02*
Y347126D01*
X460300Y220050D02*
Y221801D01*
Y345050D02*
Y346801D01*
X460400Y220050D02*
Y221760D01*
Y345050D02*
Y346760D01*
X460500Y220050D02*
Y222339D01*
Y345050D02*
Y347339D01*
X460600Y220050D02*
Y222916D01*
Y345050D02*
Y347916D01*
X460700Y220050D02*
Y223366D01*
Y345050D02*
Y348366D01*
X460800Y220050D02*
Y223816D01*
Y345050D02*
Y348816D01*
X460900Y220050D02*
Y224266D01*
Y345050D02*
Y349266D01*
X461000Y220050D02*
Y224703D01*
Y345050D02*
Y349703D01*
X461100Y220050D02*
Y225130D01*
Y345050D02*
Y350130D01*
X461200Y220050D02*
Y225557D01*
Y345050D02*
Y350557D01*
X461300Y220385D02*
Y225984D01*
Y345385D02*
Y350984D01*
X461400Y220764D02*
Y226412D01*
Y345764D02*
Y351412D01*
X461500Y221143D02*
Y226839D01*
Y346143D02*
Y351839D01*
X461600Y221522D02*
Y227266D01*
Y346522D02*
Y352266D01*
X461700Y221901D02*
Y227694D01*
Y346901D02*
Y352694D01*
X461800Y222280D02*
Y228121D01*
Y347280D02*
Y353121D01*
X461900Y222659D02*
Y228548D01*
Y347659D02*
Y353548D01*
X462000Y223038D02*
Y228975D01*
Y348038D02*
Y353975D01*
X462100Y223417D02*
Y229403D01*
Y348417D02*
Y354403D01*
X462200Y223796D02*
Y229830D01*
Y348796D02*
Y354830D01*
X462300Y224175D02*
Y230257D01*
Y349175D02*
Y355257D01*
X462400Y224554D02*
Y230684D01*
Y349554D02*
Y355684D01*
X462500Y224933D02*
Y231112D01*
Y349933D02*
Y356112D01*
X462600Y225312D02*
Y231539D01*
Y350312D02*
Y356539D01*
X462700Y225691D02*
Y231966D01*
Y350691D02*
Y356966D01*
X462800Y226070D02*
Y232394D01*
Y351070D02*
Y357394D01*
X462900Y226449D02*
Y232807D01*
Y351449D02*
Y357807D01*
X463000Y226828D02*
Y232807D01*
Y351828D02*
Y357807D01*
X463100Y227206D02*
Y232807D01*
Y352206D02*
Y357807D01*
X463200Y227585D02*
Y232807D01*
Y352585D02*
Y357807D01*
X463300Y227964D02*
Y232807D01*
Y352964D02*
Y357807D01*
X463400Y228343D02*
Y232807D01*
Y353343D02*
Y357807D01*
X463500Y228722D02*
Y232807D01*
Y353722D02*
Y357807D01*
X463600Y229101D02*
Y232807D01*
Y354101D02*
Y357807D01*
X463700Y229480D02*
Y232807D01*
Y354480D02*
Y357807D01*
X463800Y229859D02*
Y232807D01*
Y354859D02*
Y357807D01*
X463900Y230238D02*
Y232807D01*
Y355238D02*
Y357807D01*
X464000Y230617D02*
Y232807D01*
Y355617D02*
Y357807D01*
X464100Y230996D02*
Y232807D01*
Y355996D02*
Y357807D01*
X464200Y231375D02*
Y232807D01*
Y356375D02*
Y357807D01*
X464300Y231754D02*
Y232807D01*
Y356754D02*
Y357807D01*
X464400Y232133D02*
Y232807D01*
Y357133D02*
Y357807D01*
X464500Y232512D02*
Y232807D01*
Y357512D02*
Y357807D01*
X465100Y223086D02*
Y224692D01*
X465200Y223086D02*
Y224825D01*
X465300Y223086D02*
Y224957D01*
X465400Y223086D02*
Y225089D01*
X465500Y223086D02*
Y225222D01*
X465600Y223086D02*
Y225354D01*
X465700Y223086D02*
Y225486D01*
X465800Y223086D02*
Y225619D01*
Y348256D02*
Y348352D01*
X465900Y223086D02*
Y225751D01*
Y347856D02*
Y348363D01*
X466000Y223086D02*
Y225883D01*
Y347456D02*
Y348374D01*
Y354503D02*
Y354608D01*
X466100Y223086D02*
Y226016D01*
Y347056D02*
Y348385D01*
Y354492D02*
Y354874D01*
X466200Y223086D02*
Y226148D01*
Y346870D02*
Y348397D01*
Y354480D02*
Y355141D01*
X466300Y223086D02*
Y226281D01*
Y346730D02*
Y348408D01*
Y354469D02*
Y355408D01*
X466400Y223086D02*
Y226413D01*
Y346590D02*
Y348419D01*
Y354458D02*
Y355674D01*
X466500Y223086D02*
Y226545D01*
Y346450D02*
Y348430D01*
Y354447D02*
Y355910D01*
X466600Y223086D02*
Y226678D01*
Y346310D02*
Y348441D01*
Y354436D02*
Y356060D01*
X466700Y223086D02*
Y226810D01*
Y346170D02*
Y348452D01*
Y354425D02*
Y356210D01*
X466800Y223086D02*
Y226942D01*
Y346030D02*
Y348463D01*
Y354414D02*
Y356360D01*
X466900Y223086D02*
Y227075D01*
Y345890D02*
Y348474D01*
Y354403D02*
Y356510D01*
X467000Y223086D02*
Y224593D01*
Y224774D02*
Y227207D01*
Y345751D02*
Y348485D01*
Y354392D02*
Y356660D01*
X467100Y223086D02*
Y224593D01*
Y224907D02*
Y227339D01*
Y345694D02*
Y348497D01*
Y354380D02*
Y356810D01*
X467200Y223086D02*
Y224593D01*
Y225040D02*
Y227472D01*
Y345637D02*
Y348508D01*
Y354369D02*
Y356942D01*
X467300Y223086D02*
Y224593D01*
Y225174D02*
Y227604D01*
Y345580D02*
Y348478D01*
Y354358D02*
Y357009D01*
X467400Y223086D02*
Y224593D01*
Y225307D02*
Y227736D01*
Y345523D02*
Y348178D01*
Y354347D02*
Y357076D01*
X467500Y223086D02*
Y224593D01*
Y225440D02*
Y227869D01*
Y345466D02*
Y347878D01*
Y354420D02*
Y357142D01*
X467600Y223086D02*
Y224593D01*
Y225574D02*
Y228001D01*
Y345409D02*
Y347578D01*
Y354670D02*
Y357209D01*
X467700Y223086D02*
Y224593D01*
Y225707D02*
Y228133D01*
Y345351D02*
Y347388D01*
Y354920D02*
Y357276D01*
X467800Y223086D02*
Y224593D01*
Y225840D02*
Y228266D01*
Y345294D02*
Y347255D01*
Y355170D02*
Y357342D01*
X467900Y223086D02*
Y224593D01*
Y225974D02*
Y228398D01*
Y345237D02*
Y347121D01*
Y355376D02*
Y357409D01*
X468000Y223086D02*
Y224593D01*
Y226107D02*
Y228531D01*
Y345180D02*
Y346988D01*
Y355576D02*
Y357476D01*
X468100Y223086D02*
Y224593D01*
Y226240D02*
Y228663D01*
Y345123D02*
Y346855D01*
Y355776D02*
Y357542D01*
X468200Y223086D02*
Y224593D01*
Y226374D02*
Y228795D01*
Y345066D02*
Y346737D01*
Y355942D02*
Y357609D01*
X468300Y223086D02*
Y224593D01*
Y226507D02*
Y228928D01*
Y345040D02*
Y346687D01*
Y355992D02*
Y357639D01*
X468400Y223086D02*
Y224593D01*
Y226640D02*
Y229060D01*
Y345027D02*
Y346637D01*
Y356042D02*
Y357651D01*
X468500Y223086D02*
Y224593D01*
Y226774D02*
Y229192D01*
Y345015D02*
Y346587D01*
Y356092D02*
Y357664D01*
X468600Y223086D02*
Y224593D01*
Y226907D02*
Y229325D01*
Y345002D02*
Y346537D01*
Y356142D02*
Y357676D01*
X468700Y223086D02*
Y224593D01*
Y227040D02*
Y229457D01*
Y344990D02*
Y346487D01*
Y356192D02*
Y357689D01*
X468800Y223086D02*
Y224593D01*
Y227174D02*
Y229589D01*
Y344977D02*
Y346437D01*
Y356242D02*
Y357701D01*
X468900Y223086D02*
Y224593D01*
Y227307D02*
Y229722D01*
Y344965D02*
Y346387D01*
Y351147D02*
Y351868D01*
Y356292D02*
Y357714D01*
X469000Y223086D02*
Y224593D01*
Y227440D02*
Y229854D01*
Y344952D02*
Y346363D01*
Y351164D02*
Y352450D01*
Y356319D02*
Y357726D01*
X469100Y223086D02*
Y224593D01*
Y227574D02*
Y229986D01*
Y344940D02*
Y346343D01*
Y351180D02*
Y352450D01*
Y356344D02*
Y357739D01*
X469200Y223086D02*
Y224593D01*
Y227707D02*
Y230119D01*
Y344927D02*
Y346323D01*
Y351197D02*
Y352450D01*
Y356369D02*
Y357751D01*
X469300Y223086D02*
Y224593D01*
Y227840D02*
Y230251D01*
Y344915D02*
Y346303D01*
Y351214D02*
Y352450D01*
Y356394D02*
Y357764D01*
X469400Y223086D02*
Y224593D01*
Y227974D02*
Y230383D01*
Y344902D02*
Y346283D01*
Y351230D02*
Y352450D01*
Y356419D02*
Y357776D01*
X469500Y223086D02*
Y224593D01*
Y228107D02*
Y230516D01*
Y344890D02*
Y346263D01*
Y351247D02*
Y352450D01*
Y356444D02*
Y357789D01*
X469600Y223086D02*
Y224593D01*
Y228240D02*
Y230648D01*
Y344877D02*
Y346243D01*
Y351264D02*
Y352450D01*
Y356469D02*
Y357801D01*
X469700Y223086D02*
Y224593D01*
Y228374D02*
Y230781D01*
Y344884D02*
Y346223D01*
Y351280D02*
Y352450D01*
Y356468D02*
Y357795D01*
X469800Y223086D02*
Y224593D01*
Y228507D02*
Y230913D01*
Y344904D02*
Y346203D01*
Y351297D02*
Y352450D01*
Y356448D02*
Y357775D01*
X469900Y223086D02*
Y224593D01*
Y228640D02*
Y231045D01*
Y344924D02*
Y346212D01*
Y351288D02*
Y352450D01*
Y356428D02*
Y357755D01*
X470000Y223086D02*
Y224593D01*
Y228774D02*
Y231178D01*
Y344944D02*
Y346229D01*
Y351271D02*
Y352450D01*
Y356408D02*
Y357735D01*
X470100Y223086D02*
Y224593D01*
Y228907D02*
Y231310D01*
Y344964D02*
Y346246D01*
Y351254D02*
Y352450D01*
Y356388D02*
Y357715D01*
X470200Y223086D02*
Y224593D01*
Y229040D02*
Y231442D01*
Y344984D02*
Y346262D01*
Y351238D02*
Y352455D01*
Y356368D02*
Y357695D01*
X470300Y223086D02*
Y224593D01*
Y229174D02*
Y231575D01*
Y345004D02*
Y346279D01*
Y351221D02*
Y352529D01*
Y356348D02*
Y357675D01*
X470400Y223086D02*
Y224593D01*
Y229307D02*
Y231707D01*
Y345024D02*
Y346296D01*
Y351204D02*
Y352604D01*
Y356328D02*
Y357655D01*
X470500Y223086D02*
Y224593D01*
Y229440D02*
Y231839D01*
Y345044D02*
Y346312D01*
Y351188D02*
Y352679D01*
Y356308D02*
Y357635D01*
X470600Y223086D02*
Y224593D01*
Y229574D02*
Y231972D01*
Y345064D02*
Y346329D01*
Y351171D02*
Y352754D01*
Y356267D02*
Y357599D01*
X470700Y223086D02*
Y224593D01*
Y229691D02*
Y232104D01*
Y345084D02*
Y346346D01*
Y351154D02*
Y352829D01*
Y356201D02*
Y357559D01*
X470800Y220050D02*
Y232236D01*
Y345104D02*
Y346362D01*
Y351138D02*
Y352904D01*
Y356134D02*
Y357519D01*
X470900Y220050D02*
Y232369D01*
Y345124D02*
Y346379D01*
Y351121D02*
Y352979D01*
Y356067D02*
Y357479D01*
X471000Y220050D02*
Y232501D01*
Y345144D02*
Y346446D01*
Y351054D02*
Y353072D01*
Y356001D02*
Y357439D01*
X471100Y220050D02*
Y232629D01*
Y345164D02*
Y346521D01*
Y350979D02*
Y353172D01*
Y355934D02*
Y357399D01*
X471200Y220050D02*
Y232629D01*
Y345184D02*
Y346596D01*
Y350904D02*
Y353272D01*
Y355748D02*
Y357359D01*
X471300Y220050D02*
Y232629D01*
Y345204D02*
Y346671D01*
Y350829D02*
Y353372D01*
Y355548D02*
Y357319D01*
X471400Y220050D02*
Y232629D01*
Y345224D02*
Y346746D01*
Y350754D02*
Y351923D01*
Y352005D02*
Y353472D01*
Y355348D02*
Y357279D01*
X471500Y220050D02*
Y232629D01*
Y345277D02*
Y346821D01*
Y350679D02*
Y351888D01*
Y352080D02*
Y353674D01*
Y355099D02*
Y357205D01*
X471600Y220050D02*
Y232629D01*
Y345334D02*
Y346896D01*
Y350604D02*
Y351854D01*
Y352155D02*
Y354174D01*
Y354699D02*
Y357130D01*
X471700Y220050D02*
Y232629D01*
Y345391D02*
Y347022D01*
Y350495D02*
Y351821D01*
Y352230D02*
Y357055D01*
X471800Y220050D02*
Y232629D01*
Y345448D02*
Y347189D01*
Y350362D02*
Y351788D01*
Y352305D02*
Y356980D01*
X471900Y220050D02*
Y232629D01*
Y345506D02*
Y347355D01*
Y350229D02*
Y351754D01*
Y352380D02*
Y356905D01*
X472000Y220050D02*
Y232629D01*
Y345563D02*
Y347522D01*
Y350095D02*
Y351721D01*
Y352455D02*
Y356830D01*
X472100Y220050D02*
Y232629D01*
Y345620D02*
Y347689D01*
Y349962D02*
Y351688D01*
Y352530D02*
Y356755D01*
X472200Y220050D02*
Y232629D01*
Y345677D02*
Y347888D01*
Y349783D02*
Y351654D01*
Y352605D02*
Y356680D01*
X472300Y223081D02*
Y224598D01*
Y345734D02*
Y348388D01*
Y349183D02*
Y351621D01*
Y352680D02*
Y356605D01*
X472400Y223086D02*
Y224593D01*
Y345791D02*
Y351588D01*
Y352755D02*
Y356530D01*
X472500Y223086D02*
Y224593D01*
Y345848D02*
Y351536D01*
Y352830D02*
Y356455D01*
X472600Y223086D02*
Y224593D01*
Y345906D02*
Y351436D01*
Y352905D02*
Y356380D01*
X472700Y223086D02*
Y224593D01*
Y346021D02*
Y351336D01*
Y352980D02*
Y356305D01*
X472800Y223086D02*
Y224593D01*
Y346181D02*
Y351236D01*
Y353055D02*
Y356230D01*
X472900Y223086D02*
Y224593D01*
Y346341D02*
Y351136D01*
Y353413D02*
Y355781D01*
X473000Y223086D02*
Y224593D01*
Y346501D02*
Y351036D01*
Y353813D02*
Y355281D01*
X473100Y223086D02*
Y224593D01*
Y346661D02*
Y350936D01*
Y354213D02*
Y354781D01*
X473200Y223086D02*
Y224593D01*
Y346821D02*
Y350819D01*
X473300Y223086D02*
Y224593D01*
Y346981D02*
Y350653D01*
X473400Y223086D02*
Y224593D01*
Y347141D02*
Y350486D01*
X473500Y223086D02*
Y224593D01*
Y347301D02*
Y350319D01*
X473600Y223086D02*
Y224593D01*
Y347642D02*
Y350153D01*
X473700Y223086D02*
Y224593D01*
Y348042D02*
Y349986D01*
X473800Y223086D02*
Y224593D01*
Y348442D02*
Y349296D01*
X600600Y328050D02*
Y340807D01*
X600700Y328050D02*
Y340807D01*
X600800Y328050D02*
Y340807D01*
X600900Y328050D02*
Y340807D01*
X601000Y328050D02*
Y340807D01*
X601100Y328050D02*
Y340807D01*
X601200Y328050D02*
Y340807D01*
X601300Y328050D02*
Y340807D01*
X601400Y328050D02*
Y340807D01*
X601500Y328050D02*
Y340807D01*
X601600Y328050D02*
Y340807D01*
X601700Y328050D02*
Y340807D01*
X601800Y328050D02*
Y340807D01*
X601900Y328050D02*
Y340807D01*
X602000Y328050D02*
Y340807D01*
X602100Y328050D02*
Y340807D01*
X602200Y328050D02*
Y340807D01*
X602300Y328050D02*
Y329379D01*
X602400Y328050D02*
Y329379D01*
X602500Y328050D02*
Y329379D01*
X602600Y328050D02*
Y329379D01*
X602700Y328050D02*
Y329379D01*
X602800Y328050D02*
Y329379D01*
X602900Y328050D02*
Y329379D01*
X603000Y328050D02*
Y329379D01*
X603100Y328050D02*
Y329379D01*
X603200Y328050D02*
Y329379D01*
X603300Y328050D02*
Y329379D01*
X603400Y328050D02*
Y329379D01*
X603500Y328050D02*
Y329379D01*
X603600Y328050D02*
Y329379D01*
X603700Y328050D02*
Y329379D01*
X603800Y328050D02*
Y329379D01*
X603900Y328050D02*
Y329379D01*
X604000Y328050D02*
Y329379D01*
X604100Y328050D02*
Y329379D01*
X604200Y328050D02*
Y329379D01*
X604300Y328050D02*
Y329379D01*
X604400Y328050D02*
Y329379D01*
X604500Y328050D02*
Y329379D01*
X604600Y328050D02*
Y329379D01*
X604700Y328050D02*
Y329379D01*
X604800Y328050D02*
Y329379D01*
X604900Y328050D02*
Y329379D01*
X605000Y328050D02*
Y329379D01*
X605100Y328050D02*
Y329379D01*
X605200Y328050D02*
Y329379D01*
X605300Y328050D02*
Y329379D01*
X605400Y328050D02*
Y329379D01*
X605500Y328050D02*
Y329379D01*
X605600Y328050D02*
Y329379D01*
X605700Y328050D02*
Y329379D01*
X605800Y328050D02*
Y329379D01*
X605900Y328050D02*
Y329379D01*
X606000Y328050D02*
Y329379D01*
X606100Y328050D02*
Y329379D01*
X606200Y328050D02*
Y329379D01*
X606300Y328050D02*
Y329379D01*
X606400Y328050D02*
Y329379D01*
X606500Y328050D02*
Y329379D01*
X606600Y328050D02*
Y329379D01*
X606700Y328050D02*
Y329379D01*
X606800Y328050D02*
Y329379D01*
X606900Y328050D02*
Y329379D01*
X607000Y328050D02*
Y329379D01*
X607100Y328050D02*
Y329379D01*
X607200Y328050D02*
Y329379D01*
X607300Y328050D02*
Y329379D01*
X607400Y328050D02*
Y329379D01*
X607500Y328050D02*
Y329379D01*
X607600Y328050D02*
Y329379D01*
X607700Y328050D02*
Y329379D01*
X607800Y328050D02*
Y329379D01*
X607900Y328050D02*
Y329379D01*
X608000Y328050D02*
Y329379D01*
X608100Y328050D02*
Y329379D01*
X608200Y328050D02*
Y329379D01*
X608300Y328050D02*
Y329379D01*
X608400Y328050D02*
Y329379D01*
X610600Y328050D02*
Y340807D01*
X610700Y328050D02*
Y340807D01*
X610800Y328050D02*
Y340807D01*
X610900Y328050D02*
Y340807D01*
X611000Y328050D02*
Y340807D01*
X611100Y328050D02*
Y340807D01*
X611200Y328050D02*
Y340807D01*
X611300Y328050D02*
Y340807D01*
X611400Y328050D02*
Y340807D01*
X611500Y328050D02*
Y340807D01*
X611600Y328050D02*
Y340807D01*
X611700Y328050D02*
Y340807D01*
X611800Y328050D02*
Y340807D01*
X611900Y328050D02*
Y340807D01*
X612000Y328050D02*
Y340807D01*
X612100Y328050D02*
Y340807D01*
X612200Y328050D02*
Y340807D01*
X612300Y328050D02*
Y329379D01*
Y339479D02*
Y340807D01*
X612400Y328050D02*
Y329379D01*
Y339479D02*
Y340807D01*
X612500Y328050D02*
Y329379D01*
Y339479D02*
Y340807D01*
X612600Y328050D02*
Y329379D01*
Y339479D02*
Y340807D01*
X612700Y328050D02*
Y329379D01*
Y339479D02*
Y340807D01*
X612800Y328050D02*
Y329379D01*
Y339479D02*
Y340807D01*
X612900Y328050D02*
Y329379D01*
Y339479D02*
Y340807D01*
X613000Y328050D02*
Y329379D01*
Y339479D02*
Y340807D01*
X613100Y328050D02*
Y329379D01*
Y339479D02*
Y340807D01*
X613200Y328050D02*
Y329379D01*
Y339479D02*
Y340807D01*
X613300Y328050D02*
Y329379D01*
Y339479D02*
Y340807D01*
X613400Y328050D02*
Y329379D01*
Y339479D02*
Y340807D01*
X613500Y328050D02*
Y329379D01*
Y339479D02*
Y340807D01*
X613600Y328050D02*
Y329379D01*
Y339479D02*
Y340807D01*
X613700Y328050D02*
Y329379D01*
Y339479D02*
Y340807D01*
X613800Y328050D02*
Y329379D01*
Y339479D02*
Y340807D01*
X613900Y328050D02*
Y329379D01*
Y339479D02*
Y340807D01*
X614000Y328050D02*
Y329379D01*
Y339479D02*
Y340807D01*
X614100Y328050D02*
Y329379D01*
Y339479D02*
Y340807D01*
X614200Y328050D02*
Y329379D01*
Y339479D02*
Y340807D01*
X614300Y328050D02*
Y329379D01*
Y339479D02*
Y340807D01*
X614400Y328050D02*
Y329379D01*
Y339479D02*
Y340807D01*
X614500Y328050D02*
Y329379D01*
Y339479D02*
Y340807D01*
X614600Y328050D02*
Y329379D01*
Y339479D02*
Y340807D01*
X614700Y328050D02*
Y329379D01*
Y339479D02*
Y340807D01*
X614800Y328050D02*
Y329379D01*
Y339479D02*
Y340807D01*
X614900Y328050D02*
Y329379D01*
Y339479D02*
Y340807D01*
X615000Y328050D02*
Y329379D01*
Y339479D02*
Y340807D01*
X615100Y328050D02*
Y329379D01*
Y339479D02*
Y340807D01*
X615200Y328055D02*
Y329379D01*
Y339479D02*
Y340807D01*
X615300Y328064D02*
Y329379D01*
Y339479D02*
Y340807D01*
X615400Y328074D02*
Y329379D01*
Y339479D02*
Y340807D01*
X615500Y328083D02*
Y329379D01*
Y339479D02*
Y340807D01*
X615600Y328092D02*
Y329379D01*
Y339479D02*
Y340807D01*
X615700Y328101D02*
Y329379D01*
Y339479D02*
Y340807D01*
X615800Y328110D02*
Y329379D01*
Y339479D02*
Y340807D01*
X615900Y328119D02*
Y329379D01*
Y339479D02*
Y340807D01*
X616000Y328128D02*
Y329379D01*
Y339479D02*
Y340807D01*
X616100Y328137D02*
Y329390D01*
Y339479D02*
Y340807D01*
X616200Y328146D02*
Y329410D01*
Y339479D02*
Y340807D01*
X616300Y328155D02*
Y329430D01*
Y339448D02*
Y340789D01*
X616400Y328164D02*
Y329450D01*
Y339408D02*
Y340769D01*
X616500Y328174D02*
Y329470D01*
Y339368D02*
Y340749D01*
X616600Y328183D02*
Y329490D01*
Y339328D02*
Y340729D01*
X616700Y328192D02*
Y329510D01*
Y339288D02*
Y340709D01*
X616800Y328201D02*
Y329530D01*
Y339248D02*
Y340689D01*
X616900Y328210D02*
Y329550D01*
Y339208D02*
Y340669D01*
X617000Y328219D02*
Y329595D01*
Y339168D02*
Y340649D01*
X617100Y328230D02*
Y329661D01*
Y339128D02*
Y340628D01*
X617200Y328275D02*
Y329728D01*
Y339064D02*
Y340595D01*
X617300Y328319D02*
Y329795D01*
Y338989D02*
Y340562D01*
X617400Y328363D02*
Y329861D01*
Y338914D02*
Y340528D01*
X617500Y328408D02*
Y329928D01*
Y338839D02*
Y340495D01*
X617600Y328452D02*
Y329995D01*
Y338764D02*
Y340462D01*
X617700Y328497D02*
Y330061D01*
Y338689D02*
Y340428D01*
X617800Y328541D02*
Y330128D01*
Y338614D02*
Y340395D01*
X617900Y328586D02*
Y330195D01*
Y338518D02*
Y340362D01*
X618000Y328630D02*
Y330261D01*
Y338393D02*
Y340328D01*
X618100Y328675D02*
Y330371D01*
Y338268D02*
Y340295D01*
X618200Y328719D02*
Y330505D01*
Y338143D02*
Y340250D01*
X618300Y328763D02*
Y330638D01*
Y338018D02*
Y340190D01*
X618400Y328808D02*
Y330771D01*
Y337893D02*
Y340130D01*
X618500Y328852D02*
Y330905D01*
Y337768D02*
Y340070D01*
X618600Y328897D02*
Y331062D01*
Y337620D02*
Y340010D01*
X618700Y328949D02*
Y331312D01*
Y337386D02*
Y339950D01*
X618800Y329049D02*
Y331562D01*
Y337153D02*
Y339890D01*
X618900Y329149D02*
Y331812D01*
Y336920D02*
Y339830D01*
X619000Y329249D02*
Y332122D01*
Y336686D02*
Y339770D01*
X619100Y329349D02*
Y332472D01*
Y336453D02*
Y339673D01*
X619200Y329449D02*
Y332822D01*
Y335531D02*
Y339553D01*
X619300Y329549D02*
Y339433D01*
X619400Y329649D02*
Y339313D01*
X619500Y329749D02*
Y339193D01*
X619600Y329849D02*
Y339073D01*
X619700Y329949D02*
Y338953D01*
X619800Y330085D02*
Y338833D01*
X619900Y330252D02*
Y338713D01*
X620000Y330419D02*
Y338504D01*
X620100Y330585D02*
Y338271D01*
X620200Y330752D02*
Y338037D01*
X620300Y330951D02*
Y337804D01*
X620400Y331251D02*
Y337571D01*
X620500Y331551D02*
Y337258D01*
X620600Y331851D02*
Y336858D01*
X620700Y332186D02*
Y336458D01*
X620800Y332536D02*
Y336058D01*
X620900Y332886D02*
Y335197D01*
X624000Y336145D02*
Y337646D01*
X624100Y336195D02*
Y337704D01*
X624200Y336245D02*
Y337761D01*
X624300Y336295D02*
Y337818D01*
X624400Y336345D02*
Y337875D01*
X624500Y336395D02*
Y337932D01*
X624600Y336445D02*
Y337989D01*
X624700Y336495D02*
Y338046D01*
X624800Y336545D02*
Y338104D01*
X624900Y336595D02*
Y338161D01*
X625000Y336645D02*
Y338218D01*
X625100Y336695D02*
Y338275D01*
X625200Y336745D02*
Y338335D01*
X625300Y336795D02*
Y338402D01*
X625400Y336845D02*
Y338468D01*
X625500Y336895D02*
Y338535D01*
X625600Y336945D02*
Y338602D01*
X625700Y337007D02*
Y338668D01*
X625800Y337082D02*
Y338735D01*
X625900Y337157D02*
Y338802D01*
X626000Y337232D02*
Y338868D01*
X626100Y337307D02*
Y338935D01*
X626200Y337382D02*
Y339002D01*
X626300Y337457D02*
Y339086D01*
X626400Y337532D02*
Y339186D01*
X626500Y337607D02*
Y339286D01*
X626600Y337682D02*
Y339386D01*
X626700Y337757D02*
Y339486D01*
X626800Y337832D02*
Y339586D01*
X626900Y337907D02*
Y339686D01*
X627000Y337982D02*
Y339786D01*
X627100Y338049D02*
Y339886D01*
X627200Y328050D02*
Y340022D01*
X627300Y328050D02*
Y340189D01*
X627400Y328050D02*
Y340355D01*
X627500Y328050D02*
Y340522D01*
X627600Y328050D02*
Y340689D01*
X627700Y328050D02*
Y340807D01*
X627800Y328050D02*
Y340807D01*
X627900Y328050D02*
Y340807D01*
X628000Y328050D02*
Y340807D01*
X628100Y328050D02*
Y340807D01*
X628200Y328050D02*
Y340807D01*
X628300Y328050D02*
Y340807D01*
X628400Y328050D02*
Y340807D01*
X628500Y328050D02*
Y340807D01*
X628600Y328050D02*
Y340807D01*
X754200Y348418D02*
Y348914D01*
X754300Y347725D02*
Y348914D01*
X754400Y347491D02*
Y348914D01*
X754500Y347258D02*
Y348914D01*
X754600Y347025D02*
Y348914D01*
X754700Y346791D02*
Y348914D01*
Y353755D02*
Y354174D01*
X754800Y346558D02*
Y348914D01*
Y353255D02*
Y354674D01*
X754900Y346401D02*
Y348914D01*
Y352955D02*
Y355008D01*
X755000Y346276D02*
Y348914D01*
Y352755D02*
Y355258D01*
X755100Y346151D02*
Y348914D01*
Y352555D02*
Y355508D01*
X755200Y346026D02*
Y348914D01*
Y352371D02*
Y355736D01*
X755300Y345901D02*
Y348914D01*
Y352271D02*
Y355836D01*
X755400Y345776D02*
Y348914D01*
Y352171D02*
Y355936D01*
X755500Y345651D02*
Y348914D01*
Y352071D02*
Y356036D01*
X755600Y345565D02*
Y348914D01*
Y351971D02*
Y356136D01*
X755700Y345498D02*
Y348914D01*
Y351871D02*
Y356236D01*
X755800Y345432D02*
Y348914D01*
Y351807D02*
Y356336D01*
X755900Y345365D02*
Y348495D01*
Y351747D02*
Y356432D01*
X756000Y345298D02*
Y348026D01*
Y351687D02*
Y356492D01*
X756100Y345232D02*
Y347776D01*
Y351627D02*
Y356552D01*
X756200Y223918D02*
Y224414D01*
Y345165D02*
Y347526D01*
Y351567D02*
Y356612D01*
X756300Y223225D02*
Y224414D01*
Y345098D02*
Y347276D01*
Y351507D02*
Y356672D01*
X756400Y222991D02*
Y224414D01*
Y345032D02*
Y347101D01*
Y351447D02*
Y353908D01*
Y354378D02*
Y356732D01*
X756500Y222758D02*
Y224414D01*
Y344965D02*
Y347001D01*
Y351387D02*
Y353508D01*
Y354778D02*
Y356792D01*
X756600Y222525D02*
Y224414D01*
Y344902D02*
Y346901D01*
Y351327D02*
Y353329D01*
Y354979D02*
Y356852D01*
X756700Y222291D02*
Y224414D01*
Y229255D02*
Y229674D01*
Y344877D02*
Y346801D01*
Y351267D02*
Y353229D01*
Y355112D02*
Y356912D01*
X756800Y222058D02*
Y224414D01*
Y228755D02*
Y230174D01*
Y344852D02*
Y346701D01*
Y351207D02*
Y353129D01*
Y355245D02*
Y356964D01*
X756900Y221901D02*
Y224414D01*
Y228455D02*
Y230508D01*
Y344827D02*
Y346602D01*
Y351147D02*
Y353017D01*
Y355379D02*
Y356997D01*
X757000Y221776D02*
Y224414D01*
Y228255D02*
Y230758D01*
Y344802D02*
Y346527D01*
Y351087D02*
Y352817D01*
Y355512D02*
Y357031D01*
X757100Y221651D02*
Y224414D01*
Y228055D02*
Y231008D01*
Y344777D02*
Y346452D01*
Y351027D02*
Y352664D01*
Y355622D02*
Y357064D01*
X757200Y221526D02*
Y224414D01*
Y227871D02*
Y231236D01*
Y344752D02*
Y346377D01*
Y350967D02*
Y352631D01*
Y355662D02*
Y357097D01*
X757300Y221401D02*
Y224414D01*
Y227771D02*
Y231336D01*
Y344727D02*
Y346302D01*
Y350907D02*
Y352597D01*
Y355702D02*
Y357131D01*
X757400Y221276D02*
Y224414D01*
Y227671D02*
Y231436D01*
Y344702D02*
Y346227D01*
Y350847D02*
Y352564D01*
Y355742D02*
Y357164D01*
X757500Y221151D02*
Y224414D01*
Y227571D02*
Y231536D01*
Y344677D02*
Y346152D01*
Y350793D02*
Y352531D01*
Y355782D02*
Y357197D01*
X757600Y221065D02*
Y224414D01*
Y227471D02*
Y231636D01*
Y344652D02*
Y346077D01*
Y350768D02*
Y352497D01*
Y355822D02*
Y357231D01*
X757700Y220998D02*
Y224414D01*
Y227371D02*
Y231736D01*
Y344627D02*
Y346030D01*
Y350743D02*
Y352470D01*
Y355862D02*
Y357264D01*
X757800Y220932D02*
Y224414D01*
Y227307D02*
Y231836D01*
Y344602D02*
Y345990D01*
Y350718D02*
Y352445D01*
Y355902D02*
Y357297D01*
X757900Y220865D02*
Y223995D01*
Y227247D02*
Y231932D01*
Y344577D02*
Y345950D01*
Y350693D02*
Y352420D01*
Y355942D02*
Y357318D01*
X758000Y220798D02*
Y223526D01*
Y227187D02*
Y231992D01*
Y344552D02*
Y345910D01*
Y350668D02*
Y352395D01*
Y355979D02*
Y357332D01*
X758100Y220732D02*
Y223276D01*
Y227127D02*
Y232052D01*
Y344539D02*
Y345870D01*
Y350643D02*
Y352370D01*
Y355993D02*
Y357346D01*
X758200Y220665D02*
Y223026D01*
Y227067D02*
Y232112D01*
Y344528D02*
Y345830D01*
Y350618D02*
Y352345D01*
Y356008D02*
Y357361D01*
X758300Y220598D02*
Y222776D01*
Y227007D02*
Y232172D01*
Y344517D02*
Y345790D01*
Y350593D02*
Y352320D01*
Y356022D02*
Y357375D01*
X758400Y220532D02*
Y222601D01*
Y226947D02*
Y229408D01*
Y229878D02*
Y232232D01*
Y344506D02*
Y345750D01*
Y350568D02*
Y352286D01*
Y356036D02*
Y357389D01*
X758500Y220465D02*
Y222501D01*
Y226887D02*
Y229008D01*
Y230278D02*
Y232292D01*
Y344495D02*
Y345710D01*
Y350543D02*
Y352246D01*
Y356051D02*
Y357404D01*
X758600Y220402D02*
Y222401D01*
Y226827D02*
Y228829D01*
Y230479D02*
Y232352D01*
Y344484D02*
Y345700D01*
Y350518D02*
Y352206D01*
Y356065D02*
Y357418D01*
X758700Y220377D02*
Y222301D01*
Y226767D02*
Y228729D01*
Y230612D02*
Y232412D01*
Y344473D02*
Y345700D01*
Y350493D02*
Y352166D01*
Y356079D02*
Y357432D01*
X758800Y220352D02*
Y222201D01*
Y226707D02*
Y228629D01*
Y230745D02*
Y232464D01*
Y344461D02*
Y345700D01*
Y350468D02*
Y352126D01*
Y356093D02*
Y357446D01*
X758900Y220327D02*
Y222102D01*
Y226647D02*
Y228517D01*
Y230879D02*
Y232497D01*
Y344450D02*
Y345700D01*
Y350443D02*
Y352086D01*
Y356108D02*
Y357461D01*
X759000Y220302D02*
Y222027D01*
Y226587D02*
Y228317D01*
Y231012D02*
Y232531D01*
Y344439D02*
Y345700D01*
Y350418D02*
Y352046D01*
Y356122D02*
Y357475D01*
X759100Y220277D02*
Y221952D01*
Y226527D02*
Y228164D01*
Y231122D02*
Y232564D01*
Y344428D02*
Y345700D01*
Y350393D02*
Y352006D01*
Y356136D02*
Y357482D01*
X759200Y220252D02*
Y221877D01*
Y226467D02*
Y228131D01*
Y231162D02*
Y232597D01*
Y344417D02*
Y345700D01*
Y350368D02*
Y351966D01*
Y356151D02*
Y357469D01*
X759300Y220227D02*
Y221802D01*
Y226407D02*
Y228097D01*
Y231202D02*
Y232631D01*
Y344406D02*
Y345700D01*
Y350343D02*
Y351938D01*
Y356149D02*
Y357457D01*
X759400Y220202D02*
Y221727D01*
Y226347D02*
Y228064D01*
Y231242D02*
Y232664D01*
Y344395D02*
Y345700D01*
Y350318D02*
Y351915D01*
Y356133D02*
Y357444D01*
X759500Y220177D02*
Y221652D01*
Y226293D02*
Y228031D01*
Y231282D02*
Y232697D01*
Y344384D02*
Y345715D01*
Y350293D02*
Y351893D01*
Y356116D02*
Y357432D01*
X759600Y220152D02*
Y221577D01*
Y226268D02*
Y227997D01*
Y231322D02*
Y232731D01*
Y344373D02*
Y345737D01*
Y350268D02*
Y351871D01*
Y356099D02*
Y357419D01*
X759700Y220127D02*
Y221530D01*
Y226243D02*
Y227970D01*
Y231362D02*
Y232764D01*
Y344385D02*
Y345759D01*
Y350243D02*
Y351849D01*
Y356083D02*
Y357407D01*
X759800Y220102D02*
Y221490D01*
Y226218D02*
Y227945D01*
Y231402D02*
Y232797D01*
Y344399D02*
Y345781D01*
Y350218D02*
Y351827D01*
Y356066D02*
Y357394D01*
X759900Y220077D02*
Y221450D01*
Y226193D02*
Y227920D01*
Y231442D02*
Y232818D01*
Y344414D02*
Y345804D01*
Y350193D02*
Y351804D01*
Y356049D02*
Y357382D01*
X760000Y220052D02*
Y221410D01*
Y226168D02*
Y227895D01*
Y231479D02*
Y232832D01*
Y344428D02*
Y345826D01*
Y350168D02*
Y351782D01*
Y356033D02*
Y357369D01*
X760100Y220039D02*
Y221370D01*
Y226143D02*
Y227870D01*
Y231493D02*
Y232846D01*
Y344442D02*
Y345848D01*
Y350143D02*
Y351760D01*
Y356016D02*
Y357357D01*
X760200Y220028D02*
Y221330D01*
Y226118D02*
Y227845D01*
Y231508D02*
Y232861D01*
Y344457D02*
Y345870D01*
Y350118D02*
Y351738D01*
Y356000D02*
Y357344D01*
X760300Y220017D02*
Y221290D01*
Y226093D02*
Y227820D01*
Y231522D02*
Y232875D01*
Y344471D02*
Y345892D01*
Y350093D02*
Y351715D01*
Y355983D02*
Y357332D01*
X760400Y220006D02*
Y221250D01*
Y226068D02*
Y227786D01*
Y231536D02*
Y232889D01*
Y344485D02*
Y345915D01*
Y350068D02*
Y351693D01*
Y355951D02*
Y357319D01*
X760500Y219995D02*
Y221210D01*
Y226043D02*
Y227746D01*
Y231551D02*
Y232904D01*
Y344499D02*
Y345937D01*
Y350043D02*
Y351671D01*
Y355911D02*
Y357304D01*
X760600Y219984D02*
Y221200D01*
Y226018D02*
Y227706D01*
Y231565D02*
Y232918D01*
Y344514D02*
Y345959D01*
Y350018D02*
Y351649D01*
Y355871D02*
Y357271D01*
X760700Y219973D02*
Y221200D01*
Y225993D02*
Y227666D01*
Y231579D02*
Y232932D01*
Y344528D02*
Y345981D01*
Y349993D02*
Y351627D01*
Y355831D02*
Y357238D01*
X760800Y219961D02*
Y221200D01*
Y225968D02*
Y227626D01*
Y231593D02*
Y232946D01*
Y344542D02*
Y346004D01*
Y349968D02*
Y351604D01*
Y355791D02*
Y357204D01*
X760900Y219950D02*
Y221200D01*
Y225943D02*
Y227586D01*
Y231608D02*
Y232961D01*
Y344567D02*
Y346026D01*
Y349943D02*
Y351576D01*
Y355751D02*
Y357171D01*
X761000Y219939D02*
Y221200D01*
Y225918D02*
Y227546D01*
Y231622D02*
Y232975D01*
Y344600D02*
Y346048D01*
Y349918D02*
Y351543D01*
Y355711D02*
Y357138D01*
X761100Y219928D02*
Y221200D01*
Y225893D02*
Y227506D01*
Y231636D02*
Y232982D01*
Y344634D02*
Y346083D01*
Y349881D02*
Y351509D01*
Y355671D02*
Y357104D01*
X761200Y219917D02*
Y221200D01*
Y225868D02*
Y227466D01*
Y231651D02*
Y232969D01*
Y344667D02*
Y346133D01*
Y349831D02*
Y351476D01*
Y355631D02*
Y357071D01*
X761300Y219906D02*
Y221200D01*
Y225843D02*
Y227438D01*
Y231649D02*
Y232957D01*
Y344700D02*
Y346183D01*
Y349781D02*
Y351443D01*
Y355556D02*
Y357038D01*
X761400Y219895D02*
Y221200D01*
Y225818D02*
Y227415D01*
Y231633D02*
Y232944D01*
Y344734D02*
Y346233D01*
Y349731D02*
Y351409D01*
Y355456D02*
Y357004D01*
X761500Y219884D02*
Y221215D01*
Y225793D02*
Y227393D01*
Y231616D02*
Y232932D01*
Y344767D02*
Y346283D01*
Y349681D02*
Y351376D01*
Y355356D02*
Y356971D01*
X761600Y219873D02*
Y221237D01*
Y225768D02*
Y227371D01*
Y231599D02*
Y232919D01*
Y344800D02*
Y346333D01*
Y349631D02*
Y351343D01*
Y355256D02*
Y356930D01*
X761700Y219885D02*
Y221259D01*
Y225743D02*
Y227349D01*
Y231583D02*
Y232907D01*
Y344834D02*
Y346383D01*
Y349581D02*
Y351309D01*
Y355156D02*
Y356880D01*
X761800Y219899D02*
Y221281D01*
Y225718D02*
Y227327D01*
Y231566D02*
Y232894D01*
Y344867D02*
Y346444D01*
Y349515D02*
Y351276D01*
Y355056D02*
Y356830D01*
X761900Y219914D02*
Y221304D01*
Y225693D02*
Y227304D01*
Y231549D02*
Y232882D01*
Y344900D02*
Y346544D01*
Y349365D02*
Y351243D01*
Y354956D02*
Y356780D01*
X762000Y219928D02*
Y221326D01*
Y225668D02*
Y227282D01*
Y231533D02*
Y232869D01*
Y344949D02*
Y346644D01*
Y349215D02*
Y351194D01*
Y354733D02*
Y356730D01*
X762100Y219942D02*
Y221348D01*
Y225643D02*
Y227260D01*
Y231516D02*
Y232857D01*
Y344999D02*
Y346744D01*
Y349065D02*
Y351144D01*
Y354133D02*
Y356680D01*
X762200Y219957D02*
Y221370D01*
Y225618D02*
Y227238D01*
Y231500D02*
Y232844D01*
Y345049D02*
Y346895D01*
Y348867D02*
Y351094D01*
Y353836D02*
Y356630D01*
X762300Y219971D02*
Y221392D01*
Y225593D02*
Y227215D01*
Y231483D02*
Y232832D01*
Y345099D02*
Y347095D01*
Y348617D02*
Y351044D01*
Y353836D02*
Y356580D01*
X762400Y219985D02*
Y221415D01*
Y225568D02*
Y227193D01*
Y231451D02*
Y232819D01*
Y345149D02*
Y347295D01*
Y348367D02*
Y350994D01*
Y353836D02*
Y356530D01*
X762500Y219999D02*
Y221437D01*
Y225543D02*
Y227171D01*
Y231411D02*
Y232804D01*
Y345199D02*
Y347495D01*
Y348117D02*
Y350944D01*
Y353836D02*
Y356480D01*
X762600Y220014D02*
Y221459D01*
Y225518D02*
Y227149D01*
Y231371D02*
Y232771D01*
Y345249D02*
Y350894D01*
Y353836D02*
Y356430D01*
X762700Y220028D02*
Y221481D01*
Y225493D02*
Y227127D01*
Y231331D02*
Y232738D01*
Y345299D02*
Y350844D01*
Y353836D02*
Y356336D01*
X762800Y220042D02*
Y221504D01*
Y225468D02*
Y227104D01*
Y231291D02*
Y232704D01*
Y345349D02*
Y350794D01*
Y353836D02*
Y356236D01*
X762900Y220067D02*
Y221526D01*
Y225443D02*
Y227076D01*
Y231251D02*
Y232671D01*
Y345399D02*
Y350744D01*
Y353836D02*
Y356136D01*
X763000Y220100D02*
Y221548D01*
Y225418D02*
Y227043D01*
Y231211D02*
Y232638D01*
Y345473D02*
Y350679D01*
Y353836D02*
Y356036D01*
X763100Y220134D02*
Y221583D01*
Y225381D02*
Y227009D01*
Y231171D02*
Y232604D01*
Y345598D02*
Y350579D01*
Y353836D02*
Y355936D01*
X763200Y220167D02*
Y221633D01*
Y225331D02*
Y226976D01*
Y231131D02*
Y232571D01*
Y345723D02*
Y350479D01*
Y353836D02*
Y355836D01*
X763300Y220200D02*
Y221683D01*
Y225281D02*
Y226943D01*
Y231056D02*
Y232538D01*
Y345848D02*
Y350379D01*
Y353836D02*
Y355736D01*
X763400Y220234D02*
Y221733D01*
Y225231D02*
Y226909D01*
Y230956D02*
Y232504D01*
Y345973D02*
Y350279D01*
Y353836D02*
Y355508D01*
X763500Y220267D02*
Y221783D01*
Y225181D02*
Y226876D01*
Y230856D02*
Y232471D01*
Y346098D02*
Y350179D01*
Y353836D02*
Y355258D01*
X763600Y220300D02*
Y221833D01*
Y225131D02*
Y226843D01*
Y230756D02*
Y232430D01*
Y346223D02*
Y350079D01*
Y353836D02*
Y355008D01*
X763700Y220334D02*
Y221883D01*
Y225081D02*
Y226809D01*
Y230656D02*
Y232380D01*
Y346385D02*
Y349937D01*
Y353836D02*
Y354639D01*
X763800Y220367D02*
Y221944D01*
Y225015D02*
Y226776D01*
Y230556D02*
Y232330D01*
Y346635D02*
Y349687D01*
Y353836D02*
Y354039D01*
X763900Y220400D02*
Y222044D01*
Y224865D02*
Y226743D01*
Y230456D02*
Y232280D01*
Y346885D02*
Y349437D01*
X764000Y220449D02*
Y222144D01*
Y224715D02*
Y226694D01*
Y230233D02*
Y232230D01*
Y347135D02*
Y349187D01*
X764100Y220499D02*
Y222244D01*
Y224565D02*
Y226644D01*
Y229633D02*
Y232180D01*
Y347576D02*
Y348667D01*
X764200Y220549D02*
Y222395D01*
Y224367D02*
Y226594D01*
Y229336D02*
Y232130D01*
X764300Y220599D02*
Y222595D01*
Y224117D02*
Y226544D01*
Y229336D02*
Y232080D01*
X764400Y220649D02*
Y222795D01*
Y223867D02*
Y226494D01*
Y229336D02*
Y232030D01*
X764500Y220699D02*
Y222995D01*
Y223617D02*
Y226444D01*
Y229336D02*
Y231980D01*
X764600Y220749D02*
Y226394D01*
Y229336D02*
Y231930D01*
X764700Y220799D02*
Y226344D01*
Y229336D02*
Y231836D01*
X764800Y220849D02*
Y226294D01*
Y229336D02*
Y231736D01*
X764900Y220899D02*
Y226244D01*
Y229336D02*
Y231636D01*
X765000Y220973D02*
Y226179D01*
Y229336D02*
Y231536D01*
X765100Y221098D02*
Y226079D01*
Y229336D02*
Y231436D01*
X765200Y221223D02*
Y225979D01*
Y229336D02*
Y231336D01*
X765300Y221348D02*
Y225879D01*
Y229336D02*
Y231236D01*
X765400Y221473D02*
Y225779D01*
Y229336D02*
Y231008D01*
Y357255D02*
Y357307D01*
X765500Y221598D02*
Y225679D01*
Y229336D02*
Y230758D01*
Y356876D02*
Y357307D01*
X765600Y221723D02*
Y225579D01*
Y229336D02*
Y230508D01*
Y356497D02*
Y357307D01*
X765700Y221885D02*
Y225437D01*
Y229336D02*
Y230139D01*
Y356119D02*
Y357307D01*
X765800Y222135D02*
Y225187D01*
Y229336D02*
Y229539D01*
Y355740D02*
Y357307D01*
X765900Y222385D02*
Y224937D01*
Y355361D02*
Y357307D01*
X766000Y222635D02*
Y224687D01*
Y354982D02*
Y357307D01*
X766100Y223076D02*
Y224167D01*
Y354603D02*
Y357307D01*
X766200Y354224D02*
Y357307D01*
X766300Y353845D02*
Y357307D01*
X766400Y353466D02*
Y357307D01*
X766500Y353087D02*
Y357307D01*
X766600Y352708D02*
Y357307D01*
X766700Y352329D02*
Y357307D01*
X766800Y351950D02*
Y357307D01*
X766900Y351571D02*
Y357307D01*
X767000Y351192D02*
Y357307D01*
X767100Y350813D02*
Y357168D01*
X767200Y350434D02*
Y356741D01*
X767300Y350055D02*
Y356314D01*
X767400Y232755D02*
Y232807D01*
Y349676D02*
Y355886D01*
X767500Y232376D02*
Y232807D01*
Y349297D02*
Y355459D01*
X767600Y231997D02*
Y232807D01*
Y348919D02*
Y355032D01*
X767700Y231619D02*
Y232807D01*
Y348540D02*
Y354605D01*
X767800Y231240D02*
Y232807D01*
Y348161D02*
Y354177D01*
X767900Y230861D02*
Y232807D01*
Y347782D02*
Y353750D01*
X768000Y230482D02*
Y232807D01*
Y347403D02*
Y353323D01*
X768100Y230103D02*
Y232807D01*
Y347024D02*
Y352896D01*
X768200Y229724D02*
Y232807D01*
Y346645D02*
Y352468D01*
X768300Y229345D02*
Y232807D01*
Y346266D02*
Y352041D01*
X768400Y228966D02*
Y232807D01*
Y345887D02*
Y351614D01*
X768500Y228587D02*
Y232807D01*
Y345508D02*
Y351186D01*
X768600Y228208D02*
Y232807D01*
Y345129D02*
Y350759D01*
X768700Y227829D02*
Y232807D01*
Y344750D02*
Y350332D01*
X768800Y227450D02*
Y232807D01*
Y344550D02*
Y349905D01*
X768900Y227071D02*
Y232807D01*
Y344550D02*
Y349477D01*
X769000Y226692D02*
Y232807D01*
Y344550D02*
Y349050D01*
X769100Y226313D02*
Y232668D01*
Y344550D02*
Y348663D01*
X769200Y225934D02*
Y232241D01*
Y344550D02*
Y348288D01*
X769300Y225555D02*
Y231814D01*
Y344550D02*
Y347913D01*
X769400Y225176D02*
Y231386D01*
Y344550D02*
Y347538D01*
X769500Y224797D02*
Y230959D01*
Y344550D02*
Y347163D01*
X769600Y224419D02*
Y230532D01*
Y344550D02*
Y346788D01*
X769700Y224040D02*
Y230105D01*
Y344550D02*
Y346413D01*
X769800Y223661D02*
Y229677D01*
Y344550D02*
Y346238D01*
X769900Y223282D02*
Y229250D01*
Y344550D02*
Y346602D01*
X770000Y222903D02*
Y228823D01*
Y344550D02*
Y347102D01*
X770100Y222524D02*
Y228396D01*
Y344550D02*
Y347515D01*
X770200Y222145D02*
Y227968D01*
Y344550D02*
Y347895D01*
X770300Y221766D02*
Y227541D01*
Y344550D02*
Y348095D01*
X770400Y221387D02*
Y227114D01*
Y344550D02*
Y348693D01*
X770500Y221008D02*
Y226686D01*
Y344550D02*
Y349020D01*
X770600Y220629D02*
Y226259D01*
Y344550D02*
Y349346D01*
X770700Y220250D02*
Y225832D01*
Y344748D02*
Y349673D01*
X770800Y220050D02*
Y225405D01*
Y345086D02*
Y350000D01*
X770900Y220050D02*
Y224977D01*
Y345423D02*
Y350326D01*
X771000Y220050D02*
Y224550D01*
Y345761D02*
Y350653D01*
X771100Y220050D02*
Y224163D01*
Y346098D02*
Y350980D01*
X771200Y220050D02*
Y223788D01*
Y346436D02*
Y351306D01*
X771300Y220050D02*
Y223413D01*
Y346773D02*
Y351633D01*
X771400Y220050D02*
Y223038D01*
Y347111D02*
Y351960D01*
X771500Y220050D02*
Y222663D01*
Y347448D02*
Y352286D01*
X771600Y220050D02*
Y222288D01*
Y347786D02*
Y352613D01*
X771700Y220050D02*
Y221913D01*
Y348123D02*
Y352940D01*
X771800Y220050D02*
Y221738D01*
Y348461D02*
Y353266D01*
X771900Y220050D02*
Y222102D01*
Y348798D02*
Y353593D01*
X772000Y220050D02*
Y222602D01*
Y349136D02*
Y353920D01*
X772100Y220050D02*
Y223015D01*
Y349473D02*
Y354246D01*
X772200Y220050D02*
Y223395D01*
Y349811D02*
Y354573D01*
X772300Y220050D02*
Y223595D01*
Y350148D02*
Y354900D01*
X772400Y220050D02*
Y224193D01*
Y350486D02*
Y355226D01*
X772500Y220050D02*
Y224520D01*
Y350823D02*
Y355553D01*
X772600Y220050D02*
Y224846D01*
Y351161D02*
Y355880D01*
X772700Y220248D02*
Y225173D01*
Y351498D02*
Y356206D01*
X772800Y220586D02*
Y225500D01*
Y351836D02*
Y356533D01*
X772900Y220923D02*
Y225826D01*
Y352173D02*
Y356860D01*
X773000Y221261D02*
Y226153D01*
Y352511D02*
Y357186D01*
X773100Y221598D02*
Y226480D01*
Y352848D02*
Y357307D01*
X773200Y221936D02*
Y226806D01*
Y353186D02*
Y357307D01*
X773300Y222273D02*
Y227133D01*
Y353523D02*
Y357307D01*
X773400Y222611D02*
Y227460D01*
Y353861D02*
Y357307D01*
X773500Y222948D02*
Y227786D01*
Y354206D02*
Y357307D01*
X773600Y223286D02*
Y228113D01*
Y354606D02*
Y357307D01*
X773700Y223623D02*
Y228440D01*
Y354956D02*
Y357307D01*
X773800Y223961D02*
Y228766D01*
Y355206D02*
Y357307D01*
X773900Y224298D02*
Y229093D01*
Y355456D02*
Y357307D01*
X774000Y224636D02*
Y229420D01*
Y355706D02*
Y357307D01*
X774100Y224973D02*
Y229746D01*
Y355791D02*
Y357307D01*
X774200Y225311D02*
Y230073D01*
Y355165D02*
Y357307D01*
X774300Y225648D02*
Y230400D01*
Y354865D02*
Y357307D01*
X774400Y225986D02*
Y230726D01*
Y354565D02*
Y357307D01*
X774500Y226323D02*
Y231053D01*
Y354260D02*
Y357307D01*
X774600Y226661D02*
Y231380D01*
Y353936D02*
Y357307D01*
X774700Y226998D02*
Y231706D01*
Y353613D02*
Y357307D01*
X774800Y227336D02*
Y232033D01*
Y353289D02*
Y357307D01*
X774900Y227673D02*
Y232360D01*
Y352966D02*
Y357307D01*
X775000Y228011D02*
Y232686D01*
Y352642D02*
Y357069D01*
X775100Y228348D02*
Y232807D01*
Y352318D02*
Y356742D01*
X775200Y228686D02*
Y232807D01*
Y351995D02*
Y356415D01*
X775300Y229023D02*
Y232807D01*
Y351671D02*
Y356087D01*
X775400Y229361D02*
Y232807D01*
Y351348D02*
Y355760D01*
X775500Y229706D02*
Y232807D01*
Y351024D02*
Y355433D01*
X775600Y230106D02*
Y232807D01*
Y350701D02*
Y355106D01*
X775700Y230456D02*
Y232807D01*
Y350377D02*
Y354778D01*
X775800Y230706D02*
Y232807D01*
Y350054D02*
Y354451D01*
X775900Y230956D02*
Y232807D01*
Y349730D02*
Y354124D01*
X776000Y231206D02*
Y232807D01*
Y349407D02*
Y353796D01*
X776100Y231291D02*
Y232807D01*
Y349083D02*
Y353469D01*
X776200Y230665D02*
Y232807D01*
Y348760D02*
Y353142D01*
X776300Y230365D02*
Y232807D01*
Y348436D02*
Y352815D01*
X776400Y230065D02*
Y232807D01*
Y348113D02*
Y352487D01*
X776500Y229760D02*
Y232807D01*
Y347789D02*
Y352160D01*
X776600Y229436D02*
Y232807D01*
Y347466D02*
Y351833D01*
X776700Y229113D02*
Y232807D01*
Y347142D02*
Y351506D01*
X776800Y228789D02*
Y232807D01*
Y346818D02*
Y351178D01*
X776900Y228466D02*
Y232807D01*
Y346495D02*
Y350851D01*
X777000Y228142D02*
Y232569D01*
Y346171D02*
Y350526D01*
X777100Y227818D02*
Y232242D01*
Y345848D02*
Y350201D01*
X777200Y227495D02*
Y231915D01*
Y345524D02*
Y349876D01*
X777300Y227171D02*
Y231587D01*
Y345201D02*
Y349551D01*
X777400Y226848D02*
Y231260D01*
Y344877D02*
Y349226D01*
X777500Y226524D02*
Y230933D01*
Y344554D02*
Y348901D01*
X777600Y226201D02*
Y230606D01*
Y344550D02*
Y348576D01*
X777700Y225877D02*
Y230278D01*
Y344550D02*
Y348251D01*
X777800Y225554D02*
Y229951D01*
Y344550D02*
Y347926D01*
X777900Y225230D02*
Y229624D01*
Y344550D02*
Y347601D01*
X778000Y224907D02*
Y229296D01*
Y344550D02*
Y347276D01*
X778100Y224583D02*
Y228969D01*
Y344550D02*
Y346951D01*
X778200Y224260D02*
Y228642D01*
Y344550D02*
Y346626D01*
X778300Y223936D02*
Y228315D01*
Y344550D02*
Y346301D01*
X778400Y223613D02*
Y227987D01*
Y344550D02*
Y346260D01*
X778500Y223289D02*
Y227660D01*
Y344550D02*
Y346839D01*
X778600Y222966D02*
Y227333D01*
Y344550D02*
Y347416D01*
X778700Y222642D02*
Y227006D01*
Y344550D02*
Y347866D01*
X778800Y222318D02*
Y226678D01*
Y344550D02*
Y348316D01*
X778900Y221995D02*
Y226351D01*
Y344550D02*
Y348766D01*
X779000Y221671D02*
Y226026D01*
Y344550D02*
Y349203D01*
X779100Y221348D02*
Y225701D01*
Y344550D02*
Y349630D01*
X779200Y221024D02*
Y225376D01*
Y344550D02*
Y350057D01*
X779300Y220701D02*
Y225051D01*
Y344885D02*
Y350484D01*
X779400Y220377D02*
Y224726D01*
Y345264D02*
Y350912D01*
X779500Y220054D02*
Y224401D01*
Y345643D02*
Y351339D01*
X779600Y220050D02*
Y224076D01*
Y346022D02*
Y351766D01*
X779700Y220050D02*
Y223751D01*
Y346401D02*
Y352194D01*
X779800Y220050D02*
Y223426D01*
Y346780D02*
Y352621D01*
X779900Y220050D02*
Y223101D01*
Y347159D02*
Y353048D01*
X780000Y220050D02*
Y222776D01*
Y347538D02*
Y353475D01*
X780100Y220050D02*
Y222451D01*
Y347917D02*
Y353903D01*
X780200Y220050D02*
Y222126D01*
Y348296D02*
Y354330D01*
X780300Y220050D02*
Y221801D01*
Y348675D02*
Y354757D01*
X780400Y220050D02*
Y221760D01*
Y349054D02*
Y355184D01*
X780500Y220050D02*
Y222339D01*
Y349433D02*
Y355612D01*
X780600Y220050D02*
Y222916D01*
Y349812D02*
Y356039D01*
X780700Y220050D02*
Y223366D01*
Y350191D02*
Y356466D01*
X780800Y220050D02*
Y223816D01*
Y350570D02*
Y356894D01*
X780900Y220050D02*
Y224266D01*
Y350949D02*
Y357307D01*
X781000Y220050D02*
Y224703D01*
Y351328D02*
Y357307D01*
X781100Y220050D02*
Y225130D01*
Y351706D02*
Y357307D01*
X781200Y220050D02*
Y225557D01*
Y352085D02*
Y357307D01*
X781300Y220385D02*
Y225984D01*
Y352464D02*
Y357307D01*
X781400Y220764D02*
Y226412D01*
Y352843D02*
Y357307D01*
X781500Y221143D02*
Y226839D01*
Y353222D02*
Y357307D01*
X781600Y221522D02*
Y227266D01*
Y353601D02*
Y357307D01*
X781700Y221901D02*
Y227694D01*
Y353980D02*
Y357307D01*
X781800Y222280D02*
Y228121D01*
Y354359D02*
Y357307D01*
X781900Y222659D02*
Y228548D01*
Y354738D02*
Y357307D01*
X782000Y223038D02*
Y228975D01*
Y355117D02*
Y357307D01*
X782100Y223417D02*
Y229403D01*
Y355496D02*
Y357307D01*
X782200Y223796D02*
Y229830D01*
Y355875D02*
Y357307D01*
X782300Y224175D02*
Y230257D01*
Y356254D02*
Y357307D01*
X782400Y224554D02*
Y230684D01*
Y356633D02*
Y357307D01*
X782500Y224933D02*
Y231112D01*
Y357012D02*
Y357307D01*
X782600Y225312D02*
Y231539D01*
X782700Y225691D02*
Y231966D01*
X782800Y226070D02*
Y232394D01*
X782900Y226449D02*
Y232807D01*
X783000Y226828D02*
Y232807D01*
X783100Y227206D02*
Y232807D01*
X783200Y227585D02*
Y232807D01*
X783300Y227964D02*
Y232807D01*
X783400Y228343D02*
Y232807D01*
X783500Y228722D02*
Y232807D01*
X783600Y229101D02*
Y232807D01*
X783700Y229480D02*
Y232807D01*
X783800Y229859D02*
Y232807D01*
Y347756D02*
Y347852D01*
X783900Y230238D02*
Y232807D01*
Y347356D02*
Y347863D01*
X784000Y230617D02*
Y232807D01*
Y346956D02*
Y347874D01*
Y350610D02*
Y350869D01*
X784100Y230996D02*
Y232807D01*
Y346556D02*
Y347885D01*
Y350599D02*
Y351397D01*
X784200Y231375D02*
Y232807D01*
Y346370D02*
Y347897D01*
Y350588D02*
Y351926D01*
X784300Y231754D02*
Y232807D01*
Y346230D02*
Y347908D01*
Y350576D02*
Y352454D01*
X784400Y232133D02*
Y232807D01*
Y346090D02*
Y347919D01*
Y350565D02*
Y352983D01*
X784500Y232512D02*
Y232807D01*
Y345950D02*
Y347930D01*
Y350554D02*
Y353512D01*
X784600Y345810D02*
Y347941D01*
Y350543D02*
Y354040D01*
X784700Y345670D02*
Y347952D01*
Y350532D02*
Y354569D01*
X784800Y345530D02*
Y347963D01*
Y350521D02*
Y355097D01*
X784900Y345390D02*
Y347974D01*
Y350510D02*
Y355626D01*
X785000Y345251D02*
Y347985D01*
Y350499D02*
Y356154D01*
X785100Y345194D02*
Y347997D01*
Y350488D02*
Y356683D01*
X785200Y345137D02*
Y348008D01*
Y350476D02*
Y357129D01*
X785300Y345080D02*
Y347978D01*
Y350465D02*
Y357129D01*
X785400Y345023D02*
Y347678D01*
Y350454D02*
Y357129D01*
X785500Y224146D02*
Y226904D01*
Y344966D02*
Y347378D01*
Y350464D02*
Y357129D01*
X785600Y223796D02*
Y227790D01*
Y344909D02*
Y347078D01*
Y350564D02*
Y357129D01*
X785700Y223446D02*
Y228590D01*
Y344851D02*
Y346845D01*
Y350664D02*
Y357129D01*
X785800Y223115D02*
Y229225D01*
Y344794D02*
Y346645D01*
Y350764D02*
Y357129D01*
X785900Y222815D02*
Y229575D01*
Y344737D02*
Y346445D01*
Y350864D02*
Y352147D01*
Y352771D02*
Y357129D01*
X786000Y222515D02*
Y229925D01*
Y344680D02*
Y346251D01*
Y350964D02*
Y352214D01*
Y353404D02*
Y357129D01*
X786100Y222215D02*
Y230275D01*
Y344623D02*
Y346198D01*
Y351064D02*
Y352280D01*
Y354037D02*
Y357129D01*
X786200Y222026D02*
Y230460D01*
Y344566D02*
Y346148D01*
Y351164D02*
Y352347D01*
Y354671D02*
Y357129D01*
X786300Y221859D02*
Y230610D01*
Y344540D02*
Y346098D01*
Y351264D02*
Y352414D01*
Y355304D02*
Y357129D01*
X786400Y221692D02*
Y230760D01*
Y344527D02*
Y346048D01*
Y351340D02*
Y352480D01*
Y355621D02*
Y357129D01*
X786500Y221526D02*
Y230910D01*
Y344515D02*
Y345998D01*
Y351368D02*
Y352547D01*
Y355621D02*
Y357129D01*
X786600Y221359D02*
Y231060D01*
Y344502D02*
Y345948D01*
Y351397D02*
Y352614D01*
Y355621D02*
Y357129D01*
X786700Y221228D02*
Y231210D01*
Y344490D02*
Y345898D01*
Y351425D02*
Y352680D01*
Y355621D02*
Y357129D01*
X786800Y221128D02*
Y231360D01*
Y344477D02*
Y345868D01*
Y351454D02*
Y352747D01*
Y355621D02*
Y357129D01*
X786900Y221028D02*
Y231452D01*
Y344465D02*
Y345848D01*
Y351483D02*
Y352814D01*
Y355621D02*
Y357129D01*
X787000Y220928D02*
Y223852D01*
Y224804D02*
Y226572D01*
Y227467D02*
Y231527D01*
Y344452D02*
Y345828D01*
Y351511D02*
Y352853D01*
Y355621D02*
Y357129D01*
X787100Y220828D02*
Y223358D01*
Y225383D02*
Y226697D01*
Y228422D02*
Y231602D01*
Y344440D02*
Y345808D01*
Y351540D02*
Y352867D01*
Y355621D02*
Y357129D01*
X787200Y220728D02*
Y222958D01*
Y225550D02*
Y226822D01*
Y228722D02*
Y231677D01*
Y344427D02*
Y345788D01*
Y351568D02*
Y352881D01*
Y355621D02*
Y357129D01*
X787300Y220628D02*
Y222621D01*
Y225716D02*
Y226947D01*
Y229022D02*
Y231752D01*
Y344415D02*
Y345768D01*
Y351597D02*
Y352895D01*
Y355621D02*
Y357129D01*
X787400Y220552D02*
Y222471D01*
Y225883D02*
Y227072D01*
Y229322D02*
Y231827D01*
Y344402D02*
Y345748D01*
Y351625D02*
Y352910D01*
Y355621D02*
Y357129D01*
X787500Y220502D02*
Y222321D01*
Y226050D02*
Y227197D01*
Y229599D02*
Y231902D01*
Y344390D02*
Y345728D01*
Y351654D02*
Y352924D01*
Y355621D02*
Y357129D01*
X787600Y220452D02*
Y222171D01*
Y226216D02*
Y227322D01*
Y229849D02*
Y231977D01*
Y344377D02*
Y345708D01*
Y351683D02*
Y352938D01*
Y355621D02*
Y357129D01*
X787700Y220402D02*
Y222064D01*
Y226321D02*
Y227447D01*
Y230099D02*
Y232052D01*
Y344382D02*
Y345708D01*
Y351685D02*
Y352953D01*
Y355621D02*
Y357129D01*
X787800Y220352D02*
Y221989D01*
Y226381D02*
Y227529D01*
Y230349D02*
Y232127D01*
Y344398D02*
Y345722D01*
Y351671D02*
Y352967D01*
Y355621D02*
Y357129D01*
X787900Y220302D02*
Y221914D01*
Y226441D02*
Y227604D01*
Y230471D02*
Y232202D01*
Y344415D02*
Y345736D01*
Y351657D02*
Y352981D01*
Y355621D02*
Y357129D01*
X788000Y220252D02*
Y221839D01*
Y226501D02*
Y227679D01*
Y230571D02*
Y232277D01*
Y344432D02*
Y345751D01*
Y351642D02*
Y352995D01*
Y355621D02*
Y357129D01*
X788100Y220207D02*
Y221764D01*
Y226561D02*
Y227754D01*
Y230671D02*
Y232352D01*
Y344448D02*
Y345765D01*
Y351628D02*
Y353010D01*
Y355621D02*
Y357129D01*
X788200Y220167D02*
Y221689D01*
Y226621D02*
Y227829D01*
Y230771D02*
Y232427D01*
Y344465D02*
Y345779D01*
Y351614D02*
Y353015D01*
Y355621D02*
Y357129D01*
X788300Y220127D02*
Y221614D01*
Y226681D02*
Y227904D01*
Y230871D02*
Y232466D01*
Y344482D02*
Y345793D01*
Y351599D02*
Y352990D01*
Y355621D02*
Y357129D01*
X788400Y220087D02*
Y221542D01*
Y226741D02*
Y227979D01*
Y230971D02*
Y232486D01*
Y344498D02*
Y345808D01*
Y351585D02*
Y352965D01*
Y355621D02*
Y357129D01*
X788500Y220047D02*
Y221476D01*
Y226801D02*
Y228006D01*
Y231071D02*
Y232506D01*
Y344515D02*
Y345822D01*
Y351571D02*
Y352940D01*
Y355621D02*
Y357129D01*
X788600Y220007D02*
Y221409D01*
Y226841D02*
Y228026D01*
Y231130D02*
Y232526D01*
Y344532D02*
Y345836D01*
Y351557D02*
Y352915D01*
Y355621D02*
Y357129D01*
X788700Y219967D02*
Y221342D01*
Y226858D02*
Y228046D01*
Y231155D02*
Y232546D01*
Y344548D02*
Y345851D01*
Y351542D02*
Y352890D01*
Y355621D02*
Y357129D01*
X788800Y219927D02*
Y221276D01*
Y226874D02*
Y228066D01*
Y231180D02*
Y232566D01*
Y344568D02*
Y345865D01*
Y351528D02*
Y352865D01*
Y355621D02*
Y357129D01*
X788900Y219887D02*
Y221209D01*
Y226891D02*
Y228086D01*
Y231205D02*
Y232586D01*
Y344588D02*
Y345879D01*
Y351514D02*
Y352840D01*
Y355621D02*
Y357129D01*
X789000Y219871D02*
Y221200D01*
Y226908D02*
Y228106D01*
Y231230D02*
Y232606D01*
Y344608D02*
Y345965D01*
Y351446D02*
Y352815D01*
Y355621D02*
Y357129D01*
X789100Y219871D02*
Y221200D01*
Y226924D02*
Y228126D01*
Y231255D02*
Y232626D01*
Y344628D02*
Y346065D01*
Y351371D02*
Y352790D01*
Y355621D02*
Y357129D01*
X789200Y219871D02*
Y221200D01*
Y226941D02*
Y228146D01*
Y231280D02*
Y232646D01*
Y344648D02*
Y346165D01*
Y351296D02*
Y352765D01*
Y355621D02*
Y357129D01*
X789300Y219871D02*
Y221200D01*
Y226958D02*
Y228166D01*
Y231305D02*
Y232666D01*
Y344668D02*
Y346265D01*
Y351221D02*
Y352740D01*
Y355621D02*
Y357129D01*
X789400Y219871D02*
Y221200D01*
Y226974D02*
Y228186D01*
Y231330D02*
Y232686D01*
Y344688D02*
Y346365D01*
Y351146D02*
Y352715D01*
Y355621D02*
Y357129D01*
X789500Y219871D02*
Y221200D01*
Y226991D02*
Y228206D01*
Y231355D02*
Y232706D01*
Y344708D02*
Y346465D01*
Y351071D02*
Y352690D01*
Y355621D02*
Y357129D01*
X789600Y219871D02*
Y221200D01*
Y227008D02*
Y228226D01*
Y231380D02*
Y232726D01*
Y344736D02*
Y346565D01*
Y350996D02*
Y352658D01*
Y355621D02*
Y357129D01*
X789700Y219871D02*
Y221200D01*
Y227005D02*
Y228246D01*
Y231405D02*
Y232746D01*
Y344811D02*
Y346700D01*
Y350871D02*
Y352587D01*
Y355621D02*
Y357129D01*
X789800Y219871D02*
Y221200D01*
Y226989D02*
Y228266D01*
Y231430D02*
Y232766D01*
Y344886D02*
Y346867D01*
Y350704D02*
Y352515D01*
Y355621D02*
Y357129D01*
X789900Y219885D02*
Y221215D01*
Y226972D02*
Y228286D01*
Y231455D02*
Y232786D01*
Y344961D02*
Y347034D01*
Y350538D02*
Y352444D01*
Y355621D02*
Y357129D01*
X790000Y219902D02*
Y221235D01*
Y226955D02*
Y228306D01*
Y231479D02*
Y232806D01*
Y345036D02*
Y347200D01*
Y350371D02*
Y352372D01*
Y355621D02*
Y357129D01*
X790100Y219919D02*
Y221255D01*
Y226939D02*
Y228326D01*
Y231460D02*
Y232794D01*
Y345111D02*
Y347367D01*
Y350204D02*
Y352301D01*
Y355621D02*
Y357129D01*
X790200Y219935D02*
Y221275D01*
Y226922D02*
Y228336D01*
Y231440D02*
Y232782D01*
Y345186D02*
Y347582D01*
Y349989D02*
Y352229D01*
Y355621D02*
Y357129D01*
X790300Y219952D02*
Y221295D01*
Y226905D02*
Y228311D01*
Y231420D02*
Y232769D01*
Y345264D02*
Y348282D01*
Y349289D02*
Y352158D01*
Y355621D02*
Y357129D01*
X790400Y219969D02*
Y221315D01*
Y226889D02*
Y228286D01*
Y231400D02*
Y232757D01*
Y345364D02*
Y352087D01*
Y355621D02*
Y357129D01*
X790500Y219985D02*
Y221335D01*
Y226872D02*
Y228261D01*
Y231380D02*
Y232744D01*
Y345464D02*
Y352015D01*
Y355621D02*
Y357129D01*
X790600Y220002D02*
Y221355D01*
Y226855D02*
Y228236D01*
Y231360D02*
Y232732D01*
Y345564D02*
Y351944D01*
Y355621D02*
Y357129D01*
X790700Y220019D02*
Y221375D01*
Y226839D02*
Y228211D01*
Y231340D02*
Y232719D01*
Y345664D02*
Y351872D01*
Y355621D02*
Y357129D01*
X790800Y220035D02*
Y221422D01*
Y226793D02*
Y228186D01*
Y231320D02*
Y232707D01*
Y345764D02*
Y351801D01*
Y355621D02*
Y357129D01*
X790900Y220055D02*
Y221482D01*
Y226733D02*
Y228161D01*
Y231300D02*
Y232694D01*
Y345864D02*
Y351675D01*
Y355621D02*
Y357129D01*
X791000Y220088D02*
Y221542D01*
Y226673D02*
Y228136D01*
Y231232D02*
Y232682D01*
Y345967D02*
Y351535D01*
Y355621D02*
Y357129D01*
X791100Y220122D02*
Y221602D01*
Y226613D02*
Y228111D01*
Y231157D02*
Y232669D01*
Y346142D02*
Y351395D01*
Y355621D02*
Y357129D01*
X791200Y220155D02*
Y221662D01*
Y226553D02*
Y228086D01*
Y231082D02*
Y232657D01*
Y346317D02*
Y351255D01*
X791300Y220188D02*
Y221722D01*
Y226493D02*
Y228061D01*
Y231007D02*
Y232644D01*
Y346492D02*
Y351115D01*
X791400Y220222D02*
Y221782D01*
Y226433D02*
Y228036D01*
Y230932D02*
Y232632D01*
Y346667D02*
Y350975D01*
X791500Y220255D02*
Y221842D01*
Y226373D02*
Y228011D01*
Y230857D02*
Y232571D01*
Y346842D02*
Y350835D01*
X791600Y220288D02*
Y221902D01*
Y226313D02*
Y227979D01*
Y230782D02*
Y232504D01*
Y347017D02*
Y350695D01*
X791700Y220322D02*
Y222022D01*
Y226192D02*
Y227908D01*
Y230665D02*
Y232438D01*
Y347192D02*
Y350555D01*
X791800Y220355D02*
Y222189D01*
Y226026D02*
Y227837D01*
Y230515D02*
Y232371D01*
Y348181D02*
Y349669D01*
X791900Y220388D02*
Y222355D01*
Y225859D02*
Y227765D01*
Y230365D02*
Y232304D01*
X792000Y220450D02*
Y222522D01*
Y225692D02*
Y227694D01*
Y230215D02*
Y232238D01*
X792100Y220530D02*
Y222689D01*
Y225526D02*
Y227622D01*
Y229755D02*
Y232171D01*
X792200Y220610D02*
Y222904D01*
Y225311D02*
Y227551D01*
Y229342D02*
Y232104D01*
X792300Y220690D02*
Y223604D01*
Y224611D02*
Y227479D01*
Y229353D02*
Y232038D01*
X792400Y220770D02*
Y227408D01*
Y229365D02*
Y231971D01*
X792500Y220850D02*
Y227337D01*
Y229376D02*
Y231886D01*
X792600Y220930D02*
Y227265D01*
Y229387D02*
Y231766D01*
X792700Y221010D02*
Y227194D01*
Y229398D02*
Y231646D01*
X792800Y221090D02*
Y227122D01*
Y229409D02*
Y231526D01*
X792900Y221240D02*
Y226967D01*
Y229420D02*
Y231406D01*
X793000Y221407D02*
Y226792D01*
Y229431D02*
Y231286D01*
X793100Y221573D02*
Y226617D01*
Y229442D02*
Y231166D01*
X793200Y221740D02*
Y226442D01*
Y229453D02*
Y231046D01*
X793300Y221907D02*
Y226267D01*
Y229465D02*
Y230926D01*
X793400Y222144D02*
Y226092D01*
Y229476D02*
Y230658D01*
X793500Y222444D02*
Y225917D01*
Y229487D02*
Y230258D01*
X793600Y222744D02*
Y225534D01*
Y229498D02*
Y229858D01*
X793700Y223044D02*
Y225084D01*
X793800Y223739D02*
Y224634D01*
X882700Y132836D02*
Y133271D01*
X882800Y132836D02*
Y133271D01*
X882900Y132836D02*
Y133271D01*
X883000Y132836D02*
Y133271D01*
X883100Y132836D02*
Y133271D01*
X883200Y132836D02*
Y133271D01*
X883300Y132836D02*
Y133271D01*
X883400Y132836D02*
Y133271D01*
X883500Y132836D02*
Y133271D01*
X883600Y132836D02*
Y133271D01*
X883700Y132836D02*
Y133271D01*
X883800Y132836D02*
Y133271D01*
X883900Y132836D02*
Y133271D01*
X884000Y132836D02*
Y133271D01*
X884100Y132836D02*
Y133271D01*
X884200Y132836D02*
Y133271D01*
X884300Y128550D02*
Y133271D01*
X884400Y128550D02*
Y133271D01*
X884500Y128550D02*
Y133271D01*
X884600Y128550D02*
Y133271D01*
X884700Y128550D02*
Y133271D01*
X884800Y128550D02*
Y133271D01*
X884900Y132835D02*
Y133271D01*
X885000Y132836D02*
Y133271D01*
X885100Y132836D02*
Y133271D01*
X885200Y132836D02*
Y133271D01*
X885300Y132836D02*
Y133271D01*
X885400Y132836D02*
Y133271D01*
X885500Y132836D02*
Y133271D01*
X885600Y132836D02*
Y133271D01*
X885700Y132836D02*
Y133271D01*
X885800Y132836D02*
Y133271D01*
X885900Y132836D02*
Y133271D01*
X886000Y132836D02*
Y133271D01*
X886100Y132836D02*
Y133271D01*
X886200Y132836D02*
Y133271D01*
X886300Y132836D02*
Y133271D01*
X886400Y132836D02*
Y133271D01*
X887100Y129734D02*
Y130124D01*
X887200Y129491D02*
Y130124D01*
X887300Y129260D02*
Y130124D01*
Y131742D02*
Y132357D01*
X887400Y129135D02*
Y130124D01*
Y131535D02*
Y132613D01*
X887500Y129010D02*
Y130124D01*
Y131406D02*
Y132760D01*
X887600Y128910D02*
Y130124D01*
Y131306D02*
Y132860D01*
X887700Y128843D02*
Y129763D01*
Y131237D02*
Y132955D01*
X887800Y128777D02*
Y129513D01*
Y131177D02*
Y133015D01*
X887900Y128710D02*
Y129391D01*
Y131117D02*
Y131802D01*
Y132435D02*
Y133075D01*
X888000Y128666D02*
Y129291D01*
Y131057D02*
Y131702D01*
Y132568D02*
Y133135D01*
X888100Y128641D02*
Y129210D01*
Y130997D02*
Y131537D01*
Y132695D02*
Y133171D01*
X888200Y128616D02*
Y129135D01*
Y130937D02*
Y131503D01*
Y132736D02*
Y133204D01*
X888300Y128591D02*
Y129060D01*
Y130885D02*
Y131469D01*
Y132776D02*
Y133238D01*
X888400Y128566D02*
Y129019D01*
Y130860D02*
Y131443D01*
Y132816D02*
Y133271D01*
X888500Y128546D02*
Y128979D01*
Y130835D02*
Y131418D01*
Y132842D02*
Y133286D01*
X888600Y128535D02*
Y128939D01*
Y130810D02*
Y131390D01*
Y132856D02*
Y133301D01*
X888700Y128524D02*
Y128919D01*
Y130785D02*
Y131350D01*
Y132871D02*
Y133315D01*
X888800Y128513D02*
Y128919D01*
Y130760D02*
Y131310D01*
Y132885D02*
Y133329D01*
X888900Y128501D02*
Y128919D01*
Y130735D02*
Y131270D01*
Y132899D02*
Y133333D01*
X889000Y128490D02*
Y128919D01*
Y130710D02*
Y131245D01*
Y132891D02*
Y133321D01*
X889100Y128489D02*
Y128941D01*
Y130685D02*
Y131223D01*
Y132875D02*
Y133308D01*
X889200Y128503D02*
Y128963D01*
Y130660D02*
Y131201D01*
Y132858D02*
Y133296D01*
X889300Y128517D02*
Y128985D01*
Y130635D02*
Y131179D01*
Y132841D02*
Y133283D01*
X889400Y128532D02*
Y129007D01*
Y130610D02*
Y131157D01*
Y132812D02*
Y133268D01*
X889500Y128546D02*
Y129030D01*
Y130585D02*
Y131134D01*
Y132772D02*
Y133234D01*
X889600Y128576D02*
Y129052D01*
Y130560D02*
Y131103D01*
Y132732D02*
Y133201D01*
X889700Y128609D02*
Y129098D01*
Y130514D02*
Y131070D01*
Y132688D02*
Y133168D01*
X889800Y128642D02*
Y129148D01*
Y130464D02*
Y131036D01*
Y132588D02*
Y133131D01*
X889900Y128676D02*
Y129200D01*
Y130412D02*
Y131003D01*
Y132488D02*
Y133081D01*
X890000Y128723D02*
Y129300D01*
Y130264D02*
Y130955D01*
Y132286D02*
Y133031D01*
X890100Y128773D02*
Y129459D01*
Y130059D02*
Y130905D01*
Y132032D02*
Y132981D01*
X890200Y128823D02*
Y130855D01*
Y132032D02*
Y132917D01*
X890300Y128873D02*
Y130805D01*
Y132032D02*
Y132817D01*
X890400Y128996D02*
Y130708D01*
Y132032D02*
Y132717D01*
X890500Y129121D02*
Y130608D01*
Y132032D02*
Y132506D01*
X890600Y129298D02*
Y130448D01*
Y132032D02*
Y132096D01*
X890700Y129576D02*
Y130157D01*
X891600Y129693D02*
Y130124D01*
X891700Y129459D02*
Y130124D01*
X891800Y129243D02*
Y130124D01*
Y131708D02*
Y132397D01*
X891900Y129118D02*
Y130124D01*
Y131508D02*
Y132647D01*
X892000Y128993D02*
Y130124D01*
Y131392D02*
Y132773D01*
X892100Y128901D02*
Y130124D01*
Y131292D02*
Y132873D01*
X892200Y128834D02*
Y129729D01*
Y131229D02*
Y132963D01*
X892300Y128768D02*
Y129480D01*
Y131169D02*
Y132085D01*
Y132147D02*
Y133023D01*
X892400Y128701D02*
Y129378D01*
Y131109D02*
Y131788D01*
Y132453D02*
Y133083D01*
X892500Y128663D02*
Y129278D01*
Y131049D02*
Y131688D01*
Y132586D02*
Y133142D01*
X892600Y128638D02*
Y129200D01*
Y130989D02*
Y131532D01*
Y132701D02*
Y133176D01*
X892700Y128613D02*
Y129125D01*
Y130929D02*
Y131498D01*
Y132741D02*
Y133209D01*
X892800Y128588D02*
Y129054D01*
Y130882D02*
Y131465D01*
Y132781D02*
Y133242D01*
X892900Y128563D02*
Y129014D01*
Y130857D02*
Y131440D01*
Y132821D02*
Y133274D01*
X893000Y128544D02*
Y128974D01*
Y130832D02*
Y131415D01*
Y132844D02*
Y133288D01*
X893100Y128533D02*
Y128934D01*
Y130807D02*
Y131385D01*
Y132858D02*
Y133302D01*
X893200Y128522D02*
Y128919D01*
Y130782D02*
Y131345D01*
Y132872D02*
Y133317D01*
X893300Y128511D02*
Y128919D01*
Y130757D02*
Y131305D01*
Y132887D02*
Y133331D01*
X893400Y128500D02*
Y128919D01*
Y130732D02*
Y131265D01*
Y132901D02*
Y133332D01*
X893500Y128489D02*
Y128922D01*
Y130707D02*
Y131242D01*
Y132889D02*
Y133319D01*
X893600Y128491D02*
Y128944D01*
Y130682D02*
Y131220D01*
Y132873D02*
Y133307D01*
X893700Y128505D02*
Y128966D01*
Y130657D02*
Y131198D01*
Y132856D02*
Y133294D01*
X893800Y128519D02*
Y128988D01*
Y130632D02*
Y131176D01*
Y132839D02*
Y133282D01*
X893900Y128534D02*
Y129010D01*
Y130607D02*
Y131154D01*
Y132806D02*
Y133263D01*
X894000Y128548D02*
Y129033D01*
Y130582D02*
Y131131D01*
Y132766D02*
Y133230D01*
X894100Y128580D02*
Y129055D01*
Y130557D02*
Y131098D01*
Y132726D02*
Y133197D01*
X894200Y128613D02*
Y129104D01*
Y130507D02*
Y131065D01*
Y132674D02*
Y133163D01*
X894300Y128647D02*
Y129154D01*
Y130457D02*
Y131032D01*
Y132574D02*
Y133124D01*
X894400Y128680D02*
Y129213D01*
Y130394D02*
Y130998D01*
Y132474D02*
Y133074D01*
X894500Y128730D02*
Y129313D01*
Y130244D02*
Y130949D01*
Y132206D02*
Y133024D01*
X894600Y128780D02*
Y129486D01*
Y130025D02*
Y130899D01*
Y132032D02*
Y132974D01*
X894700Y128830D02*
Y130849D01*
Y132032D02*
Y132903D01*
X894800Y128888D02*
Y130794D01*
Y132032D02*
Y132803D01*
X894900Y129013D02*
Y130694D01*
Y132032D02*
Y132703D01*
X895000Y129138D02*
Y130594D01*
Y132032D02*
Y132473D01*
X895100Y129331D02*
Y130414D01*
X895200Y129643D02*
Y130076D01*
X951700Y449532D02*
Y449612D01*
X951800Y449532D02*
Y449762D01*
X951900Y449532D02*
Y449912D01*
X952000Y449532D02*
Y450062D01*
X952100Y449532D02*
Y450212D01*
Y455717D02*
Y455861D01*
X952200Y449532D02*
Y450362D01*
Y455567D02*
Y455861D01*
X952300Y449532D02*
Y450512D01*
Y455417D02*
Y455861D01*
X952400Y449532D02*
Y450662D01*
Y455267D02*
Y455861D01*
X952500Y449532D02*
Y450812D01*
Y455117D02*
Y455861D01*
X952600Y449534D02*
Y450962D01*
Y454967D02*
Y455861D01*
X952700Y449681D02*
Y451112D01*
Y454817D02*
Y455861D01*
X952800Y449828D02*
Y451262D01*
Y454667D02*
Y455861D01*
X952900Y449975D02*
Y451412D01*
Y454517D02*
Y455861D01*
X953000Y450123D02*
Y451562D01*
Y454367D02*
Y455801D01*
X953100Y450270D02*
Y451712D01*
Y454217D02*
Y455662D01*
X953200Y450417D02*
Y451862D01*
Y454067D02*
Y455524D01*
X953300Y450564D02*
Y452012D01*
Y453917D02*
Y455385D01*
X953400Y450711D02*
Y452162D01*
Y453767D02*
Y455247D01*
X953500Y450858D02*
Y452312D01*
Y453617D02*
Y455108D01*
X953600Y451005D02*
Y452462D01*
Y453467D02*
Y454970D01*
X953700Y451152D02*
Y452612D01*
Y453317D02*
Y454831D01*
X953800Y451299D02*
Y452762D01*
Y453167D02*
Y454693D01*
X953900Y451446D02*
Y452912D01*
Y453017D02*
Y454554D01*
X954000Y451593D02*
Y454416D01*
X954100Y451740D02*
Y454276D01*
X954200Y451842D02*
Y454026D01*
X954300Y451951D02*
Y453788D01*
X954400Y452101D02*
Y453630D01*
X954500Y452211D02*
Y453718D01*
X954600Y452091D02*
Y453858D01*
X954700Y451925D02*
Y453998D01*
X954800Y451758D02*
Y454138D01*
X954900Y451609D02*
Y454278D01*
X955000Y451462D02*
Y452928D01*
Y453001D02*
Y454428D01*
X955100Y451315D02*
Y452778D01*
Y453151D02*
Y454578D01*
X955200Y451168D02*
Y452628D01*
Y453301D02*
Y454728D01*
X955300Y451021D02*
Y452478D01*
Y453451D02*
Y454878D01*
X955400Y450874D02*
Y452328D01*
Y453601D02*
Y455028D01*
X955500Y450727D02*
Y452178D01*
Y453751D02*
Y455178D01*
X955600Y450579D02*
Y452028D01*
Y453901D02*
Y455328D01*
X955700Y450432D02*
Y451878D01*
Y454051D02*
Y455478D01*
X955800Y450285D02*
Y451728D01*
Y454201D02*
Y455628D01*
X955900Y450138D02*
Y451578D01*
Y454351D02*
Y455778D01*
X956000Y449991D02*
Y451428D01*
Y454501D02*
Y455861D01*
X956100Y449844D02*
Y451278D01*
Y454651D02*
Y455861D01*
X956200Y449697D02*
Y451128D01*
Y454801D02*
Y455861D01*
X956300Y449550D02*
Y450978D01*
Y454951D02*
Y455861D01*
X956400Y449532D02*
Y450828D01*
Y455101D02*
Y455861D01*
X956500Y449532D02*
Y450678D01*
Y455251D02*
Y455861D01*
X956600Y449532D02*
Y450528D01*
Y455401D02*
Y455861D01*
X956700Y449532D02*
Y450378D01*
Y455551D02*
Y455861D01*
X956800Y449532D02*
Y450228D01*
Y455701D02*
Y455861D01*
X956900Y449532D02*
Y450078D01*
Y455851D02*
Y455861D01*
X957000Y449532D02*
Y449928D01*
X957100Y449532D02*
Y449778D01*
X957200Y148032D02*
Y148112D01*
Y449532D02*
Y449628D01*
X957300Y148032D02*
Y148262D01*
X957400Y148032D02*
Y148412D01*
X957500Y148032D02*
Y148562D01*
X957600Y148032D02*
Y148712D01*
Y154217D02*
Y154361D01*
Y451050D02*
Y451806D01*
X957700Y148032D02*
Y148862D01*
Y154067D02*
Y154361D01*
Y451050D02*
Y451938D01*
X957800Y148032D02*
Y149012D01*
Y153917D02*
Y154361D01*
Y451050D02*
Y452070D01*
X957900Y148032D02*
Y149162D01*
Y153767D02*
Y154361D01*
Y451050D02*
Y452203D01*
X958000Y148032D02*
Y149312D01*
Y153617D02*
Y154361D01*
Y451050D02*
Y452335D01*
X958100Y148034D02*
Y149462D01*
Y153467D02*
Y154361D01*
Y451050D02*
Y452467D01*
X958200Y148181D02*
Y149612D01*
Y153317D02*
Y154361D01*
Y451050D02*
Y452600D01*
X958300Y148328D02*
Y149762D01*
Y153167D02*
Y154361D01*
Y451050D02*
Y452732D01*
X958400Y148475D02*
Y149912D01*
Y153017D02*
Y154361D01*
Y451050D02*
Y452865D01*
X958500Y148623D02*
Y150062D01*
Y152867D02*
Y154301D01*
Y451050D02*
Y451757D01*
Y451863D02*
Y452997D01*
X958600Y148770D02*
Y150212D01*
Y152717D02*
Y154162D01*
Y451050D02*
Y451754D01*
Y451996D02*
Y453129D01*
X958700Y148917D02*
Y150362D01*
Y152567D02*
Y154024D01*
Y451050D02*
Y451754D01*
Y452130D02*
Y453262D01*
X958800Y149064D02*
Y150512D01*
Y152417D02*
Y153885D01*
Y451050D02*
Y451754D01*
Y452263D02*
Y453394D01*
X958900Y149211D02*
Y150662D01*
Y152267D02*
Y153747D01*
Y451050D02*
Y451754D01*
Y452396D02*
Y453526D01*
X959000Y149358D02*
Y150812D01*
Y152117D02*
Y153608D01*
Y451050D02*
Y451754D01*
Y452530D02*
Y453659D01*
X959100Y149505D02*
Y150962D01*
Y151967D02*
Y153470D01*
Y451050D02*
Y451754D01*
Y452663D02*
Y453791D01*
X959200Y149652D02*
Y151112D01*
Y151817D02*
Y153331D01*
Y451050D02*
Y451754D01*
Y452796D02*
Y453923D01*
X959300Y149799D02*
Y151262D01*
Y151667D02*
Y153193D01*
Y451050D02*
Y451754D01*
Y452930D02*
Y454056D01*
X959400Y149946D02*
Y151412D01*
Y151517D02*
Y153054D01*
Y451050D02*
Y451754D01*
Y453063D02*
Y454188D01*
X959500Y150093D02*
Y152916D01*
Y451050D02*
Y451754D01*
Y453196D02*
Y454320D01*
X959600Y150240D02*
Y152776D01*
Y451050D02*
Y451754D01*
Y453330D02*
Y454453D01*
X959700Y150342D02*
Y152526D01*
Y451050D02*
Y451754D01*
Y453463D02*
Y454585D01*
X959800Y150451D02*
Y152288D01*
Y451050D02*
Y451754D01*
Y453596D02*
Y454717D01*
X959900Y150601D02*
Y152130D01*
Y451050D02*
Y451754D01*
Y453730D02*
Y454850D01*
X960000Y150711D02*
Y152218D01*
Y451050D02*
Y451754D01*
Y453863D02*
Y454982D01*
X960100Y150591D02*
Y152358D01*
Y451050D02*
Y451754D01*
Y453996D02*
Y455115D01*
X960200Y150425D02*
Y152498D01*
Y451050D02*
Y451754D01*
Y454130D02*
Y455247D01*
X960300Y150258D02*
Y152638D01*
Y451050D02*
Y451754D01*
Y454263D02*
Y455379D01*
X960400Y150109D02*
Y152778D01*
Y451049D02*
Y451754D01*
Y454353D02*
Y455512D01*
X960500Y149962D02*
Y151428D01*
Y151501D02*
Y152928D01*
Y449532D02*
Y455644D01*
X960600Y149815D02*
Y151278D01*
Y151651D02*
Y153078D01*
Y449532D02*
Y455771D01*
X960700Y149668D02*
Y151128D01*
Y151801D02*
Y153228D01*
Y449532D02*
Y455771D01*
X960800Y149521D02*
Y150978D01*
Y151951D02*
Y153378D01*
Y449532D02*
Y455771D01*
X960900Y149374D02*
Y150828D01*
Y152101D02*
Y153528D01*
Y449532D02*
Y455771D01*
X961000Y149227D02*
Y150678D01*
Y152251D02*
Y153678D01*
Y449532D02*
Y455771D01*
X961100Y149079D02*
Y150528D01*
Y152401D02*
Y153828D01*
Y449532D02*
Y455771D01*
X961200Y148932D02*
Y150378D01*
Y152551D02*
Y153978D01*
Y451050D02*
Y451754D01*
X961300Y148785D02*
Y150228D01*
Y152701D02*
Y154128D01*
Y451050D02*
Y451754D01*
X961400Y148638D02*
Y150078D01*
Y152851D02*
Y154278D01*
Y451050D02*
Y451754D01*
X961500Y148491D02*
Y149928D01*
Y153001D02*
Y154361D01*
Y451050D02*
Y451754D01*
X961600Y148344D02*
Y149778D01*
Y153151D02*
Y154361D01*
Y451050D02*
Y451754D01*
X961700Y148197D02*
Y149628D01*
Y153301D02*
Y154361D01*
Y451050D02*
Y451754D01*
X961800Y148050D02*
Y149478D01*
Y153451D02*
Y154361D01*
Y451050D02*
Y451754D01*
X961900Y148032D02*
Y149328D01*
Y153601D02*
Y154361D01*
Y451050D02*
Y451754D01*
X962000Y148032D02*
Y149178D01*
Y153751D02*
Y154361D01*
X962100Y148032D02*
Y149028D01*
Y153901D02*
Y154361D01*
X962200Y148032D02*
Y148878D01*
Y154051D02*
Y154361D01*
X962300Y148032D02*
Y148728D01*
Y154201D02*
Y154361D01*
X962400Y148032D02*
Y148578D01*
Y154351D02*
Y154361D01*
X962500Y148032D02*
Y148428D01*
X962600Y148032D02*
Y148278D01*
X962700Y148032D02*
Y148128D01*
X963500Y149456D02*
Y149640D01*
X963600Y149056D02*
Y149651D01*
Y152751D02*
Y152886D01*
X963700Y148870D02*
Y149662D01*
Y152740D02*
Y153153D01*
X963800Y148730D02*
Y149674D01*
Y152729D02*
Y153413D01*
X963900Y148590D02*
Y149685D01*
Y152718D02*
Y153563D01*
X964000Y148450D02*
Y149696D01*
Y152707D02*
Y153713D01*
X964100Y148350D02*
Y149707D01*
Y152696D02*
Y153863D01*
X964200Y148293D02*
Y149599D01*
Y152685D02*
Y153966D01*
X964300Y148236D02*
Y149299D01*
Y152795D02*
Y154033D01*
X964400Y148179D02*
Y149115D01*
Y153045D02*
Y154099D01*
X964500Y148121D02*
Y148982D01*
Y153255D02*
Y154166D01*
X964600Y148064D02*
Y148849D01*
Y153454D02*
Y154233D01*
X964700Y148025D02*
Y148791D01*
Y153513D02*
Y154278D01*
X964800Y148013D02*
Y148741D01*
Y153563D02*
Y154291D01*
X964900Y148000D02*
Y148691D01*
Y153613D02*
Y154303D01*
X965000Y147988D02*
Y148645D01*
Y151083D02*
Y151329D01*
Y153659D02*
Y154316D01*
X965100Y147975D02*
Y148625D01*
Y151100D02*
Y151682D01*
Y153684D02*
Y154328D01*
X965200Y147963D02*
Y148605D01*
Y151117D02*
Y151682D01*
Y153709D02*
Y154341D01*
X965300Y147950D02*
Y148585D01*
Y151133D02*
Y151682D01*
Y153734D02*
Y154353D01*
X965400Y147952D02*
Y148565D01*
Y151150D02*
Y151682D01*
Y153739D02*
Y154351D01*
X965500Y147972D02*
Y148565D01*
Y151149D02*
Y151682D01*
Y153719D02*
Y154331D01*
X965600Y147992D02*
Y148582D01*
Y151132D02*
Y151682D01*
Y153699D02*
Y154311D01*
X965700Y148012D02*
Y148599D01*
Y151116D02*
Y151726D01*
Y153679D02*
Y154291D01*
X965800Y148032D02*
Y148615D01*
Y151099D02*
Y151801D01*
Y153659D02*
Y154269D01*
X965900Y148052D02*
Y148632D01*
Y151082D02*
Y151876D01*
Y153603D02*
Y154229D01*
X966000Y148072D02*
Y148650D01*
Y151065D02*
Y151951D01*
Y153536D02*
Y154189D01*
X966100Y148092D02*
Y148722D01*
Y150992D02*
Y152047D01*
Y153470D02*
Y154149D01*
X966200Y148112D02*
Y148797D01*
Y150917D02*
Y151464D01*
Y152147*
Y153283D02*
Y154109D01*
X966300Y148158D02*
Y148872D01*
Y150842D02*
Y151395D01*
Y151564D02*
Y152263D01*
Y153078D02*
Y154043D01*
X966400Y148215D02*
Y148968D01*
Y150752D02*
Y151362D01*
Y151639D02*
Y153968D01*
X966500Y148272D02*
Y149135D01*
Y150619D02*
Y151328D01*
Y151714D02*
Y153893D01*
X966600Y148329D02*
Y149302D01*
Y150486D02*
Y151295D01*
Y151789D02*
Y153818D01*
X966700Y148386D02*
Y149620D01*
Y150140D02*
Y151262D01*
Y151864D02*
Y153743D01*
X966800Y148443D02*
Y151201D01*
Y151939D02*
Y153668D01*
X966900Y148563D02*
Y151101D01*
Y152014D02*
Y153593D01*
X967000Y148723D02*
Y151001D01*
Y152349D02*
Y153174D01*
X967100Y148883D02*
Y150901D01*
X967200Y149043D02*
Y150736D01*
X967300Y149263D02*
Y150569D01*
X967400Y149663D02*
Y150204D01*
*
G04 PC Custom Flashes*
G04 Layer Name D3005H100_A.PCB - flashes*
%LPD*%
*
*
G04 PC Circuitry*
G04 Layer Name D3005H100_A.PCB - circuitry*
%LPD*%
*
G54D10*
X168750Y278750D02*
X231250D01*
Y341250*
X168750*
Y278750*
X175000Y310000D02*
G75*
G03X178305Y297580I25156J44D01*
G01X187060Y288600D02*
G03X225000Y310022I12922J21422D01*
G01X212576Y331607D02*
G03X175000Y310000I-12576J-21607D01*
G01X225000Y309494D02*
G03X221097Y323061I-25530J0D01*
G01X168750Y153750D02*
X231250D01*
Y216250*
X168750*
Y153750*
X175000Y185000D02*
G03X178305Y172580I25156J44D01*
G01X187060Y163600D02*
G03X225000Y185022I12922J21422D01*
G01X212576Y206607D02*
G03X175000Y185000I-12576J-21607D01*
G01X225000Y184494D02*
G03X221097Y198061I-25530J0D01*
G01X627000Y310000D02*
G03X627000I-12000J0D01*
G01X625000Y303500D02*
Y316500D01*
X438500Y336500D02*
X430500D01*
Y320000*
X471500Y336500D02*
X479500D01*
Y320000*
X452000Y336500D02*
X458000D01*
X430500Y300000D02*
Y283500D01*
X440000*
X470000D02*
X479500D01*
Y300000*
X466800Y310000D02*
G03X466800I-11800J0D01*
G01X445000Y304100D02*
X465000D01*
X438500Y211500D02*
X430500D01*
Y195000*
X471500Y211500D02*
X479500D01*
Y195000*
X452000Y211500D02*
X458000D01*
X430500Y175000D02*
Y158500D01*
X440000*
X470000D02*
X479500D01*
Y175000*
X466800Y185000D02*
G03X466800I-11800J0D01*
G01X445000Y179100D02*
X465000D01*
X758500Y336500D02*
X750500D01*
Y320000*
X791500Y336500D02*
X799500D01*
Y320000*
X772000Y336500D02*
X778000D01*
X750500Y300000D02*
Y283500D01*
X760000*
X790000D02*
X799500D01*
Y300000*
X786800Y310000D02*
G03X786800I-11800J0D01*
G01X765000Y304100D02*
X785000D01*
X758500Y211500D02*
X750500D01*
Y195000*
X791500Y211500D02*
X799500D01*
Y195000*
X772000Y211500D02*
X778000D01*
X750500Y175000D02*
Y158500D01*
X760000*
X790000D02*
X799500D01*
Y175000*
X786800Y185000D02*
G03X786800I-11800J0D01*
G01X765000Y179100D02*
X785000D01*
X284000Y274500D02*
X316000D01*
Y345500*
X284000*
Y274500*
Y281000D02*
X290500Y274500D01*
X284000Y149500D02*
X316000D01*
Y220500*
X284000*
Y149500*
Y156000D02*
X290500Y149500D01*
G54D12*
X980000Y510000D02*
Y510500D01*
Y510000D02*
X980500D01*
X980000D02*
Y509500D01*
Y510000D02*
X979500D01*
X981500D02*
X986500D01*
X980000Y508500D02*
Y505100D01*
Y511500D02*
Y516000D01*
X974000Y510000D02*
X978500D01*
X983000D02*
G03X983000I-3000J0D01*
G01X982000D02*
G03X982000I-2000J0D01*
G01X655000Y740000D02*
Y740500D01*
Y740000D02*
X655500D01*
X655000D02*
Y739500D01*
Y740000D02*
X654500D01*
X656500D02*
X661500D01*
X655000Y738500D02*
Y735100D01*
Y741500D02*
Y746000D01*
X649000Y740000D02*
X653500D01*
X658000D02*
G03X658000I-3000J0D01*
G01X657000D02*
G03X657000I-2000J0D01*
G01X380000D02*
Y740500D01*
Y740000D02*
X380500D01*
X380000D02*
Y739500D01*
Y740000D02*
X379500D01*
X381500D02*
X386500D01*
X380000Y738500D02*
Y735100D01*
Y741500D02*
Y746000D01*
X374000Y740000D02*
X378500D01*
X383000D02*
G03X383000I-3000J0D01*
G01X382000D02*
G03X382000I-2000J0D01*
G54D59*
G54D61*
G01X100000Y100000D02*
Y100500D01*
Y100000D02*
X100500D01*
X100000D02*
Y99500D01*
Y100000D02*
X99500D01*
X101500D02*
X106500D01*
X100000Y98500D02*
Y95100D01*
Y101500D02*
Y106000D01*
X94000Y100000D02*
X98500D01*
X103000D02*
G03X103000I-3000J0D01*
G01X102000D02*
G03X102000I-2000J0D01*
G01X90000Y90000D02*
Y90500D01*
Y90000D02*
X90500D01*
X90000D02*
Y89500D01*
Y90000D02*
X89500D01*
X91500D02*
X96500D01*
X90000Y88500D02*
Y85100D01*
Y91500D02*
Y96000D01*
X84000Y90000D02*
X88500D01*
X93000D02*
G03X93000I-3000J0D01*
G01X92000D02*
G03X92000I-2000J0D01*
G74*
G01X0Y0D02*
M02*
