*
*
G04 PADS VX.2.2 Build Number: 7607494 generated Gerber (RS-274-X) file*
G04 PC Version=2.1*
*
%IN "D3005H100_A.PCB"*%
*
%MOIN*%
*
%FSLAX35Y35*%
*
*
*
*
G04 PC Standard Apertures*
*
*
G04 Thermal Relief Aperture macro.*
%AMTER*
1,1,$1,0,0*
1,0,$1-$2,0,0*
21,0,$3,$4,0,0,45*
21,0,$3,$4,0,0,135*
%
*
*
G04 Annular Aperture macro.*
%AMANN*
1,1,$1,0,0*
1,0,$2,0,0*
%
*
*
G04 Odd Aperture macro.*
%AMODD*
1,1,$1,0,0*
1,0,$1-0.005,0,0*
%
*
*
G04 PC Custom Aperture Macros*
*
*
*
*
*
*
G04 PC Aperture Table*
*
%ADD010C,0.01*%
%ADD011C,0.012*%
%ADD012C,0.005*%
%ADD013C,0.09*%
%ADD014C,0.1*%
%ADD017C,0.12*%
%ADD019O,0.07X0.1*%
%ADD020O,0.1X0.07*%
%ADD021C,0.06*%
%ADD022C,0.07*%
%ADD028C,0.05*%
%ADD032C,0.11*%
%ADD034C,0.13*%
%ADD044C,0.15*%
%ADD057R,0.11X0.11*%
%ADD059C,0.001*%
%ADD061C,0.007*%
%ADD065C,0.02*%
%ADD066C,0.04*%
%ADD070R,0.06X0.06*%
%ADD071R,0.117X0.117*%
%ADD072C,0.117*%
%ADD073R,0.07X0.07*%
%ADD074O,0.08X0.1*%
%ADD075R,0.1X0.07*%
%ADD076O,0.068X0.1*%
%ADD077O,0.071X0.173*%
%ADD078C,0.125*%
%ADD079C,0.085*%
%ADD080C,0.108*%
*
*
*
*
G04 PC Circuitry*
G04 Layer Name D3005H100_A.PCB - circuitry*
%LPD*%
*
G54D59*
G01X912707Y113050D02*
X910806Y117771D01*
X910136*
X908235Y113050*
X908862*
X909386Y114490*
X909433Y114523*
X911509*
X911556Y114490*
X912080Y113050*
X912707*
X911308Y114959D02*
X909634D01*
X909584Y115009*
X909587Y115027*
X910123Y116433*
X910458Y117304*
X910553Y117299*
X910686Y116833*
X910886Y116299*
X911355Y115026*
X911308Y114959*
X908044Y114892D02*
X906336D01*
Y114456*
X908044*
Y114892*
X905699Y114340D02*
X905635Y114728D01*
X905506Y115048*
X905252Y115303*
X904860Y115498*
X904464Y115630*
X903864Y115764*
X903856Y115766*
X903525Y115899*
X903260Y115965*
X903257Y115966*
X903056Y116033*
X903027Y116058*
X902963Y116185*
X902835Y116313*
X902822Y116336*
X902755Y116604*
X902754Y116616*
X902755Y116628*
X902822Y116896*
X902831Y116914*
X903031Y117182*
X903053Y117198*
X903388Y117332*
X903399Y117335*
X903868Y117402*
X903883*
X904285Y117335*
X904295Y117332*
X904630Y117198*
X904647Y117187*
X904915Y116919*
X904929Y116892*
X904989Y116532*
X905557*
X905501Y116870*
X905373Y117191*
X905118Y117446*
X904726Y117641*
X904333Y117772*
X903808Y117838*
X903351Y117773*
X902959Y117642*
X902634Y117447*
X902377Y117191*
X902249Y116870*
X902185Y116549*
X902249Y116231*
X902376Y115976*
X902567Y115785*
X903225Y115390*
X904557Y115057*
X904567Y115054*
X904835Y114920*
X904854Y114903*
X904988Y114702*
X904993Y114693*
X905127Y114358*
X905130Y114339*
Y114138*
X905125Y114116*
X904991Y113848*
X904982Y113835*
X904848Y113701*
X904835Y113692*
X904567Y113558*
X904555Y113554*
X903953Y113420*
X903942Y113419*
X903607*
X903589Y113422*
X903254Y113556*
X903242Y113563*
X902974Y113764*
X902969Y113768*
X902768Y113969*
X902757Y113986*
X902623Y114321*
X902621Y114329*
X902562Y114624*
X901991*
X902049Y114219*
X902244Y113763*
X902503Y113439*
X902891Y113180*
X903415Y113049*
X904008Y112983*
X904466Y113049*
X904860Y113180*
X905249Y113375*
X905505Y113695*
X905635Y114019*
X905699Y114340*
X901213D02*
X901148Y114728D01*
X901020Y115048*
X900765Y115303*
X900374Y115498*
X899978Y115630*
X899378Y115764*
X899370Y115766*
X899038Y115899*
X898774Y115965*
X898770Y115966*
X898569Y116033*
X898540Y116058*
X898477Y116185*
X898349Y116313*
X898335Y116336*
X898268Y116604*
X898267Y116616*
X898268Y116628*
X898335Y116896*
X898344Y116914*
X898545Y117182*
X898566Y117198*
X898901Y117332*
X898913Y117335*
X899381Y117402*
X899397*
X899798Y117335*
X899809Y117332*
X900144Y117198*
X900160Y117187*
X900428Y116919*
X900442Y116892*
X900502Y116532*
X901070*
X901014Y116870*
X900886Y117191*
X900631Y117446*
X900240Y117641*
X899846Y117772*
X899322Y117838*
X898864Y117773*
X898472Y117642*
X898147Y117447*
X897891Y117191*
X897762Y116870*
X897698Y116549*
X897762Y116231*
X897889Y115976*
X898080Y115785*
X898738Y115390*
X900070Y115057*
X900080Y115054*
X900348Y114920*
X900367Y114903*
X900501Y114702*
X900506Y114693*
X900640Y114358*
X900644Y114339*
Y114138*
X900638Y114116*
X900505Y113848*
X900495Y113835*
X900361Y113701*
X900348Y113692*
X900080Y113558*
X900069Y113554*
X899466Y113420*
X899455Y113419*
X899121*
X899102Y113422*
X898767Y113556*
X898756Y113563*
X898488Y113764*
X898483Y113768*
X898282Y113969*
X898271Y113986*
X898137Y114321*
X898134Y114329*
X898075Y114624*
X897504*
X897562Y114219*
X897758Y113763*
X898016Y113439*
X898404Y113180*
X898929Y113049*
X899522Y112983*
X899980Y113049*
X900374Y113180*
X900762Y113375*
X901019Y113695*
X901148Y114019*
X901213Y114340*
X896459Y117771D02*
X895889D01*
Y113050*
X896459*
Y117771*
X892977Y116740D02*
X892849Y117060D01*
X892654Y117320*
X892464Y117510*
X891874Y117706*
X891614Y117771*
X889461*
Y113050*
X890030*
Y115009*
X890080Y115059*
X891750*
X892075Y115124*
X892396Y115252*
X892587Y115443*
X892912Y115898*
X892977Y116418*
Y116740*
X892407Y116683D02*
Y116415D01*
X892406Y116405*
X892339Y116071*
X892333Y116055*
X892132Y115720*
X892108Y115699*
X891773Y115565*
X891762Y115562*
X891293Y115495*
X891286*
X890080*
X890030Y115545*
Y117286*
X890080Y117336*
X891621*
X891636Y117333*
X892038Y117199*
X892058Y117187*
X892259Y116986*
X892268Y116973*
X892402Y116705*
X892407Y116683*
X888490Y115410D02*
X888424Y116070D01*
X888227Y116660*
X887900Y117118*
X887442Y117511*
X886853Y117773*
X886264Y117838*
X885805Y117772*
X885346Y117641*
X885020Y117445*
X884691Y117183*
X884364Y116789*
X884169Y116400*
X884037Y115343*
X884103Y114752*
X884300Y114161*
X884626Y113704*
X885085Y113311*
X885674Y113049*
X886263Y112983*
X886854Y113049*
X887376Y113245*
X887835Y113638*
X888228Y114097*
X888424Y114684*
X888490Y115410*
X887921Y115411D02*
X887921D01*
X887920Y115402*
X887786Y114599*
X887781Y114585*
X887447Y113915*
X887431Y113897*
X886962Y113562*
X886943Y113554*
X886273Y113420*
X886253*
X885650Y113554*
X885634Y113560*
X885099Y113895*
X885099D02*
X885081Y113913D01*
X884746Y114516*
X884741Y114532*
X884607Y115336*
X884606Y115344*
Y115813*
X884606D02*
X884608Y115826D01*
X884742Y116295*
X884744Y116300*
X884878Y116635*
X884884Y116646*
X885085Y116914*
X885099Y116926*
X885099D02*
X885634Y117261D01*
X885650Y117268*
X886253Y117401*
X886270Y117402*
X886739Y117335*
X886755Y117330*
X886755D02*
X887156Y117130D01*
X887165Y117124*
X887500Y116856*
X887513Y116839*
X887714Y116438*
X887718Y116429*
X887852Y115960*
X887853Y115953*
X887920Y115417*
X887921Y115411*
X883468Y117771D02*
X879684D01*
Y117336*
X881241*
X881291Y117286*
Y113050*
X881861*
Y117286*
X881911Y117336*
X883468*
Y117771*
X879700Y117336D02*
Y117771D01*
X879800Y117336D02*
Y117771D01*
X879900Y117336D02*
Y117771D01*
X880000Y117336D02*
Y117771D01*
X880100Y117336D02*
Y117771D01*
X880200Y117336D02*
Y117771D01*
X880300Y117336D02*
Y117771D01*
X880400Y117336D02*
Y117771D01*
X880500Y117336D02*
Y117771D01*
X880600Y117336D02*
Y117771D01*
X880700Y117336D02*
Y117771D01*
X880800Y117336D02*
Y117771D01*
X880900Y117336D02*
Y117771D01*
X881000Y117336D02*
Y117771D01*
X881100Y117336D02*
Y117771D01*
X881200Y117336D02*
Y117771D01*
X881300Y113050D02*
Y117771D01*
X881400Y113050D02*
Y117771D01*
X881500Y113050D02*
Y117771D01*
X881600Y113050D02*
Y117771D01*
X881700Y113050D02*
Y117771D01*
X881800Y113050D02*
Y117771D01*
X881900Y117335D02*
Y117771D01*
X882000Y117336D02*
Y117771D01*
X882100Y117336D02*
Y117771D01*
X882200Y117336D02*
Y117771D01*
X882300Y117336D02*
Y117771D01*
X882400Y117336D02*
Y117771D01*
X882500Y117336D02*
Y117771D01*
X882600Y117336D02*
Y117771D01*
X882700Y117336D02*
Y117771D01*
X882800Y117336D02*
Y117771D01*
X882900Y117336D02*
Y117771D01*
X883000Y117336D02*
Y117771D01*
X883100Y117336D02*
Y117771D01*
X883200Y117336D02*
Y117771D01*
X883300Y117336D02*
Y117771D01*
X883400Y117336D02*
Y117771D01*
X884100Y114776D02*
Y115848D01*
X884200Y114460D02*
Y116462D01*
X884300Y114161D02*
Y116662D01*
X884400Y114021D02*
Y116833D01*
X884500Y113881D02*
Y116953D01*
X884600Y113741D02*
Y117073D01*
X884700Y113641D02*
Y114777D01*
Y116148D02*
Y117190D01*
X884800Y113555D02*
Y114420D01*
Y116440D02*
Y117270D01*
X884900Y113469D02*
Y114240D01*
Y116667D02*
Y117350D01*
X885000Y113383D02*
Y114060D01*
Y116801D02*
Y117430D01*
X885100Y113304D02*
Y113894D01*
Y116927D02*
Y117494D01*
X885200Y113259D02*
Y113832D01*
Y116990D02*
Y117554D01*
X885300Y113215D02*
Y113769D01*
Y117052D02*
Y117614D01*
X885400Y113171D02*
Y113707D01*
Y117115D02*
Y117657D01*
X885500Y113126D02*
Y113644D01*
Y117177D02*
Y117685D01*
X885600Y113082D02*
Y113582D01*
Y117240D02*
Y117714D01*
X885700Y113046D02*
Y113543D01*
Y117279D02*
Y117742D01*
X885800Y113035D02*
Y113521D01*
Y117301D02*
Y117771D01*
X885900Y113024D02*
Y113498D01*
Y117323D02*
Y117786D01*
X886000Y113013D02*
Y113476D01*
Y117345D02*
Y117800D01*
X886100Y113001D02*
Y113454D01*
Y117368D02*
Y117815D01*
X886200Y112990D02*
Y113432D01*
Y117390D02*
Y117829D01*
X886300Y112987D02*
Y113425D01*
Y117398D02*
Y117834D01*
X886400Y112999D02*
Y113445D01*
Y117384D02*
Y117823D01*
X886500Y113010D02*
Y113465D01*
Y117369D02*
Y117812D01*
X886600Y113021D02*
Y113485D01*
Y117355D02*
Y117801D01*
X886700Y113032D02*
Y113505D01*
Y117341D02*
Y117790D01*
X886800Y113043D02*
Y113525D01*
Y117308D02*
Y117778D01*
X886900Y113066D02*
Y113545D01*
Y117258D02*
Y117752D01*
X887000Y113104D02*
Y113589D01*
Y117208D02*
Y117707D01*
X887100Y113141D02*
Y113660D01*
Y117158D02*
Y117663D01*
X887200Y113179D02*
Y113732D01*
Y117096D02*
Y117618D01*
X887300Y113216D02*
Y113803D01*
Y117016D02*
Y117574D01*
X887400Y113265D02*
Y113875D01*
Y116936D02*
Y117529D01*
X887500Y113351D02*
Y114022D01*
Y116856D02*
Y117461D01*
X887600Y113437D02*
Y114222D01*
Y116666D02*
Y117375D01*
X887700Y113522D02*
Y114422D01*
Y116466D02*
Y117290D01*
X887800Y113608D02*
Y114683D01*
Y116141D02*
Y117204D01*
X887900Y113714D02*
Y115283D01*
Y115578D02*
Y117118D01*
X888000Y113831D02*
Y116978D01*
X888100Y113947D02*
Y116838D01*
X888200Y114064D02*
Y116698D01*
X888300Y114313D02*
Y116442D01*
X888400Y114613D02*
Y116142D01*
X889500Y113050D02*
Y117771D01*
X889600Y113050D02*
Y117771D01*
X889700Y113050D02*
Y117771D01*
X889800Y113050D02*
Y117771D01*
X889900Y113050D02*
Y117771D01*
X890000Y113050D02*
Y117771D01*
X890100Y115059D02*
Y115495D01*
Y117336D02*
Y117771D01*
X890200Y115059D02*
Y115495D01*
Y117336D02*
Y117771D01*
X890300Y115059D02*
Y115495D01*
Y117336D02*
Y117771D01*
X890400Y115059D02*
Y115495D01*
Y117336D02*
Y117771D01*
X890500Y115059D02*
Y115495D01*
Y117336D02*
Y117771D01*
X890600Y115059D02*
Y115495D01*
Y117336D02*
Y117771D01*
X890700Y115059D02*
Y115495D01*
Y117336D02*
Y117771D01*
X890800Y115059D02*
Y115495D01*
Y117336D02*
Y117771D01*
X890900Y115059D02*
Y115495D01*
Y117336D02*
Y117771D01*
X891000Y115059D02*
Y115495D01*
Y117336D02*
Y117771D01*
X891100Y115059D02*
Y115495D01*
Y117336D02*
Y117771D01*
X891200Y115059D02*
Y115495D01*
Y117336D02*
Y117771D01*
X891300Y115059D02*
Y115496D01*
Y117336D02*
Y117771D01*
X891400Y115059D02*
Y115510D01*
Y117336D02*
Y117771D01*
X891500Y115059D02*
Y115525D01*
Y117336D02*
Y117771D01*
X891600Y115059D02*
Y115539D01*
Y117336D02*
Y117771D01*
X891700Y115059D02*
Y115553D01*
Y117312D02*
Y117750D01*
X891800Y115069D02*
Y115576D01*
Y117279D02*
Y117725D01*
X891900Y115089D02*
Y115616D01*
Y117245D02*
Y117698D01*
X892000Y115109D02*
Y115656D01*
Y117212D02*
Y117665D01*
X892100Y115134D02*
Y115696D01*
Y117145D02*
Y117631D01*
X892200Y115174D02*
Y115833D01*
Y117045D02*
Y117598D01*
X892300Y115214D02*
Y116000D01*
Y116909D02*
Y117565D01*
X892400Y115256D02*
Y116375D01*
Y116709D02*
Y117531D01*
X892500Y115356D02*
Y117474D01*
X892600Y115462D02*
Y117374D01*
X892700Y115602D02*
Y117259D01*
X892800Y115742D02*
Y117125D01*
X892900Y115882D02*
Y116932D01*
X895900Y113050D02*
Y117771D01*
X896000Y113050D02*
Y117771D01*
X896100Y113050D02*
Y117771D01*
X896200Y113050D02*
Y117771D01*
X896300Y113050D02*
Y117771D01*
X896400Y113050D02*
Y117771D01*
X897600Y114130D02*
Y114624D01*
X897700Y113897D02*
Y114624D01*
Y116541D02*
Y116558D01*
X897800Y113710D02*
Y114624D01*
Y116155D02*
Y116964D01*
X897900Y113585D02*
Y114624D01*
Y115965D02*
Y117200D01*
X898000Y113460D02*
Y114624D01*
Y115865D02*
Y117300D01*
X898100Y113383D02*
Y114500D01*
Y115773D02*
Y117400D01*
X898200Y113317D02*
Y114162D01*
Y115713D02*
Y117479D01*
X898300Y113250D02*
Y113951D01*
Y115653D02*
Y116478D01*
Y116754D02*
Y117539D01*
X898400Y113183D02*
Y113851D01*
Y115593D02*
Y116261D01*
Y116989D02*
Y117599D01*
X898500Y113156D02*
Y113754D01*
Y115533D02*
Y116138D01*
Y117122D02*
Y117651D01*
X898600Y113131D02*
Y113679D01*
Y115473D02*
Y116023D01*
Y117212D02*
Y117684D01*
X898700Y113106D02*
Y113604D01*
Y115413D02*
Y115989D01*
Y117252D02*
Y117718D01*
X898800Y113081D02*
Y113543D01*
Y115375D02*
Y115958D01*
Y117292D02*
Y117751D01*
X898900Y113056D02*
Y113503D01*
Y115350D02*
Y115933D01*
Y117332D02*
Y117778D01*
X899000Y113041D02*
Y113463D01*
Y115325D02*
Y115908D01*
Y117348D02*
Y117792D01*
X899100Y113030D02*
Y113423D01*
Y115300D02*
Y115874D01*
Y117362D02*
Y117806D01*
X899200Y113019D02*
Y113419D01*
Y115275D02*
Y115834D01*
Y117376D02*
Y117821D01*
X899300Y113008D02*
Y113419D01*
Y115250D02*
Y115794D01*
Y117391D02*
Y117835D01*
X899400Y112997D02*
Y113419D01*
Y115225D02*
Y115759D01*
Y117401D02*
Y117828D01*
X899500Y112986D02*
Y113427D01*
Y115200D02*
Y115736D01*
Y117385D02*
Y117816D01*
X899600Y112995D02*
Y113450D01*
Y115175D02*
Y115714D01*
Y117368D02*
Y117803D01*
X899700Y113009D02*
Y113472D01*
Y115150D02*
Y115692D01*
Y117351D02*
Y117791D01*
X899800Y113023D02*
Y113494D01*
Y115125D02*
Y115670D01*
Y117335D02*
Y117778D01*
X899900Y113037D02*
Y113516D01*
Y115100D02*
Y115648D01*
Y117296D02*
Y117754D01*
X900000Y113056D02*
Y113539D01*
Y115075D02*
Y115623D01*
Y117256D02*
Y117721D01*
X900100Y113089D02*
Y113568D01*
Y115044D02*
Y115590D01*
Y117216D02*
Y117688D01*
X900200Y113122D02*
Y113618D01*
Y114994D02*
Y115556D01*
Y117147D02*
Y117654D01*
X900300Y113156D02*
Y113668D01*
Y114944D02*
Y115523D01*
Y117047D02*
Y117611D01*
X900400Y113193D02*
Y113740D01*
Y114854D02*
Y115485D01*
Y116947D02*
Y117561D01*
X900500Y113243D02*
Y113841D01*
Y114704D02*
Y115435D01*
Y116545D02*
Y117511D01*
X900600Y113293D02*
Y114039D01*
Y114458D02*
Y115385D01*
Y116532D02*
Y117461D01*
X900700Y113343D02*
Y115335D01*
Y116532D02*
Y117377D01*
X900800Y113422D02*
Y115268D01*
Y116532D02*
Y117277D01*
X900900Y113547D02*
Y115168D01*
Y116532D02*
Y117156D01*
X901000Y113672D02*
Y115068D01*
Y116532D02*
Y116906D01*
X901100Y113898D02*
Y114848D01*
X901200Y114277D02*
Y114416D01*
X902000Y114559D02*
Y114624D01*
X902100Y114099D02*
Y114624D01*
X902200Y113866D02*
Y114624D01*
Y116474D02*
Y116625D01*
X902300Y113693D02*
Y114624D01*
Y116128D02*
Y116997D01*
X902400Y113568D02*
Y114624D01*
Y115952D02*
Y117213D01*
X902500Y113443D02*
Y114624D01*
Y115852D02*
Y117313D01*
X902600Y113374D02*
Y114433D01*
Y115765D02*
Y117413D01*
X902700Y113308D02*
Y114129D01*
Y115705D02*
Y117487D01*
X902800Y113241D02*
Y113937D01*
Y115645D02*
Y116424D01*
Y116808D02*
Y117547D01*
X902900Y113178D02*
Y113837D01*
Y115585D02*
Y116248D01*
Y117007D02*
Y117607D01*
X903000Y113153D02*
Y113744D01*
Y115525D02*
Y116111D01*
Y117140D02*
Y117656D01*
X903100Y113128D02*
Y113669D01*
Y115465D02*
Y116018D01*
Y117217D02*
Y117689D01*
X903200Y113103D02*
Y113594D01*
Y115405D02*
Y115985D01*
Y117257D02*
Y117722D01*
X903300Y113078D02*
Y113538D01*
Y115372D02*
Y115955D01*
Y117297D02*
Y117756D01*
X903400Y113053D02*
Y113498D01*
Y115347D02*
Y115930D01*
Y117335D02*
Y117780D01*
X903500Y113040D02*
Y113458D01*
Y115322D02*
Y115905D01*
Y117350D02*
Y117794D01*
X903600Y113029D02*
Y113419D01*
Y115297D02*
Y115869D01*
Y117364D02*
Y117808D01*
X903700Y113018D02*
Y113419D01*
Y115272D02*
Y115829D01*
Y117378D02*
Y117822D01*
X903800Y113007D02*
Y113419D01*
Y115247D02*
Y115789D01*
Y117392D02*
Y117837D01*
X903900Y112995D02*
Y113419D01*
Y115222D02*
Y115756D01*
Y117399D02*
Y117827D01*
X904000Y112984D02*
Y113430D01*
Y115197D02*
Y115734D01*
Y117383D02*
Y117814D01*
X904100Y112997D02*
Y113453D01*
Y115172D02*
Y115711D01*
Y117366D02*
Y117802D01*
X904200Y113011D02*
Y113475D01*
Y115147D02*
Y115689D01*
Y117349D02*
Y117789D01*
X904300Y113025D02*
Y113497D01*
Y115122D02*
Y115667D01*
Y117330D02*
Y117777D01*
X904400Y113039D02*
Y113519D01*
Y115097D02*
Y115645D01*
Y117290D02*
Y117750D01*
X904500Y113060D02*
Y113542D01*
Y115072D02*
Y115618D01*
Y117250D02*
Y117717D01*
X904600Y113093D02*
Y113574D01*
Y115037D02*
Y115585D01*
Y117210D02*
Y117683D01*
X904700Y113127D02*
Y113624D01*
Y114987D02*
Y115552D01*
Y117134D02*
Y117650D01*
X904800Y113160D02*
Y113674D01*
Y114937D02*
Y115518D01*
Y117034D02*
Y117604D01*
X904900Y113200D02*
Y113753D01*
Y114834D02*
Y115478D01*
Y116934D02*
Y117554D01*
X905000Y113250D02*
Y113866D01*
Y114675D02*
Y115428D01*
Y116532D02*
Y117504D01*
X905100Y113300D02*
Y114066D01*
Y114425D02*
Y115378D01*
Y116532D02*
Y117454D01*
X905200Y113350D02*
Y115328D01*
Y116532D02*
Y117363D01*
X905300Y113438D02*
Y115254D01*
Y116532D02*
Y117263D01*
X905400Y113563D02*
Y115154D01*
Y116532D02*
Y117122D01*
X905500Y113688D02*
Y115054D01*
Y116532D02*
Y116872D01*
X905600Y113931D02*
Y114814D01*
X906400Y114456D02*
Y114892D01*
X906500Y114456D02*
Y114892D01*
X906600Y114456D02*
Y114892D01*
X906700Y114456D02*
Y114892D01*
X906800Y114456D02*
Y114892D01*
X906900Y114456D02*
Y114892D01*
X907000Y114456D02*
Y114892D01*
X907100Y114456D02*
Y114892D01*
X907200Y114456D02*
Y114892D01*
X907300Y114456D02*
Y114892D01*
X907400Y114456D02*
Y114892D01*
X907500Y114456D02*
Y114892D01*
X907600Y114456D02*
Y114892D01*
X907700Y114456D02*
Y114892D01*
X907800Y114456D02*
Y114892D01*
X907900Y114456D02*
Y114892D01*
X908000Y114456D02*
Y114892D01*
X908300Y113050D02*
Y113212D01*
X908400Y113050D02*
Y113460D01*
X908500Y113050D02*
Y113709D01*
X908600Y113050D02*
Y113957D01*
X908700Y113050D02*
Y114205D01*
X908800Y113050D02*
Y114453D01*
X908900Y113154D02*
Y114702D01*
X909000Y113429D02*
Y114950D01*
X909100Y113704D02*
Y115198D01*
X909200Y113979D02*
Y115446D01*
X909300Y114254D02*
Y115695D01*
X909400Y114511D02*
Y115943D01*
X909500Y114523D02*
Y116191D01*
X909600Y114523D02*
Y114972D01*
Y115060D02*
Y116440D01*
X909700Y114523D02*
Y114959D01*
Y115323D02*
Y116688D01*
X909800Y114523D02*
Y114959D01*
Y115585D02*
Y116936D01*
X909900Y114523D02*
Y114959D01*
Y115848D02*
Y117184D01*
X910000Y114523D02*
Y114959D01*
Y116110D02*
Y117433D01*
X910100Y114523D02*
Y114959D01*
Y116373D02*
Y117681D01*
X910200Y114523D02*
Y114959D01*
Y116633D02*
Y117771D01*
X910300Y114523D02*
Y114959D01*
Y116893D02*
Y117771D01*
X910400Y114523D02*
Y114959D01*
Y117153D02*
Y117771D01*
X910500Y114523D02*
Y114959D01*
Y117336D02*
Y117771D01*
X910600Y114523D02*
Y114959D01*
Y117133D02*
Y117771D01*
X910700Y114523D02*
Y114959D01*
Y116795D02*
Y117771D01*
X910800Y114523D02*
Y114959D01*
Y116528D02*
Y117771D01*
X910900Y114523D02*
Y114959D01*
Y116261D02*
Y117537D01*
X911000Y114523D02*
Y114959D01*
Y115990D02*
Y117289D01*
X911100Y114523D02*
Y114959D01*
Y115718D02*
Y117040D01*
X911200Y114523D02*
Y114959D01*
Y115447D02*
Y116792D01*
X911300Y114523D02*
Y114959D01*
Y115175D02*
Y116544D01*
X911400Y114523D02*
Y116295D01*
X911500Y114523D02*
Y116047D01*
X911600Y114369D02*
Y115799D01*
X911700Y114094D02*
Y115551D01*
X911800Y113819D02*
Y115302D01*
X911900Y113544D02*
Y115054D01*
X912000Y113269D02*
Y114806D01*
X912100Y113050D02*
Y114558D01*
X912200Y113050D02*
Y114309D01*
X912300Y113050D02*
Y114061D01*
X912400Y113050D02*
Y113813D01*
X912500Y113050D02*
Y113564D01*
X912600Y113050D02*
Y113316D01*
X912700Y113050D02*
Y113068D01*
*
G04 PC Custom Flashes*
G04 Layer Name D3005H100_A.PCB - flashes*
%LPD*%
*
*
G04 PC Circuitry*
G04 Layer Name D3005H100_A.PCB - circuitry*
%LPD*%
*
G54D10*
X503000Y520600D02*
X503000D01*
X508000Y525600*
Y593000*
X565000Y650000*
X503000Y598000D02*
X550000Y645000D01*
X550000*
G54D11*
X780000Y425000D02*
X822500D01*
X842500Y445000*
Y450000*
X463000Y520600D02*
X483100Y500500D01*
X564500*
X595000Y470000*
X660000*
X665000Y475000*
X483000Y530600D02*
Y612500D01*
X543000Y672500*
X570000*
X493000Y520600D02*
X509600Y504000D01*
X606000*
X622500Y487500*
Y477500*
X503000Y530600D02*
Y598000D01*
X513000Y520600D02*
X526100Y507500D01*
X607500*
X635000Y480000*
X660000*
X513000Y530600D02*
Y588000D01*
X555000Y630000*
X555000*
X523000Y530600D02*
Y550500D01*
X523000*
X572500Y600000*
Y650000*
X533000Y520600D02*
X543600Y510000D01*
X610000*
X635000Y485000*
X675000*
X543000Y520600D02*
X551100Y512500D01*
X612500*
X635000Y490000*
X670000*
X553000Y530600D02*
Y568000D01*
X563000Y530600D02*
Y568000D01*
X590000Y595000*
Y650000*
X553000Y568000D02*
X585000Y600000D01*
Y645000*
X572500Y650000D02*
X557500Y665000D01*
X545000*
X593000Y659000D02*
Y650000D01*
Y530600*
X580000Y660000D02*
X580000D01*
X590000Y650000*
X542500Y690000D02*
X570000D01*
X603000Y657000*
Y530600*
X547500Y685000D02*
X567000D01*
X593000Y659000*
G54D12*
X980000Y510000D02*
Y510500D01*
Y510000D02*
X980500D01*
X980000D02*
Y509500D01*
Y510000D02*
X979500D01*
X981500D02*
X986500D01*
X980000Y508500D02*
Y505100D01*
Y511500D02*
Y516000D01*
X974000Y510000D02*
X978500D01*
X983000D02*
G75*
G03X983000I-3000J0D01*
G01X982000D02*
G03X982000I-2000J0D01*
G01X655000Y740000D02*
Y740500D01*
Y740000D02*
X655500D01*
X655000D02*
Y739500D01*
Y740000D02*
X654500D01*
X656500D02*
X661500D01*
X655000Y738500D02*
Y735100D01*
Y741500D02*
Y746000D01*
X649000Y740000D02*
X653500D01*
X658000D02*
G03X658000I-3000J0D01*
G01X657000D02*
G03X657000I-2000J0D01*
G01X380000D02*
Y740500D01*
Y740000D02*
X380500D01*
X380000D02*
Y739500D01*
Y740000D02*
X379500D01*
X381500D02*
X386500D01*
X380000Y738500D02*
Y735100D01*
Y741500D02*
Y746000D01*
X374000Y740000D02*
X378500D01*
X383000D02*
G03X383000I-3000J0D01*
G01X382000D02*
G03X382000I-2000J0D01*
G54D13*
G01X171500Y242500D03*
Y256300D03*
X170000Y117500D03*
Y131300D03*
X175000Y373000D03*
Y386800D03*
G54D14*
X464850Y337600D03*
X445150D03*
X464850Y212600D03*
X445150D03*
X784850Y337600D03*
X765150D03*
X784850Y212600D03*
X765150D03*
G54D17*
X950000Y373000D03*
X905000D03*
X950000Y320000D03*
X905000D03*
X573000Y242500D03*
X528000D03*
X573000Y117500D03*
X528000D03*
G54D19*
X620000Y310000D03*
X610000D03*
G54D20*
X126000Y290000D03*
Y300000D03*
Y330000D03*
Y340000D03*
Y350000D03*
Y165000D03*
Y175000D03*
Y205000D03*
Y215000D03*
Y225000D03*
Y385000D03*
Y395000D03*
Y425000D03*
Y435000D03*
Y445000D03*
G54D21*
X613000Y520600D03*
X603000Y530600D03*
Y520600D03*
X593000Y530600D03*
Y520600D03*
X583000Y530600D03*
Y520600D03*
X573000Y530600D03*
Y520600D03*
X563000Y530600D03*
Y520600D03*
X553000Y530600D03*
Y520600D03*
X543000Y530600D03*
Y520600D03*
X533000Y530600D03*
Y520600D03*
X523000Y530600D03*
Y520600D03*
X513000Y530600D03*
Y520600D03*
X503000Y530600D03*
Y520600D03*
X493000Y530600D03*
Y520600D03*
X483000Y530600D03*
Y520600D03*
X473000Y530600D03*
Y520600D03*
X463000Y530600D03*
Y520600D03*
X453000Y530600D03*
Y520600D03*
X443000Y530600D03*
Y520600D03*
X433000Y530600D03*
Y520600D03*
X423000Y530600D03*
Y520600D03*
G54D22*
X945000Y285000D03*
G54D28*
X293750Y341000D03*
X306250D03*
X293750Y279000D03*
X306250D03*
X293750Y216000D03*
X306250D03*
X293750Y154000D03*
X306250D03*
X320000Y118500D02*
X323500Y115000D01*
X340500*
X389500Y164000*
Y215000*
X476500Y117500D02*
X488200D01*
X604500Y233800*
X620600*
X216000Y131000D02*
X242000Y105000D01*
X306500*
X320000Y118500*
X137500Y182500D02*
X189000Y131000D01*
X216000*
X200000Y185000D02*
X218500Y166500D01*
X300000*
X476000Y225500D02*
Y242000D01*
X476500Y242500*
X476000Y225500D02*
X486500Y215000D01*
X567500*
X606000Y253500*
X620600*
X753500Y220500D02*
X758500Y225500D01*
X857000*
X875000Y207500*
Y196000*
X907000Y164000*
X950500*
X885000Y210500D02*
X892500D01*
X906000Y224000*
Y282500*
X216000Y256000D02*
X225000Y247000D01*
Y225000*
X237500Y212500*
X256500*
X287500Y243500*
X320000*
X323000Y240500*
X340500*
X340500*
X390000Y290000*
Y340000*
X682500Y242500D02*
X851000D01*
X883000Y210500*
X885000*
X660000Y253500D02*
X859500D01*
X877500Y235500*
X137500Y307500D02*
X189000Y256000D01*
X216000*
X112500Y323500D02*
Y403000D01*
X120000Y410500*
X169000*
X242500Y484000*
X300000*
X112500Y323500D02*
X118500Y317500D01*
X127500*
X137500Y307500*
X208500Y354000D02*
X409500D01*
X476000Y287500*
X607500*
X627500Y267500*
X646000*
X660000Y253500*
G54D32*
X850150Y120600D03*
Y208800D03*
X552250Y469150D03*
X535750Y490850D03*
Y469150D03*
G54D34*
X640300Y124500D03*
Y284300D03*
G54D44*
X125000Y125000D03*
Y475000D03*
X945000Y125000D03*
Y475000D03*
G54D57*
X552250Y490850D03*
G54D59*
G54D61*
X100000Y100000D02*
Y100500D01*
Y100000D02*
X100500D01*
X100000D02*
Y99500D01*
Y100000D02*
X99500D01*
X101500D02*
X106500D01*
X100000Y98500D02*
Y95100D01*
Y101500D02*
Y106000D01*
X94000Y100000D02*
X98500D01*
X103000D02*
G03X103000I-3000J0D01*
G01X102000D02*
G03X102000I-2000J0D01*
G01X90000Y90000D02*
Y90500D01*
Y90000D02*
X90500D01*
X90000D02*
Y89500D01*
Y90000D02*
X89500D01*
X91500D02*
X96500D01*
X90000Y88500D02*
Y85100D01*
Y91500D02*
Y96000D01*
X84000Y90000D02*
X88500D01*
X93000D02*
G03X93000I-3000J0D01*
G01X92000D02*
G03X92000I-2000J0D01*
G54D65*
G01X288000Y143000D02*
X316000D01*
X328500Y155500*
X342000*
X412500Y150000D02*
X452500Y110000D01*
X494500*
X512000Y127500*
X542500*
X552500Y117500*
X573000*
X126000Y225000D02*
X140000D01*
X150000Y215000*
X225000*
X235000Y205000*
X258500*
X277000Y223500*
X317000*
X330000Y210500*
X355000*
X245000Y222500D02*
Y285000D01*
X252500Y222500D02*
Y274000D01*
X255000Y276500*
Y285000*
X237500Y222500D02*
Y277500D01*
X240000Y280000*
X464850Y212600D02*
Y245000D01*
X489850Y270000*
X567500*
X288000Y268000D02*
X314500D01*
X327000Y280500*
X342000*
X412500Y275500D02*
X418000Y270000D01*
X470000*
X477500Y277500*
X568500*
X573000Y273000*
Y270000*
Y242500*
X537500Y260000D02*
Y230500D01*
X542500Y265000D02*
Y225000D01*
X126000Y350000D02*
X140500D01*
X150500Y340000*
X265000*
X273500Y348500*
X319500*
X332500Y335500*
X355000*
X464850Y337600D02*
X464950Y337500D01*
X575000*
X515000Y330500D02*
X547500D01*
X590000Y330000D02*
X723500D01*
X732500Y321000*
Y294500*
X765500Y261500*
X788000*
X582500Y324000D02*
X718000D01*
X826500Y336500D02*
X863000Y300000D01*
X910000*
X940000Y270000*
X232500Y362500D02*
X265000D01*
X276500Y372000D02*
X281000Y376500D01*
X353500*
X357500Y372500*
X265000Y362500D02*
X330000D01*
X260000Y367500D02*
X325000D01*
X369000*
X404000Y402500*
X425000*
X395000Y385000D02*
X412500Y367500D01*
X719000*
X728000Y358500*
X770000*
X420000Y397500D02*
X450000D01*
X462500Y385000*
X765000*
X445000D02*
X452500Y377500D01*
X623000*
X590500Y372500D02*
X827500D01*
X855000Y400000*
X623000Y377500D02*
X825000D01*
X847500Y400000*
X214000Y439000D02*
Y405500D01*
X238500Y381000*
X359000*
X362500Y377500*
X214000Y439000D02*
X222500Y447500D01*
X253000Y436000D02*
Y409500D01*
X257500Y405000*
X315000*
X253000Y436000D02*
X256000Y439000D01*
X222500Y415000D02*
X241500D01*
X260000Y410000D02*
X332500D01*
X415000D02*
X418000Y407000D01*
X457000*
X466000Y398000*
X497500*
X504500Y405000*
X613000*
X425000Y402500D02*
X453000D01*
X465500Y390000*
X612500*
X622500Y400000*
X492000Y405000D02*
X503500Y416500D01*
X842000*
X847500Y411000*
X472000Y402500D02*
X490000Y420500D01*
X743000*
X755000Y432500*
X822500*
X467000Y407500D02*
X484000Y424500D01*
X606500*
X629000Y447000*
X707500*
X715000Y439500*
X622500Y400000D02*
X645000D01*
X655000Y410000*
X724500*
X716000Y428000D02*
X737000D01*
X230000Y440000D02*
X245000D01*
X255000Y450000*
X415000*
X427500Y462500*
X487500*
X492500Y457500*
X727500*
X443000Y442500D02*
X477000D01*
X472000Y457500D02*
X485000D01*
X490000Y452500*
X592500*
X467000D02*
X482000D01*
X487000Y447500*
X587500*
X462000D02*
X480500D01*
X485500Y442500*
X582500*
X727500Y457500D02*
X774500D01*
X415000Y480000D02*
X564000D01*
X582500Y461500*
X721500*
X727500Y467500*
G54D66*
X660000Y174700D02*
X670500D01*
X677200Y168000*
X402500Y236000D02*
Y150000D01*
X448000Y104500*
X650200*
X677200Y131500*
Y168000*
X200000Y310000D02*
X218500Y291500D01*
X300000*
X905000Y320000D02*
X929500Y295500D01*
X944500*
X945000Y295000*
X216000Y119000D03*
X340500Y115000D03*
X216000Y140500D03*
Y131000D03*
Y152500D03*
X288000Y143000D03*
X323000Y141000D03*
X338000D03*
X402500Y140000D03*
X412500Y150000D03*
X701500Y159500D03*
X714000D03*
X137500Y182500D03*
X442000Y179500D03*
X526500Y171500D03*
X514500D03*
X885000Y199500D03*
X937500Y190000D03*
X950500Y164000D03*
X245000Y222500D03*
X252500D03*
X237500D03*
X265000Y203500D03*
X365500Y215000D03*
X355000Y210500D03*
X389500Y215000D03*
X537500Y230500D03*
X542500Y225000D03*
X753500Y220500D03*
X877500Y224500D03*
X885000Y210500D03*
X877500Y235500D03*
X216000Y244000D03*
Y265500D03*
Y256000D03*
Y277500D03*
X288000Y268000D03*
X322500Y266000D03*
X338000D03*
X340500Y240500D03*
X402500Y265000D03*
X412500Y275500D03*
X567500Y270000D03*
X537500Y260000D03*
X542500Y265000D03*
X682500Y242500D03*
X788000Y261500D03*
X847500Y262500D03*
X926000D03*
X940000Y270000D03*
X137500Y307500D03*
X250000Y280000D03*
X240000D03*
X245000Y285000D03*
X255000D03*
X442000Y304500D03*
X526500Y296500D03*
X514500D03*
X576500Y310000D03*
X701500Y285000D03*
X713500Y290000D03*
X785000Y305500D03*
X906000Y282500D03*
X264000Y328500D03*
X365000Y340000D03*
X355000Y335500D03*
X390000Y340000D03*
X515000Y330500D03*
X547500D03*
X590000Y330000D03*
X582500Y324000D03*
X575000Y337500D03*
X655000Y338500D03*
Y350000D03*
X718000Y324000D03*
X738500Y329500D03*
X770000Y358500D03*
X844000Y337000D03*
X826500Y336500D03*
X232500Y362500D03*
X245500Y372000D03*
X276500D03*
X265000Y362500D03*
X260000Y367500D03*
X283500Y372000D03*
X330000Y362500D03*
X325000Y367500D03*
X296500Y393500D03*
X310500Y372000D03*
X357500Y372500D03*
X362500Y377500D03*
X361500Y393500D03*
X348500Y372000D03*
X395000Y385000D03*
X420000Y397500D03*
X573000Y396000D03*
X590500Y372500D03*
X597000Y396000D03*
X623000Y377500D03*
X655000Y362500D03*
X765000Y385000D03*
X740000Y366500D03*
X790000Y387000D03*
X803000Y362000D03*
X884000Y376500D03*
X241500Y415000D03*
X256000Y439000D03*
X260000Y410000D03*
X330000Y432000D03*
X315000Y405000D03*
X332500Y410000D03*
X415000D03*
X425000Y402500D03*
X452000Y437500D03*
X440000Y412000D03*
X492000Y405000D03*
X472000Y402500D03*
X467000Y407500D03*
X522000Y412000D03*
X509500D03*
X572500Y437500D03*
X560500Y412000D03*
X613000Y405000D03*
X622500Y400000D03*
X642500Y412000D03*
X630000D03*
X715000Y439500D03*
X724500Y410000D03*
X737000Y438500D03*
Y428000D03*
X787000Y408000D03*
X780000Y425000D03*
X847500Y411000D03*
X822500Y432500D03*
X847500Y400000D03*
X815000Y405000D03*
X855000Y400000D03*
X888000Y403500D03*
X872500Y427500D03*
X861000Y408000D03*
X222500Y447500D03*
X300000Y476000D03*
X330000Y443000D03*
X397500Y469000D03*
Y477500D03*
X443000Y442500D03*
X472000Y457500D03*
X467000Y452500D03*
X462000Y447500D03*
X477000Y442500D03*
X477500Y472500D03*
X523000D03*
X587500Y447500D03*
X582500Y442500D03*
X592500Y452500D03*
X665000Y475000D03*
X690000D03*
X727500Y467500D03*
Y457500D03*
X737000Y451500D03*
X774500Y457500D03*
X802500Y469500D03*
X826000Y445000D03*
X842500Y450000D03*
X197000Y488000D03*
X300000Y484000D03*
X415000Y480000D03*
X660000D03*
X675000Y485000D03*
X670000Y490000D03*
X745500Y488000D03*
X802500Y480500D03*
X555000Y630000D03*
X570000Y672500D03*
X550000Y645000D03*
X565000Y650000D03*
X545000Y665000D03*
X580000Y660000D03*
X585000Y645000D03*
X525000Y707500D03*
Y715000D03*
X542500Y690000D03*
X547500Y685000D03*
X595000Y692500D03*
X617500Y702500D03*
X610000Y722500D03*
G54D70*
X613000Y530600D03*
G54D71*
X660000Y155000D03*
X860000Y145000D03*
G54D72*
X640300Y155000D03*
X620600D03*
X660000Y174700D03*
X640300D03*
X620600D03*
X660000Y194400D03*
X640300D03*
X620600D03*
X660000Y214100D03*
X640300D03*
X620600D03*
X660000Y233800D03*
X640300D03*
X620600D03*
X660000Y253500D03*
X640300D03*
X620600D03*
X840300Y145000D03*
X860000Y164700D03*
X840300D03*
X860000Y184400D03*
X840300D03*
G54D73*
X945000Y295000D03*
G54D74*
X190000Y310000D03*
X200000D03*
X190000Y185000D03*
X200000D03*
G54D75*
X126000Y280000D03*
Y155000D03*
Y375000D03*
G54D76*
X445150Y280500D03*
X455000D03*
X464850D03*
X445150Y155500D03*
X455000D03*
X464850D03*
X765150Y280500D03*
X775000D03*
X784850D03*
X765150Y155500D03*
X775000D03*
X784850D03*
G54D77*
X429000Y310028D03*
X481000Y310000D03*
X429000Y185028D03*
X481000Y185000D03*
X749000Y310028D03*
X801000Y310000D03*
X749000Y185028D03*
X801000Y185000D03*
G54D78*
X300000Y291500D03*
Y310000D03*
Y328500D03*
Y166500D03*
Y185000D03*
Y203500D03*
G54D79*
X852500Y485000D03*
X402500Y111000D03*
X320000Y118500D03*
X115000Y245000D03*
X208500Y354000D03*
X205000Y425000D03*
X189500Y450000D03*
X342000Y280500D03*
X476500Y242500D03*
X342000Y155500D03*
X476500Y117500D03*
X267500Y472500D03*
X270000Y315000D03*
Y190000D03*
X598000Y487500D03*
X445000Y385000D03*
X230000Y440000D03*
X245000Y455000D03*
X270000Y280000D03*
Y260000D03*
Y240000D03*
Y155000D03*
X716000Y428000D03*
X270000Y135000D03*
Y115000D03*
X685000Y439000D03*
X222500Y415000D03*
X190000Y405000D03*
X402500Y236000D03*
X320000Y243500D03*
X137500Y260000D03*
X622500Y477500D03*
G54D80*
X403800Y524900D03*
Y717800D03*
X632100Y524900D03*
Y717800D03*
G74*
X0Y0D02*
M02*
