*
*
G04 PADS VX.2.2 Build Number: 7607494 generated Gerber (RS-274-X) file*
G04 PC Version=2.1*
*
%IN "D3005H100_A.PCB"*%
*
%MOIN*%
*
%FSLAX35Y35*%
*
*
*
*
G04 PC Standard Apertures*
*
*
G04 Thermal Relief Aperture macro.*
%AMTER*
1,1,$1,0,0*
1,0,$1-$2,0,0*
21,0,$3,$4,0,0,45*
21,0,$3,$4,0,0,135*
%
*
*
G04 Annular Aperture macro.*
%AMANN*
1,1,$1,0,0*
1,0,$2,0,0*
%
*
*
G04 Odd Aperture macro.*
%AMODD*
1,1,$1,0,0*
1,0,$1-0.005,0,0*
%
*
*
G04 PC Custom Aperture Macros*
*
*
*
*
*
*
G04 PC Aperture Table*
*
%ADD010C,0.01*%
%ADD012C,0.005*%
%ADD014C,0.1*%
%ADD015C,0.08*%
%ADD017C,0.12*%
%ADD021C,0.06*%
%ADD022C,0.07*%
%ADD032C,0.11*%
%ADD034C,0.13*%
%ADD036O,0.08X0.11*%
%ADD037O,0.11X0.08*%
%ADD052C,0.16*%
%ADD059C,0.001*%
%ADD061C,0.007*%
%ADD073R,0.07X0.07*%
%ADD108R,0.127X0.127*%
%ADD109C,0.127*%
%ADD110C,0.14*%
%ADD111R,0.08X0.08*%
%ADD112R,0.12X0.12*%
%ADD113O,0.09X0.11*%
%ADD114R,0.11X0.08*%
%ADD115O,0.078X0.11*%
%ADD116O,0.081X0.183*%
%ADD117C,0.135*%
%ADD118C,0.095*%
%ADD119C,0.118*%
*
*
*
*
G04 PC Circuitry*
G04 Layer Name D3005H100_A.PCB - circuitry*
%LPD*%
*
G54D59*
G01X896178Y125771D02*
X895260D01*
X894200Y122459*
X894066Y121992*
X893999Y121724*
X893906Y121714*
X893772Y121982*
X893770Y121989*
X893636Y122390*
X893635Y122391*
X892575Y125771*
X891657*
Y121050*
X892227*
Y125085*
X892325Y125100*
X893586Y121050*
X894183*
X895511Y125100*
X895608Y125085*
Y121050*
X896178*
Y125771*
X890753Y122340D02*
X890688Y122728D01*
X890560Y123048*
X890305Y123303*
X889914Y123498*
X889518Y123630*
X888918Y123764*
X888910Y123766*
X888578Y123899*
X888314Y123965*
X888310Y123966*
X888109Y124033*
X888080Y124058*
X888017Y124185*
X887889Y124313*
X887876Y124336*
X887809Y124604*
X887807Y124616*
X887809Y124628*
X887876Y124896*
X887884Y124914*
X888085Y125182*
X888106Y125198*
X888441Y125332*
X888453Y125335*
X888922Y125402*
X888922D02*
X888937D01*
X889339Y125335*
X889349Y125332*
X889684Y125198*
X889701Y125187*
X889968Y124919*
X889982Y124892*
X890042Y124532*
X890611*
X890554Y124870*
X890426Y125191*
X890171Y125446*
X889780Y125641*
X889386Y125772*
X888862Y125838*
X888404Y125773*
X888012Y125642*
X887687Y125447*
X887431Y125191*
X887303Y124870*
X887238Y124549*
X887302Y124231*
X887429Y123976*
X887620Y123785*
X888278Y123390*
X889610Y123057*
X889621Y123054*
X889888Y122920*
X889908Y122903*
X890042Y122702*
X890046Y122693*
X890180Y122358*
X890184Y122339*
Y122138*
X890179Y122116*
X890045Y121848*
X890035Y121835*
X889901Y121701*
X889888Y121692*
X889621Y121558*
X889609Y121554*
X889006Y121420*
X888996Y121419*
X888661*
X888642Y121422*
X888307Y121556*
X888296Y121563*
X888028Y121764*
X888023Y121768*
X887822Y121969*
X887811Y121986*
X887677Y122321*
X887674Y122329*
X887615Y122624*
X887044*
X887102Y122219*
X887298Y121763*
X887557Y121439*
X887945Y121180*
X888469Y121049*
X889062Y120983*
X889520Y121049*
X889914Y121180*
X890303Y121375*
X890559Y121695*
X890688Y122019*
X890753Y122340*
X886468Y125771D02*
X882684D01*
Y125336*
X884241*
X884291Y125286*
Y121050*
X884861*
Y125286*
X884911Y125336*
X886468*
Y125771*
X882700Y125336D02*
Y125771D01*
X882800Y125336D02*
Y125771D01*
X882900Y125336D02*
Y125771D01*
X883000Y125336D02*
Y125771D01*
X883100Y125336D02*
Y125771D01*
X883200Y125336D02*
Y125771D01*
X883300Y125336D02*
Y125771D01*
X883400Y125336D02*
Y125771D01*
X883500Y125336D02*
Y125771D01*
X883600Y125336D02*
Y125771D01*
X883700Y125336D02*
Y125771D01*
X883800Y125336D02*
Y125771D01*
X883900Y125336D02*
Y125771D01*
X884000Y125336D02*
Y125771D01*
X884100Y125336D02*
Y125771D01*
X884200Y125336D02*
Y125771D01*
X884300Y121050D02*
Y125771D01*
X884400Y121050D02*
Y125771D01*
X884500Y121050D02*
Y125771D01*
X884600Y121050D02*
Y125771D01*
X884700Y121050D02*
Y125771D01*
X884800Y121050D02*
Y125771D01*
X884900Y125335D02*
Y125771D01*
X885000Y125336D02*
Y125771D01*
X885100Y125336D02*
Y125771D01*
X885200Y125336D02*
Y125771D01*
X885300Y125336D02*
Y125771D01*
X885400Y125336D02*
Y125771D01*
X885500Y125336D02*
Y125771D01*
X885600Y125336D02*
Y125771D01*
X885700Y125336D02*
Y125771D01*
X885800Y125336D02*
Y125771D01*
X885900Y125336D02*
Y125771D01*
X886000Y125336D02*
Y125771D01*
X886100Y125336D02*
Y125771D01*
X886200Y125336D02*
Y125771D01*
X886300Y125336D02*
Y125771D01*
X886400Y125336D02*
Y125771D01*
X887100Y122234D02*
Y122624D01*
X887200Y121991D02*
Y122624D01*
X887300Y121760D02*
Y122624D01*
Y124242D02*
Y124857D01*
X887400Y121635D02*
Y122624D01*
Y124035D02*
Y125113D01*
X887500Y121510D02*
Y122624D01*
Y123906D02*
Y125260D01*
X887600Y121410D02*
Y122624D01*
Y123806D02*
Y125360D01*
X887700Y121343D02*
Y122263D01*
Y123737D02*
Y125455D01*
X887800Y121277D02*
Y122013D01*
Y123677D02*
Y125515D01*
X887900Y121210D02*
Y121891D01*
Y123617D02*
Y124302D01*
Y124935D02*
Y125575D01*
X888000Y121166D02*
Y121791D01*
Y123557D02*
Y124202D01*
Y125068D02*
Y125635D01*
X888100Y121141D02*
Y121710D01*
Y123497D02*
Y124037D01*
Y125195D02*
Y125671D01*
X888200Y121116D02*
Y121635D01*
Y123437D02*
Y124003D01*
Y125236D02*
Y125704D01*
X888300Y121091D02*
Y121560D01*
Y123385D02*
Y123969D01*
Y125276D02*
Y125738D01*
X888400Y121066D02*
Y121519D01*
Y123360D02*
Y123943D01*
Y125316D02*
Y125771D01*
X888500Y121046D02*
Y121479D01*
Y123335D02*
Y123918D01*
Y125342D02*
Y125786D01*
X888600Y121035D02*
Y121439D01*
Y123310D02*
Y123890D01*
Y125356D02*
Y125801D01*
X888700Y121024D02*
Y121419D01*
Y123285D02*
Y123850D01*
Y125371D02*
Y125815D01*
X888800Y121013D02*
Y121419D01*
Y123260D02*
Y123810D01*
Y125385D02*
Y125829D01*
X888900Y121001D02*
Y121419D01*
Y123235D02*
Y123770D01*
Y125399D02*
Y125833D01*
X889000Y120990D02*
Y121419D01*
Y123210D02*
Y123745D01*
Y125391D02*
Y125821D01*
X889100Y120989D02*
Y121441D01*
Y123185D02*
Y123723D01*
Y125375D02*
Y125808D01*
X889200Y121003D02*
Y121463D01*
Y123160D02*
Y123701D01*
Y125358D02*
Y125796D01*
X889300Y121017D02*
Y121485D01*
Y123135D02*
Y123679D01*
Y125341D02*
Y125783D01*
X889400Y121032D02*
Y121507D01*
Y123110D02*
Y123657D01*
Y125312D02*
Y125768D01*
X889500Y121046D02*
Y121530D01*
Y123085D02*
Y123634D01*
Y125272D02*
Y125734D01*
X889600Y121076D02*
Y121552D01*
Y123060D02*
Y123603D01*
Y125232D02*
Y125701D01*
X889700Y121109D02*
Y121598D01*
Y123014D02*
Y123570D01*
Y125188D02*
Y125668D01*
X889800Y121142D02*
Y121648D01*
Y122964D02*
Y123536D01*
Y125088D02*
Y125631D01*
X889900Y121176D02*
Y121700D01*
Y122912D02*
Y123503D01*
Y124988D02*
Y125581D01*
X890000Y121223D02*
Y121800D01*
Y122764D02*
Y123455D01*
Y124786D02*
Y125531D01*
X890100Y121273D02*
Y121959D01*
Y122559D02*
Y123405D01*
Y124532D02*
Y125481D01*
X890200Y121323D02*
Y123355D01*
Y124532D02*
Y125417D01*
X890300Y121373D02*
Y123305D01*
Y124532D02*
Y125317D01*
X890400Y121496D02*
Y123208D01*
Y124532D02*
Y125217D01*
X890500Y121621D02*
Y123108D01*
Y124532D02*
Y125006D01*
X890600Y121798D02*
Y122948D01*
Y124532D02*
Y124596D01*
X890700Y122076D02*
Y122657D01*
X891700Y121050D02*
Y125771D01*
X891800Y121050D02*
Y125771D01*
X891900Y121050D02*
Y125771D01*
X892000Y121050D02*
Y125771D01*
X892100Y121050D02*
Y125771D01*
X892200Y121050D02*
Y125771D01*
X892300Y125129D02*
Y125771D01*
X892400Y124857D02*
Y125771D01*
X892500Y124536D02*
Y125771D01*
X892600Y124215D02*
Y125691D01*
X892700Y123894D02*
Y125373D01*
X892800Y123573D02*
Y125054D01*
X892900Y123252D02*
Y124735D01*
X893000Y122931D02*
Y124416D01*
X893100Y122610D02*
Y124098D01*
X893200Y122289D02*
Y123779D01*
X893300Y121968D02*
Y123460D01*
X893400Y121647D02*
Y123141D01*
X893500Y121326D02*
Y122823D01*
X893600Y121050D02*
Y122504D01*
X893700Y121050D02*
Y122197D01*
X893800Y121050D02*
Y121927D01*
X893900Y121050D02*
Y121727D01*
X894000Y121050D02*
Y121727D01*
X894100Y121050D02*
Y122110D01*
X894200Y121103D02*
Y122460D01*
X894300Y121408D02*
Y122772D01*
X894400Y121713D02*
Y123085D01*
X894500Y122018D02*
Y123397D01*
X894600Y122323D02*
Y123710D01*
X894700Y122628D02*
Y124022D01*
X894800Y122933D02*
Y124335D01*
X894900Y123238D02*
Y124647D01*
X895000Y123543D02*
Y124960D01*
X895100Y123848D02*
Y125272D01*
X895200Y124153D02*
Y125585D01*
X895300Y124458D02*
Y125771D01*
X895400Y124763D02*
Y125771D01*
X895500Y125068D02*
Y125771D01*
X895600Y125112D02*
Y125771D01*
X895700Y121050D02*
Y125771D01*
X895800Y121050D02*
Y125771D01*
X895900Y121050D02*
Y125771D01*
X896000Y121050D02*
Y125771D01*
X896100Y121050D02*
Y125771D01*
*
G04 PC Custom Flashes*
G04 Layer Name D3005H100_A.PCB - flashes*
%LPD*%
*
*
G04 PC Circuitry*
G04 Layer Name D3005H100_A.PCB - circuitry*
%LPD*%
*
G54D10*
X100000Y100000D02*
X970000D01*
Y500000*
X645900*
Y731600*
X390000*
Y500000*
X100000*
Y100000*
G54D12*
X980000Y510000D02*
Y510500D01*
Y510000D02*
X980500D01*
X980000D02*
Y509500D01*
Y510000D02*
X979500D01*
X981500D02*
X986500D01*
X980000Y508500D02*
Y505100D01*
Y511500D02*
Y516000D01*
X974000Y510000D02*
X978500D01*
X983000D02*
G75*
G03X983000I-3000J0D01*
G01X982000D02*
G03X982000I-2000J0D01*
G01X655000Y740000D02*
Y740500D01*
Y740000D02*
X655500D01*
X655000D02*
Y739500D01*
Y740000D02*
X654500D01*
X656500D02*
X661500D01*
X655000Y738500D02*
Y735100D01*
Y741500D02*
Y746000D01*
X649000Y740000D02*
X653500D01*
X658000D02*
G03X658000I-3000J0D01*
G01X657000D02*
G03X657000I-2000J0D01*
G01X380000D02*
Y740500D01*
Y740000D02*
X380500D01*
X380000D02*
Y739500D01*
Y740000D02*
X379500D01*
X381500D02*
X386500D01*
X380000Y738500D02*
Y735100D01*
Y741500D02*
Y746000D01*
X374000Y740000D02*
X378500D01*
X383000D02*
G03X383000I-3000J0D01*
G01X382000D02*
G03X382000I-2000J0D01*
G54D14*
G01X171500Y242500D03*
Y256300D03*
X170000Y117500D03*
Y131300D03*
X175000Y373000D03*
Y386800D03*
G54D15*
X945000Y285000D03*
G54D17*
X850150Y120600D03*
Y208800D03*
X552250Y469150D03*
X535750Y490850D03*
Y469150D03*
G54D21*
X293750Y341000D03*
X306250D03*
X293750Y279000D03*
X306250D03*
X293750Y216000D03*
X306250D03*
X293750Y154000D03*
X306250D03*
G54D22*
X613000Y520600D03*
X603000Y530600D03*
Y520600D03*
X593000Y530600D03*
Y520600D03*
X583000Y530600D03*
Y520600D03*
X573000Y530600D03*
Y520600D03*
X563000Y530600D03*
Y520600D03*
X553000Y530600D03*
Y520600D03*
X543000Y530600D03*
Y520600D03*
X533000Y530600D03*
Y520600D03*
X523000Y530600D03*
Y520600D03*
X513000Y530600D03*
Y520600D03*
X503000Y530600D03*
Y520600D03*
X493000Y530600D03*
Y520600D03*
X483000Y530600D03*
Y520600D03*
X473000Y530600D03*
Y520600D03*
X463000Y530600D03*
Y520600D03*
X453000Y530600D03*
Y520600D03*
X443000Y530600D03*
Y520600D03*
X433000Y530600D03*
Y520600D03*
X423000Y530600D03*
Y520600D03*
G54D32*
X464850Y337600D03*
X445150D03*
X464850Y212600D03*
X445150D03*
X784850Y337600D03*
X765150D03*
X784850Y212600D03*
X765150D03*
G54D34*
X950000Y373000D03*
X905000D03*
X950000Y320000D03*
X905000D03*
X573000Y242500D03*
X528000D03*
X573000Y117500D03*
X528000D03*
G54D36*
X620000Y310000D03*
X610000D03*
G54D37*
X126000Y290000D03*
Y300000D03*
Y330000D03*
Y340000D03*
Y350000D03*
Y165000D03*
Y175000D03*
Y205000D03*
Y215000D03*
Y225000D03*
Y385000D03*
Y395000D03*
Y425000D03*
Y435000D03*
Y445000D03*
G54D52*
X125000Y125000D03*
Y475000D03*
X945000Y125000D03*
Y475000D03*
G54D59*
G54D61*
X100000Y100000D02*
Y100500D01*
Y100000D02*
X100500D01*
X100000D02*
Y99500D01*
Y100000D02*
X99500D01*
X101500D02*
X106500D01*
X100000Y98500D02*
Y95100D01*
Y101500D02*
Y106000D01*
X94000Y100000D02*
X98500D01*
X103000D02*
G03X103000I-3000J0D01*
G01X102000D02*
G03X102000I-2000J0D01*
G01X90000Y90000D02*
Y90500D01*
Y90000D02*
X90500D01*
X90000D02*
Y89500D01*
Y90000D02*
X89500D01*
X91500D02*
X96500D01*
X90000Y88500D02*
Y85100D01*
Y91500D02*
Y96000D01*
X84000Y90000D02*
X88500D01*
X93000D02*
G03X93000I-3000J0D01*
G01X92000D02*
G03X92000I-2000J0D01*
G54D73*
G01X613000Y530600D03*
G54D108*
X660000Y155000D03*
X860000Y145000D03*
G54D109*
X640300Y155000D03*
X620600D03*
X660000Y174700D03*
X640300D03*
X620600D03*
X660000Y194400D03*
X640300D03*
X620600D03*
X660000Y214100D03*
X640300D03*
X620600D03*
X660000Y233800D03*
X640300D03*
X620600D03*
X660000Y253500D03*
X640300D03*
X620600D03*
X840300Y145000D03*
X860000Y164700D03*
X840300D03*
X860000Y184400D03*
X840300D03*
G54D110*
X640300Y124500D03*
Y284300D03*
G54D111*
X945000Y295000D03*
G54D112*
X552250Y490850D03*
G54D113*
X190000Y310000D03*
X200000D03*
X190000Y185000D03*
X200000D03*
G54D114*
X126000Y280000D03*
Y155000D03*
Y375000D03*
G54D115*
X445150Y280500D03*
X455000D03*
X464850D03*
X445150Y155500D03*
X455000D03*
X464850D03*
X765150Y280500D03*
X775000D03*
X784850D03*
X765150Y155500D03*
X775000D03*
X784850D03*
G54D116*
X429000Y310028D03*
X481000Y310000D03*
X429000Y185028D03*
X481000Y185000D03*
X749000Y310028D03*
X801000Y310000D03*
X749000Y185028D03*
X801000Y185000D03*
G54D117*
X300000Y291500D03*
Y310000D03*
Y328500D03*
Y166500D03*
Y185000D03*
Y203500D03*
G54D118*
X852500Y485000D03*
X402500Y111000D03*
X320000Y118500D03*
X115000Y245000D03*
X208500Y354000D03*
X205000Y425000D03*
X189500Y450000D03*
X342000Y280500D03*
X476500Y242500D03*
X342000Y155500D03*
X476500Y117500D03*
X267500Y472500D03*
X270000Y315000D03*
Y190000D03*
X598000Y487500D03*
X445000Y385000D03*
X230000Y440000D03*
X245000Y455000D03*
X270000Y280000D03*
Y260000D03*
Y240000D03*
Y155000D03*
X716000Y428000D03*
X270000Y135000D03*
Y115000D03*
X685000Y439000D03*
X222500Y415000D03*
X190000Y405000D03*
X402500Y236000D03*
X320000Y243500D03*
X137500Y260000D03*
X622500Y477500D03*
G54D119*
X403800Y524900D03*
Y717800D03*
X632100Y524900D03*
Y717800D03*
G74*
X0Y0D02*
M02*
